M48
; DRILL file {KiCad 7.0.10-7.0.10~ubuntu22.04.1} date Sun 04 Feb 2024 21:18:31 -05
; FORMAT={-:-/ absolute / metric / decimal}
; #@! TF.CreationDate,2024-02-04T21:18:31-05:00
; #@! TF.GenerationSoftware,Kicad,Pcbnew,7.0.10-7.0.10~ubuntu22.04.1
; #@! TF.FileFunction,Plated,1,2,PTH
FMAT,2
METRIC
; #@! TA.AperFunction,Plated,PTH,ViaDrill
T1C0.800
; #@! TA.AperFunction,Plated,PTH,ComponentDrill
T2C0.800
; #@! TA.AperFunction,Plated,PTH,ComponentDrill
T3C0.900
; #@! TA.AperFunction,Plated,PTH,ComponentDrill
T4C1.000
; #@! TA.AperFunction,Plated,PTH,ComponentDrill
T5C1.200
; #@! TA.AperFunction,Plated,PTH,ComponentDrill
T6C1.300
; #@! TA.AperFunction,Plated,PTH,ComponentDrill
T7C3.200
%
G90
G05
T1
X6.9Y-39.0
X15.4Y-39.0
X20.7Y-39.21
X20.7Y-27.8
X32.9Y-59.6
X37.787Y-35.787
X37.9Y-44.0
X39.7Y-36.2
X39.7Y-44.0
X41.3Y-8.0
X41.5Y-44.0
X41.5Y-36.2
X46.9Y-59.6
X47.32Y-38.88
X47.32Y-47.62
X48.01Y-23.9
X48.01Y-29.7
X49.9Y-23.91
X49.9Y-29.7
X54.0Y-30.3
X54.0Y-34.9
X57.1Y-8.0
T2
X12.9Y-41.5
X12.9Y-44.0
X13.0Y-23.3
X13.0Y-33.46
X13.4Y-47.32
X13.4Y-57.48
X16.3Y-23.3
X16.3Y-33.46
X18.5Y-41.5
X18.5Y-44.0
X20.0Y-50.72
X20.0Y-60.88
X22.8Y-48.1
X23.3Y-50.7
X23.3Y-60.86
X26.0Y-13.5
X27.8Y-48.1
X29.5Y-50.8
X29.5Y-53.3
X29.5Y-56.5
X29.5Y-59.0
X31.0Y-13.5
X32.7Y-18.2
X35.1Y-46.4
X35.1Y-49.6
X40.5Y-21.0
X40.5Y-26.0
X42.86Y-18.2
X42.9Y-21.4
X45.26Y-46.4
X45.26Y-49.6
X45.34Y-18.2
X47.5Y-49.6
X48.79Y-31.76
X48.79Y-36.76
X51.4Y-37.2
X51.4Y-42.2
X52.0Y-24.5
X52.0Y-29.5
X53.06Y-21.4
X55.5Y-18.2
X57.66Y-49.6
X60.5Y-9.0
X60.5Y-11.5
X60.5Y-14.9
X60.5Y-17.4
X63.94Y-59.67
X69.8Y-33.5
X69.8Y-38.5
X69.81Y-26.2
X69.81Y-31.2
X74.1Y-59.67
T3
X16.7Y-47.42
X16.7Y-57.58
T4
X9.3Y-31.2
X9.3Y-33.74
X35.92Y-52.6
X36.25Y-15.0
X37.19Y-57.68
X37.52Y-9.92
X38.46Y-52.6
X38.79Y-15.0
X39.73Y-57.68
X40.06Y-9.92
X40.59Y-32.13
X41.0Y-52.6
X41.33Y-15.0
X42.27Y-57.68
X42.6Y-9.92
X43.13Y-32.13
X43.54Y-52.6
X43.87Y-15.0
X44.81Y-57.68
X45.14Y-9.92
X45.67Y-32.13
X46.08Y-52.6
X46.41Y-15.0
X47.35Y-57.68
X47.68Y-9.92
X48.62Y-52.6
X48.95Y-15.0
X49.89Y-57.68
X50.22Y-9.92
X51.16Y-52.6
X51.49Y-15.0
X52.43Y-57.68
X52.76Y-9.92
X53.7Y-52.6
X54.03Y-15.0
X60.23Y-56.925
X60.23Y-59.465
T5
X26.3Y-26.2
X26.3Y-40.0
X31.3Y-26.2
X31.3Y-40.0
X58.0Y-26.25
X58.1Y-40.4
X63.0Y-26.25
X63.1Y-40.4
X69.8Y-41.12
X69.8Y-56.36
X69.85Y-8.16
X69.85Y-23.4
T6
X12.5Y-8.5
X12.5Y-13.58
X12.5Y-18.66
X78.1Y-24.76
X78.1Y-29.84
X78.1Y-34.92
X78.1Y-40.0
T7
X8.5Y-59.5
X22.0Y-17.5
X82.5Y-8.5
X82.5Y-59.5
M30
