%TF.GenerationSoftware,KiCad,Pcbnew,6.0.5-a6ca702e91~116~ubuntu20.04.1*%
%TF.CreationDate,2022-06-04T21:49:54-05:00*%
%TF.ProjectId,TDA7294,54444137-3239-4342-9e6b-696361645f70,rev?*%
%TF.SameCoordinates,Original*%
%TF.FileFunction,Copper,L1,Top*%
%TF.FilePolarity,Positive*%
%FSLAX46Y46*%
G04 Gerber Fmt 4.6, Leading zero omitted, Abs format (unit mm)*
G04 Created by KiCad (PCBNEW 6.0.5-a6ca702e91~116~ubuntu20.04.1) date 2022-06-04 21:49:54*
%MOMM*%
%LPD*%
G01*
G04 APERTURE LIST*
%TA.AperFunction,ComponentPad*%
%ADD10C,2.400000*%
%TD*%
%TA.AperFunction,ComponentPad*%
%ADD11R,2.400000X2.400000*%
%TD*%
%TA.AperFunction,ComponentPad*%
%ADD12C,2.600000*%
%TD*%
%TA.AperFunction,ComponentPad*%
%ADD13R,2.600000X2.600000*%
%TD*%
%TA.AperFunction,ComponentPad*%
%ADD14O,1.700000X1.700000*%
%TD*%
%TA.AperFunction,ComponentPad*%
%ADD15R,1.700000X1.700000*%
%TD*%
%TA.AperFunction,ComponentPad*%
%ADD16C,1.600000*%
%TD*%
%TA.AperFunction,ComponentPad*%
%ADD17R,1.600000X1.600000*%
%TD*%
%TA.AperFunction,ComponentPad*%
%ADD18O,1.800000X1.800000*%
%TD*%
%TA.AperFunction,ComponentPad*%
%ADD19R,1.800000X1.800000*%
%TD*%
%TA.AperFunction,ComponentPad*%
%ADD20O,2.400000X2.400000*%
%TD*%
%TA.AperFunction,ComponentPad*%
%ADD21O,1.600000X1.600000*%
%TD*%
%TA.AperFunction,ViaPad*%
%ADD22C,1.600000*%
%TD*%
%TA.AperFunction,ViaPad*%
%ADD23C,1.100000*%
%TD*%
%TA.AperFunction,Conductor*%
%ADD24C,0.800000*%
%TD*%
G04 APERTURE END LIST*
D10*
%TO.P,C15,2*%
%TO.N,GND*%
X133600000Y-65400000D03*
D11*
%TO.P,C15,1*%
%TO.N,/+VS*%
X128600000Y-65400000D03*
%TD*%
D12*
%TO.P,J1,3*%
%TO.N,/+VS*%
X83000000Y-43660000D03*
%TO.P,J1,2*%
%TO.N,GND*%
X83000000Y-38580000D03*
D13*
%TO.P,J1,1*%
%TO.N,/-VS*%
X83000000Y-33500000D03*
%TD*%
D12*
%TO.P,J2,4*%
%TO.N,/OUT1*%
X148600000Y-49760000D03*
%TO.P,J2,3*%
%TO.N,GND*%
X148600000Y-54840000D03*
%TO.P,J2,2*%
X148600000Y-59920000D03*
D13*
%TO.P,J2,1*%
%TO.N,/OUT2*%
X148600000Y-65000000D03*
%TD*%
D14*
%TO.P,J3,3*%
%TO.N,/IN1*%
X112260000Y-58200000D03*
%TO.P,J3,2*%
%TO.N,GND*%
X114800000Y-58200000D03*
D15*
%TO.P,J3,1*%
%TO.N,/IN2*%
X117340000Y-58200000D03*
%TD*%
D16*
%TO.P,C17,2*%
%TO.N,/OUT2*%
X100000000Y-81500000D03*
D17*
%TO.P,C17,1*%
%TO.N,Net-(C17-Pad1)*%
X100000000Y-84000000D03*
%TD*%
D16*
%TO.P,C9,2*%
%TO.N,/OUT1*%
X131000000Y-36500000D03*
D17*
%TO.P,C9,1*%
%TO.N,Net-(C9-Pad1)*%
X131000000Y-34000000D03*
%TD*%
D18*
%TO.P,U2,15*%
%TO.N,/-VS*%
X106420000Y-77600000D03*
%TO.P,U2,14*%
%TO.N,/OUT2*%
X107690000Y-82680000D03*
%TO.P,U2,13*%
%TO.N,/+VS*%
X108960000Y-77600000D03*
%TO.P,U2,12*%
%TO.N,N/C*%
X110230000Y-82680000D03*
%TO.P,U2,11*%
X111500000Y-77600000D03*
%TO.P,U2,10*%
%TO.N,/MUTE*%
X112770000Y-82680000D03*
%TO.P,U2,9*%
%TO.N,/STBY*%
X114040000Y-77600000D03*
%TO.P,U2,8*%
%TO.N,/-VS*%
X115310000Y-82680000D03*
%TO.P,U2,7*%
%TO.N,/+VS*%
X116580000Y-77600000D03*
%TO.P,U2,6*%
%TO.N,Net-(C17-Pad1)*%
X117850000Y-82680000D03*
%TO.P,U2,5*%
%TO.N,N/C*%
X119120000Y-77600000D03*
%TO.P,U2,4*%
%TO.N,GND*%
X120390000Y-82680000D03*
%TO.P,U2,3*%
%TO.N,Net-(C11-Pad1)*%
X121660000Y-77600000D03*
%TO.P,U2,2*%
%TO.N,Net-(R11-Pad1)*%
X122930000Y-82680000D03*
D19*
%TO.P,U2,1*%
%TO.N,GND*%
X124200000Y-77600000D03*
%TD*%
D18*
%TO.P,U1,15*%
%TO.N,/-VS*%
X124530000Y-40000000D03*
%TO.P,U1,14*%
%TO.N,/OUT1*%
X123260000Y-34920000D03*
%TO.P,U1,13*%
%TO.N,/+VS*%
X121990000Y-40000000D03*
%TO.P,U1,12*%
%TO.N,N/C*%
X120720000Y-34920000D03*
%TO.P,U1,11*%
X119450000Y-40000000D03*
%TO.P,U1,10*%
%TO.N,/MUTE*%
X118180000Y-34920000D03*
%TO.P,U1,9*%
%TO.N,/STBY*%
X116910000Y-40000000D03*
%TO.P,U1,8*%
%TO.N,/-VS*%
X115640000Y-34920000D03*
%TO.P,U1,7*%
%TO.N,/+VS*%
X114370000Y-40000000D03*
%TO.P,U1,6*%
%TO.N,Net-(C9-Pad1)*%
X113100000Y-34920000D03*
%TO.P,U1,5*%
%TO.N,N/C*%
X111830000Y-40000000D03*
%TO.P,U1,4*%
%TO.N,GND*%
X110560000Y-34920000D03*
%TO.P,U1,3*%
%TO.N,Net-(C3-Pad1)*%
X109290000Y-40000000D03*
%TO.P,U1,2*%
%TO.N,Net-(R7-Pad1)*%
X108020000Y-34920000D03*
D19*
%TO.P,U1,1*%
%TO.N,GND*%
X106750000Y-40000000D03*
%TD*%
D20*
%TO.P,R13,2*%
%TO.N,/OUT2*%
X140600000Y-82040000D03*
D10*
%TO.P,R13,1*%
%TO.N,Net-(C18-Pad2)*%
X140600000Y-66800000D03*
%TD*%
D21*
%TO.P,R12,2*%
%TO.N,Net-(R11-Pad1)*%
X115760000Y-74600000D03*
D16*
%TO.P,R12,1*%
%TO.N,/OUT2*%
X105600000Y-74600000D03*
%TD*%
D21*
%TO.P,R11,2*%
%TO.N,Net-(C12-Pad1)*%
X105600000Y-71400000D03*
D16*
%TO.P,R11,1*%
%TO.N,Net-(R11-Pad1)*%
X115760000Y-71400000D03*
%TD*%
D21*
%TO.P,R10,2*%
%TO.N,Net-(C11-Pad1)*%
X118000000Y-74600000D03*
D16*
%TO.P,R10,1*%
%TO.N,GND*%
X128160000Y-74600000D03*
%TD*%
D20*
%TO.P,R9,2*%
%TO.N,/OUT1*%
X140600000Y-34160000D03*
D10*
%TO.P,R9,1*%
%TO.N,Net-(C10-Pad2)*%
X140600000Y-49400000D03*
%TD*%
D21*
%TO.P,R8,2*%
%TO.N,Net-(R7-Pad1)*%
X115840000Y-43200000D03*
D16*
%TO.P,R8,1*%
%TO.N,/OUT1*%
X126000000Y-43200000D03*
%TD*%
D21*
%TO.P,R7,2*%
%TO.N,Net-(C4-Pad1)*%
X123560000Y-46400000D03*
D16*
%TO.P,R7,1*%
%TO.N,Net-(R7-Pad1)*%
X113400000Y-46400000D03*
%TD*%
D21*
%TO.P,R6,2*%
%TO.N,Net-(C3-Pad1)*%
X113360000Y-43200000D03*
D16*
%TO.P,R6,1*%
%TO.N,GND*%
X103200000Y-43200000D03*
%TD*%
D21*
%TO.P,R5,2*%
%TO.N,Net-(D1-Pad1)*%
X81200000Y-82360000D03*
D16*
%TO.P,R5,1*%
%TO.N,/MUTE*%
X81200000Y-72200000D03*
%TD*%
D21*
%TO.P,R4,2*%
%TO.N,Net-(JP1-Pad2)*%
X91200000Y-86160000D03*
D16*
%TO.P,R4,1*%
%TO.N,/STBY*%
X91200000Y-76000000D03*
%TD*%
D21*
%TO.P,R3,2*%
%TO.N,Net-(JP1-Pad2)*%
X87600000Y-76040000D03*
D16*
%TO.P,R3,1*%
%TO.N,Net-(D1-Pad1)*%
X87600000Y-86200000D03*
%TD*%
D21*
%TO.P,R2,2*%
%TO.N,/EN*%
X83500000Y-58460000D03*
D16*
%TO.P,R2,1*%
%TO.N,GND*%
X83500000Y-48300000D03*
%TD*%
D21*
%TO.P,R1,2*%
%TO.N,/+VS*%
X86800000Y-48300000D03*
D16*
%TO.P,R1,1*%
%TO.N,/EN*%
X86800000Y-58460000D03*
%TD*%
D14*
%TO.P,JP1,2*%
%TO.N,Net-(JP1-Pad2)*%
X79800000Y-58740000D03*
D15*
%TO.P,JP1,1*%
%TO.N,/EN*%
X79800000Y-56200000D03*
%TD*%
D18*
%TO.P,D1,2*%
%TO.N,/MUTE*%
X84400000Y-72240000D03*
D19*
%TO.P,D1,1*%
%TO.N,Net-(D1-Pad1)*%
X84400000Y-82400000D03*
%TD*%
D16*
%TO.P,C18,2*%
%TO.N,Net-(C18-Pad2)*%
X140600000Y-64200000D03*
%TO.P,C18,1*%
%TO.N,GND*%
X140600000Y-59200000D03*
%TD*%
D10*
%TO.P,C16,2*%
%TO.N,/-VS*%
X96800000Y-65000000D03*
D11*
%TO.P,C16,1*%
%TO.N,GND*%
X101800000Y-65000000D03*
%TD*%
D16*
%TO.P,C14,2*%
%TO.N,GND*%
X97800000Y-73200000D03*
%TO.P,C14,1*%
%TO.N,/-VS*%
X92800000Y-73200000D03*
%TD*%
%TO.P,C13,2*%
%TO.N,GND*%
X121900000Y-62200000D03*
%TO.P,C13,1*%
%TO.N,/+VS*%
X121900000Y-67200000D03*
%TD*%
%TO.P,C12,2*%
%TO.N,GND*%
X100000000Y-78300000D03*
D17*
%TO.P,C12,1*%
%TO.N,Net-(C12-Pad1)*%
X100000000Y-75800000D03*
%TD*%
D16*
%TO.P,C11,2*%
%TO.N,/IN2*%
X118400000Y-66800000D03*
%TO.P,C11,1*%
%TO.N,Net-(C11-Pad1)*%
X118400000Y-71800000D03*
%TD*%
%TO.P,C10,2*%
%TO.N,Net-(C10-Pad2)*%
X140600000Y-52000000D03*
%TO.P,C10,1*%
%TO.N,GND*%
X140600000Y-57000000D03*
%TD*%
D10*
%TO.P,C8,2*%
%TO.N,/-VS*%
X96800000Y-51200000D03*
D11*
%TO.P,C8,1*%
%TO.N,GND*%
X101800000Y-51200000D03*
%TD*%
D10*
%TO.P,C7,2*%
%TO.N,GND*%
X133500000Y-51250000D03*
D11*
%TO.P,C7,1*%
%TO.N,/+VS*%
X128500000Y-51250000D03*
%TD*%
D16*
%TO.P,C6,2*%
%TO.N,GND*%
X101500000Y-38500000D03*
%TO.P,C6,1*%
%TO.N,/-VS*%
X96500000Y-38500000D03*
%TD*%
%TO.P,C5,2*%
%TO.N,GND*%
X122500000Y-54500000D03*
%TO.P,C5,1*%
%TO.N,/+VS*%
X122500000Y-49500000D03*
%TD*%
%TO.P,C4,2*%
%TO.N,GND*%
X131000000Y-39900000D03*
D17*
%TO.P,C4,1*%
%TO.N,Net-(C4-Pad1)*%
X131000000Y-42400000D03*
%TD*%
D16*
%TO.P,C3,2*%
%TO.N,/IN1*%
X111000000Y-51000000D03*
%TO.P,C3,1*%
%TO.N,Net-(C3-Pad1)*%
X111000000Y-46000000D03*
%TD*%
%TO.P,C2,2*%
%TO.N,GND*%
X89000000Y-66500000D03*
D17*
%TO.P,C2,1*%
%TO.N,/STBY*%
X89000000Y-69000000D03*
%TD*%
D16*
%TO.P,C1,2*%
%TO.N,GND*%
X83400000Y-66500000D03*
D17*
%TO.P,C1,1*%
%TO.N,/MUTE*%
X83400000Y-69000000D03*
%TD*%
D22*
%TO.N,/MUTE*%
X120400002Y-48910000D03*
X120400002Y-54700000D03*
D23*
X110200000Y-68999994D03*
X110200000Y-61200054D03*
%TO.N,/STBY*%
X112000000Y-68999988D03*
X112000002Y-61200000D03*
D22*
X118510000Y-54700000D03*
X118510000Y-48900000D03*
D23*
%TO.N,/+VS*%
X108400000Y-69000000D03*
X124500000Y-55300000D03*
X124500000Y-59900004D03*
X108286820Y-60786820D03*
D22*
%TO.N,/-VS*%
X91200008Y-52800000D03*
X91200000Y-64210000D03*
%TO.N,Net-(C9-Pad1)*%
X111800000Y-33000000D03*
X127600000Y-33000000D03*
%TO.N,Net-(C17-Pad1)*%
X117400000Y-84600000D03*
X103400000Y-84600000D03*
%TD*%
D24*
%TO.N,/MUTE*%
X110200000Y-68999994D02*
X110200000Y-61200054D01*
X120400002Y-54700000D02*
X120400002Y-48910000D01*
%TO.N,/STBY*%
X112000000Y-68999988D02*
X112000000Y-64600000D01*
X112000000Y-61200002D02*
X112000002Y-61200000D01*
X112000000Y-64600000D02*
X112000000Y-61200002D01*
X118510000Y-54700000D02*
X118510000Y-48900000D01*
%TO.N,/+VS*%
X124500000Y-55300000D02*
X124500000Y-59900004D01*
X108400000Y-60900000D02*
X108286820Y-60786820D01*
X108400000Y-69000000D02*
X108400000Y-60900000D01*
%TO.N,/-VS*%
X91200008Y-52800000D02*
X91200008Y-64209992D01*
X91200008Y-64209992D02*
X91200000Y-64210000D01*
%TO.N,Net-(C9-Pad1)*%
X111800000Y-33000000D02*
X127600000Y-33000000D01*
%TO.N,Net-(C17-Pad1)*%
X117400000Y-84600000D02*
X103400000Y-84600000D01*
%TD*%
M02*
