%TF.GenerationSoftware,KiCad,Pcbnew,7.0.10-7.0.10~ubuntu22.04.1*%
%TF.CreationDate,2024-02-04T21:18:25-05:00*%
%TF.ProjectId,TDA7294,54444137-3239-4342-9e6b-696361645f70,v1.0.0*%
%TF.SameCoordinates,PX6146580PY3dfd240*%
%TF.FileFunction,Copper,L1,Top*%
%TF.FilePolarity,Positive*%
%FSLAX46Y46*%
G04 Gerber Fmt 4.6, Leading zero omitted, Abs format (unit mm)*
G04 Created by KiCad (PCBNEW 7.0.10-7.0.10~ubuntu22.04.1) date 2024-02-04 21:18:25*
%MOMM*%
%LPD*%
G01*
G04 APERTURE LIST*
%TA.AperFunction,ComponentPad*%
%ADD10R,1.600000X1.600000*%
%TD*%
%TA.AperFunction,ComponentPad*%
%ADD11C,1.600000*%
%TD*%
%TA.AperFunction,ComponentPad*%
%ADD12R,2.400000X2.400000*%
%TD*%
%TA.AperFunction,ComponentPad*%
%ADD13C,2.400000*%
%TD*%
%TA.AperFunction,ComponentPad*%
%ADD14R,1.800000X1.800000*%
%TD*%
%TA.AperFunction,ComponentPad*%
%ADD15O,1.800000X1.800000*%
%TD*%
%TA.AperFunction,ComponentPad*%
%ADD16R,2.600000X2.600000*%
%TD*%
%TA.AperFunction,ComponentPad*%
%ADD17C,2.600000*%
%TD*%
%TA.AperFunction,ComponentPad*%
%ADD18R,1.700000X1.700000*%
%TD*%
%TA.AperFunction,ComponentPad*%
%ADD19O,1.700000X1.700000*%
%TD*%
%TA.AperFunction,ComponentPad*%
%ADD20O,1.600000X1.600000*%
%TD*%
%TA.AperFunction,ComponentPad*%
%ADD21O,2.400000X2.400000*%
%TD*%
%TA.AperFunction,ComponentPad*%
%ADD22C,5.600000*%
%TD*%
%TA.AperFunction,ViaPad*%
%ADD23C,1.600000*%
%TD*%
%TA.AperFunction,ViaPad*%
%ADD24C,1.100000*%
%TD*%
%TA.AperFunction,Conductor*%
%ADD25C,0.800000*%
%TD*%
G04 APERTURE END LIST*
D10*
%TO.P,C1,1*%
%TO.N,/MUTE*%
X12900000Y-44000000D03*
D11*
%TO.P,C1,2*%
%TO.N,GND*%
X12900000Y-41500000D03*
%TD*%
D10*
%TO.P,C2,1*%
%TO.N,/STBY*%
X18500000Y-44000000D03*
D11*
%TO.P,C2,2*%
%TO.N,GND*%
X18500000Y-41500000D03*
%TD*%
%TO.P,C3,1*%
%TO.N,Net-(U1-+)*%
X40500000Y-21000000D03*
%TO.P,C3,2*%
%TO.N,/IN1*%
X40500000Y-26000000D03*
%TD*%
D10*
%TO.P,C4,1*%
%TO.N,Net-(C4-Pad1)*%
X60500000Y-17400000D03*
D11*
%TO.P,C4,2*%
%TO.N,GND*%
X60500000Y-14900000D03*
%TD*%
%TO.P,C5,1*%
%TO.N,/+VS*%
X52000000Y-24500000D03*
%TO.P,C5,2*%
%TO.N,GND*%
X52000000Y-29500000D03*
%TD*%
%TO.P,C6,1*%
%TO.N,/-VS*%
X26000000Y-13500000D03*
%TO.P,C6,2*%
%TO.N,GND*%
X31000000Y-13500000D03*
%TD*%
D12*
%TO.P,C7,1*%
%TO.N,/+VS*%
X58000000Y-26250000D03*
D13*
%TO.P,C7,2*%
%TO.N,GND*%
X63000000Y-26250000D03*
%TD*%
D12*
%TO.P,C8,1*%
%TO.N,GND*%
X31300000Y-26200000D03*
D13*
%TO.P,C8,2*%
%TO.N,/-VS*%
X26300000Y-26200000D03*
%TD*%
D10*
%TO.P,C9,1*%
%TO.N,Net-(U1-BOOT)*%
X60500000Y-9000000D03*
D11*
%TO.P,C9,2*%
%TO.N,/OUT1*%
X60500000Y-11500000D03*
%TD*%
%TO.P,C10,1*%
%TO.N,GND*%
X69810000Y-31200000D03*
%TO.P,C10,2*%
%TO.N,Net-(C10-Pad2)*%
X69810000Y-26200000D03*
%TD*%
%TO.P,C11,1*%
%TO.N,Net-(U2-+)*%
X48790000Y-36760000D03*
%TO.P,C11,2*%
%TO.N,/IN2*%
X48790000Y-31760000D03*
%TD*%
D10*
%TO.P,C12,1*%
%TO.N,Net-(C12-Pad1)*%
X29500000Y-50800000D03*
D11*
%TO.P,C12,2*%
%TO.N,GND*%
X29500000Y-53300000D03*
%TD*%
%TO.P,C13,1*%
%TO.N,/+VS*%
X51400000Y-42200000D03*
%TO.P,C13,2*%
%TO.N,GND*%
X51400000Y-37200000D03*
%TD*%
%TO.P,C14,1*%
%TO.N,/-VS*%
X22800000Y-48100000D03*
%TO.P,C14,2*%
%TO.N,GND*%
X27800000Y-48100000D03*
%TD*%
D12*
%TO.P,C15,1*%
%TO.N,/+VS*%
X58100000Y-40400000D03*
D13*
%TO.P,C15,2*%
%TO.N,GND*%
X63100000Y-40400000D03*
%TD*%
D12*
%TO.P,C16,1*%
%TO.N,GND*%
X31300000Y-40000000D03*
D13*
%TO.P,C16,2*%
%TO.N,/-VS*%
X26300000Y-40000000D03*
%TD*%
D10*
%TO.P,C17,1*%
%TO.N,Net-(U2-BOOT)*%
X29500000Y-59000000D03*
D11*
%TO.P,C17,2*%
%TO.N,/OUT2*%
X29500000Y-56500000D03*
%TD*%
%TO.P,C18,1*%
%TO.N,GND*%
X69800000Y-33500000D03*
%TO.P,C18,2*%
%TO.N,Net-(C18-Pad2)*%
X69800000Y-38500000D03*
%TD*%
D14*
%TO.P,D1,1,K*%
%TO.N,Net-(D1-K)*%
X16700000Y-57580000D03*
D15*
%TO.P,D1,2,A*%
%TO.N,/MUTE*%
X16700000Y-47420000D03*
%TD*%
D16*
%TO.P,J1,1,Pin_1*%
%TO.N,/-VS*%
X12500000Y-8500000D03*
D17*
%TO.P,J1,2,Pin_2*%
%TO.N,GND*%
X12500000Y-13580000D03*
%TO.P,J1,3,Pin_3*%
%TO.N,/+VS*%
X12500000Y-18660000D03*
%TD*%
D16*
%TO.P,J2,1,Pin_1*%
%TO.N,/OUT2*%
X78100000Y-40000000D03*
D17*
%TO.P,J2,2,Pin_2*%
%TO.N,GND*%
X78100000Y-34920000D03*
%TO.P,J2,3,Pin_3*%
X78100000Y-29840000D03*
%TO.P,J2,4,Pin_4*%
%TO.N,/OUT1*%
X78100000Y-24760000D03*
%TD*%
D18*
%TO.P,JP1,1,1*%
%TO.N,/EN*%
X9300000Y-31200000D03*
D19*
%TO.P,JP1,2,2*%
%TO.N,Net-(JP1-Pad2)*%
X9300000Y-33740000D03*
%TD*%
D11*
%TO.P,R1,1*%
%TO.N,/EN*%
X16300000Y-33460000D03*
D20*
%TO.P,R1,2*%
%TO.N,/+VS*%
X16300000Y-23300000D03*
%TD*%
D11*
%TO.P,R2,1*%
%TO.N,GND*%
X13000000Y-23300000D03*
D20*
%TO.P,R2,2*%
%TO.N,/EN*%
X13000000Y-33460000D03*
%TD*%
D11*
%TO.P,R3,1*%
%TO.N,Net-(D1-K)*%
X20000000Y-60880000D03*
D20*
%TO.P,R3,2*%
%TO.N,Net-(JP1-Pad2)*%
X20000000Y-50720000D03*
%TD*%
D11*
%TO.P,R4,1*%
%TO.N,/STBY*%
X23300000Y-50700000D03*
D20*
%TO.P,R4,2*%
%TO.N,Net-(JP1-Pad2)*%
X23300000Y-60860000D03*
%TD*%
D11*
%TO.P,R5,1*%
%TO.N,/MUTE*%
X13400000Y-47320000D03*
D20*
%TO.P,R5,2*%
%TO.N,Net-(D1-K)*%
X13400000Y-57480000D03*
%TD*%
D11*
%TO.P,R6,1*%
%TO.N,GND*%
X32700000Y-18200000D03*
D20*
%TO.P,R6,2*%
%TO.N,Net-(U1-+)*%
X42860000Y-18200000D03*
%TD*%
D11*
%TO.P,R7,1*%
%TO.N,/Sheet6095E24E/brig*%
X42900000Y-21400000D03*
D20*
%TO.P,R7,2*%
%TO.N,Net-(C4-Pad1)*%
X53060000Y-21400000D03*
%TD*%
D11*
%TO.P,R8,1*%
%TO.N,/OUT1*%
X55500000Y-18200000D03*
D20*
%TO.P,R8,2*%
%TO.N,/Sheet6095E24E/brig*%
X45340000Y-18200000D03*
%TD*%
D13*
%TO.P,R9,1*%
%TO.N,Net-(C10-Pad2)*%
X69850000Y-23400000D03*
D21*
%TO.P,R9,2*%
%TO.N,/OUT1*%
X69850000Y-8160000D03*
%TD*%
D11*
%TO.P,R10,1*%
%TO.N,GND*%
X57660000Y-49600000D03*
D20*
%TO.P,R10,2*%
%TO.N,Net-(U2-+)*%
X47500000Y-49600000D03*
%TD*%
D11*
%TO.P,R11,1*%
%TO.N,/sheet60964E77/brig*%
X45260000Y-46400000D03*
D20*
%TO.P,R11,2*%
%TO.N,Net-(C12-Pad1)*%
X35100000Y-46400000D03*
%TD*%
D13*
%TO.P,R13,1*%
%TO.N,Net-(C18-Pad2)*%
X69800000Y-41120000D03*
D21*
%TO.P,R13,2*%
%TO.N,/OUT2*%
X69800000Y-56360000D03*
%TD*%
D14*
%TO.P,U1,1,SGND*%
%TO.N,GND*%
X36250000Y-15000000D03*
D15*
%TO.P,U1,2,-*%
%TO.N,/Sheet6095E24E/brig*%
X37520000Y-9920000D03*
%TO.P,U1,3,+*%
%TO.N,Net-(U1-+)*%
X38790000Y-15000000D03*
%TO.P,U1,4,SIG_GND*%
%TO.N,GND*%
X40060000Y-9920000D03*
%TO.P,U1,5,NC*%
%TO.N,unconnected-(U1-NC-Pad5)*%
X41330000Y-15000000D03*
%TO.P,U1,6,BOOT*%
%TO.N,Net-(U1-BOOT)*%
X42600000Y-9920000D03*
%TO.P,U1,7,+Vs*%
%TO.N,/+VS*%
X43870000Y-15000000D03*
%TO.P,U1,8,-Vs*%
%TO.N,/-VS*%
X45140000Y-9920000D03*
%TO.P,U1,9,STBY*%
%TO.N,/STBY*%
X46410000Y-15000000D03*
%TO.P,U1,10,MUTE*%
%TO.N,/MUTE*%
X47680000Y-9920000D03*
%TO.P,U1,11,NC*%
%TO.N,unconnected-(U1-NC-Pad11)*%
X48950000Y-15000000D03*
%TO.P,U1,12,NC*%
%TO.N,unconnected-(U1-NC-Pad12)*%
X50220000Y-9920000D03*
%TO.P,U1,13,+Vs*%
%TO.N,/+VS*%
X51490000Y-15000000D03*
%TO.P,U1,14*%
%TO.N,/OUT1*%
X52760000Y-9920000D03*
%TO.P,U1,15,-Vs*%
%TO.N,/-VS*%
X54030000Y-15000000D03*
%TD*%
D14*
%TO.P,U2,1,SGND*%
%TO.N,GND*%
X53700000Y-52600000D03*
D15*
%TO.P,U2,2,-*%
%TO.N,/sheet60964E77/brig*%
X52430000Y-57680000D03*
%TO.P,U2,3,+*%
%TO.N,Net-(U2-+)*%
X51160000Y-52600000D03*
%TO.P,U2,4,SIG_GND*%
%TO.N,GND*%
X49890000Y-57680000D03*
%TO.P,U2,5,NC*%
%TO.N,unconnected-(U2-NC-Pad5)*%
X48620000Y-52600000D03*
%TO.P,U2,6,BOOT*%
%TO.N,Net-(U2-BOOT)*%
X47350000Y-57680000D03*
%TO.P,U2,7,+Vs*%
%TO.N,/+VS*%
X46080000Y-52600000D03*
%TO.P,U2,8,-Vs*%
%TO.N,/-VS*%
X44810000Y-57680000D03*
%TO.P,U2,9,STBY*%
%TO.N,/STBY*%
X43540000Y-52600000D03*
%TO.P,U2,10,MUTE*%
%TO.N,/MUTE*%
X42270000Y-57680000D03*
%TO.P,U2,11,NC*%
%TO.N,unconnected-(U2-NC-Pad11)*%
X41000000Y-52600000D03*
%TO.P,U2,12,NC*%
%TO.N,unconnected-(U2-NC-Pad12)*%
X39730000Y-57680000D03*
%TO.P,U2,13,+Vs*%
%TO.N,/+VS*%
X38460000Y-52600000D03*
%TO.P,U2,14*%
%TO.N,/OUT2*%
X37190000Y-57680000D03*
%TO.P,U2,15,-Vs*%
%TO.N,/-VS*%
X35920000Y-52600000D03*
%TD*%
D18*
%TO.P,J3,1,Pin_1*%
%TO.N,/IN2*%
X45670000Y-32130000D03*
D19*
%TO.P,J3,2,Pin_2*%
%TO.N,GND*%
X43130000Y-32130000D03*
%TO.P,J3,3,Pin_3*%
%TO.N,/IN1*%
X40590000Y-32130000D03*
%TD*%
D11*
%TO.P,R12,1*%
%TO.N,/OUT2*%
X35100000Y-49600000D03*
D20*
%TO.P,R12,2*%
%TO.N,/sheet60964E77/brig*%
X45260000Y-49600000D03*
%TD*%
D22*
%TO.P,H3,1,1*%
%TO.N,GND*%
X82500000Y-8500000D03*
%TD*%
%TO.P,H2,1,1*%
%TO.N,GND*%
X8500000Y-59500000D03*
%TD*%
D18*
%TO.P,JP2,1,1*%
%TO.N,/sheet60964E77/brig*%
X60230000Y-56925000D03*
D19*
%TO.P,JP2,2,2*%
%TO.N,Net-(JP2-Pad2)*%
X60230000Y-59465000D03*
%TD*%
D11*
%TO.P,R14,1*%
%TO.N,Net-(JP2-Pad2)*%
X63940000Y-59670000D03*
D20*
%TO.P,R14,2*%
%TO.N,/OUT1*%
X74100000Y-59670000D03*
%TD*%
D22*
%TO.P,H4,1,1*%
%TO.N,GND*%
X22000000Y-17500000D03*
%TD*%
%TO.P,H1,1,1*%
%TO.N,GND*%
X82500000Y-59500000D03*
%TD*%
D23*
%TO.N,GND*%
X6900000Y-39000000D03*
X15400000Y-39000000D03*
%TO.N,/MUTE*%
X49900002Y-23910000D03*
X49900002Y-29700000D03*
D24*
X39700000Y-36200054D03*
X39700000Y-43999994D03*
D23*
%TO.N,/STBY*%
X48010000Y-29700000D03*
D24*
X41500002Y-36200000D03*
D23*
X48010000Y-23900000D03*
D24*
X41500000Y-43999988D03*
%TO.N,/+VS*%
X54000000Y-34900004D03*
X37786820Y-35786820D03*
X54000000Y-30300000D03*
X37900000Y-44000000D03*
D23*
%TO.N,/-VS*%
X20700008Y-27800000D03*
X20700000Y-39210000D03*
%TO.N,Net-(U1-BOOT)*%
X41300000Y-8000000D03*
X57100000Y-8000000D03*
%TO.N,Net-(U2-+)*%
X47320000Y-38880000D03*
X47320000Y-47620000D03*
%TO.N,Net-(U2-BOOT)*%
X32900000Y-59600000D03*
X46900000Y-59600000D03*
%TD*%
D25*
%TO.N,GND*%
X15400000Y-39000000D02*
X6900000Y-39000000D01*
%TO.N,/MUTE*%
X39700000Y-43999994D02*
X39700000Y-36200054D01*
X49900002Y-29700000D02*
X49900002Y-23910000D01*
%TO.N,/STBY*%
X48010000Y-29700000D02*
X48010000Y-23900000D01*
X41500000Y-36200002D02*
X41500002Y-36200000D01*
X41500000Y-39600000D02*
X41500000Y-36200002D01*
X41500000Y-43999988D02*
X41500000Y-39600000D01*
%TO.N,/+VS*%
X37900000Y-44000000D02*
X37900000Y-35900000D01*
X37900000Y-35900000D02*
X37786820Y-35786820D01*
X54000000Y-30300000D02*
X54000000Y-34900004D01*
%TO.N,/-VS*%
X20700008Y-27800000D02*
X20700008Y-39209992D01*
X20700008Y-39209992D02*
X20700000Y-39210000D01*
%TO.N,Net-(U1-BOOT)*%
X41300000Y-8000000D02*
X57100000Y-8000000D01*
%TO.N,Net-(U2-+)*%
X47320000Y-38880000D02*
X47320000Y-47620000D01*
%TO.N,Net-(U2-BOOT)*%
X46900000Y-59600000D02*
X32900000Y-59600000D01*
%TD*%
M02*
