%TF.GenerationSoftware,KiCad,Pcbnew,7.0.10-7.0.10~ubuntu22.04.1*%
%TF.CreationDate,2024-02-04T21:18:26-05:00*%
%TF.ProjectId,TDA7294,54444137-3239-4342-9e6b-696361645f70,v1.0.0*%
%TF.SameCoordinates,PX6146580PY3dfd240*%
%TF.FileFunction,AssemblyDrawing,Top*%
%FSLAX46Y46*%
G04 Gerber Fmt 4.6, Leading zero omitted, Abs format (unit mm)*
G04 Created by KiCad (PCBNEW 7.0.10-7.0.10~ubuntu22.04.1) date 2024-02-04 21:18:26*
%MOMM*%
%LPD*%
G01*
G04 APERTURE LIST*
%ADD10C,0.150000*%
%ADD11C,0.129000*%
%ADD12C,0.100000*%
G04 APERTURE END LIST*
D10*
X13259580Y-42916666D02*
X13307200Y-42964285D01*
X13307200Y-42964285D02*
X13354819Y-43107142D01*
X13354819Y-43107142D02*
X13354819Y-43202380D01*
X13354819Y-43202380D02*
X13307200Y-43345237D01*
X13307200Y-43345237D02*
X13211961Y-43440475D01*
X13211961Y-43440475D02*
X13116723Y-43488094D01*
X13116723Y-43488094D02*
X12926247Y-43535713D01*
X12926247Y-43535713D02*
X12783390Y-43535713D01*
X12783390Y-43535713D02*
X12592914Y-43488094D01*
X12592914Y-43488094D02*
X12497676Y-43440475D01*
X12497676Y-43440475D02*
X12402438Y-43345237D01*
X12402438Y-43345237D02*
X12354819Y-43202380D01*
X12354819Y-43202380D02*
X12354819Y-43107142D01*
X12354819Y-43107142D02*
X12402438Y-42964285D01*
X12402438Y-42964285D02*
X12450057Y-42916666D01*
X13354819Y-41964285D02*
X13354819Y-42535713D01*
X13354819Y-42249999D02*
X12354819Y-42249999D01*
X12354819Y-42249999D02*
X12497676Y-42345237D01*
X12497676Y-42345237D02*
X12592914Y-42440475D01*
X12592914Y-42440475D02*
X12640533Y-42535713D01*
X18859580Y-42916666D02*
X18907200Y-42964285D01*
X18907200Y-42964285D02*
X18954819Y-43107142D01*
X18954819Y-43107142D02*
X18954819Y-43202380D01*
X18954819Y-43202380D02*
X18907200Y-43345237D01*
X18907200Y-43345237D02*
X18811961Y-43440475D01*
X18811961Y-43440475D02*
X18716723Y-43488094D01*
X18716723Y-43488094D02*
X18526247Y-43535713D01*
X18526247Y-43535713D02*
X18383390Y-43535713D01*
X18383390Y-43535713D02*
X18192914Y-43488094D01*
X18192914Y-43488094D02*
X18097676Y-43440475D01*
X18097676Y-43440475D02*
X18002438Y-43345237D01*
X18002438Y-43345237D02*
X17954819Y-43202380D01*
X17954819Y-43202380D02*
X17954819Y-43107142D01*
X17954819Y-43107142D02*
X18002438Y-42964285D01*
X18002438Y-42964285D02*
X18050057Y-42916666D01*
X18050057Y-42535713D02*
X18002438Y-42488094D01*
X18002438Y-42488094D02*
X17954819Y-42392856D01*
X17954819Y-42392856D02*
X17954819Y-42154761D01*
X17954819Y-42154761D02*
X18002438Y-42059523D01*
X18002438Y-42059523D02*
X18050057Y-42011904D01*
X18050057Y-42011904D02*
X18145295Y-41964285D01*
X18145295Y-41964285D02*
X18240533Y-41964285D01*
X18240533Y-41964285D02*
X18383390Y-42011904D01*
X18383390Y-42011904D02*
X18954819Y-42583332D01*
X18954819Y-42583332D02*
X18954819Y-41964285D01*
D11*
X40809240Y-23643333D02*
X40850193Y-23684285D01*
X40850193Y-23684285D02*
X40891145Y-23807143D01*
X40891145Y-23807143D02*
X40891145Y-23889047D01*
X40891145Y-23889047D02*
X40850193Y-24011904D01*
X40850193Y-24011904D02*
X40768288Y-24093809D01*
X40768288Y-24093809D02*
X40686383Y-24134762D01*
X40686383Y-24134762D02*
X40522573Y-24175714D01*
X40522573Y-24175714D02*
X40399716Y-24175714D01*
X40399716Y-24175714D02*
X40235907Y-24134762D01*
X40235907Y-24134762D02*
X40154002Y-24093809D01*
X40154002Y-24093809D02*
X40072097Y-24011904D01*
X40072097Y-24011904D02*
X40031145Y-23889047D01*
X40031145Y-23889047D02*
X40031145Y-23807143D01*
X40031145Y-23807143D02*
X40072097Y-23684285D01*
X40072097Y-23684285D02*
X40113050Y-23643333D01*
X40031145Y-23356666D02*
X40031145Y-22824285D01*
X40031145Y-22824285D02*
X40358764Y-23110952D01*
X40358764Y-23110952D02*
X40358764Y-22988095D01*
X40358764Y-22988095D02*
X40399716Y-22906190D01*
X40399716Y-22906190D02*
X40440669Y-22865238D01*
X40440669Y-22865238D02*
X40522573Y-22824285D01*
X40522573Y-22824285D02*
X40727335Y-22824285D01*
X40727335Y-22824285D02*
X40809240Y-22865238D01*
X40809240Y-22865238D02*
X40850193Y-22906190D01*
X40850193Y-22906190D02*
X40891145Y-22988095D01*
X40891145Y-22988095D02*
X40891145Y-23233809D01*
X40891145Y-23233809D02*
X40850193Y-23315714D01*
X40850193Y-23315714D02*
X40809240Y-23356666D01*
D10*
X60859580Y-16316666D02*
X60907200Y-16364285D01*
X60907200Y-16364285D02*
X60954819Y-16507142D01*
X60954819Y-16507142D02*
X60954819Y-16602380D01*
X60954819Y-16602380D02*
X60907200Y-16745237D01*
X60907200Y-16745237D02*
X60811961Y-16840475D01*
X60811961Y-16840475D02*
X60716723Y-16888094D01*
X60716723Y-16888094D02*
X60526247Y-16935713D01*
X60526247Y-16935713D02*
X60383390Y-16935713D01*
X60383390Y-16935713D02*
X60192914Y-16888094D01*
X60192914Y-16888094D02*
X60097676Y-16840475D01*
X60097676Y-16840475D02*
X60002438Y-16745237D01*
X60002438Y-16745237D02*
X59954819Y-16602380D01*
X59954819Y-16602380D02*
X59954819Y-16507142D01*
X59954819Y-16507142D02*
X60002438Y-16364285D01*
X60002438Y-16364285D02*
X60050057Y-16316666D01*
X60288152Y-15459523D02*
X60954819Y-15459523D01*
X59907200Y-15697618D02*
X60621485Y-15935713D01*
X60621485Y-15935713D02*
X60621485Y-15316666D01*
D11*
X52309240Y-27143333D02*
X52350193Y-27184285D01*
X52350193Y-27184285D02*
X52391145Y-27307143D01*
X52391145Y-27307143D02*
X52391145Y-27389047D01*
X52391145Y-27389047D02*
X52350193Y-27511904D01*
X52350193Y-27511904D02*
X52268288Y-27593809D01*
X52268288Y-27593809D02*
X52186383Y-27634762D01*
X52186383Y-27634762D02*
X52022573Y-27675714D01*
X52022573Y-27675714D02*
X51899716Y-27675714D01*
X51899716Y-27675714D02*
X51735907Y-27634762D01*
X51735907Y-27634762D02*
X51654002Y-27593809D01*
X51654002Y-27593809D02*
X51572097Y-27511904D01*
X51572097Y-27511904D02*
X51531145Y-27389047D01*
X51531145Y-27389047D02*
X51531145Y-27307143D01*
X51531145Y-27307143D02*
X51572097Y-27184285D01*
X51572097Y-27184285D02*
X51613050Y-27143333D01*
X51531145Y-26365238D02*
X51531145Y-26774762D01*
X51531145Y-26774762D02*
X51940669Y-26815714D01*
X51940669Y-26815714D02*
X51899716Y-26774762D01*
X51899716Y-26774762D02*
X51858764Y-26692857D01*
X51858764Y-26692857D02*
X51858764Y-26488095D01*
X51858764Y-26488095D02*
X51899716Y-26406190D01*
X51899716Y-26406190D02*
X51940669Y-26365238D01*
X51940669Y-26365238D02*
X52022573Y-26324285D01*
X52022573Y-26324285D02*
X52227335Y-26324285D01*
X52227335Y-26324285D02*
X52309240Y-26365238D01*
X52309240Y-26365238D02*
X52350193Y-26406190D01*
X52350193Y-26406190D02*
X52391145Y-26488095D01*
X52391145Y-26488095D02*
X52391145Y-26692857D01*
X52391145Y-26692857D02*
X52350193Y-26774762D01*
X52350193Y-26774762D02*
X52309240Y-26815714D01*
X28356666Y-13809240D02*
X28315714Y-13850193D01*
X28315714Y-13850193D02*
X28192856Y-13891145D01*
X28192856Y-13891145D02*
X28110952Y-13891145D01*
X28110952Y-13891145D02*
X27988095Y-13850193D01*
X27988095Y-13850193D02*
X27906190Y-13768288D01*
X27906190Y-13768288D02*
X27865237Y-13686383D01*
X27865237Y-13686383D02*
X27824285Y-13522573D01*
X27824285Y-13522573D02*
X27824285Y-13399716D01*
X27824285Y-13399716D02*
X27865237Y-13235907D01*
X27865237Y-13235907D02*
X27906190Y-13154002D01*
X27906190Y-13154002D02*
X27988095Y-13072097D01*
X27988095Y-13072097D02*
X28110952Y-13031145D01*
X28110952Y-13031145D02*
X28192856Y-13031145D01*
X28192856Y-13031145D02*
X28315714Y-13072097D01*
X28315714Y-13072097D02*
X28356666Y-13113050D01*
X29093809Y-13031145D02*
X28929999Y-13031145D01*
X28929999Y-13031145D02*
X28848095Y-13072097D01*
X28848095Y-13072097D02*
X28807142Y-13113050D01*
X28807142Y-13113050D02*
X28725237Y-13235907D01*
X28725237Y-13235907D02*
X28684285Y-13399716D01*
X28684285Y-13399716D02*
X28684285Y-13727335D01*
X28684285Y-13727335D02*
X28725237Y-13809240D01*
X28725237Y-13809240D02*
X28766190Y-13850193D01*
X28766190Y-13850193D02*
X28848095Y-13891145D01*
X28848095Y-13891145D02*
X29011904Y-13891145D01*
X29011904Y-13891145D02*
X29093809Y-13850193D01*
X29093809Y-13850193D02*
X29134761Y-13809240D01*
X29134761Y-13809240D02*
X29175714Y-13727335D01*
X29175714Y-13727335D02*
X29175714Y-13522573D01*
X29175714Y-13522573D02*
X29134761Y-13440669D01*
X29134761Y-13440669D02*
X29093809Y-13399716D01*
X29093809Y-13399716D02*
X29011904Y-13358764D01*
X29011904Y-13358764D02*
X28848095Y-13358764D01*
X28848095Y-13358764D02*
X28766190Y-13399716D01*
X28766190Y-13399716D02*
X28725237Y-13440669D01*
X28725237Y-13440669D02*
X28684285Y-13522573D01*
D10*
X60333333Y-26609580D02*
X60285714Y-26657200D01*
X60285714Y-26657200D02*
X60142857Y-26704819D01*
X60142857Y-26704819D02*
X60047619Y-26704819D01*
X60047619Y-26704819D02*
X59904762Y-26657200D01*
X59904762Y-26657200D02*
X59809524Y-26561961D01*
X59809524Y-26561961D02*
X59761905Y-26466723D01*
X59761905Y-26466723D02*
X59714286Y-26276247D01*
X59714286Y-26276247D02*
X59714286Y-26133390D01*
X59714286Y-26133390D02*
X59761905Y-25942914D01*
X59761905Y-25942914D02*
X59809524Y-25847676D01*
X59809524Y-25847676D02*
X59904762Y-25752438D01*
X59904762Y-25752438D02*
X60047619Y-25704819D01*
X60047619Y-25704819D02*
X60142857Y-25704819D01*
X60142857Y-25704819D02*
X60285714Y-25752438D01*
X60285714Y-25752438D02*
X60333333Y-25800057D01*
X60666667Y-25704819D02*
X61333333Y-25704819D01*
X61333333Y-25704819D02*
X60904762Y-26704819D01*
X28633333Y-26559580D02*
X28585714Y-26607200D01*
X28585714Y-26607200D02*
X28442857Y-26654819D01*
X28442857Y-26654819D02*
X28347619Y-26654819D01*
X28347619Y-26654819D02*
X28204762Y-26607200D01*
X28204762Y-26607200D02*
X28109524Y-26511961D01*
X28109524Y-26511961D02*
X28061905Y-26416723D01*
X28061905Y-26416723D02*
X28014286Y-26226247D01*
X28014286Y-26226247D02*
X28014286Y-26083390D01*
X28014286Y-26083390D02*
X28061905Y-25892914D01*
X28061905Y-25892914D02*
X28109524Y-25797676D01*
X28109524Y-25797676D02*
X28204762Y-25702438D01*
X28204762Y-25702438D02*
X28347619Y-25654819D01*
X28347619Y-25654819D02*
X28442857Y-25654819D01*
X28442857Y-25654819D02*
X28585714Y-25702438D01*
X28585714Y-25702438D02*
X28633333Y-25750057D01*
X29204762Y-26083390D02*
X29109524Y-26035771D01*
X29109524Y-26035771D02*
X29061905Y-25988152D01*
X29061905Y-25988152D02*
X29014286Y-25892914D01*
X29014286Y-25892914D02*
X29014286Y-25845295D01*
X29014286Y-25845295D02*
X29061905Y-25750057D01*
X29061905Y-25750057D02*
X29109524Y-25702438D01*
X29109524Y-25702438D02*
X29204762Y-25654819D01*
X29204762Y-25654819D02*
X29395238Y-25654819D01*
X29395238Y-25654819D02*
X29490476Y-25702438D01*
X29490476Y-25702438D02*
X29538095Y-25750057D01*
X29538095Y-25750057D02*
X29585714Y-25845295D01*
X29585714Y-25845295D02*
X29585714Y-25892914D01*
X29585714Y-25892914D02*
X29538095Y-25988152D01*
X29538095Y-25988152D02*
X29490476Y-26035771D01*
X29490476Y-26035771D02*
X29395238Y-26083390D01*
X29395238Y-26083390D02*
X29204762Y-26083390D01*
X29204762Y-26083390D02*
X29109524Y-26131009D01*
X29109524Y-26131009D02*
X29061905Y-26178628D01*
X29061905Y-26178628D02*
X29014286Y-26273866D01*
X29014286Y-26273866D02*
X29014286Y-26464342D01*
X29014286Y-26464342D02*
X29061905Y-26559580D01*
X29061905Y-26559580D02*
X29109524Y-26607200D01*
X29109524Y-26607200D02*
X29204762Y-26654819D01*
X29204762Y-26654819D02*
X29395238Y-26654819D01*
X29395238Y-26654819D02*
X29490476Y-26607200D01*
X29490476Y-26607200D02*
X29538095Y-26559580D01*
X29538095Y-26559580D02*
X29585714Y-26464342D01*
X29585714Y-26464342D02*
X29585714Y-26273866D01*
X29585714Y-26273866D02*
X29538095Y-26178628D01*
X29538095Y-26178628D02*
X29490476Y-26131009D01*
X29490476Y-26131009D02*
X29395238Y-26083390D01*
X60859580Y-10416666D02*
X60907200Y-10464285D01*
X60907200Y-10464285D02*
X60954819Y-10607142D01*
X60954819Y-10607142D02*
X60954819Y-10702380D01*
X60954819Y-10702380D02*
X60907200Y-10845237D01*
X60907200Y-10845237D02*
X60811961Y-10940475D01*
X60811961Y-10940475D02*
X60716723Y-10988094D01*
X60716723Y-10988094D02*
X60526247Y-11035713D01*
X60526247Y-11035713D02*
X60383390Y-11035713D01*
X60383390Y-11035713D02*
X60192914Y-10988094D01*
X60192914Y-10988094D02*
X60097676Y-10940475D01*
X60097676Y-10940475D02*
X60002438Y-10845237D01*
X60002438Y-10845237D02*
X59954819Y-10702380D01*
X59954819Y-10702380D02*
X59954819Y-10607142D01*
X59954819Y-10607142D02*
X60002438Y-10464285D01*
X60002438Y-10464285D02*
X60050057Y-10416666D01*
X60954819Y-9940475D02*
X60954819Y-9749999D01*
X60954819Y-9749999D02*
X60907200Y-9654761D01*
X60907200Y-9654761D02*
X60859580Y-9607142D01*
X60859580Y-9607142D02*
X60716723Y-9511904D01*
X60716723Y-9511904D02*
X60526247Y-9464285D01*
X60526247Y-9464285D02*
X60145295Y-9464285D01*
X60145295Y-9464285D02*
X60050057Y-9511904D01*
X60050057Y-9511904D02*
X60002438Y-9559523D01*
X60002438Y-9559523D02*
X59954819Y-9654761D01*
X59954819Y-9654761D02*
X59954819Y-9845237D01*
X59954819Y-9845237D02*
X60002438Y-9940475D01*
X60002438Y-9940475D02*
X60050057Y-9988094D01*
X60050057Y-9988094D02*
X60145295Y-10035713D01*
X60145295Y-10035713D02*
X60383390Y-10035713D01*
X60383390Y-10035713D02*
X60478628Y-9988094D01*
X60478628Y-9988094D02*
X60526247Y-9940475D01*
X60526247Y-9940475D02*
X60573866Y-9845237D01*
X60573866Y-9845237D02*
X60573866Y-9654761D01*
X60573866Y-9654761D02*
X60526247Y-9559523D01*
X60526247Y-9559523D02*
X60478628Y-9511904D01*
X60478628Y-9511904D02*
X60383390Y-9464285D01*
D11*
X70119240Y-29252857D02*
X70160193Y-29293809D01*
X70160193Y-29293809D02*
X70201145Y-29416667D01*
X70201145Y-29416667D02*
X70201145Y-29498571D01*
X70201145Y-29498571D02*
X70160193Y-29621428D01*
X70160193Y-29621428D02*
X70078288Y-29703333D01*
X70078288Y-29703333D02*
X69996383Y-29744286D01*
X69996383Y-29744286D02*
X69832573Y-29785238D01*
X69832573Y-29785238D02*
X69709716Y-29785238D01*
X69709716Y-29785238D02*
X69545907Y-29744286D01*
X69545907Y-29744286D02*
X69464002Y-29703333D01*
X69464002Y-29703333D02*
X69382097Y-29621428D01*
X69382097Y-29621428D02*
X69341145Y-29498571D01*
X69341145Y-29498571D02*
X69341145Y-29416667D01*
X69341145Y-29416667D02*
X69382097Y-29293809D01*
X69382097Y-29293809D02*
X69423050Y-29252857D01*
X70201145Y-28433809D02*
X70201145Y-28925238D01*
X70201145Y-28679524D02*
X69341145Y-28679524D01*
X69341145Y-28679524D02*
X69464002Y-28761428D01*
X69464002Y-28761428D02*
X69545907Y-28843333D01*
X69545907Y-28843333D02*
X69586859Y-28925238D01*
X69341145Y-27901428D02*
X69341145Y-27819523D01*
X69341145Y-27819523D02*
X69382097Y-27737619D01*
X69382097Y-27737619D02*
X69423050Y-27696666D01*
X69423050Y-27696666D02*
X69504954Y-27655714D01*
X69504954Y-27655714D02*
X69668764Y-27614761D01*
X69668764Y-27614761D02*
X69873526Y-27614761D01*
X69873526Y-27614761D02*
X70037335Y-27655714D01*
X70037335Y-27655714D02*
X70119240Y-27696666D01*
X70119240Y-27696666D02*
X70160193Y-27737619D01*
X70160193Y-27737619D02*
X70201145Y-27819523D01*
X70201145Y-27819523D02*
X70201145Y-27901428D01*
X70201145Y-27901428D02*
X70160193Y-27983333D01*
X70160193Y-27983333D02*
X70119240Y-28024285D01*
X70119240Y-28024285D02*
X70037335Y-28065238D01*
X70037335Y-28065238D02*
X69873526Y-28106190D01*
X69873526Y-28106190D02*
X69668764Y-28106190D01*
X69668764Y-28106190D02*
X69504954Y-28065238D01*
X69504954Y-28065238D02*
X69423050Y-28024285D01*
X69423050Y-28024285D02*
X69382097Y-27983333D01*
X69382097Y-27983333D02*
X69341145Y-27901428D01*
X49099240Y-34812857D02*
X49140193Y-34853809D01*
X49140193Y-34853809D02*
X49181145Y-34976667D01*
X49181145Y-34976667D02*
X49181145Y-35058571D01*
X49181145Y-35058571D02*
X49140193Y-35181428D01*
X49140193Y-35181428D02*
X49058288Y-35263333D01*
X49058288Y-35263333D02*
X48976383Y-35304286D01*
X48976383Y-35304286D02*
X48812573Y-35345238D01*
X48812573Y-35345238D02*
X48689716Y-35345238D01*
X48689716Y-35345238D02*
X48525907Y-35304286D01*
X48525907Y-35304286D02*
X48444002Y-35263333D01*
X48444002Y-35263333D02*
X48362097Y-35181428D01*
X48362097Y-35181428D02*
X48321145Y-35058571D01*
X48321145Y-35058571D02*
X48321145Y-34976667D01*
X48321145Y-34976667D02*
X48362097Y-34853809D01*
X48362097Y-34853809D02*
X48403050Y-34812857D01*
X49181145Y-33993809D02*
X49181145Y-34485238D01*
X49181145Y-34239524D02*
X48321145Y-34239524D01*
X48321145Y-34239524D02*
X48444002Y-34321428D01*
X48444002Y-34321428D02*
X48525907Y-34403333D01*
X48525907Y-34403333D02*
X48566859Y-34485238D01*
X49181145Y-33174761D02*
X49181145Y-33666190D01*
X49181145Y-33420476D02*
X48321145Y-33420476D01*
X48321145Y-33420476D02*
X48444002Y-33502380D01*
X48444002Y-33502380D02*
X48525907Y-33584285D01*
X48525907Y-33584285D02*
X48566859Y-33666190D01*
D10*
X29859580Y-52692857D02*
X29907200Y-52740476D01*
X29907200Y-52740476D02*
X29954819Y-52883333D01*
X29954819Y-52883333D02*
X29954819Y-52978571D01*
X29954819Y-52978571D02*
X29907200Y-53121428D01*
X29907200Y-53121428D02*
X29811961Y-53216666D01*
X29811961Y-53216666D02*
X29716723Y-53264285D01*
X29716723Y-53264285D02*
X29526247Y-53311904D01*
X29526247Y-53311904D02*
X29383390Y-53311904D01*
X29383390Y-53311904D02*
X29192914Y-53264285D01*
X29192914Y-53264285D02*
X29097676Y-53216666D01*
X29097676Y-53216666D02*
X29002438Y-53121428D01*
X29002438Y-53121428D02*
X28954819Y-52978571D01*
X28954819Y-52978571D02*
X28954819Y-52883333D01*
X28954819Y-52883333D02*
X29002438Y-52740476D01*
X29002438Y-52740476D02*
X29050057Y-52692857D01*
X29954819Y-51740476D02*
X29954819Y-52311904D01*
X29954819Y-52026190D02*
X28954819Y-52026190D01*
X28954819Y-52026190D02*
X29097676Y-52121428D01*
X29097676Y-52121428D02*
X29192914Y-52216666D01*
X29192914Y-52216666D02*
X29240533Y-52311904D01*
X29050057Y-51359523D02*
X29002438Y-51311904D01*
X29002438Y-51311904D02*
X28954819Y-51216666D01*
X28954819Y-51216666D02*
X28954819Y-50978571D01*
X28954819Y-50978571D02*
X29002438Y-50883333D01*
X29002438Y-50883333D02*
X29050057Y-50835714D01*
X29050057Y-50835714D02*
X29145295Y-50788095D01*
X29145295Y-50788095D02*
X29240533Y-50788095D01*
X29240533Y-50788095D02*
X29383390Y-50835714D01*
X29383390Y-50835714D02*
X29954819Y-51407142D01*
X29954819Y-51407142D02*
X29954819Y-50788095D01*
D11*
X51709240Y-40252857D02*
X51750193Y-40293809D01*
X51750193Y-40293809D02*
X51791145Y-40416667D01*
X51791145Y-40416667D02*
X51791145Y-40498571D01*
X51791145Y-40498571D02*
X51750193Y-40621428D01*
X51750193Y-40621428D02*
X51668288Y-40703333D01*
X51668288Y-40703333D02*
X51586383Y-40744286D01*
X51586383Y-40744286D02*
X51422573Y-40785238D01*
X51422573Y-40785238D02*
X51299716Y-40785238D01*
X51299716Y-40785238D02*
X51135907Y-40744286D01*
X51135907Y-40744286D02*
X51054002Y-40703333D01*
X51054002Y-40703333D02*
X50972097Y-40621428D01*
X50972097Y-40621428D02*
X50931145Y-40498571D01*
X50931145Y-40498571D02*
X50931145Y-40416667D01*
X50931145Y-40416667D02*
X50972097Y-40293809D01*
X50972097Y-40293809D02*
X51013050Y-40252857D01*
X51791145Y-39433809D02*
X51791145Y-39925238D01*
X51791145Y-39679524D02*
X50931145Y-39679524D01*
X50931145Y-39679524D02*
X51054002Y-39761428D01*
X51054002Y-39761428D02*
X51135907Y-39843333D01*
X51135907Y-39843333D02*
X51176859Y-39925238D01*
X50931145Y-39147142D02*
X50931145Y-38614761D01*
X50931145Y-38614761D02*
X51258764Y-38901428D01*
X51258764Y-38901428D02*
X51258764Y-38778571D01*
X51258764Y-38778571D02*
X51299716Y-38696666D01*
X51299716Y-38696666D02*
X51340669Y-38655714D01*
X51340669Y-38655714D02*
X51422573Y-38614761D01*
X51422573Y-38614761D02*
X51627335Y-38614761D01*
X51627335Y-38614761D02*
X51709240Y-38655714D01*
X51709240Y-38655714D02*
X51750193Y-38696666D01*
X51750193Y-38696666D02*
X51791145Y-38778571D01*
X51791145Y-38778571D02*
X51791145Y-39024285D01*
X51791145Y-39024285D02*
X51750193Y-39106190D01*
X51750193Y-39106190D02*
X51709240Y-39147142D01*
X24747142Y-48409240D02*
X24706190Y-48450193D01*
X24706190Y-48450193D02*
X24583332Y-48491145D01*
X24583332Y-48491145D02*
X24501428Y-48491145D01*
X24501428Y-48491145D02*
X24378571Y-48450193D01*
X24378571Y-48450193D02*
X24296666Y-48368288D01*
X24296666Y-48368288D02*
X24255713Y-48286383D01*
X24255713Y-48286383D02*
X24214761Y-48122573D01*
X24214761Y-48122573D02*
X24214761Y-47999716D01*
X24214761Y-47999716D02*
X24255713Y-47835907D01*
X24255713Y-47835907D02*
X24296666Y-47754002D01*
X24296666Y-47754002D02*
X24378571Y-47672097D01*
X24378571Y-47672097D02*
X24501428Y-47631145D01*
X24501428Y-47631145D02*
X24583332Y-47631145D01*
X24583332Y-47631145D02*
X24706190Y-47672097D01*
X24706190Y-47672097D02*
X24747142Y-47713050D01*
X25566190Y-48491145D02*
X25074761Y-48491145D01*
X25320475Y-48491145D02*
X25320475Y-47631145D01*
X25320475Y-47631145D02*
X25238571Y-47754002D01*
X25238571Y-47754002D02*
X25156666Y-47835907D01*
X25156666Y-47835907D02*
X25074761Y-47876859D01*
X26303333Y-47917812D02*
X26303333Y-48491145D01*
X26098571Y-47590193D02*
X25893809Y-48204478D01*
X25893809Y-48204478D02*
X26426190Y-48204478D01*
D10*
X59957142Y-40759580D02*
X59909523Y-40807200D01*
X59909523Y-40807200D02*
X59766666Y-40854819D01*
X59766666Y-40854819D02*
X59671428Y-40854819D01*
X59671428Y-40854819D02*
X59528571Y-40807200D01*
X59528571Y-40807200D02*
X59433333Y-40711961D01*
X59433333Y-40711961D02*
X59385714Y-40616723D01*
X59385714Y-40616723D02*
X59338095Y-40426247D01*
X59338095Y-40426247D02*
X59338095Y-40283390D01*
X59338095Y-40283390D02*
X59385714Y-40092914D01*
X59385714Y-40092914D02*
X59433333Y-39997676D01*
X59433333Y-39997676D02*
X59528571Y-39902438D01*
X59528571Y-39902438D02*
X59671428Y-39854819D01*
X59671428Y-39854819D02*
X59766666Y-39854819D01*
X59766666Y-39854819D02*
X59909523Y-39902438D01*
X59909523Y-39902438D02*
X59957142Y-39950057D01*
X60909523Y-40854819D02*
X60338095Y-40854819D01*
X60623809Y-40854819D02*
X60623809Y-39854819D01*
X60623809Y-39854819D02*
X60528571Y-39997676D01*
X60528571Y-39997676D02*
X60433333Y-40092914D01*
X60433333Y-40092914D02*
X60338095Y-40140533D01*
X61814285Y-39854819D02*
X61338095Y-39854819D01*
X61338095Y-39854819D02*
X61290476Y-40331009D01*
X61290476Y-40331009D02*
X61338095Y-40283390D01*
X61338095Y-40283390D02*
X61433333Y-40235771D01*
X61433333Y-40235771D02*
X61671428Y-40235771D01*
X61671428Y-40235771D02*
X61766666Y-40283390D01*
X61766666Y-40283390D02*
X61814285Y-40331009D01*
X61814285Y-40331009D02*
X61861904Y-40426247D01*
X61861904Y-40426247D02*
X61861904Y-40664342D01*
X61861904Y-40664342D02*
X61814285Y-40759580D01*
X61814285Y-40759580D02*
X61766666Y-40807200D01*
X61766666Y-40807200D02*
X61671428Y-40854819D01*
X61671428Y-40854819D02*
X61433333Y-40854819D01*
X61433333Y-40854819D02*
X61338095Y-40807200D01*
X61338095Y-40807200D02*
X61290476Y-40759580D01*
X28157142Y-40359580D02*
X28109523Y-40407200D01*
X28109523Y-40407200D02*
X27966666Y-40454819D01*
X27966666Y-40454819D02*
X27871428Y-40454819D01*
X27871428Y-40454819D02*
X27728571Y-40407200D01*
X27728571Y-40407200D02*
X27633333Y-40311961D01*
X27633333Y-40311961D02*
X27585714Y-40216723D01*
X27585714Y-40216723D02*
X27538095Y-40026247D01*
X27538095Y-40026247D02*
X27538095Y-39883390D01*
X27538095Y-39883390D02*
X27585714Y-39692914D01*
X27585714Y-39692914D02*
X27633333Y-39597676D01*
X27633333Y-39597676D02*
X27728571Y-39502438D01*
X27728571Y-39502438D02*
X27871428Y-39454819D01*
X27871428Y-39454819D02*
X27966666Y-39454819D01*
X27966666Y-39454819D02*
X28109523Y-39502438D01*
X28109523Y-39502438D02*
X28157142Y-39550057D01*
X29109523Y-40454819D02*
X28538095Y-40454819D01*
X28823809Y-40454819D02*
X28823809Y-39454819D01*
X28823809Y-39454819D02*
X28728571Y-39597676D01*
X28728571Y-39597676D02*
X28633333Y-39692914D01*
X28633333Y-39692914D02*
X28538095Y-39740533D01*
X29966666Y-39454819D02*
X29776190Y-39454819D01*
X29776190Y-39454819D02*
X29680952Y-39502438D01*
X29680952Y-39502438D02*
X29633333Y-39550057D01*
X29633333Y-39550057D02*
X29538095Y-39692914D01*
X29538095Y-39692914D02*
X29490476Y-39883390D01*
X29490476Y-39883390D02*
X29490476Y-40264342D01*
X29490476Y-40264342D02*
X29538095Y-40359580D01*
X29538095Y-40359580D02*
X29585714Y-40407200D01*
X29585714Y-40407200D02*
X29680952Y-40454819D01*
X29680952Y-40454819D02*
X29871428Y-40454819D01*
X29871428Y-40454819D02*
X29966666Y-40407200D01*
X29966666Y-40407200D02*
X30014285Y-40359580D01*
X30014285Y-40359580D02*
X30061904Y-40264342D01*
X30061904Y-40264342D02*
X30061904Y-40026247D01*
X30061904Y-40026247D02*
X30014285Y-39931009D01*
X30014285Y-39931009D02*
X29966666Y-39883390D01*
X29966666Y-39883390D02*
X29871428Y-39835771D01*
X29871428Y-39835771D02*
X29680952Y-39835771D01*
X29680952Y-39835771D02*
X29585714Y-39883390D01*
X29585714Y-39883390D02*
X29538095Y-39931009D01*
X29538095Y-39931009D02*
X29490476Y-40026247D01*
X29859580Y-58392857D02*
X29907200Y-58440476D01*
X29907200Y-58440476D02*
X29954819Y-58583333D01*
X29954819Y-58583333D02*
X29954819Y-58678571D01*
X29954819Y-58678571D02*
X29907200Y-58821428D01*
X29907200Y-58821428D02*
X29811961Y-58916666D01*
X29811961Y-58916666D02*
X29716723Y-58964285D01*
X29716723Y-58964285D02*
X29526247Y-59011904D01*
X29526247Y-59011904D02*
X29383390Y-59011904D01*
X29383390Y-59011904D02*
X29192914Y-58964285D01*
X29192914Y-58964285D02*
X29097676Y-58916666D01*
X29097676Y-58916666D02*
X29002438Y-58821428D01*
X29002438Y-58821428D02*
X28954819Y-58678571D01*
X28954819Y-58678571D02*
X28954819Y-58583333D01*
X28954819Y-58583333D02*
X29002438Y-58440476D01*
X29002438Y-58440476D02*
X29050057Y-58392857D01*
X29954819Y-57440476D02*
X29954819Y-58011904D01*
X29954819Y-57726190D02*
X28954819Y-57726190D01*
X28954819Y-57726190D02*
X29097676Y-57821428D01*
X29097676Y-57821428D02*
X29192914Y-57916666D01*
X29192914Y-57916666D02*
X29240533Y-58011904D01*
X28954819Y-57107142D02*
X28954819Y-56440476D01*
X28954819Y-56440476D02*
X29954819Y-56869047D01*
D11*
X70109240Y-36552857D02*
X70150193Y-36593809D01*
X70150193Y-36593809D02*
X70191145Y-36716667D01*
X70191145Y-36716667D02*
X70191145Y-36798571D01*
X70191145Y-36798571D02*
X70150193Y-36921428D01*
X70150193Y-36921428D02*
X70068288Y-37003333D01*
X70068288Y-37003333D02*
X69986383Y-37044286D01*
X69986383Y-37044286D02*
X69822573Y-37085238D01*
X69822573Y-37085238D02*
X69699716Y-37085238D01*
X69699716Y-37085238D02*
X69535907Y-37044286D01*
X69535907Y-37044286D02*
X69454002Y-37003333D01*
X69454002Y-37003333D02*
X69372097Y-36921428D01*
X69372097Y-36921428D02*
X69331145Y-36798571D01*
X69331145Y-36798571D02*
X69331145Y-36716667D01*
X69331145Y-36716667D02*
X69372097Y-36593809D01*
X69372097Y-36593809D02*
X69413050Y-36552857D01*
X70191145Y-35733809D02*
X70191145Y-36225238D01*
X70191145Y-35979524D02*
X69331145Y-35979524D01*
X69331145Y-35979524D02*
X69454002Y-36061428D01*
X69454002Y-36061428D02*
X69535907Y-36143333D01*
X69535907Y-36143333D02*
X69576859Y-36225238D01*
X69699716Y-35242380D02*
X69658764Y-35324285D01*
X69658764Y-35324285D02*
X69617812Y-35365238D01*
X69617812Y-35365238D02*
X69535907Y-35406190D01*
X69535907Y-35406190D02*
X69494954Y-35406190D01*
X69494954Y-35406190D02*
X69413050Y-35365238D01*
X69413050Y-35365238D02*
X69372097Y-35324285D01*
X69372097Y-35324285D02*
X69331145Y-35242380D01*
X69331145Y-35242380D02*
X69331145Y-35078571D01*
X69331145Y-35078571D02*
X69372097Y-34996666D01*
X69372097Y-34996666D02*
X69413050Y-34955714D01*
X69413050Y-34955714D02*
X69494954Y-34914761D01*
X69494954Y-34914761D02*
X69535907Y-34914761D01*
X69535907Y-34914761D02*
X69617812Y-34955714D01*
X69617812Y-34955714D02*
X69658764Y-34996666D01*
X69658764Y-34996666D02*
X69699716Y-35078571D01*
X69699716Y-35078571D02*
X69699716Y-35242380D01*
X69699716Y-35242380D02*
X69740669Y-35324285D01*
X69740669Y-35324285D02*
X69781621Y-35365238D01*
X69781621Y-35365238D02*
X69863526Y-35406190D01*
X69863526Y-35406190D02*
X70027335Y-35406190D01*
X70027335Y-35406190D02*
X70109240Y-35365238D01*
X70109240Y-35365238D02*
X70150193Y-35324285D01*
X70150193Y-35324285D02*
X70191145Y-35242380D01*
X70191145Y-35242380D02*
X70191145Y-35078571D01*
X70191145Y-35078571D02*
X70150193Y-34996666D01*
X70150193Y-34996666D02*
X70109240Y-34955714D01*
X70109240Y-34955714D02*
X70027335Y-34914761D01*
X70027335Y-34914761D02*
X69863526Y-34914761D01*
X69863526Y-34914761D02*
X69781621Y-34955714D01*
X69781621Y-34955714D02*
X69740669Y-34996666D01*
X69740669Y-34996666D02*
X69699716Y-35078571D01*
D10*
X17154819Y-52848094D02*
X16154819Y-52848094D01*
X16154819Y-52848094D02*
X16154819Y-52609999D01*
X16154819Y-52609999D02*
X16202438Y-52467142D01*
X16202438Y-52467142D02*
X16297676Y-52371904D01*
X16297676Y-52371904D02*
X16392914Y-52324285D01*
X16392914Y-52324285D02*
X16583390Y-52276666D01*
X16583390Y-52276666D02*
X16726247Y-52276666D01*
X16726247Y-52276666D02*
X16916723Y-52324285D01*
X16916723Y-52324285D02*
X17011961Y-52371904D01*
X17011961Y-52371904D02*
X17107200Y-52467142D01*
X17107200Y-52467142D02*
X17154819Y-52609999D01*
X17154819Y-52609999D02*
X17154819Y-52848094D01*
X17154819Y-51324285D02*
X17154819Y-51895713D01*
X17154819Y-51609999D02*
X16154819Y-51609999D01*
X16154819Y-51609999D02*
X16297676Y-51705237D01*
X16297676Y-51705237D02*
X16392914Y-51800475D01*
X16392914Y-51800475D02*
X16440533Y-51895713D01*
X15254819Y-57841904D02*
X14254819Y-57841904D01*
X15254819Y-57270476D02*
X14683390Y-57699047D01*
X14254819Y-57270476D02*
X14826247Y-57841904D01*
X8754819Y-13913333D02*
X9469104Y-13913333D01*
X9469104Y-13913333D02*
X9611961Y-13960952D01*
X9611961Y-13960952D02*
X9707200Y-14056190D01*
X9707200Y-14056190D02*
X9754819Y-14199047D01*
X9754819Y-14199047D02*
X9754819Y-14294285D01*
X9754819Y-12913333D02*
X9754819Y-13484761D01*
X9754819Y-13199047D02*
X8754819Y-13199047D01*
X8754819Y-13199047D02*
X8897676Y-13294285D01*
X8897676Y-13294285D02*
X8992914Y-13389523D01*
X8992914Y-13389523D02*
X9040533Y-13484761D01*
X80754819Y-32713333D02*
X81469104Y-32713333D01*
X81469104Y-32713333D02*
X81611961Y-32760952D01*
X81611961Y-32760952D02*
X81707200Y-32856190D01*
X81707200Y-32856190D02*
X81754819Y-32999047D01*
X81754819Y-32999047D02*
X81754819Y-33094285D01*
X80850057Y-32284761D02*
X80802438Y-32237142D01*
X80802438Y-32237142D02*
X80754819Y-32141904D01*
X80754819Y-32141904D02*
X80754819Y-31903809D01*
X80754819Y-31903809D02*
X80802438Y-31808571D01*
X80802438Y-31808571D02*
X80850057Y-31760952D01*
X80850057Y-31760952D02*
X80945295Y-31713333D01*
X80945295Y-31713333D02*
X81040533Y-31713333D01*
X81040533Y-31713333D02*
X81183390Y-31760952D01*
X81183390Y-31760952D02*
X81754819Y-32332380D01*
X81754819Y-32332380D02*
X81754819Y-31713333D01*
X8754819Y-33303333D02*
X9469104Y-33303333D01*
X9469104Y-33303333D02*
X9611961Y-33350952D01*
X9611961Y-33350952D02*
X9707200Y-33446190D01*
X9707200Y-33446190D02*
X9754819Y-33589047D01*
X9754819Y-33589047D02*
X9754819Y-33684285D01*
X9754819Y-32827142D02*
X8754819Y-32827142D01*
X8754819Y-32827142D02*
X8754819Y-32446190D01*
X8754819Y-32446190D02*
X8802438Y-32350952D01*
X8802438Y-32350952D02*
X8850057Y-32303333D01*
X8850057Y-32303333D02*
X8945295Y-32255714D01*
X8945295Y-32255714D02*
X9088152Y-32255714D01*
X9088152Y-32255714D02*
X9183390Y-32303333D01*
X9183390Y-32303333D02*
X9231009Y-32350952D01*
X9231009Y-32350952D02*
X9278628Y-32446190D01*
X9278628Y-32446190D02*
X9278628Y-32827142D01*
X9754819Y-31303333D02*
X9754819Y-31874761D01*
X9754819Y-31589047D02*
X8754819Y-31589047D01*
X8754819Y-31589047D02*
X8897676Y-31684285D01*
X8897676Y-31684285D02*
X8992914Y-31779523D01*
X8992914Y-31779523D02*
X9040533Y-31874761D01*
X16754819Y-28546666D02*
X16278628Y-28879999D01*
X16754819Y-29118094D02*
X15754819Y-29118094D01*
X15754819Y-29118094D02*
X15754819Y-28737142D01*
X15754819Y-28737142D02*
X15802438Y-28641904D01*
X15802438Y-28641904D02*
X15850057Y-28594285D01*
X15850057Y-28594285D02*
X15945295Y-28546666D01*
X15945295Y-28546666D02*
X16088152Y-28546666D01*
X16088152Y-28546666D02*
X16183390Y-28594285D01*
X16183390Y-28594285D02*
X16231009Y-28641904D01*
X16231009Y-28641904D02*
X16278628Y-28737142D01*
X16278628Y-28737142D02*
X16278628Y-29118094D01*
X16754819Y-27594285D02*
X16754819Y-28165713D01*
X16754819Y-27879999D02*
X15754819Y-27879999D01*
X15754819Y-27879999D02*
X15897676Y-27975237D01*
X15897676Y-27975237D02*
X15992914Y-28070475D01*
X15992914Y-28070475D02*
X16040533Y-28165713D01*
X13454819Y-28546666D02*
X12978628Y-28879999D01*
X13454819Y-29118094D02*
X12454819Y-29118094D01*
X12454819Y-29118094D02*
X12454819Y-28737142D01*
X12454819Y-28737142D02*
X12502438Y-28641904D01*
X12502438Y-28641904D02*
X12550057Y-28594285D01*
X12550057Y-28594285D02*
X12645295Y-28546666D01*
X12645295Y-28546666D02*
X12788152Y-28546666D01*
X12788152Y-28546666D02*
X12883390Y-28594285D01*
X12883390Y-28594285D02*
X12931009Y-28641904D01*
X12931009Y-28641904D02*
X12978628Y-28737142D01*
X12978628Y-28737142D02*
X12978628Y-29118094D01*
X12550057Y-28165713D02*
X12502438Y-28118094D01*
X12502438Y-28118094D02*
X12454819Y-28022856D01*
X12454819Y-28022856D02*
X12454819Y-27784761D01*
X12454819Y-27784761D02*
X12502438Y-27689523D01*
X12502438Y-27689523D02*
X12550057Y-27641904D01*
X12550057Y-27641904D02*
X12645295Y-27594285D01*
X12645295Y-27594285D02*
X12740533Y-27594285D01*
X12740533Y-27594285D02*
X12883390Y-27641904D01*
X12883390Y-27641904D02*
X13454819Y-28213332D01*
X13454819Y-28213332D02*
X13454819Y-27594285D01*
X20454819Y-55966666D02*
X19978628Y-56299999D01*
X20454819Y-56538094D02*
X19454819Y-56538094D01*
X19454819Y-56538094D02*
X19454819Y-56157142D01*
X19454819Y-56157142D02*
X19502438Y-56061904D01*
X19502438Y-56061904D02*
X19550057Y-56014285D01*
X19550057Y-56014285D02*
X19645295Y-55966666D01*
X19645295Y-55966666D02*
X19788152Y-55966666D01*
X19788152Y-55966666D02*
X19883390Y-56014285D01*
X19883390Y-56014285D02*
X19931009Y-56061904D01*
X19931009Y-56061904D02*
X19978628Y-56157142D01*
X19978628Y-56157142D02*
X19978628Y-56538094D01*
X19454819Y-55633332D02*
X19454819Y-55014285D01*
X19454819Y-55014285D02*
X19835771Y-55347618D01*
X19835771Y-55347618D02*
X19835771Y-55204761D01*
X19835771Y-55204761D02*
X19883390Y-55109523D01*
X19883390Y-55109523D02*
X19931009Y-55061904D01*
X19931009Y-55061904D02*
X20026247Y-55014285D01*
X20026247Y-55014285D02*
X20264342Y-55014285D01*
X20264342Y-55014285D02*
X20359580Y-55061904D01*
X20359580Y-55061904D02*
X20407200Y-55109523D01*
X20407200Y-55109523D02*
X20454819Y-55204761D01*
X20454819Y-55204761D02*
X20454819Y-55490475D01*
X20454819Y-55490475D02*
X20407200Y-55585713D01*
X20407200Y-55585713D02*
X20359580Y-55633332D01*
X23754819Y-55946666D02*
X23278628Y-56279999D01*
X23754819Y-56518094D02*
X22754819Y-56518094D01*
X22754819Y-56518094D02*
X22754819Y-56137142D01*
X22754819Y-56137142D02*
X22802438Y-56041904D01*
X22802438Y-56041904D02*
X22850057Y-55994285D01*
X22850057Y-55994285D02*
X22945295Y-55946666D01*
X22945295Y-55946666D02*
X23088152Y-55946666D01*
X23088152Y-55946666D02*
X23183390Y-55994285D01*
X23183390Y-55994285D02*
X23231009Y-56041904D01*
X23231009Y-56041904D02*
X23278628Y-56137142D01*
X23278628Y-56137142D02*
X23278628Y-56518094D01*
X23088152Y-55089523D02*
X23754819Y-55089523D01*
X22707200Y-55327618D02*
X23421485Y-55565713D01*
X23421485Y-55565713D02*
X23421485Y-54946666D01*
X13854819Y-52566666D02*
X13378628Y-52899999D01*
X13854819Y-53138094D02*
X12854819Y-53138094D01*
X12854819Y-53138094D02*
X12854819Y-52757142D01*
X12854819Y-52757142D02*
X12902438Y-52661904D01*
X12902438Y-52661904D02*
X12950057Y-52614285D01*
X12950057Y-52614285D02*
X13045295Y-52566666D01*
X13045295Y-52566666D02*
X13188152Y-52566666D01*
X13188152Y-52566666D02*
X13283390Y-52614285D01*
X13283390Y-52614285D02*
X13331009Y-52661904D01*
X13331009Y-52661904D02*
X13378628Y-52757142D01*
X13378628Y-52757142D02*
X13378628Y-53138094D01*
X12854819Y-51661904D02*
X12854819Y-52138094D01*
X12854819Y-52138094D02*
X13331009Y-52185713D01*
X13331009Y-52185713D02*
X13283390Y-52138094D01*
X13283390Y-52138094D02*
X13235771Y-52042856D01*
X13235771Y-52042856D02*
X13235771Y-51804761D01*
X13235771Y-51804761D02*
X13283390Y-51709523D01*
X13283390Y-51709523D02*
X13331009Y-51661904D01*
X13331009Y-51661904D02*
X13426247Y-51614285D01*
X13426247Y-51614285D02*
X13664342Y-51614285D01*
X13664342Y-51614285D02*
X13759580Y-51661904D01*
X13759580Y-51661904D02*
X13807200Y-51709523D01*
X13807200Y-51709523D02*
X13854819Y-51804761D01*
X13854819Y-51804761D02*
X13854819Y-52042856D01*
X13854819Y-52042856D02*
X13807200Y-52138094D01*
X13807200Y-52138094D02*
X13759580Y-52185713D01*
X37613333Y-18654819D02*
X37280000Y-18178628D01*
X37041905Y-18654819D02*
X37041905Y-17654819D01*
X37041905Y-17654819D02*
X37422857Y-17654819D01*
X37422857Y-17654819D02*
X37518095Y-17702438D01*
X37518095Y-17702438D02*
X37565714Y-17750057D01*
X37565714Y-17750057D02*
X37613333Y-17845295D01*
X37613333Y-17845295D02*
X37613333Y-17988152D01*
X37613333Y-17988152D02*
X37565714Y-18083390D01*
X37565714Y-18083390D02*
X37518095Y-18131009D01*
X37518095Y-18131009D02*
X37422857Y-18178628D01*
X37422857Y-18178628D02*
X37041905Y-18178628D01*
X38470476Y-17654819D02*
X38280000Y-17654819D01*
X38280000Y-17654819D02*
X38184762Y-17702438D01*
X38184762Y-17702438D02*
X38137143Y-17750057D01*
X38137143Y-17750057D02*
X38041905Y-17892914D01*
X38041905Y-17892914D02*
X37994286Y-18083390D01*
X37994286Y-18083390D02*
X37994286Y-18464342D01*
X37994286Y-18464342D02*
X38041905Y-18559580D01*
X38041905Y-18559580D02*
X38089524Y-18607200D01*
X38089524Y-18607200D02*
X38184762Y-18654819D01*
X38184762Y-18654819D02*
X38375238Y-18654819D01*
X38375238Y-18654819D02*
X38470476Y-18607200D01*
X38470476Y-18607200D02*
X38518095Y-18559580D01*
X38518095Y-18559580D02*
X38565714Y-18464342D01*
X38565714Y-18464342D02*
X38565714Y-18226247D01*
X38565714Y-18226247D02*
X38518095Y-18131009D01*
X38518095Y-18131009D02*
X38470476Y-18083390D01*
X38470476Y-18083390D02*
X38375238Y-18035771D01*
X38375238Y-18035771D02*
X38184762Y-18035771D01*
X38184762Y-18035771D02*
X38089524Y-18083390D01*
X38089524Y-18083390D02*
X38041905Y-18131009D01*
X38041905Y-18131009D02*
X37994286Y-18226247D01*
X47813333Y-21854819D02*
X47480000Y-21378628D01*
X47241905Y-21854819D02*
X47241905Y-20854819D01*
X47241905Y-20854819D02*
X47622857Y-20854819D01*
X47622857Y-20854819D02*
X47718095Y-20902438D01*
X47718095Y-20902438D02*
X47765714Y-20950057D01*
X47765714Y-20950057D02*
X47813333Y-21045295D01*
X47813333Y-21045295D02*
X47813333Y-21188152D01*
X47813333Y-21188152D02*
X47765714Y-21283390D01*
X47765714Y-21283390D02*
X47718095Y-21331009D01*
X47718095Y-21331009D02*
X47622857Y-21378628D01*
X47622857Y-21378628D02*
X47241905Y-21378628D01*
X48146667Y-20854819D02*
X48813333Y-20854819D01*
X48813333Y-20854819D02*
X48384762Y-21854819D01*
X50253333Y-18654819D02*
X49920000Y-18178628D01*
X49681905Y-18654819D02*
X49681905Y-17654819D01*
X49681905Y-17654819D02*
X50062857Y-17654819D01*
X50062857Y-17654819D02*
X50158095Y-17702438D01*
X50158095Y-17702438D02*
X50205714Y-17750057D01*
X50205714Y-17750057D02*
X50253333Y-17845295D01*
X50253333Y-17845295D02*
X50253333Y-17988152D01*
X50253333Y-17988152D02*
X50205714Y-18083390D01*
X50205714Y-18083390D02*
X50158095Y-18131009D01*
X50158095Y-18131009D02*
X50062857Y-18178628D01*
X50062857Y-18178628D02*
X49681905Y-18178628D01*
X50824762Y-18083390D02*
X50729524Y-18035771D01*
X50729524Y-18035771D02*
X50681905Y-17988152D01*
X50681905Y-17988152D02*
X50634286Y-17892914D01*
X50634286Y-17892914D02*
X50634286Y-17845295D01*
X50634286Y-17845295D02*
X50681905Y-17750057D01*
X50681905Y-17750057D02*
X50729524Y-17702438D01*
X50729524Y-17702438D02*
X50824762Y-17654819D01*
X50824762Y-17654819D02*
X51015238Y-17654819D01*
X51015238Y-17654819D02*
X51110476Y-17702438D01*
X51110476Y-17702438D02*
X51158095Y-17750057D01*
X51158095Y-17750057D02*
X51205714Y-17845295D01*
X51205714Y-17845295D02*
X51205714Y-17892914D01*
X51205714Y-17892914D02*
X51158095Y-17988152D01*
X51158095Y-17988152D02*
X51110476Y-18035771D01*
X51110476Y-18035771D02*
X51015238Y-18083390D01*
X51015238Y-18083390D02*
X50824762Y-18083390D01*
X50824762Y-18083390D02*
X50729524Y-18131009D01*
X50729524Y-18131009D02*
X50681905Y-18178628D01*
X50681905Y-18178628D02*
X50634286Y-18273866D01*
X50634286Y-18273866D02*
X50634286Y-18464342D01*
X50634286Y-18464342D02*
X50681905Y-18559580D01*
X50681905Y-18559580D02*
X50729524Y-18607200D01*
X50729524Y-18607200D02*
X50824762Y-18654819D01*
X50824762Y-18654819D02*
X51015238Y-18654819D01*
X51015238Y-18654819D02*
X51110476Y-18607200D01*
X51110476Y-18607200D02*
X51158095Y-18559580D01*
X51158095Y-18559580D02*
X51205714Y-18464342D01*
X51205714Y-18464342D02*
X51205714Y-18273866D01*
X51205714Y-18273866D02*
X51158095Y-18178628D01*
X51158095Y-18178628D02*
X51110476Y-18131009D01*
X51110476Y-18131009D02*
X51015238Y-18083390D01*
X70304819Y-15946666D02*
X69828628Y-16279999D01*
X70304819Y-16518094D02*
X69304819Y-16518094D01*
X69304819Y-16518094D02*
X69304819Y-16137142D01*
X69304819Y-16137142D02*
X69352438Y-16041904D01*
X69352438Y-16041904D02*
X69400057Y-15994285D01*
X69400057Y-15994285D02*
X69495295Y-15946666D01*
X69495295Y-15946666D02*
X69638152Y-15946666D01*
X69638152Y-15946666D02*
X69733390Y-15994285D01*
X69733390Y-15994285D02*
X69781009Y-16041904D01*
X69781009Y-16041904D02*
X69828628Y-16137142D01*
X69828628Y-16137142D02*
X69828628Y-16518094D01*
X70304819Y-15470475D02*
X70304819Y-15279999D01*
X70304819Y-15279999D02*
X70257200Y-15184761D01*
X70257200Y-15184761D02*
X70209580Y-15137142D01*
X70209580Y-15137142D02*
X70066723Y-15041904D01*
X70066723Y-15041904D02*
X69876247Y-14994285D01*
X69876247Y-14994285D02*
X69495295Y-14994285D01*
X69495295Y-14994285D02*
X69400057Y-15041904D01*
X69400057Y-15041904D02*
X69352438Y-15089523D01*
X69352438Y-15089523D02*
X69304819Y-15184761D01*
X69304819Y-15184761D02*
X69304819Y-15375237D01*
X69304819Y-15375237D02*
X69352438Y-15470475D01*
X69352438Y-15470475D02*
X69400057Y-15518094D01*
X69400057Y-15518094D02*
X69495295Y-15565713D01*
X69495295Y-15565713D02*
X69733390Y-15565713D01*
X69733390Y-15565713D02*
X69828628Y-15518094D01*
X69828628Y-15518094D02*
X69876247Y-15470475D01*
X69876247Y-15470475D02*
X69923866Y-15375237D01*
X69923866Y-15375237D02*
X69923866Y-15184761D01*
X69923866Y-15184761D02*
X69876247Y-15089523D01*
X69876247Y-15089523D02*
X69828628Y-15041904D01*
X69828628Y-15041904D02*
X69733390Y-14994285D01*
X51937142Y-50054819D02*
X51603809Y-49578628D01*
X51365714Y-50054819D02*
X51365714Y-49054819D01*
X51365714Y-49054819D02*
X51746666Y-49054819D01*
X51746666Y-49054819D02*
X51841904Y-49102438D01*
X51841904Y-49102438D02*
X51889523Y-49150057D01*
X51889523Y-49150057D02*
X51937142Y-49245295D01*
X51937142Y-49245295D02*
X51937142Y-49388152D01*
X51937142Y-49388152D02*
X51889523Y-49483390D01*
X51889523Y-49483390D02*
X51841904Y-49531009D01*
X51841904Y-49531009D02*
X51746666Y-49578628D01*
X51746666Y-49578628D02*
X51365714Y-49578628D01*
X52889523Y-50054819D02*
X52318095Y-50054819D01*
X52603809Y-50054819D02*
X52603809Y-49054819D01*
X52603809Y-49054819D02*
X52508571Y-49197676D01*
X52508571Y-49197676D02*
X52413333Y-49292914D01*
X52413333Y-49292914D02*
X52318095Y-49340533D01*
X53508571Y-49054819D02*
X53603809Y-49054819D01*
X53603809Y-49054819D02*
X53699047Y-49102438D01*
X53699047Y-49102438D02*
X53746666Y-49150057D01*
X53746666Y-49150057D02*
X53794285Y-49245295D01*
X53794285Y-49245295D02*
X53841904Y-49435771D01*
X53841904Y-49435771D02*
X53841904Y-49673866D01*
X53841904Y-49673866D02*
X53794285Y-49864342D01*
X53794285Y-49864342D02*
X53746666Y-49959580D01*
X53746666Y-49959580D02*
X53699047Y-50007200D01*
X53699047Y-50007200D02*
X53603809Y-50054819D01*
X53603809Y-50054819D02*
X53508571Y-50054819D01*
X53508571Y-50054819D02*
X53413333Y-50007200D01*
X53413333Y-50007200D02*
X53365714Y-49959580D01*
X53365714Y-49959580D02*
X53318095Y-49864342D01*
X53318095Y-49864342D02*
X53270476Y-49673866D01*
X53270476Y-49673866D02*
X53270476Y-49435771D01*
X53270476Y-49435771D02*
X53318095Y-49245295D01*
X53318095Y-49245295D02*
X53365714Y-49150057D01*
X53365714Y-49150057D02*
X53413333Y-49102438D01*
X53413333Y-49102438D02*
X53508571Y-49054819D01*
X39537142Y-46854819D02*
X39203809Y-46378628D01*
X38965714Y-46854819D02*
X38965714Y-45854819D01*
X38965714Y-45854819D02*
X39346666Y-45854819D01*
X39346666Y-45854819D02*
X39441904Y-45902438D01*
X39441904Y-45902438D02*
X39489523Y-45950057D01*
X39489523Y-45950057D02*
X39537142Y-46045295D01*
X39537142Y-46045295D02*
X39537142Y-46188152D01*
X39537142Y-46188152D02*
X39489523Y-46283390D01*
X39489523Y-46283390D02*
X39441904Y-46331009D01*
X39441904Y-46331009D02*
X39346666Y-46378628D01*
X39346666Y-46378628D02*
X38965714Y-46378628D01*
X40489523Y-46854819D02*
X39918095Y-46854819D01*
X40203809Y-46854819D02*
X40203809Y-45854819D01*
X40203809Y-45854819D02*
X40108571Y-45997676D01*
X40108571Y-45997676D02*
X40013333Y-46092914D01*
X40013333Y-46092914D02*
X39918095Y-46140533D01*
X41441904Y-46854819D02*
X40870476Y-46854819D01*
X41156190Y-46854819D02*
X41156190Y-45854819D01*
X41156190Y-45854819D02*
X41060952Y-45997676D01*
X41060952Y-45997676D02*
X40965714Y-46092914D01*
X40965714Y-46092914D02*
X40870476Y-46140533D01*
X70254819Y-49382857D02*
X69778628Y-49716190D01*
X70254819Y-49954285D02*
X69254819Y-49954285D01*
X69254819Y-49954285D02*
X69254819Y-49573333D01*
X69254819Y-49573333D02*
X69302438Y-49478095D01*
X69302438Y-49478095D02*
X69350057Y-49430476D01*
X69350057Y-49430476D02*
X69445295Y-49382857D01*
X69445295Y-49382857D02*
X69588152Y-49382857D01*
X69588152Y-49382857D02*
X69683390Y-49430476D01*
X69683390Y-49430476D02*
X69731009Y-49478095D01*
X69731009Y-49478095D02*
X69778628Y-49573333D01*
X69778628Y-49573333D02*
X69778628Y-49954285D01*
X70254819Y-48430476D02*
X70254819Y-49001904D01*
X70254819Y-48716190D02*
X69254819Y-48716190D01*
X69254819Y-48716190D02*
X69397676Y-48811428D01*
X69397676Y-48811428D02*
X69492914Y-48906666D01*
X69492914Y-48906666D02*
X69540533Y-49001904D01*
X69254819Y-48097142D02*
X69254819Y-47478095D01*
X69254819Y-47478095D02*
X69635771Y-47811428D01*
X69635771Y-47811428D02*
X69635771Y-47668571D01*
X69635771Y-47668571D02*
X69683390Y-47573333D01*
X69683390Y-47573333D02*
X69731009Y-47525714D01*
X69731009Y-47525714D02*
X69826247Y-47478095D01*
X69826247Y-47478095D02*
X70064342Y-47478095D01*
X70064342Y-47478095D02*
X70159580Y-47525714D01*
X70159580Y-47525714D02*
X70207200Y-47573333D01*
X70207200Y-47573333D02*
X70254819Y-47668571D01*
X70254819Y-47668571D02*
X70254819Y-47954285D01*
X70254819Y-47954285D02*
X70207200Y-48049523D01*
X70207200Y-48049523D02*
X70159580Y-48097142D01*
X44378095Y-7454819D02*
X44378095Y-8264342D01*
X44378095Y-8264342D02*
X44425714Y-8359580D01*
X44425714Y-8359580D02*
X44473333Y-8407200D01*
X44473333Y-8407200D02*
X44568571Y-8454819D01*
X44568571Y-8454819D02*
X44759047Y-8454819D01*
X44759047Y-8454819D02*
X44854285Y-8407200D01*
X44854285Y-8407200D02*
X44901904Y-8359580D01*
X44901904Y-8359580D02*
X44949523Y-8264342D01*
X44949523Y-8264342D02*
X44949523Y-7454819D01*
X45949523Y-8454819D02*
X45378095Y-8454819D01*
X45663809Y-8454819D02*
X45663809Y-7454819D01*
X45663809Y-7454819D02*
X45568571Y-7597676D01*
X45568571Y-7597676D02*
X45473333Y-7692914D01*
X45473333Y-7692914D02*
X45378095Y-7740533D01*
X44048095Y-58454819D02*
X44048095Y-59264342D01*
X44048095Y-59264342D02*
X44095714Y-59359580D01*
X44095714Y-59359580D02*
X44143333Y-59407200D01*
X44143333Y-59407200D02*
X44238571Y-59454819D01*
X44238571Y-59454819D02*
X44429047Y-59454819D01*
X44429047Y-59454819D02*
X44524285Y-59407200D01*
X44524285Y-59407200D02*
X44571904Y-59359580D01*
X44571904Y-59359580D02*
X44619523Y-59264342D01*
X44619523Y-59264342D02*
X44619523Y-58454819D01*
X45048095Y-58550057D02*
X45095714Y-58502438D01*
X45095714Y-58502438D02*
X45190952Y-58454819D01*
X45190952Y-58454819D02*
X45429047Y-58454819D01*
X45429047Y-58454819D02*
X45524285Y-58502438D01*
X45524285Y-58502438D02*
X45571904Y-58550057D01*
X45571904Y-58550057D02*
X45619523Y-58645295D01*
X45619523Y-58645295D02*
X45619523Y-58740533D01*
X45619523Y-58740533D02*
X45571904Y-58883390D01*
X45571904Y-58883390D02*
X45000476Y-59454819D01*
X45000476Y-59454819D02*
X45619523Y-59454819D01*
X42796666Y-31584819D02*
X42796666Y-32299104D01*
X42796666Y-32299104D02*
X42749047Y-32441961D01*
X42749047Y-32441961D02*
X42653809Y-32537200D01*
X42653809Y-32537200D02*
X42510952Y-32584819D01*
X42510952Y-32584819D02*
X42415714Y-32584819D01*
X43177619Y-31584819D02*
X43796666Y-31584819D01*
X43796666Y-31584819D02*
X43463333Y-31965771D01*
X43463333Y-31965771D02*
X43606190Y-31965771D01*
X43606190Y-31965771D02*
X43701428Y-32013390D01*
X43701428Y-32013390D02*
X43749047Y-32061009D01*
X43749047Y-32061009D02*
X43796666Y-32156247D01*
X43796666Y-32156247D02*
X43796666Y-32394342D01*
X43796666Y-32394342D02*
X43749047Y-32489580D01*
X43749047Y-32489580D02*
X43701428Y-32537200D01*
X43701428Y-32537200D02*
X43606190Y-32584819D01*
X43606190Y-32584819D02*
X43320476Y-32584819D01*
X43320476Y-32584819D02*
X43225238Y-32537200D01*
X43225238Y-32537200D02*
X43177619Y-32489580D01*
X39537142Y-50054819D02*
X39203809Y-49578628D01*
X38965714Y-50054819D02*
X38965714Y-49054819D01*
X38965714Y-49054819D02*
X39346666Y-49054819D01*
X39346666Y-49054819D02*
X39441904Y-49102438D01*
X39441904Y-49102438D02*
X39489523Y-49150057D01*
X39489523Y-49150057D02*
X39537142Y-49245295D01*
X39537142Y-49245295D02*
X39537142Y-49388152D01*
X39537142Y-49388152D02*
X39489523Y-49483390D01*
X39489523Y-49483390D02*
X39441904Y-49531009D01*
X39441904Y-49531009D02*
X39346666Y-49578628D01*
X39346666Y-49578628D02*
X38965714Y-49578628D01*
X40489523Y-50054819D02*
X39918095Y-50054819D01*
X40203809Y-50054819D02*
X40203809Y-49054819D01*
X40203809Y-49054819D02*
X40108571Y-49197676D01*
X40108571Y-49197676D02*
X40013333Y-49292914D01*
X40013333Y-49292914D02*
X39918095Y-49340533D01*
X40870476Y-49150057D02*
X40918095Y-49102438D01*
X40918095Y-49102438D02*
X41013333Y-49054819D01*
X41013333Y-49054819D02*
X41251428Y-49054819D01*
X41251428Y-49054819D02*
X41346666Y-49102438D01*
X41346666Y-49102438D02*
X41394285Y-49150057D01*
X41394285Y-49150057D02*
X41441904Y-49245295D01*
X41441904Y-49245295D02*
X41441904Y-49340533D01*
X41441904Y-49340533D02*
X41394285Y-49483390D01*
X41394285Y-49483390D02*
X40822857Y-50054819D01*
X40822857Y-50054819D02*
X41441904Y-50054819D01*
X81738095Y-8954819D02*
X81738095Y-7954819D01*
X81738095Y-8431009D02*
X82309523Y-8431009D01*
X82309523Y-8954819D02*
X82309523Y-7954819D01*
X82690476Y-7954819D02*
X83309523Y-7954819D01*
X83309523Y-7954819D02*
X82976190Y-8335771D01*
X82976190Y-8335771D02*
X83119047Y-8335771D01*
X83119047Y-8335771D02*
X83214285Y-8383390D01*
X83214285Y-8383390D02*
X83261904Y-8431009D01*
X83261904Y-8431009D02*
X83309523Y-8526247D01*
X83309523Y-8526247D02*
X83309523Y-8764342D01*
X83309523Y-8764342D02*
X83261904Y-8859580D01*
X83261904Y-8859580D02*
X83214285Y-8907200D01*
X83214285Y-8907200D02*
X83119047Y-8954819D01*
X83119047Y-8954819D02*
X82833333Y-8954819D01*
X82833333Y-8954819D02*
X82738095Y-8907200D01*
X82738095Y-8907200D02*
X82690476Y-8859580D01*
X7738095Y-59954819D02*
X7738095Y-58954819D01*
X7738095Y-59431009D02*
X8309523Y-59431009D01*
X8309523Y-59954819D02*
X8309523Y-58954819D01*
X8738095Y-59050057D02*
X8785714Y-59002438D01*
X8785714Y-59002438D02*
X8880952Y-58954819D01*
X8880952Y-58954819D02*
X9119047Y-58954819D01*
X9119047Y-58954819D02*
X9214285Y-59002438D01*
X9214285Y-59002438D02*
X9261904Y-59050057D01*
X9261904Y-59050057D02*
X9309523Y-59145295D01*
X9309523Y-59145295D02*
X9309523Y-59240533D01*
X9309523Y-59240533D02*
X9261904Y-59383390D01*
X9261904Y-59383390D02*
X8690476Y-59954819D01*
X8690476Y-59954819D02*
X9309523Y-59954819D01*
X59684819Y-59028333D02*
X60399104Y-59028333D01*
X60399104Y-59028333D02*
X60541961Y-59075952D01*
X60541961Y-59075952D02*
X60637200Y-59171190D01*
X60637200Y-59171190D02*
X60684819Y-59314047D01*
X60684819Y-59314047D02*
X60684819Y-59409285D01*
X60684819Y-58552142D02*
X59684819Y-58552142D01*
X59684819Y-58552142D02*
X59684819Y-58171190D01*
X59684819Y-58171190D02*
X59732438Y-58075952D01*
X59732438Y-58075952D02*
X59780057Y-58028333D01*
X59780057Y-58028333D02*
X59875295Y-57980714D01*
X59875295Y-57980714D02*
X60018152Y-57980714D01*
X60018152Y-57980714D02*
X60113390Y-58028333D01*
X60113390Y-58028333D02*
X60161009Y-58075952D01*
X60161009Y-58075952D02*
X60208628Y-58171190D01*
X60208628Y-58171190D02*
X60208628Y-58552142D01*
X59780057Y-57599761D02*
X59732438Y-57552142D01*
X59732438Y-57552142D02*
X59684819Y-57456904D01*
X59684819Y-57456904D02*
X59684819Y-57218809D01*
X59684819Y-57218809D02*
X59732438Y-57123571D01*
X59732438Y-57123571D02*
X59780057Y-57075952D01*
X59780057Y-57075952D02*
X59875295Y-57028333D01*
X59875295Y-57028333D02*
X59970533Y-57028333D01*
X59970533Y-57028333D02*
X60113390Y-57075952D01*
X60113390Y-57075952D02*
X60684819Y-57647380D01*
X60684819Y-57647380D02*
X60684819Y-57028333D01*
X68377142Y-60124819D02*
X68043809Y-59648628D01*
X67805714Y-60124819D02*
X67805714Y-59124819D01*
X67805714Y-59124819D02*
X68186666Y-59124819D01*
X68186666Y-59124819D02*
X68281904Y-59172438D01*
X68281904Y-59172438D02*
X68329523Y-59220057D01*
X68329523Y-59220057D02*
X68377142Y-59315295D01*
X68377142Y-59315295D02*
X68377142Y-59458152D01*
X68377142Y-59458152D02*
X68329523Y-59553390D01*
X68329523Y-59553390D02*
X68281904Y-59601009D01*
X68281904Y-59601009D02*
X68186666Y-59648628D01*
X68186666Y-59648628D02*
X67805714Y-59648628D01*
X69329523Y-60124819D02*
X68758095Y-60124819D01*
X69043809Y-60124819D02*
X69043809Y-59124819D01*
X69043809Y-59124819D02*
X68948571Y-59267676D01*
X68948571Y-59267676D02*
X68853333Y-59362914D01*
X68853333Y-59362914D02*
X68758095Y-59410533D01*
X70186666Y-59458152D02*
X70186666Y-60124819D01*
X69948571Y-59077200D02*
X69710476Y-59791485D01*
X69710476Y-59791485D02*
X70329523Y-59791485D01*
X21238095Y-17954819D02*
X21238095Y-16954819D01*
X21238095Y-17431009D02*
X21809523Y-17431009D01*
X21809523Y-17954819D02*
X21809523Y-16954819D01*
X22714285Y-17288152D02*
X22714285Y-17954819D01*
X22476190Y-16907200D02*
X22238095Y-17621485D01*
X22238095Y-17621485D02*
X22857142Y-17621485D01*
X81738095Y-59954819D02*
X81738095Y-58954819D01*
X81738095Y-59431009D02*
X82309523Y-59431009D01*
X82309523Y-59954819D02*
X82309523Y-58954819D01*
X83309523Y-59954819D02*
X82738095Y-59954819D01*
X83023809Y-59954819D02*
X83023809Y-58954819D01*
X83023809Y-58954819D02*
X82928571Y-59097676D01*
X82928571Y-59097676D02*
X82833333Y-59192914D01*
X82833333Y-59192914D02*
X82738095Y-59240533D01*
D12*
%TO.C,C1*%
X11812500Y-44883605D02*
X11812500Y-44383605D01*
X11562500Y-44633605D02*
X12062500Y-44633605D01*
X15400000Y-42750000D02*
G75*
G03*
X10400000Y-42750000I-2500000J0D01*
G01*
X10400000Y-42750000D02*
G75*
G03*
X15400000Y-42750000I2500000J0D01*
G01*
%TO.C,C2*%
X17412500Y-44883605D02*
X17412500Y-44383605D01*
X17162500Y-44633605D02*
X17662500Y-44633605D01*
X21000000Y-42750000D02*
G75*
G03*
X16000000Y-42750000I-2500000J0D01*
G01*
X16000000Y-42750000D02*
G75*
G03*
X21000000Y-42750000I2500000J0D01*
G01*
%TO.C,C3*%
X41450000Y-21350000D02*
X39550000Y-21350000D01*
X39550000Y-21350000D02*
X39550000Y-25650000D01*
X41450000Y-25650000D02*
X41450000Y-21350000D01*
X39550000Y-25650000D02*
X41450000Y-25650000D01*
%TO.C,C4*%
X59412500Y-18283605D02*
X59412500Y-17783605D01*
X59162500Y-18033605D02*
X59662500Y-18033605D01*
X63000000Y-16150000D02*
G75*
G03*
X58000000Y-16150000I-2500000J0D01*
G01*
X58000000Y-16150000D02*
G75*
G03*
X63000000Y-16150000I2500000J0D01*
G01*
%TO.C,C5*%
X52950000Y-24850000D02*
X51050000Y-24850000D01*
X51050000Y-24850000D02*
X51050000Y-29150000D01*
X52950000Y-29150000D02*
X52950000Y-24850000D01*
X51050000Y-29150000D02*
X52950000Y-29150000D01*
%TO.C,C6*%
X26350000Y-12550000D02*
X26350000Y-14450000D01*
X26350000Y-14450000D02*
X30650000Y-14450000D01*
X30650000Y-12550000D02*
X26350000Y-12550000D01*
X30650000Y-14450000D02*
X30650000Y-12550000D01*
%TO.C,C7*%
X54917985Y-23402500D02*
X56217985Y-23402500D01*
X55567985Y-22752500D02*
X55567985Y-24052500D01*
X67000000Y-26250000D02*
G75*
G03*
X54000000Y-26250000I-6500000J0D01*
G01*
X54000000Y-26250000D02*
G75*
G03*
X67000000Y-26250000I6500000J0D01*
G01*
%TO.C,C8*%
X34382015Y-29047500D02*
X33082015Y-29047500D01*
X33732015Y-29697500D02*
X33732015Y-28397500D01*
X35300000Y-26200000D02*
G75*
G03*
X22300000Y-26200000I-6500000J0D01*
G01*
X22300000Y-26200000D02*
G75*
G03*
X35300000Y-26200000I6500000J0D01*
G01*
%TO.C,C9*%
X61587500Y-8116395D02*
X61587500Y-8616395D01*
X61837500Y-8366395D02*
X61337500Y-8366395D01*
X63000000Y-10250000D02*
G75*
G03*
X58000000Y-10250000I-2500000J0D01*
G01*
X58000000Y-10250000D02*
G75*
G03*
X63000000Y-10250000I2500000J0D01*
G01*
%TO.C,C10*%
X68860000Y-30850000D02*
X70760000Y-30850000D01*
X70760000Y-30850000D02*
X70760000Y-26550000D01*
X68860000Y-26550000D02*
X68860000Y-30850000D01*
X70760000Y-26550000D02*
X68860000Y-26550000D01*
%TO.C,C11*%
X47840000Y-36410000D02*
X49740000Y-36410000D01*
X49740000Y-36410000D02*
X49740000Y-32110000D01*
X47840000Y-32110000D02*
X47840000Y-36410000D01*
X49740000Y-32110000D02*
X47840000Y-32110000D01*
%TO.C,C12*%
X30587500Y-49916395D02*
X30587500Y-50416395D01*
X30837500Y-50166395D02*
X30337500Y-50166395D01*
X32000000Y-52050000D02*
G75*
G03*
X27000000Y-52050000I-2500000J0D01*
G01*
X27000000Y-52050000D02*
G75*
G03*
X32000000Y-52050000I2500000J0D01*
G01*
%TO.C,C13*%
X50450000Y-41850000D02*
X52350000Y-41850000D01*
X52350000Y-41850000D02*
X52350000Y-37550000D01*
X50450000Y-37550000D02*
X50450000Y-41850000D01*
X52350000Y-37550000D02*
X50450000Y-37550000D01*
%TO.C,C14*%
X23150000Y-47150000D02*
X23150000Y-49050000D01*
X23150000Y-49050000D02*
X27450000Y-49050000D01*
X27450000Y-47150000D02*
X23150000Y-47150000D01*
X27450000Y-49050000D02*
X27450000Y-47150000D01*
%TO.C,C15*%
X55017985Y-37552500D02*
X56317985Y-37552500D01*
X55667985Y-36902500D02*
X55667985Y-38202500D01*
X67100000Y-40400000D02*
G75*
G03*
X54100000Y-40400000I-6500000J0D01*
G01*
X54100000Y-40400000D02*
G75*
G03*
X67100000Y-40400000I6500000J0D01*
G01*
%TO.C,C16*%
X34382015Y-42847500D02*
X33082015Y-42847500D01*
X33732015Y-43497500D02*
X33732015Y-42197500D01*
X35300000Y-40000000D02*
G75*
G03*
X22300000Y-40000000I-6500000J0D01*
G01*
X22300000Y-40000000D02*
G75*
G03*
X35300000Y-40000000I6500000J0D01*
G01*
%TO.C,C17*%
X28412500Y-59883605D02*
X28412500Y-59383605D01*
X28162500Y-59633605D02*
X28662500Y-59633605D01*
X32000000Y-57750000D02*
G75*
G03*
X27000000Y-57750000I-2500000J0D01*
G01*
X27000000Y-57750000D02*
G75*
G03*
X32000000Y-57750000I2500000J0D01*
G01*
%TO.C,C18*%
X70750000Y-33850000D02*
X68850000Y-33850000D01*
X68850000Y-33850000D02*
X68850000Y-38150000D01*
X70750000Y-38150000D02*
X70750000Y-33850000D01*
X68850000Y-38150000D02*
X70750000Y-38150000D01*
%TO.C,D1*%
X16700000Y-57580000D02*
X16700000Y-55100000D01*
X15350000Y-55100000D02*
X18050000Y-55100000D01*
X18050000Y-55100000D02*
X18050000Y-49900000D01*
X15350000Y-54420000D02*
X18050000Y-54420000D01*
X15350000Y-54320000D02*
X18050000Y-54320000D01*
X15350000Y-54220000D02*
X18050000Y-54220000D01*
X15350000Y-49900000D02*
X15350000Y-55100000D01*
X18050000Y-49900000D02*
X15350000Y-49900000D01*
X16700000Y-47420000D02*
X16700000Y-49900000D01*
%TO.C,J1*%
X17700000Y-5960000D02*
X17700000Y-21200000D01*
X14800000Y-5960000D02*
X14800000Y-21200000D01*
X9900000Y-5960000D02*
X9900000Y-21200000D01*
X8400000Y-5960000D02*
X17700000Y-5960000D01*
X8400000Y-5960000D02*
X8400000Y-21200000D01*
X7900000Y-6460000D02*
X8400000Y-5960000D01*
X13638000Y-9455000D02*
X11545000Y-7362000D01*
X13455000Y-9638000D02*
X11362000Y-7545000D01*
X13638000Y-14535000D02*
X11545000Y-12443000D01*
X13455000Y-14718000D02*
X11362000Y-12626000D01*
X13638000Y-19615000D02*
X11545000Y-17523000D01*
X13455000Y-19798000D02*
X11362000Y-17706000D01*
X17700000Y-21200000D02*
X7900000Y-21200000D01*
X7900000Y-21200000D02*
X7900000Y-6460000D01*
X14000000Y-8500000D02*
G75*
G03*
X11000000Y-8500000I-1500000J0D01*
G01*
X11000000Y-8500000D02*
G75*
G03*
X14000000Y-8500000I1500000J0D01*
G01*
X14000000Y-13580000D02*
G75*
G03*
X11000000Y-13580000I-1500000J0D01*
G01*
X11000000Y-13580000D02*
G75*
G03*
X14000000Y-13580000I1500000J0D01*
G01*
X14000000Y-18660000D02*
G75*
G03*
X11000000Y-18660000I-1500000J0D01*
G01*
X11000000Y-18660000D02*
G75*
G03*
X14000000Y-18660000I1500000J0D01*
G01*
%TO.C,J2*%
X72900000Y-42540000D02*
X72900000Y-22220000D01*
X75800000Y-42540000D02*
X75800000Y-22220000D01*
X80700000Y-42540000D02*
X80700000Y-22220000D01*
X82200000Y-42540000D02*
X72900000Y-42540000D01*
X82200000Y-42540000D02*
X82200000Y-22220000D01*
X82700000Y-42040000D02*
X82200000Y-42540000D01*
X76962000Y-39045000D02*
X79055000Y-41138000D01*
X77145000Y-38862000D02*
X79238000Y-40955000D01*
X76962000Y-33965000D02*
X79055000Y-36057000D01*
X77145000Y-33782000D02*
X79238000Y-35874000D01*
X76962000Y-28885000D02*
X79055000Y-30977000D01*
X77145000Y-28702000D02*
X79238000Y-30794000D01*
X76962000Y-23805000D02*
X79055000Y-25897000D01*
X77145000Y-23622000D02*
X79238000Y-25714000D01*
X72900000Y-22220000D02*
X82700000Y-22220000D01*
X82700000Y-22220000D02*
X82700000Y-42040000D01*
X79600000Y-40000000D02*
G75*
G03*
X76600000Y-40000000I-1500000J0D01*
G01*
X76600000Y-40000000D02*
G75*
G03*
X79600000Y-40000000I1500000J0D01*
G01*
X79600000Y-34920000D02*
G75*
G03*
X76600000Y-34920000I-1500000J0D01*
G01*
X76600000Y-34920000D02*
G75*
G03*
X79600000Y-34920000I1500000J0D01*
G01*
X79600000Y-29840000D02*
G75*
G03*
X76600000Y-29840000I-1500000J0D01*
G01*
X76600000Y-29840000D02*
G75*
G03*
X79600000Y-29840000I1500000J0D01*
G01*
X79600000Y-24760000D02*
G75*
G03*
X76600000Y-24760000I-1500000J0D01*
G01*
X76600000Y-24760000D02*
G75*
G03*
X79600000Y-24760000I1500000J0D01*
G01*
%TO.C,JP1*%
X8030000Y-30565000D02*
X8665000Y-29930000D01*
X8030000Y-35010000D02*
X8030000Y-30565000D01*
X8665000Y-29930000D02*
X10570000Y-29930000D01*
X10570000Y-29930000D02*
X10570000Y-35010000D01*
X10570000Y-35010000D02*
X8030000Y-35010000D01*
%TO.C,R1*%
X16300000Y-33460000D02*
X16300000Y-31530000D01*
X15050000Y-31530000D02*
X17550000Y-31530000D01*
X17550000Y-31530000D02*
X17550000Y-25230000D01*
X15050000Y-25230000D02*
X15050000Y-31530000D01*
X17550000Y-25230000D02*
X15050000Y-25230000D01*
X16300000Y-23300000D02*
X16300000Y-25230000D01*
%TO.C,R2*%
X13000000Y-23300000D02*
X13000000Y-25230000D01*
X14250000Y-25230000D02*
X11750000Y-25230000D01*
X11750000Y-25230000D02*
X11750000Y-31530000D01*
X14250000Y-31530000D02*
X14250000Y-25230000D01*
X11750000Y-31530000D02*
X14250000Y-31530000D01*
X13000000Y-33460000D02*
X13000000Y-31530000D01*
%TO.C,R3*%
X20000000Y-60880000D02*
X20000000Y-58950000D01*
X18750000Y-58950000D02*
X21250000Y-58950000D01*
X21250000Y-58950000D02*
X21250000Y-52650000D01*
X18750000Y-52650000D02*
X18750000Y-58950000D01*
X21250000Y-52650000D02*
X18750000Y-52650000D01*
X20000000Y-50720000D02*
X20000000Y-52650000D01*
%TO.C,R4*%
X23300000Y-50700000D02*
X23300000Y-52630000D01*
X24550000Y-52630000D02*
X22050000Y-52630000D01*
X22050000Y-52630000D02*
X22050000Y-58930000D01*
X24550000Y-58930000D02*
X24550000Y-52630000D01*
X22050000Y-58930000D02*
X24550000Y-58930000D01*
X23300000Y-60860000D02*
X23300000Y-58930000D01*
%TO.C,R5*%
X13400000Y-47320000D02*
X13400000Y-49250000D01*
X14650000Y-49250000D02*
X12150000Y-49250000D01*
X12150000Y-49250000D02*
X12150000Y-55550000D01*
X14650000Y-55550000D02*
X14650000Y-49250000D01*
X12150000Y-55550000D02*
X14650000Y-55550000D01*
X13400000Y-57480000D02*
X13400000Y-55550000D01*
%TO.C,R6*%
X32700000Y-18200000D02*
X34630000Y-18200000D01*
X34630000Y-16950000D02*
X34630000Y-19450000D01*
X34630000Y-19450000D02*
X40930000Y-19450000D01*
X40930000Y-16950000D02*
X34630000Y-16950000D01*
X40930000Y-19450000D02*
X40930000Y-16950000D01*
X42860000Y-18200000D02*
X40930000Y-18200000D01*
%TO.C,R7*%
X42900000Y-21400000D02*
X44830000Y-21400000D01*
X44830000Y-20150000D02*
X44830000Y-22650000D01*
X44830000Y-22650000D02*
X51130000Y-22650000D01*
X51130000Y-20150000D02*
X44830000Y-20150000D01*
X51130000Y-22650000D02*
X51130000Y-20150000D01*
X53060000Y-21400000D02*
X51130000Y-21400000D01*
%TO.C,R8*%
X55500000Y-18200000D02*
X53570000Y-18200000D01*
X53570000Y-19450000D02*
X53570000Y-16950000D01*
X53570000Y-16950000D02*
X47270000Y-16950000D01*
X47270000Y-19450000D02*
X53570000Y-19450000D01*
X47270000Y-16950000D02*
X47270000Y-19450000D01*
X45340000Y-18200000D02*
X47270000Y-18200000D01*
%TO.C,R9*%
X69850000Y-23400000D02*
X69850000Y-20730000D01*
X68050000Y-20730000D02*
X71650000Y-20730000D01*
X71650000Y-20730000D02*
X71650000Y-10830000D01*
X68050000Y-10830000D02*
X68050000Y-20730000D01*
X71650000Y-10830000D02*
X68050000Y-10830000D01*
X69850000Y-8160000D02*
X69850000Y-10830000D01*
%TO.C,R10*%
X57660000Y-49600000D02*
X55730000Y-49600000D01*
X55730000Y-50850000D02*
X55730000Y-48350000D01*
X55730000Y-48350000D02*
X49430000Y-48350000D01*
X49430000Y-50850000D02*
X55730000Y-50850000D01*
X49430000Y-48350000D02*
X49430000Y-50850000D01*
X47500000Y-49600000D02*
X49430000Y-49600000D01*
%TO.C,R11*%
X45260000Y-46400000D02*
X43330000Y-46400000D01*
X43330000Y-47650000D02*
X43330000Y-45150000D01*
X43330000Y-45150000D02*
X37030000Y-45150000D01*
X37030000Y-47650000D02*
X43330000Y-47650000D01*
X37030000Y-45150000D02*
X37030000Y-47650000D01*
X35100000Y-46400000D02*
X37030000Y-46400000D01*
%TO.C,R13*%
X69800000Y-41120000D02*
X69800000Y-43790000D01*
X71600000Y-43790000D02*
X68000000Y-43790000D01*
X68000000Y-43790000D02*
X68000000Y-53690000D01*
X71600000Y-53690000D02*
X71600000Y-43790000D01*
X68000000Y-53690000D02*
X71600000Y-53690000D01*
X69800000Y-56360000D02*
X69800000Y-53690000D01*
%TO.C,U1*%
X35040000Y-5420000D02*
X35040000Y-10420000D01*
X35040000Y-7020000D02*
X55240000Y-7020000D01*
X35040000Y-10420000D02*
X55240000Y-10420000D01*
X36250000Y-10420000D02*
X36250000Y-15000000D01*
X38790000Y-10420000D02*
X38790000Y-15000000D01*
X41330000Y-10420000D02*
X41330000Y-15000000D01*
X43290000Y-5420000D02*
X43290000Y-7020000D01*
X43870000Y-10420000D02*
X43870000Y-15000000D01*
X46410000Y-10420000D02*
X46410000Y-15000000D01*
X46990000Y-5420000D02*
X46990000Y-7020000D01*
X48950000Y-10420000D02*
X48950000Y-15000000D01*
X51490000Y-10420000D02*
X51490000Y-15000000D01*
X54030000Y-10420000D02*
X54030000Y-15000000D01*
X55240000Y-5420000D02*
X35040000Y-5420000D01*
X55240000Y-10420000D02*
X55240000Y-5420000D01*
%TO.C,U2*%
X54910000Y-62180000D02*
X54910000Y-57180000D01*
X54910000Y-60580000D02*
X34710000Y-60580000D01*
X54910000Y-57180000D02*
X34710000Y-57180000D01*
X53700000Y-57180000D02*
X53700000Y-52600000D01*
X51160000Y-57180000D02*
X51160000Y-52600000D01*
X48620000Y-57180000D02*
X48620000Y-52600000D01*
X46660000Y-62180000D02*
X46660000Y-60580000D01*
X46080000Y-57180000D02*
X46080000Y-52600000D01*
X43540000Y-57180000D02*
X43540000Y-52600000D01*
X42960000Y-62180000D02*
X42960000Y-60580000D01*
X41000000Y-57180000D02*
X41000000Y-52600000D01*
X38460000Y-57180000D02*
X38460000Y-52600000D01*
X35920000Y-57180000D02*
X35920000Y-52600000D01*
X34710000Y-62180000D02*
X54910000Y-62180000D01*
X34710000Y-57180000D02*
X34710000Y-62180000D01*
%TO.C,J3*%
X46305000Y-30860000D02*
X46940000Y-31495000D01*
X39320000Y-30860000D02*
X46305000Y-30860000D01*
X46940000Y-31495000D02*
X46940000Y-33400000D01*
X46940000Y-33400000D02*
X39320000Y-33400000D01*
X39320000Y-33400000D02*
X39320000Y-30860000D01*
%TO.C,R12*%
X35100000Y-49600000D02*
X37030000Y-49600000D01*
X37030000Y-48350000D02*
X37030000Y-50850000D01*
X37030000Y-50850000D02*
X43330000Y-50850000D01*
X43330000Y-48350000D02*
X37030000Y-48350000D01*
X43330000Y-50850000D02*
X43330000Y-48350000D01*
X45260000Y-49600000D02*
X43330000Y-49600000D01*
%TO.C,JP2*%
X58960000Y-56290000D02*
X59595000Y-55655000D01*
X58960000Y-60735000D02*
X58960000Y-56290000D01*
X59595000Y-55655000D02*
X61500000Y-55655000D01*
X61500000Y-55655000D02*
X61500000Y-60735000D01*
X61500000Y-60735000D02*
X58960000Y-60735000D01*
%TO.C,R14*%
X63940000Y-59670000D02*
X65870000Y-59670000D01*
X65870000Y-58420000D02*
X65870000Y-60920000D01*
X65870000Y-60920000D02*
X72170000Y-60920000D01*
X72170000Y-58420000D02*
X65870000Y-58420000D01*
X72170000Y-60920000D02*
X72170000Y-58420000D01*
X74100000Y-59670000D02*
X72170000Y-59670000D01*
%TD*%
M02*
