M48
; DRILL file {KiCad 6.0.5-a6ca702e91~116~ubuntu20.04.1} date Sat 04 Jun 2022 21:49:59 -05
; FORMAT={-:-/ absolute / metric / decimal}
; #@! TF.CreationDate,2022-06-04T21:49:59-05:00
; #@! TF.GenerationSoftware,Kicad,Pcbnew,6.0.5-a6ca702e91~116~ubuntu20.04.1
; #@! TF.FileFunction,Plated,1,2,PTH
FMAT,2
METRIC
; #@! TA.AperFunction,Plated,PTH,ViaDrill
T1C0.800
; #@! TA.AperFunction,Plated,PTH,ComponentDrill
T2C0.800
; #@! TA.AperFunction,Plated,PTH,ComponentDrill
T3C0.900
; #@! TA.AperFunction,Plated,PTH,ComponentDrill
T4C1.000
; #@! TA.AperFunction,Plated,PTH,ComponentDrill
T5C1.200
; #@! TA.AperFunction,Plated,PTH,ComponentDrill
T6C1.300
%
G90
G05
T1
X91.2Y-64.21
X91.2Y-52.8
X103.4Y-84.6
X108.287Y-60.787
X108.4Y-69.0
X110.2Y-61.2
X110.2Y-69.0
X111.8Y-33.0
X112.0Y-69.0
X112.0Y-61.2
X117.4Y-84.6
X118.51Y-48.9
X118.51Y-54.7
X120.4Y-48.91
X120.4Y-54.7
X124.5Y-55.3
X124.5Y-59.9
X127.6Y-33.0
T2
X81.2Y-72.2
X81.2Y-82.36
X83.4Y-66.5
X83.4Y-69.0
X83.5Y-48.3
X83.5Y-58.46
X86.8Y-48.3
X86.8Y-58.46
X87.6Y-76.04
X87.6Y-86.2
X89.0Y-66.5
X89.0Y-69.0
X91.2Y-76.0
X91.2Y-86.16
X92.8Y-73.2
X96.5Y-38.5
X97.8Y-73.2
X100.0Y-75.8
X100.0Y-78.3
X100.0Y-81.5
X100.0Y-84.0
X101.5Y-38.5
X103.2Y-43.2
X105.6Y-71.4
X105.6Y-74.6
X111.0Y-46.0
X111.0Y-51.0
X113.36Y-43.2
X113.4Y-46.4
X115.76Y-71.4
X115.76Y-74.6
X115.84Y-43.2
X118.0Y-74.6
X118.4Y-66.8
X118.4Y-71.8
X121.9Y-62.2
X121.9Y-67.2
X122.5Y-49.5
X122.5Y-54.5
X123.56Y-46.4
X126.0Y-43.2
X128.16Y-74.6
X131.0Y-34.0
X131.0Y-36.5
X131.0Y-39.9
X131.0Y-42.4
X140.6Y-52.0
X140.6Y-57.0
X140.6Y-59.2
X140.6Y-64.2
T3
X84.4Y-72.24
X84.4Y-82.4
T4
X79.8Y-56.2
X79.8Y-58.74
X106.42Y-77.6
X106.75Y-40.0
X107.69Y-82.68
X108.02Y-34.92
X108.96Y-77.6
X109.29Y-40.0
X110.23Y-82.68
X110.56Y-34.92
X111.5Y-77.6
X111.83Y-40.0
X112.26Y-58.2
X112.77Y-82.68
X113.1Y-34.92
X114.04Y-77.6
X114.37Y-40.0
X114.8Y-58.2
X115.31Y-82.68
X115.64Y-34.92
X116.58Y-77.6
X116.91Y-40.0
X117.34Y-58.2
X117.85Y-82.68
X118.18Y-34.92
X119.12Y-77.6
X119.45Y-40.0
X120.39Y-82.68
X120.72Y-34.92
X121.66Y-77.6
X121.99Y-40.0
X122.93Y-82.68
X123.26Y-34.92
X124.2Y-77.6
X124.53Y-40.0
T5
X96.8Y-51.2
X96.8Y-65.0
X101.8Y-51.2
X101.8Y-65.0
X128.5Y-51.25
X128.6Y-65.4
X133.5Y-51.25
X133.6Y-65.4
X140.6Y-34.16
X140.6Y-49.4
X140.6Y-66.8
X140.6Y-82.04
T6
X83.0Y-33.5
X83.0Y-38.58
X83.0Y-43.66
X148.6Y-49.76
X148.6Y-54.84
X148.6Y-59.92
X148.6Y-65.0
T0
M30
