%TF.GenerationSoftware,KiCad,Pcbnew,6.0.9-8da3e8f707~117~ubuntu20.04.1*%
%TF.CreationDate,2022-12-08T11:19:40-05:00*%
%TF.ProjectId,TDA7294,54444137-3239-4342-9e6b-696361645f70,v1.0.0*%
%TF.SameCoordinates,PX6146580PY3dfd240*%
%TF.FileFunction,Legend,Top*%
%TF.FilePolarity,Positive*%
%FSLAX46Y46*%
G04 Gerber Fmt 4.6, Leading zero omitted, Abs format (unit mm)*
G04 Created by KiCad (PCBNEW 6.0.9-8da3e8f707~117~ubuntu20.04.1) date 2022-12-08 11:19:40*
%MOMM*%
%LPD*%
G01*
G04 APERTURE LIST*
%ADD10C,0.300000*%
%ADD11C,0.150000*%
%ADD12C,0.120000*%
G04 APERTURE END LIST*
D10*
X76904761Y-50452380D02*
X76904761Y-50071428D01*
X77000000Y-49880952D01*
X77190476Y-49690476D01*
X77571428Y-49595238D01*
X78238095Y-49595238D01*
X78619047Y-49690476D01*
X78809523Y-49880952D01*
X78904761Y-50071428D01*
X78904761Y-50452380D01*
X78809523Y-50642857D01*
X78619047Y-50833333D01*
X78238095Y-50928571D01*
X77571428Y-50928571D01*
X77190476Y-50833333D01*
X77000000Y-50642857D01*
X76904761Y-50452380D01*
X76904761Y-48738095D02*
X78523809Y-48738095D01*
X78714285Y-48642857D01*
X78809523Y-48547619D01*
X78904761Y-48357142D01*
X78904761Y-47976190D01*
X78809523Y-47785714D01*
X78714285Y-47690476D01*
X78523809Y-47595238D01*
X76904761Y-47595238D01*
X76904761Y-46928571D02*
X76904761Y-45785714D01*
X78904761Y-46357142D02*
X76904761Y-46357142D01*
X78809523Y-45214285D02*
X78904761Y-44928571D01*
X78904761Y-44452380D01*
X78809523Y-44261904D01*
X78714285Y-44166666D01*
X78523809Y-44071428D01*
X78333333Y-44071428D01*
X78142857Y-44166666D01*
X78047619Y-44261904D01*
X77952380Y-44452380D01*
X77857142Y-44833333D01*
X77761904Y-45023809D01*
X77666666Y-45119047D01*
X77476190Y-45214285D01*
X77285714Y-45214285D01*
X77095238Y-45119047D01*
X77000000Y-45023809D01*
X76904761Y-44833333D01*
X76904761Y-44357142D01*
X77000000Y-44071428D01*
D11*
X84952380Y-39690476D02*
X84476190Y-40023809D01*
X84952380Y-40261904D02*
X83952380Y-40261904D01*
X83952380Y-39880952D01*
X84000000Y-39785714D01*
X84047619Y-39738095D01*
X84142857Y-39690476D01*
X84285714Y-39690476D01*
X84380952Y-39738095D01*
X84428571Y-39785714D01*
X84476190Y-39880952D01*
X84476190Y-40261904D01*
X21652380Y-13000000D02*
X20652380Y-13000000D01*
X21366666Y-12666666D01*
X20652380Y-12333333D01*
X21652380Y-12333333D01*
X21366666Y-11904761D02*
X21366666Y-11428571D01*
X21652380Y-12000000D02*
X20652380Y-11666666D01*
X21652380Y-11333333D01*
X20652380Y-11095238D02*
X21652380Y-10428571D01*
X20652380Y-10428571D02*
X21652380Y-11095238D01*
X20652380Y-9380952D02*
X20652380Y-8761904D01*
X21033333Y-9095238D01*
X21033333Y-8952380D01*
X21080952Y-8857142D01*
X21128571Y-8809523D01*
X21223809Y-8761904D01*
X21461904Y-8761904D01*
X21557142Y-8809523D01*
X21604761Y-8857142D01*
X21652380Y-8952380D01*
X21652380Y-9238095D01*
X21604761Y-9333333D01*
X21557142Y-9380952D01*
X20652380Y-8142857D02*
X20652380Y-8047619D01*
X20700000Y-7952380D01*
X20747619Y-7904761D01*
X20842857Y-7857142D01*
X21033333Y-7809523D01*
X21271428Y-7809523D01*
X21461904Y-7857142D01*
X21557142Y-7904761D01*
X21604761Y-7952380D01*
X21652380Y-8047619D01*
X21652380Y-8142857D01*
X21604761Y-8238095D01*
X21557142Y-8285714D01*
X21461904Y-8333333D01*
X21271428Y-8380952D01*
X21033333Y-8380952D01*
X20842857Y-8333333D01*
X20747619Y-8285714D01*
X20700000Y-8238095D01*
X20652380Y-8142857D01*
X20652380Y-7523809D02*
X21652380Y-7190476D01*
X20652380Y-6857142D01*
X6500000Y-14261904D02*
X6452380Y-14357142D01*
X6452380Y-14500000D01*
X6500000Y-14642857D01*
X6595238Y-14738095D01*
X6690476Y-14785714D01*
X6880952Y-14833333D01*
X7023809Y-14833333D01*
X7214285Y-14785714D01*
X7309523Y-14738095D01*
X7404761Y-14642857D01*
X7452380Y-14500000D01*
X7452380Y-14404761D01*
X7404761Y-14261904D01*
X7357142Y-14214285D01*
X7023809Y-14214285D01*
X7023809Y-14404761D01*
X7452380Y-13785714D02*
X6452380Y-13785714D01*
X7452380Y-13214285D01*
X6452380Y-13214285D01*
X7452380Y-12738095D02*
X6452380Y-12738095D01*
X6452380Y-12500000D01*
X6500000Y-12357142D01*
X6595238Y-12261904D01*
X6690476Y-12214285D01*
X6880952Y-12166666D01*
X7023809Y-12166666D01*
X7214285Y-12214285D01*
X7309523Y-12261904D01*
X7404761Y-12357142D01*
X7452380Y-12500000D01*
X7452380Y-12738095D01*
X84952380Y-24690476D02*
X84952380Y-25166666D01*
X83952380Y-25166666D01*
D10*
X5738095Y-8642857D02*
X7261904Y-8642857D01*
D11*
X84000000Y-35761904D02*
X83952380Y-35857142D01*
X83952380Y-36000000D01*
X84000000Y-36142857D01*
X84095238Y-36238095D01*
X84190476Y-36285714D01*
X84380952Y-36333333D01*
X84523809Y-36333333D01*
X84714285Y-36285714D01*
X84809523Y-36238095D01*
X84904761Y-36142857D01*
X84952380Y-36000000D01*
X84952380Y-35904761D01*
X84904761Y-35761904D01*
X84857142Y-35714285D01*
X84523809Y-35714285D01*
X84523809Y-35904761D01*
X84952380Y-35285714D02*
X83952380Y-35285714D01*
X84952380Y-34714285D01*
X83952380Y-34714285D01*
X84952380Y-34238095D02*
X83952380Y-34238095D01*
X83952380Y-34000000D01*
X84000000Y-33857142D01*
X84095238Y-33761904D01*
X84190476Y-33714285D01*
X84380952Y-33666666D01*
X84523809Y-33666666D01*
X84714285Y-33714285D01*
X84809523Y-33761904D01*
X84904761Y-33857142D01*
X84952380Y-34000000D01*
X84952380Y-34238095D01*
X41823809Y-36252380D02*
X41347619Y-36252380D01*
X41347619Y-35252380D01*
X43442857Y-35300000D02*
X43347619Y-35252380D01*
X43204761Y-35252380D01*
X43061904Y-35300000D01*
X42966666Y-35395238D01*
X42919047Y-35490476D01*
X42871428Y-35680952D01*
X42871428Y-35823809D01*
X42919047Y-36014285D01*
X42966666Y-36109523D01*
X43061904Y-36204761D01*
X43204761Y-36252380D01*
X43300000Y-36252380D01*
X43442857Y-36204761D01*
X43490476Y-36157142D01*
X43490476Y-35823809D01*
X43300000Y-35823809D01*
X43919047Y-36252380D02*
X43919047Y-35252380D01*
X44490476Y-36252380D01*
X44490476Y-35252380D01*
X44966666Y-36252380D02*
X44966666Y-35252380D01*
X45204761Y-35252380D01*
X45347619Y-35300000D01*
X45442857Y-35395238D01*
X45490476Y-35490476D01*
X45538095Y-35680952D01*
X45538095Y-35823809D01*
X45490476Y-36014285D01*
X45442857Y-36109523D01*
X45347619Y-36204761D01*
X45204761Y-36252380D01*
X44966666Y-36252380D01*
X47300000Y-36252380D02*
X46966666Y-35776190D01*
X46728571Y-36252380D02*
X46728571Y-35252380D01*
X47109523Y-35252380D01*
X47204761Y-35300000D01*
X47252380Y-35347619D01*
X47300000Y-35442857D01*
X47300000Y-35585714D01*
X47252380Y-35680952D01*
X47204761Y-35728571D01*
X47109523Y-35776190D01*
X46728571Y-35776190D01*
X43776190Y-31252380D02*
X43776190Y-30252380D01*
X44252380Y-31252380D02*
X44252380Y-30252380D01*
X44823809Y-31252380D01*
X44823809Y-30252380D01*
X19652380Y-12409523D02*
X18652380Y-12409523D01*
X18652380Y-12028571D01*
X18700000Y-11933333D01*
X18747619Y-11885714D01*
X18842857Y-11838095D01*
X18985714Y-11838095D01*
X19080952Y-11885714D01*
X19128571Y-11933333D01*
X19176190Y-12028571D01*
X19176190Y-12409523D01*
X18652380Y-11219047D02*
X18652380Y-11028571D01*
X18700000Y-10933333D01*
X18795238Y-10838095D01*
X18985714Y-10790476D01*
X19319047Y-10790476D01*
X19509523Y-10838095D01*
X19604761Y-10933333D01*
X19652380Y-11028571D01*
X19652380Y-11219047D01*
X19604761Y-11314285D01*
X19509523Y-11409523D01*
X19319047Y-11457142D01*
X18985714Y-11457142D01*
X18795238Y-11409523D01*
X18700000Y-11314285D01*
X18652380Y-11219047D01*
X18652380Y-10457142D02*
X19652380Y-10219047D01*
X18938095Y-10028571D01*
X19652380Y-9838095D01*
X18652380Y-9600000D01*
X19128571Y-9219047D02*
X19128571Y-8885714D01*
X19652380Y-8742857D02*
X19652380Y-9219047D01*
X18652380Y-9219047D01*
X18652380Y-8742857D01*
X19652380Y-7742857D02*
X19176190Y-8076190D01*
X19652380Y-8314285D02*
X18652380Y-8314285D01*
X18652380Y-7933333D01*
X18700000Y-7838095D01*
X18747619Y-7790476D01*
X18842857Y-7742857D01*
X18985714Y-7742857D01*
X19080952Y-7790476D01*
X19128571Y-7838095D01*
X19176190Y-7933333D01*
X19176190Y-8314285D01*
X6428571Y-35023809D02*
X6428571Y-34690476D01*
X6952380Y-34547619D02*
X6952380Y-35023809D01*
X5952380Y-35023809D01*
X5952380Y-34547619D01*
X6952380Y-34119047D02*
X5952380Y-34119047D01*
X6952380Y-33547619D01*
X5952380Y-33547619D01*
X6666666Y-33119047D02*
X6666666Y-32642857D01*
X6952380Y-33214285D02*
X5952380Y-32880952D01*
X6952380Y-32547619D01*
X6428571Y-31880952D02*
X6476190Y-31738095D01*
X6523809Y-31690476D01*
X6619047Y-31642857D01*
X6761904Y-31642857D01*
X6857142Y-31690476D01*
X6904761Y-31738095D01*
X6952380Y-31833333D01*
X6952380Y-32214285D01*
X5952380Y-32214285D01*
X5952380Y-31880952D01*
X6000000Y-31785714D01*
X6047619Y-31738095D01*
X6142857Y-31690476D01*
X6238095Y-31690476D01*
X6333333Y-31738095D01*
X6380952Y-31785714D01*
X6428571Y-31880952D01*
X6428571Y-32214285D01*
X6952380Y-30738095D02*
X6952380Y-31214285D01*
X5952380Y-31214285D01*
X6428571Y-30404761D02*
X6428571Y-30071428D01*
X6952380Y-29928571D02*
X6952380Y-30404761D01*
X5952380Y-30404761D01*
X5952380Y-29928571D01*
X84000000Y-30761904D02*
X83952380Y-30857142D01*
X83952380Y-31000000D01*
X84000000Y-31142857D01*
X84095238Y-31238095D01*
X84190476Y-31285714D01*
X84380952Y-31333333D01*
X84523809Y-31333333D01*
X84714285Y-31285714D01*
X84809523Y-31238095D01*
X84904761Y-31142857D01*
X84952380Y-31000000D01*
X84952380Y-30904761D01*
X84904761Y-30761904D01*
X84857142Y-30714285D01*
X84523809Y-30714285D01*
X84523809Y-30904761D01*
X84952380Y-30285714D02*
X83952380Y-30285714D01*
X84952380Y-29714285D01*
X83952380Y-29714285D01*
X84952380Y-29238095D02*
X83952380Y-29238095D01*
X83952380Y-29000000D01*
X84000000Y-28857142D01*
X84095238Y-28761904D01*
X84190476Y-28714285D01*
X84380952Y-28666666D01*
X84523809Y-28666666D01*
X84714285Y-28714285D01*
X84809523Y-28761904D01*
X84904761Y-28857142D01*
X84952380Y-29000000D01*
X84952380Y-29238095D01*
D10*
X5738095Y-18642857D02*
X7261904Y-18642857D01*
X6500000Y-19404761D02*
X6500000Y-17880952D01*
D11*
%TO.C,C1*%
X9507142Y-42916666D02*
X9554761Y-42964285D01*
X9602380Y-43107142D01*
X9602380Y-43202380D01*
X9554761Y-43345238D01*
X9459523Y-43440476D01*
X9364285Y-43488095D01*
X9173809Y-43535714D01*
X9030952Y-43535714D01*
X8840476Y-43488095D01*
X8745238Y-43440476D01*
X8650000Y-43345238D01*
X8602380Y-43202380D01*
X8602380Y-43107142D01*
X8650000Y-42964285D01*
X8697619Y-42916666D01*
X9602380Y-41964285D02*
X9602380Y-42535714D01*
X9602380Y-42250000D02*
X8602380Y-42250000D01*
X8745238Y-42345238D01*
X8840476Y-42440476D01*
X8888095Y-42535714D01*
%TO.C,C2*%
X16357142Y-39666666D02*
X16404761Y-39714285D01*
X16452380Y-39857142D01*
X16452380Y-39952380D01*
X16404761Y-40095238D01*
X16309523Y-40190476D01*
X16214285Y-40238095D01*
X16023809Y-40285714D01*
X15880952Y-40285714D01*
X15690476Y-40238095D01*
X15595238Y-40190476D01*
X15500000Y-40095238D01*
X15452380Y-39952380D01*
X15452380Y-39857142D01*
X15500000Y-39714285D01*
X15547619Y-39666666D01*
X15547619Y-39285714D02*
X15500000Y-39238095D01*
X15452380Y-39142857D01*
X15452380Y-38904761D01*
X15500000Y-38809523D01*
X15547619Y-38761904D01*
X15642857Y-38714285D01*
X15738095Y-38714285D01*
X15880952Y-38761904D01*
X16452380Y-39333333D01*
X16452380Y-38714285D01*
%TO.C,C3*%
X43057142Y-23666666D02*
X43104761Y-23714285D01*
X43152380Y-23857142D01*
X43152380Y-23952380D01*
X43104761Y-24095238D01*
X43009523Y-24190476D01*
X42914285Y-24238095D01*
X42723809Y-24285714D01*
X42580952Y-24285714D01*
X42390476Y-24238095D01*
X42295238Y-24190476D01*
X42200000Y-24095238D01*
X42152380Y-23952380D01*
X42152380Y-23857142D01*
X42200000Y-23714285D01*
X42247619Y-23666666D01*
X42152380Y-23333333D02*
X42152380Y-22714285D01*
X42533333Y-23047619D01*
X42533333Y-22904761D01*
X42580952Y-22809523D01*
X42628571Y-22761904D01*
X42723809Y-22714285D01*
X42961904Y-22714285D01*
X43057142Y-22761904D01*
X43104761Y-22809523D01*
X43152380Y-22904761D01*
X43152380Y-23190476D01*
X43104761Y-23285714D01*
X43057142Y-23333333D01*
%TO.C,C4*%
X57107142Y-16316666D02*
X57154761Y-16364285D01*
X57202380Y-16507142D01*
X57202380Y-16602380D01*
X57154761Y-16745238D01*
X57059523Y-16840476D01*
X56964285Y-16888095D01*
X56773809Y-16935714D01*
X56630952Y-16935714D01*
X56440476Y-16888095D01*
X56345238Y-16840476D01*
X56250000Y-16745238D01*
X56202380Y-16602380D01*
X56202380Y-16507142D01*
X56250000Y-16364285D01*
X56297619Y-16316666D01*
X56535714Y-15459523D02*
X57202380Y-15459523D01*
X56154761Y-15697619D02*
X56869047Y-15935714D01*
X56869047Y-15316666D01*
%TO.C,C5*%
X52357142Y-32166666D02*
X52404761Y-32214285D01*
X52452380Y-32357142D01*
X52452380Y-32452380D01*
X52404761Y-32595238D01*
X52309523Y-32690476D01*
X52214285Y-32738095D01*
X52023809Y-32785714D01*
X51880952Y-32785714D01*
X51690476Y-32738095D01*
X51595238Y-32690476D01*
X51500000Y-32595238D01*
X51452380Y-32452380D01*
X51452380Y-32357142D01*
X51500000Y-32214285D01*
X51547619Y-32166666D01*
X51452380Y-31261904D02*
X51452380Y-31738095D01*
X51928571Y-31785714D01*
X51880952Y-31738095D01*
X51833333Y-31642857D01*
X51833333Y-31404761D01*
X51880952Y-31309523D01*
X51928571Y-31261904D01*
X52023809Y-31214285D01*
X52261904Y-31214285D01*
X52357142Y-31261904D01*
X52404761Y-31309523D01*
X52452380Y-31404761D01*
X52452380Y-31642857D01*
X52404761Y-31738095D01*
X52357142Y-31785714D01*
%TO.C,C6*%
X28333333Y-11657142D02*
X28285714Y-11704761D01*
X28142857Y-11752380D01*
X28047619Y-11752380D01*
X27904761Y-11704761D01*
X27809523Y-11609523D01*
X27761904Y-11514285D01*
X27714285Y-11323809D01*
X27714285Y-11180952D01*
X27761904Y-10990476D01*
X27809523Y-10895238D01*
X27904761Y-10800000D01*
X28047619Y-10752380D01*
X28142857Y-10752380D01*
X28285714Y-10800000D01*
X28333333Y-10847619D01*
X29190476Y-10752380D02*
X29000000Y-10752380D01*
X28904761Y-10800000D01*
X28857142Y-10847619D01*
X28761904Y-10990476D01*
X28714285Y-11180952D01*
X28714285Y-11561904D01*
X28761904Y-11657142D01*
X28809523Y-11704761D01*
X28904761Y-11752380D01*
X29095238Y-11752380D01*
X29190476Y-11704761D01*
X29238095Y-11657142D01*
X29285714Y-11561904D01*
X29285714Y-11323809D01*
X29238095Y-11228571D01*
X29190476Y-11180952D01*
X29095238Y-11133333D01*
X28904761Y-11133333D01*
X28809523Y-11180952D01*
X28761904Y-11228571D01*
X28714285Y-11323809D01*
%TO.C,C7*%
X64833333Y-20357142D02*
X64785714Y-20404761D01*
X64642857Y-20452380D01*
X64547619Y-20452380D01*
X64404761Y-20404761D01*
X64309523Y-20309523D01*
X64261904Y-20214285D01*
X64214285Y-20023809D01*
X64214285Y-19880952D01*
X64261904Y-19690476D01*
X64309523Y-19595238D01*
X64404761Y-19500000D01*
X64547619Y-19452380D01*
X64642857Y-19452380D01*
X64785714Y-19500000D01*
X64833333Y-19547619D01*
X65166666Y-19452380D02*
X65833333Y-19452380D01*
X65404761Y-20452380D01*
%TO.C,C8*%
X21633333Y-22357142D02*
X21585714Y-22404761D01*
X21442857Y-22452380D01*
X21347619Y-22452380D01*
X21204761Y-22404761D01*
X21109523Y-22309523D01*
X21061904Y-22214285D01*
X21014285Y-22023809D01*
X21014285Y-21880952D01*
X21061904Y-21690476D01*
X21109523Y-21595238D01*
X21204761Y-21500000D01*
X21347619Y-21452380D01*
X21442857Y-21452380D01*
X21585714Y-21500000D01*
X21633333Y-21547619D01*
X22204761Y-21880952D02*
X22109523Y-21833333D01*
X22061904Y-21785714D01*
X22014285Y-21690476D01*
X22014285Y-21642857D01*
X22061904Y-21547619D01*
X22109523Y-21500000D01*
X22204761Y-21452380D01*
X22395238Y-21452380D01*
X22490476Y-21500000D01*
X22538095Y-21547619D01*
X22585714Y-21642857D01*
X22585714Y-21690476D01*
X22538095Y-21785714D01*
X22490476Y-21833333D01*
X22395238Y-21880952D01*
X22204761Y-21880952D01*
X22109523Y-21928571D01*
X22061904Y-21976190D01*
X22014285Y-22071428D01*
X22014285Y-22261904D01*
X22061904Y-22357142D01*
X22109523Y-22404761D01*
X22204761Y-22452380D01*
X22395238Y-22452380D01*
X22490476Y-22404761D01*
X22538095Y-22357142D01*
X22585714Y-22261904D01*
X22585714Y-22071428D01*
X22538095Y-21976190D01*
X22490476Y-21928571D01*
X22395238Y-21880952D01*
%TO.C,C9*%
X64607142Y-10416666D02*
X64654761Y-10464285D01*
X64702380Y-10607142D01*
X64702380Y-10702380D01*
X64654761Y-10845238D01*
X64559523Y-10940476D01*
X64464285Y-10988095D01*
X64273809Y-11035714D01*
X64130952Y-11035714D01*
X63940476Y-10988095D01*
X63845238Y-10940476D01*
X63750000Y-10845238D01*
X63702380Y-10702380D01*
X63702380Y-10607142D01*
X63750000Y-10464285D01*
X63797619Y-10416666D01*
X64702380Y-9940476D02*
X64702380Y-9750000D01*
X64654761Y-9654761D01*
X64607142Y-9607142D01*
X64464285Y-9511904D01*
X64273809Y-9464285D01*
X63892857Y-9464285D01*
X63797619Y-9511904D01*
X63750000Y-9559523D01*
X63702380Y-9654761D01*
X63702380Y-9845238D01*
X63750000Y-9940476D01*
X63797619Y-9988095D01*
X63892857Y-10035714D01*
X64130952Y-10035714D01*
X64226190Y-9988095D01*
X64273809Y-9940476D01*
X64321428Y-9845238D01*
X64321428Y-9654761D01*
X64273809Y-9559523D01*
X64226190Y-9511904D01*
X64130952Y-9464285D01*
%TO.C,C10*%
X68257142Y-30142857D02*
X68304761Y-30190476D01*
X68352380Y-30333333D01*
X68352380Y-30428571D01*
X68304761Y-30571428D01*
X68209523Y-30666666D01*
X68114285Y-30714285D01*
X67923809Y-30761904D01*
X67780952Y-30761904D01*
X67590476Y-30714285D01*
X67495238Y-30666666D01*
X67400000Y-30571428D01*
X67352380Y-30428571D01*
X67352380Y-30333333D01*
X67400000Y-30190476D01*
X67447619Y-30142857D01*
X68352380Y-29190476D02*
X68352380Y-29761904D01*
X68352380Y-29476190D02*
X67352380Y-29476190D01*
X67495238Y-29571428D01*
X67590476Y-29666666D01*
X67638095Y-29761904D01*
X67352380Y-28571428D02*
X67352380Y-28476190D01*
X67400000Y-28380952D01*
X67447619Y-28333333D01*
X67542857Y-28285714D01*
X67733333Y-28238095D01*
X67971428Y-28238095D01*
X68161904Y-28285714D01*
X68257142Y-28333333D01*
X68304761Y-28380952D01*
X68352380Y-28476190D01*
X68352380Y-28571428D01*
X68304761Y-28666666D01*
X68257142Y-28714285D01*
X68161904Y-28761904D01*
X67971428Y-28809523D01*
X67733333Y-28809523D01*
X67542857Y-28761904D01*
X67447619Y-28714285D01*
X67400000Y-28666666D01*
X67352380Y-28571428D01*
%TO.C,C11*%
X50357142Y-45642857D02*
X50404761Y-45690476D01*
X50452380Y-45833333D01*
X50452380Y-45928571D01*
X50404761Y-46071428D01*
X50309523Y-46166666D01*
X50214285Y-46214285D01*
X50023809Y-46261904D01*
X49880952Y-46261904D01*
X49690476Y-46214285D01*
X49595238Y-46166666D01*
X49500000Y-46071428D01*
X49452380Y-45928571D01*
X49452380Y-45833333D01*
X49500000Y-45690476D01*
X49547619Y-45642857D01*
X50452380Y-44690476D02*
X50452380Y-45261904D01*
X50452380Y-44976190D02*
X49452380Y-44976190D01*
X49595238Y-45071428D01*
X49690476Y-45166666D01*
X49738095Y-45261904D01*
X50452380Y-43738095D02*
X50452380Y-44309523D01*
X50452380Y-44023809D02*
X49452380Y-44023809D01*
X49595238Y-44119047D01*
X49690476Y-44214285D01*
X49738095Y-44309523D01*
%TO.C,C12*%
X33607142Y-52692857D02*
X33654761Y-52740476D01*
X33702380Y-52883333D01*
X33702380Y-52978571D01*
X33654761Y-53121428D01*
X33559523Y-53216666D01*
X33464285Y-53264285D01*
X33273809Y-53311904D01*
X33130952Y-53311904D01*
X32940476Y-53264285D01*
X32845238Y-53216666D01*
X32750000Y-53121428D01*
X32702380Y-52978571D01*
X32702380Y-52883333D01*
X32750000Y-52740476D01*
X32797619Y-52692857D01*
X33702380Y-51740476D02*
X33702380Y-52311904D01*
X33702380Y-52026190D02*
X32702380Y-52026190D01*
X32845238Y-52121428D01*
X32940476Y-52216666D01*
X32988095Y-52311904D01*
X32797619Y-51359523D02*
X32750000Y-51311904D01*
X32702380Y-51216666D01*
X32702380Y-50978571D01*
X32750000Y-50883333D01*
X32797619Y-50835714D01*
X32892857Y-50788095D01*
X32988095Y-50788095D01*
X33130952Y-50835714D01*
X33702380Y-51407142D01*
X33702380Y-50788095D01*
%TO.C,C13*%
X49557142Y-40342857D02*
X49604761Y-40390476D01*
X49652380Y-40533333D01*
X49652380Y-40628571D01*
X49604761Y-40771428D01*
X49509523Y-40866666D01*
X49414285Y-40914285D01*
X49223809Y-40961904D01*
X49080952Y-40961904D01*
X48890476Y-40914285D01*
X48795238Y-40866666D01*
X48700000Y-40771428D01*
X48652380Y-40628571D01*
X48652380Y-40533333D01*
X48700000Y-40390476D01*
X48747619Y-40342857D01*
X49652380Y-39390476D02*
X49652380Y-39961904D01*
X49652380Y-39676190D02*
X48652380Y-39676190D01*
X48795238Y-39771428D01*
X48890476Y-39866666D01*
X48938095Y-39961904D01*
X48652380Y-39057142D02*
X48652380Y-38438095D01*
X49033333Y-38771428D01*
X49033333Y-38628571D01*
X49080952Y-38533333D01*
X49128571Y-38485714D01*
X49223809Y-38438095D01*
X49461904Y-38438095D01*
X49557142Y-38485714D01*
X49604761Y-38533333D01*
X49652380Y-38628571D01*
X49652380Y-38914285D01*
X49604761Y-39009523D01*
X49557142Y-39057142D01*
%TO.C,C14*%
X21457142Y-46157142D02*
X21409523Y-46204761D01*
X21266666Y-46252380D01*
X21171428Y-46252380D01*
X21028571Y-46204761D01*
X20933333Y-46109523D01*
X20885714Y-46014285D01*
X20838095Y-45823809D01*
X20838095Y-45680952D01*
X20885714Y-45490476D01*
X20933333Y-45395238D01*
X21028571Y-45300000D01*
X21171428Y-45252380D01*
X21266666Y-45252380D01*
X21409523Y-45300000D01*
X21457142Y-45347619D01*
X22409523Y-46252380D02*
X21838095Y-46252380D01*
X22123809Y-46252380D02*
X22123809Y-45252380D01*
X22028571Y-45395238D01*
X21933333Y-45490476D01*
X21838095Y-45538095D01*
X23266666Y-45585714D02*
X23266666Y-46252380D01*
X23028571Y-45204761D02*
X22790476Y-45919047D01*
X23409523Y-45919047D01*
%TO.C,C15*%
X64357142Y-34357142D02*
X64309523Y-34404761D01*
X64166666Y-34452380D01*
X64071428Y-34452380D01*
X63928571Y-34404761D01*
X63833333Y-34309523D01*
X63785714Y-34214285D01*
X63738095Y-34023809D01*
X63738095Y-33880952D01*
X63785714Y-33690476D01*
X63833333Y-33595238D01*
X63928571Y-33500000D01*
X64071428Y-33452380D01*
X64166666Y-33452380D01*
X64309523Y-33500000D01*
X64357142Y-33547619D01*
X65309523Y-34452380D02*
X64738095Y-34452380D01*
X65023809Y-34452380D02*
X65023809Y-33452380D01*
X64928571Y-33595238D01*
X64833333Y-33690476D01*
X64738095Y-33738095D01*
X66214285Y-33452380D02*
X65738095Y-33452380D01*
X65690476Y-33928571D01*
X65738095Y-33880952D01*
X65833333Y-33833333D01*
X66071428Y-33833333D01*
X66166666Y-33880952D01*
X66214285Y-33928571D01*
X66261904Y-34023809D01*
X66261904Y-34261904D01*
X66214285Y-34357142D01*
X66166666Y-34404761D01*
X66071428Y-34452380D01*
X65833333Y-34452380D01*
X65738095Y-34404761D01*
X65690476Y-34357142D01*
%TO.C,C16*%
X22357142Y-34357142D02*
X22309523Y-34404761D01*
X22166666Y-34452380D01*
X22071428Y-34452380D01*
X21928571Y-34404761D01*
X21833333Y-34309523D01*
X21785714Y-34214285D01*
X21738095Y-34023809D01*
X21738095Y-33880952D01*
X21785714Y-33690476D01*
X21833333Y-33595238D01*
X21928571Y-33500000D01*
X22071428Y-33452380D01*
X22166666Y-33452380D01*
X22309523Y-33500000D01*
X22357142Y-33547619D01*
X23309523Y-34452380D02*
X22738095Y-34452380D01*
X23023809Y-34452380D02*
X23023809Y-33452380D01*
X22928571Y-33595238D01*
X22833333Y-33690476D01*
X22738095Y-33738095D01*
X24166666Y-33452380D02*
X23976190Y-33452380D01*
X23880952Y-33500000D01*
X23833333Y-33547619D01*
X23738095Y-33690476D01*
X23690476Y-33880952D01*
X23690476Y-34261904D01*
X23738095Y-34357142D01*
X23785714Y-34404761D01*
X23880952Y-34452380D01*
X24071428Y-34452380D01*
X24166666Y-34404761D01*
X24214285Y-34357142D01*
X24261904Y-34261904D01*
X24261904Y-34023809D01*
X24214285Y-33928571D01*
X24166666Y-33880952D01*
X24071428Y-33833333D01*
X23880952Y-33833333D01*
X23785714Y-33880952D01*
X23738095Y-33928571D01*
X23690476Y-34023809D01*
%TO.C,C17*%
X26107142Y-58392857D02*
X26154761Y-58440476D01*
X26202380Y-58583333D01*
X26202380Y-58678571D01*
X26154761Y-58821428D01*
X26059523Y-58916666D01*
X25964285Y-58964285D01*
X25773809Y-59011904D01*
X25630952Y-59011904D01*
X25440476Y-58964285D01*
X25345238Y-58916666D01*
X25250000Y-58821428D01*
X25202380Y-58678571D01*
X25202380Y-58583333D01*
X25250000Y-58440476D01*
X25297619Y-58392857D01*
X26202380Y-57440476D02*
X26202380Y-58011904D01*
X26202380Y-57726190D02*
X25202380Y-57726190D01*
X25345238Y-57821428D01*
X25440476Y-57916666D01*
X25488095Y-58011904D01*
X25202380Y-57107142D02*
X25202380Y-56440476D01*
X26202380Y-56869047D01*
%TO.C,C18*%
X68357142Y-37142857D02*
X68404761Y-37190476D01*
X68452380Y-37333333D01*
X68452380Y-37428571D01*
X68404761Y-37571428D01*
X68309523Y-37666666D01*
X68214285Y-37714285D01*
X68023809Y-37761904D01*
X67880952Y-37761904D01*
X67690476Y-37714285D01*
X67595238Y-37666666D01*
X67500000Y-37571428D01*
X67452380Y-37428571D01*
X67452380Y-37333333D01*
X67500000Y-37190476D01*
X67547619Y-37142857D01*
X68452380Y-36190476D02*
X68452380Y-36761904D01*
X68452380Y-36476190D02*
X67452380Y-36476190D01*
X67595238Y-36571428D01*
X67690476Y-36666666D01*
X67738095Y-36761904D01*
X67880952Y-35619047D02*
X67833333Y-35714285D01*
X67785714Y-35761904D01*
X67690476Y-35809523D01*
X67642857Y-35809523D01*
X67547619Y-35761904D01*
X67500000Y-35714285D01*
X67452380Y-35619047D01*
X67452380Y-35428571D01*
X67500000Y-35333333D01*
X67547619Y-35285714D01*
X67642857Y-35238095D01*
X67690476Y-35238095D01*
X67785714Y-35285714D01*
X67833333Y-35333333D01*
X67880952Y-35428571D01*
X67880952Y-35619047D01*
X67928571Y-35714285D01*
X67976190Y-35761904D01*
X68071428Y-35809523D01*
X68261904Y-35809523D01*
X68357142Y-35761904D01*
X68404761Y-35714285D01*
X68452380Y-35619047D01*
X68452380Y-35428571D01*
X68404761Y-35333333D01*
X68357142Y-35285714D01*
X68261904Y-35238095D01*
X68071428Y-35238095D01*
X67976190Y-35285714D01*
X67928571Y-35333333D01*
X67880952Y-35428571D01*
%TO.C,D1*%
X19452380Y-49338095D02*
X18452380Y-49338095D01*
X18452380Y-49100000D01*
X18500000Y-48957142D01*
X18595238Y-48861904D01*
X18690476Y-48814285D01*
X18880952Y-48766666D01*
X19023809Y-48766666D01*
X19214285Y-48814285D01*
X19309523Y-48861904D01*
X19404761Y-48957142D01*
X19452380Y-49100000D01*
X19452380Y-49338095D01*
X19452380Y-47814285D02*
X19452380Y-48385714D01*
X19452380Y-48100000D02*
X18452380Y-48100000D01*
X18595238Y-48195238D01*
X18690476Y-48290476D01*
X18738095Y-48385714D01*
X16752380Y-59441904D02*
X15752380Y-59441904D01*
X16752380Y-58870476D02*
X16180952Y-59299047D01*
X15752380Y-58870476D02*
X16323809Y-59441904D01*
%TO.C,J1*%
X9166666Y-21952380D02*
X9166666Y-22666666D01*
X9119047Y-22809523D01*
X9023809Y-22904761D01*
X8880952Y-22952380D01*
X8785714Y-22952380D01*
X10166666Y-22952380D02*
X9595238Y-22952380D01*
X9880952Y-22952380D02*
X9880952Y-21952380D01*
X9785714Y-22095238D01*
X9690476Y-22190476D01*
X9595238Y-22238095D01*
%TO.C,J2*%
X81452380Y-20833333D02*
X82166666Y-20833333D01*
X82309523Y-20880952D01*
X82404761Y-20976190D01*
X82452380Y-21119047D01*
X82452380Y-21214285D01*
X81547619Y-20404761D02*
X81500000Y-20357142D01*
X81452380Y-20261904D01*
X81452380Y-20023809D01*
X81500000Y-19928571D01*
X81547619Y-19880952D01*
X81642857Y-19833333D01*
X81738095Y-19833333D01*
X81880952Y-19880952D01*
X82452380Y-20452380D01*
X82452380Y-19833333D01*
%TO.C,JP1*%
X8466666Y-28322380D02*
X8466666Y-29036666D01*
X8419047Y-29179523D01*
X8323809Y-29274761D01*
X8180952Y-29322380D01*
X8085714Y-29322380D01*
X8942857Y-29322380D02*
X8942857Y-28322380D01*
X9323809Y-28322380D01*
X9419047Y-28370000D01*
X9466666Y-28417619D01*
X9514285Y-28512857D01*
X9514285Y-28655714D01*
X9466666Y-28750952D01*
X9419047Y-28798571D01*
X9323809Y-28846190D01*
X8942857Y-28846190D01*
X10466666Y-29322380D02*
X9895238Y-29322380D01*
X10180952Y-29322380D02*
X10180952Y-28322380D01*
X10085714Y-28465238D01*
X9990476Y-28560476D01*
X9895238Y-28608095D01*
%TO.C,R1*%
X10952380Y-26166666D02*
X10476190Y-26500000D01*
X10952380Y-26738095D02*
X9952380Y-26738095D01*
X9952380Y-26357142D01*
X10000000Y-26261904D01*
X10047619Y-26214285D01*
X10142857Y-26166666D01*
X10285714Y-26166666D01*
X10380952Y-26214285D01*
X10428571Y-26261904D01*
X10476190Y-26357142D01*
X10476190Y-26738095D01*
X10952380Y-25214285D02*
X10952380Y-25785714D01*
X10952380Y-25500000D02*
X9952380Y-25500000D01*
X10095238Y-25595238D01*
X10190476Y-25690476D01*
X10238095Y-25785714D01*
%TO.C,R2*%
X18952380Y-28666666D02*
X18476190Y-29000000D01*
X18952380Y-29238095D02*
X17952380Y-29238095D01*
X17952380Y-28857142D01*
X18000000Y-28761904D01*
X18047619Y-28714285D01*
X18142857Y-28666666D01*
X18285714Y-28666666D01*
X18380952Y-28714285D01*
X18428571Y-28761904D01*
X18476190Y-28857142D01*
X18476190Y-29238095D01*
X18047619Y-28285714D02*
X18000000Y-28238095D01*
X17952380Y-28142857D01*
X17952380Y-27904761D01*
X18000000Y-27809523D01*
X18047619Y-27761904D01*
X18142857Y-27714285D01*
X18238095Y-27714285D01*
X18380952Y-27761904D01*
X18952380Y-28333333D01*
X18952380Y-27714285D01*
%TO.C,R3*%
X18352380Y-60346666D02*
X17876190Y-60680000D01*
X18352380Y-60918095D02*
X17352380Y-60918095D01*
X17352380Y-60537142D01*
X17400000Y-60441904D01*
X17447619Y-60394285D01*
X17542857Y-60346666D01*
X17685714Y-60346666D01*
X17780952Y-60394285D01*
X17828571Y-60441904D01*
X17876190Y-60537142D01*
X17876190Y-60918095D01*
X17352380Y-60013333D02*
X17352380Y-59394285D01*
X17733333Y-59727619D01*
X17733333Y-59584761D01*
X17780952Y-59489523D01*
X17828571Y-59441904D01*
X17923809Y-59394285D01*
X18161904Y-59394285D01*
X18257142Y-59441904D01*
X18304761Y-59489523D01*
X18352380Y-59584761D01*
X18352380Y-59870476D01*
X18304761Y-59965714D01*
X18257142Y-60013333D01*
%TO.C,R4*%
X26052380Y-53966666D02*
X25576190Y-54300000D01*
X26052380Y-54538095D02*
X25052380Y-54538095D01*
X25052380Y-54157142D01*
X25100000Y-54061904D01*
X25147619Y-54014285D01*
X25242857Y-53966666D01*
X25385714Y-53966666D01*
X25480952Y-54014285D01*
X25528571Y-54061904D01*
X25576190Y-54157142D01*
X25576190Y-54538095D01*
X25385714Y-53109523D02*
X26052380Y-53109523D01*
X25004761Y-53347619D02*
X25719047Y-53585714D01*
X25719047Y-52966666D01*
%TO.C,R5*%
X11652380Y-54786666D02*
X11176190Y-55120000D01*
X11652380Y-55358095D02*
X10652380Y-55358095D01*
X10652380Y-54977142D01*
X10700000Y-54881904D01*
X10747619Y-54834285D01*
X10842857Y-54786666D01*
X10985714Y-54786666D01*
X11080952Y-54834285D01*
X11128571Y-54881904D01*
X11176190Y-54977142D01*
X11176190Y-55358095D01*
X10652380Y-53881904D02*
X10652380Y-54358095D01*
X11128571Y-54405714D01*
X11080952Y-54358095D01*
X11033333Y-54262857D01*
X11033333Y-54024761D01*
X11080952Y-53929523D01*
X11128571Y-53881904D01*
X11223809Y-53834285D01*
X11461904Y-53834285D01*
X11557142Y-53881904D01*
X11604761Y-53929523D01*
X11652380Y-54024761D01*
X11652380Y-54262857D01*
X11604761Y-54358095D01*
X11557142Y-54405714D01*
%TO.C,R6*%
X35333333Y-20952380D02*
X35000000Y-20476190D01*
X34761904Y-20952380D02*
X34761904Y-19952380D01*
X35142857Y-19952380D01*
X35238095Y-20000000D01*
X35285714Y-20047619D01*
X35333333Y-20142857D01*
X35333333Y-20285714D01*
X35285714Y-20380952D01*
X35238095Y-20428571D01*
X35142857Y-20476190D01*
X34761904Y-20476190D01*
X36190476Y-19952380D02*
X36000000Y-19952380D01*
X35904761Y-20000000D01*
X35857142Y-20047619D01*
X35761904Y-20190476D01*
X35714285Y-20380952D01*
X35714285Y-20761904D01*
X35761904Y-20857142D01*
X35809523Y-20904761D01*
X35904761Y-20952380D01*
X36095238Y-20952380D01*
X36190476Y-20904761D01*
X36238095Y-20857142D01*
X36285714Y-20761904D01*
X36285714Y-20523809D01*
X36238095Y-20428571D01*
X36190476Y-20380952D01*
X36095238Y-20333333D01*
X35904761Y-20333333D01*
X35809523Y-20380952D01*
X35761904Y-20428571D01*
X35714285Y-20523809D01*
%TO.C,R7*%
X54833333Y-20452380D02*
X54500000Y-19976190D01*
X54261904Y-20452380D02*
X54261904Y-19452380D01*
X54642857Y-19452380D01*
X54738095Y-19500000D01*
X54785714Y-19547619D01*
X54833333Y-19642857D01*
X54833333Y-19785714D01*
X54785714Y-19880952D01*
X54738095Y-19928571D01*
X54642857Y-19976190D01*
X54261904Y-19976190D01*
X55166666Y-19452380D02*
X55833333Y-19452380D01*
X55404761Y-20452380D01*
%TO.C,R8*%
X45333333Y-24452380D02*
X45000000Y-23976190D01*
X44761904Y-24452380D02*
X44761904Y-23452380D01*
X45142857Y-23452380D01*
X45238095Y-23500000D01*
X45285714Y-23547619D01*
X45333333Y-23642857D01*
X45333333Y-23785714D01*
X45285714Y-23880952D01*
X45238095Y-23928571D01*
X45142857Y-23976190D01*
X44761904Y-23976190D01*
X45904761Y-23880952D02*
X45809523Y-23833333D01*
X45761904Y-23785714D01*
X45714285Y-23690476D01*
X45714285Y-23642857D01*
X45761904Y-23547619D01*
X45809523Y-23500000D01*
X45904761Y-23452380D01*
X46095238Y-23452380D01*
X46190476Y-23500000D01*
X46238095Y-23547619D01*
X46285714Y-23642857D01*
X46285714Y-23690476D01*
X46238095Y-23785714D01*
X46190476Y-23833333D01*
X46095238Y-23880952D01*
X45904761Y-23880952D01*
X45809523Y-23928571D01*
X45761904Y-23976190D01*
X45714285Y-24071428D01*
X45714285Y-24261904D01*
X45761904Y-24357142D01*
X45809523Y-24404761D01*
X45904761Y-24452380D01*
X46095238Y-24452380D01*
X46190476Y-24404761D01*
X46238095Y-24357142D01*
X46285714Y-24261904D01*
X46285714Y-24071428D01*
X46238095Y-23976190D01*
X46190476Y-23928571D01*
X46095238Y-23880952D01*
%TO.C,R9*%
X67632380Y-16946666D02*
X67156190Y-17280000D01*
X67632380Y-17518095D02*
X66632380Y-17518095D01*
X66632380Y-17137142D01*
X66680000Y-17041904D01*
X66727619Y-16994285D01*
X66822857Y-16946666D01*
X66965714Y-16946666D01*
X67060952Y-16994285D01*
X67108571Y-17041904D01*
X67156190Y-17137142D01*
X67156190Y-17518095D01*
X67632380Y-16470476D02*
X67632380Y-16280000D01*
X67584761Y-16184761D01*
X67537142Y-16137142D01*
X67394285Y-16041904D01*
X67203809Y-15994285D01*
X66822857Y-15994285D01*
X66727619Y-16041904D01*
X66680000Y-16089523D01*
X66632380Y-16184761D01*
X66632380Y-16375238D01*
X66680000Y-16470476D01*
X66727619Y-16518095D01*
X66822857Y-16565714D01*
X67060952Y-16565714D01*
X67156190Y-16518095D01*
X67203809Y-16470476D01*
X67251428Y-16375238D01*
X67251428Y-16184761D01*
X67203809Y-16089523D01*
X67156190Y-16041904D01*
X67060952Y-15994285D01*
%TO.C,R10*%
X51857142Y-47952380D02*
X51523809Y-47476190D01*
X51285714Y-47952380D02*
X51285714Y-46952380D01*
X51666666Y-46952380D01*
X51761904Y-47000000D01*
X51809523Y-47047619D01*
X51857142Y-47142857D01*
X51857142Y-47285714D01*
X51809523Y-47380952D01*
X51761904Y-47428571D01*
X51666666Y-47476190D01*
X51285714Y-47476190D01*
X52809523Y-47952380D02*
X52238095Y-47952380D01*
X52523809Y-47952380D02*
X52523809Y-46952380D01*
X52428571Y-47095238D01*
X52333333Y-47190476D01*
X52238095Y-47238095D01*
X53428571Y-46952380D02*
X53523809Y-46952380D01*
X53619047Y-47000000D01*
X53666666Y-47047619D01*
X53714285Y-47142857D01*
X53761904Y-47333333D01*
X53761904Y-47571428D01*
X53714285Y-47761904D01*
X53666666Y-47857142D01*
X53619047Y-47904761D01*
X53523809Y-47952380D01*
X53428571Y-47952380D01*
X53333333Y-47904761D01*
X53285714Y-47857142D01*
X53238095Y-47761904D01*
X53190476Y-47571428D01*
X53190476Y-47333333D01*
X53238095Y-47142857D01*
X53285714Y-47047619D01*
X53333333Y-47000000D01*
X53428571Y-46952380D01*
%TO.C,R11*%
X44857142Y-48452380D02*
X44523809Y-47976190D01*
X44285714Y-48452380D02*
X44285714Y-47452380D01*
X44666666Y-47452380D01*
X44761904Y-47500000D01*
X44809523Y-47547619D01*
X44857142Y-47642857D01*
X44857142Y-47785714D01*
X44809523Y-47880952D01*
X44761904Y-47928571D01*
X44666666Y-47976190D01*
X44285714Y-47976190D01*
X45809523Y-48452380D02*
X45238095Y-48452380D01*
X45523809Y-48452380D02*
X45523809Y-47452380D01*
X45428571Y-47595238D01*
X45333333Y-47690476D01*
X45238095Y-47738095D01*
X46761904Y-48452380D02*
X46190476Y-48452380D01*
X46476190Y-48452380D02*
X46476190Y-47452380D01*
X46380952Y-47595238D01*
X46285714Y-47690476D01*
X46190476Y-47738095D01*
%TO.C,R13*%
X73472380Y-50062857D02*
X72996190Y-50396190D01*
X73472380Y-50634285D02*
X72472380Y-50634285D01*
X72472380Y-50253333D01*
X72520000Y-50158095D01*
X72567619Y-50110476D01*
X72662857Y-50062857D01*
X72805714Y-50062857D01*
X72900952Y-50110476D01*
X72948571Y-50158095D01*
X72996190Y-50253333D01*
X72996190Y-50634285D01*
X73472380Y-49110476D02*
X73472380Y-49681904D01*
X73472380Y-49396190D02*
X72472380Y-49396190D01*
X72615238Y-49491428D01*
X72710476Y-49586666D01*
X72758095Y-49681904D01*
X72472380Y-48777142D02*
X72472380Y-48158095D01*
X72853333Y-48491428D01*
X72853333Y-48348571D01*
X72900952Y-48253333D01*
X72948571Y-48205714D01*
X73043809Y-48158095D01*
X73281904Y-48158095D01*
X73377142Y-48205714D01*
X73424761Y-48253333D01*
X73472380Y-48348571D01*
X73472380Y-48634285D01*
X73424761Y-48729523D01*
X73377142Y-48777142D01*
%TO.C,U1*%
X32738095Y-5952380D02*
X32738095Y-6761904D01*
X32785714Y-6857142D01*
X32833333Y-6904761D01*
X32928571Y-6952380D01*
X33119047Y-6952380D01*
X33214285Y-6904761D01*
X33261904Y-6857142D01*
X33309523Y-6761904D01*
X33309523Y-5952380D01*
X34309523Y-6952380D02*
X33738095Y-6952380D01*
X34023809Y-6952380D02*
X34023809Y-5952380D01*
X33928571Y-6095238D01*
X33833333Y-6190476D01*
X33738095Y-6238095D01*
%TO.C,U2*%
X56238095Y-59952380D02*
X56238095Y-60761904D01*
X56285714Y-60857142D01*
X56333333Y-60904761D01*
X56428571Y-60952380D01*
X56619047Y-60952380D01*
X56714285Y-60904761D01*
X56761904Y-60857142D01*
X56809523Y-60761904D01*
X56809523Y-59952380D01*
X57238095Y-60047619D02*
X57285714Y-60000000D01*
X57380952Y-59952380D01*
X57619047Y-59952380D01*
X57714285Y-60000000D01*
X57761904Y-60047619D01*
X57809523Y-60142857D01*
X57809523Y-60238095D01*
X57761904Y-60380952D01*
X57190476Y-60952380D01*
X57809523Y-60952380D01*
%TO.C,J3*%
X48622380Y-33533333D02*
X49336666Y-33533333D01*
X49479523Y-33580952D01*
X49574761Y-33676190D01*
X49622380Y-33819047D01*
X49622380Y-33914285D01*
X48622380Y-33152380D02*
X48622380Y-32533333D01*
X49003333Y-32866666D01*
X49003333Y-32723809D01*
X49050952Y-32628571D01*
X49098571Y-32580952D01*
X49193809Y-32533333D01*
X49431904Y-32533333D01*
X49527142Y-32580952D01*
X49574761Y-32628571D01*
X49622380Y-32723809D01*
X49622380Y-33009523D01*
X49574761Y-33104761D01*
X49527142Y-33152380D01*
%TO.C,R12*%
X42857142Y-44452380D02*
X42523809Y-43976190D01*
X42285714Y-44452380D02*
X42285714Y-43452380D01*
X42666666Y-43452380D01*
X42761904Y-43500000D01*
X42809523Y-43547619D01*
X42857142Y-43642857D01*
X42857142Y-43785714D01*
X42809523Y-43880952D01*
X42761904Y-43928571D01*
X42666666Y-43976190D01*
X42285714Y-43976190D01*
X43809523Y-44452380D02*
X43238095Y-44452380D01*
X43523809Y-44452380D02*
X43523809Y-43452380D01*
X43428571Y-43595238D01*
X43333333Y-43690476D01*
X43238095Y-43738095D01*
X44190476Y-43547619D02*
X44238095Y-43500000D01*
X44333333Y-43452380D01*
X44571428Y-43452380D01*
X44666666Y-43500000D01*
X44714285Y-43547619D01*
X44761904Y-43642857D01*
X44761904Y-43738095D01*
X44714285Y-43880952D01*
X44142857Y-44452380D01*
X44761904Y-44452380D01*
%TO.C,H1*%
X81738095Y-56152380D02*
X81738095Y-55152380D01*
X81738095Y-55628571D02*
X82309523Y-55628571D01*
X82309523Y-56152380D02*
X82309523Y-55152380D01*
X83309523Y-56152380D02*
X82738095Y-56152380D01*
X83023809Y-56152380D02*
X83023809Y-55152380D01*
X82928571Y-55295238D01*
X82833333Y-55390476D01*
X82738095Y-55438095D01*
D12*
%TO.C,C1*%
X13940000Y-41269000D02*
X15022000Y-41269000D01*
X11649000Y-40469000D02*
X11860000Y-40469000D01*
X13940000Y-41749000D02*
X15282000Y-41749000D01*
X13940000Y-42190000D02*
X15420000Y-42190000D01*
X10420000Y-42029000D02*
X11860000Y-42029000D01*
X10653000Y-41469000D02*
X11860000Y-41469000D01*
X13940000Y-40469000D02*
X14151000Y-40469000D01*
X13940000Y-41429000D02*
X15124000Y-41429000D01*
X11517000Y-40549000D02*
X11860000Y-40549000D01*
X10357000Y-42310000D02*
X11860000Y-42310000D01*
X11201000Y-40789000D02*
X11860000Y-40789000D01*
X13940000Y-40989000D02*
X14801000Y-40989000D01*
X13940000Y-42070000D02*
X15391000Y-42070000D01*
X13940000Y-40909000D02*
X14726000Y-40909000D01*
X10320000Y-42710000D02*
X15480000Y-42710000D01*
X10571000Y-41629000D02*
X11860000Y-41629000D01*
X10676000Y-41429000D02*
X11860000Y-41429000D01*
X13940000Y-40709000D02*
X14505000Y-40709000D01*
X10751000Y-41309000D02*
X11860000Y-41309000D01*
X10339000Y-42430000D02*
X11860000Y-42430000D01*
X11985000Y-40309000D02*
X13815000Y-40309000D01*
X13940000Y-41629000D02*
X15229000Y-41629000D01*
X13940000Y-41549000D02*
X15190000Y-41549000D01*
X10445000Y-41949000D02*
X11860000Y-41949000D01*
X11802000Y-40389000D02*
X13998000Y-40389000D01*
X13940000Y-41909000D02*
X15342000Y-41909000D01*
X10335000Y-42470000D02*
X11860000Y-42470000D01*
X10331000Y-42510000D02*
X11860000Y-42510000D01*
X10610000Y-41549000D02*
X11860000Y-41549000D01*
X10835000Y-41189000D02*
X11860000Y-41189000D01*
X10486000Y-41829000D02*
X11860000Y-41829000D01*
X13940000Y-40749000D02*
X14553000Y-40749000D01*
X11425000Y-45554775D02*
X11425000Y-45054775D01*
X11346000Y-40669000D02*
X11860000Y-40669000D01*
X11722000Y-40429000D02*
X14078000Y-40429000D01*
X13940000Y-40829000D02*
X14643000Y-40829000D01*
X13940000Y-42029000D02*
X15380000Y-42029000D01*
X10380000Y-42190000D02*
X11860000Y-42190000D01*
X12223000Y-40229000D02*
X13577000Y-40229000D01*
X10999000Y-40989000D02*
X11860000Y-40989000D01*
X11157000Y-40829000D02*
X11860000Y-40829000D01*
X13940000Y-40509000D02*
X14219000Y-40509000D01*
X11247000Y-40749000D02*
X11860000Y-40749000D01*
X13940000Y-41149000D02*
X14935000Y-41149000D01*
X13940000Y-41029000D02*
X14837000Y-41029000D01*
X10700000Y-41389000D02*
X11860000Y-41389000D01*
X13940000Y-41069000D02*
X14871000Y-41069000D01*
X10321000Y-42670000D02*
X15479000Y-42670000D01*
X13940000Y-41829000D02*
X15314000Y-41829000D01*
X13940000Y-42110000D02*
X15401000Y-42110000D01*
X13940000Y-41469000D02*
X15147000Y-41469000D01*
X13940000Y-41509000D02*
X15168000Y-41509000D01*
X13940000Y-40789000D02*
X14599000Y-40789000D01*
X10518000Y-41749000D02*
X11860000Y-41749000D01*
X12616000Y-40149000D02*
X13184000Y-40149000D01*
X10632000Y-41509000D02*
X11860000Y-41509000D01*
X11889000Y-40349000D02*
X13911000Y-40349000D01*
X13940000Y-41589000D02*
X15210000Y-41589000D01*
X10725000Y-41349000D02*
X11860000Y-41349000D01*
X10963000Y-41029000D02*
X11860000Y-41029000D01*
X13940000Y-41189000D02*
X14965000Y-41189000D01*
X13940000Y-40589000D02*
X14343000Y-40589000D01*
X10778000Y-41269000D02*
X11860000Y-41269000D01*
X13940000Y-42510000D02*
X15469000Y-42510000D01*
X10552000Y-41669000D02*
X11860000Y-41669000D01*
X13940000Y-41869000D02*
X15328000Y-41869000D01*
X13940000Y-42430000D02*
X15461000Y-42430000D01*
X10327000Y-42550000D02*
X15473000Y-42550000D01*
X10458000Y-41909000D02*
X11860000Y-41909000D01*
X13940000Y-42310000D02*
X15443000Y-42310000D01*
X13940000Y-41349000D02*
X15075000Y-41349000D01*
X10324000Y-42590000D02*
X15476000Y-42590000D01*
X10929000Y-41069000D02*
X11860000Y-41069000D01*
X10896000Y-41109000D02*
X11860000Y-41109000D01*
X13940000Y-40549000D02*
X14283000Y-40549000D01*
X13940000Y-41789000D02*
X15298000Y-41789000D01*
X13940000Y-42270000D02*
X15436000Y-42270000D01*
X10590000Y-41589000D02*
X11860000Y-41589000D01*
X13940000Y-41669000D02*
X15248000Y-41669000D01*
X10344000Y-42390000D02*
X11860000Y-42390000D01*
X13940000Y-41989000D02*
X15368000Y-41989000D01*
X13940000Y-42470000D02*
X15465000Y-42470000D01*
X11074000Y-40909000D02*
X11860000Y-40909000D01*
X11457000Y-40589000D02*
X11860000Y-40589000D01*
X10364000Y-42270000D02*
X11860000Y-42270000D01*
X13940000Y-41949000D02*
X15355000Y-41949000D01*
X10389000Y-42150000D02*
X11860000Y-42150000D01*
X10865000Y-41149000D02*
X11860000Y-41149000D01*
X13940000Y-42150000D02*
X15411000Y-42150000D01*
X11581000Y-40509000D02*
X11860000Y-40509000D01*
X13940000Y-41229000D02*
X14995000Y-41229000D01*
X12382000Y-40189000D02*
X13418000Y-40189000D01*
X13940000Y-41709000D02*
X15265000Y-41709000D01*
X13940000Y-41389000D02*
X15100000Y-41389000D01*
X13940000Y-42350000D02*
X15450000Y-42350000D01*
X10409000Y-42070000D02*
X11860000Y-42070000D01*
X13940000Y-42390000D02*
X15456000Y-42390000D01*
X10502000Y-41789000D02*
X11860000Y-41789000D01*
X10320000Y-42750000D02*
X15480000Y-42750000D01*
X11036000Y-40949000D02*
X11860000Y-40949000D01*
X13940000Y-41109000D02*
X14904000Y-41109000D01*
X13940000Y-40869000D02*
X14685000Y-40869000D01*
X13940000Y-42230000D02*
X15428000Y-42230000D01*
X11295000Y-40709000D02*
X11860000Y-40709000D01*
X10399000Y-42110000D02*
X11860000Y-42110000D01*
X12095000Y-40269000D02*
X13705000Y-40269000D01*
X11115000Y-40869000D02*
X11860000Y-40869000D01*
X13940000Y-40669000D02*
X14454000Y-40669000D01*
X10432000Y-41989000D02*
X11860000Y-41989000D01*
X10350000Y-42350000D02*
X11860000Y-42350000D01*
X10372000Y-42230000D02*
X11860000Y-42230000D01*
X13940000Y-40949000D02*
X14764000Y-40949000D01*
X11400000Y-40629000D02*
X11860000Y-40629000D01*
X10805000Y-41229000D02*
X11860000Y-41229000D01*
X10472000Y-41869000D02*
X11860000Y-41869000D01*
X13940000Y-40629000D02*
X14400000Y-40629000D01*
X10535000Y-41709000D02*
X11860000Y-41709000D01*
X10322000Y-42630000D02*
X15478000Y-42630000D01*
X11175000Y-45304775D02*
X11675000Y-45304775D01*
X13940000Y-41309000D02*
X15049000Y-41309000D01*
X15520000Y-42750000D02*
G75*
G03*
X15520000Y-42750000I-2620000J0D01*
G01*
%TO.C,C2*%
X17322000Y-40429000D02*
X19678000Y-40429000D01*
X19540000Y-42350000D02*
X21050000Y-42350000D01*
X16405000Y-41229000D02*
X17460000Y-41229000D01*
X16210000Y-41549000D02*
X17460000Y-41549000D01*
X19540000Y-42190000D02*
X21020000Y-42190000D01*
X16152000Y-41669000D02*
X17460000Y-41669000D01*
X19540000Y-42029000D02*
X20980000Y-42029000D01*
X19540000Y-41629000D02*
X20829000Y-41629000D01*
X16325000Y-41349000D02*
X17460000Y-41349000D01*
X19540000Y-42150000D02*
X21011000Y-42150000D01*
X17489000Y-40349000D02*
X19511000Y-40349000D01*
X19540000Y-42110000D02*
X21001000Y-42110000D01*
X15964000Y-42270000D02*
X17460000Y-42270000D01*
X19540000Y-40629000D02*
X20000000Y-40629000D01*
X15989000Y-42150000D02*
X17460000Y-42150000D01*
X16465000Y-41149000D02*
X17460000Y-41149000D01*
X16946000Y-40669000D02*
X17460000Y-40669000D01*
X16636000Y-40949000D02*
X17460000Y-40949000D01*
X17117000Y-40549000D02*
X17460000Y-40549000D01*
X16135000Y-41709000D02*
X17460000Y-41709000D01*
X19540000Y-42470000D02*
X21065000Y-42470000D01*
X19540000Y-41429000D02*
X20724000Y-41429000D01*
X16086000Y-41829000D02*
X17460000Y-41829000D01*
X19540000Y-41389000D02*
X20700000Y-41389000D01*
X16435000Y-41189000D02*
X17460000Y-41189000D01*
X19540000Y-40509000D02*
X19819000Y-40509000D01*
X19540000Y-42310000D02*
X21043000Y-42310000D01*
X15980000Y-42190000D02*
X17460000Y-42190000D01*
X16847000Y-40749000D02*
X17460000Y-40749000D01*
X19540000Y-41349000D02*
X20675000Y-41349000D01*
X16529000Y-41069000D02*
X17460000Y-41069000D01*
X19540000Y-41509000D02*
X20768000Y-41509000D01*
X19540000Y-41869000D02*
X20928000Y-41869000D01*
X15957000Y-42310000D02*
X17460000Y-42310000D01*
X19540000Y-41029000D02*
X20437000Y-41029000D01*
X16232000Y-41509000D02*
X17460000Y-41509000D01*
X16118000Y-41749000D02*
X17460000Y-41749000D01*
X19540000Y-41949000D02*
X20955000Y-41949000D01*
X19540000Y-40549000D02*
X19883000Y-40549000D01*
X15931000Y-42510000D02*
X17460000Y-42510000D01*
X19540000Y-41549000D02*
X20790000Y-41549000D01*
X18216000Y-40149000D02*
X18784000Y-40149000D01*
X19540000Y-40469000D02*
X19751000Y-40469000D01*
X16563000Y-41029000D02*
X17460000Y-41029000D01*
X15920000Y-42710000D02*
X21080000Y-42710000D01*
X19540000Y-41589000D02*
X20810000Y-41589000D01*
X19540000Y-41069000D02*
X20471000Y-41069000D01*
X19540000Y-42390000D02*
X21056000Y-42390000D01*
X19540000Y-41149000D02*
X20535000Y-41149000D01*
X19540000Y-40709000D02*
X20105000Y-40709000D01*
X16276000Y-41429000D02*
X17460000Y-41429000D01*
X16715000Y-40869000D02*
X17460000Y-40869000D01*
X16020000Y-42029000D02*
X17460000Y-42029000D01*
X16674000Y-40909000D02*
X17460000Y-40909000D01*
X16775000Y-45304775D02*
X17275000Y-45304775D01*
X19540000Y-41909000D02*
X20942000Y-41909000D01*
X17249000Y-40469000D02*
X17460000Y-40469000D01*
X17402000Y-40389000D02*
X19598000Y-40389000D01*
X19540000Y-41109000D02*
X20504000Y-41109000D01*
X15924000Y-42590000D02*
X21076000Y-42590000D01*
X15950000Y-42350000D02*
X17460000Y-42350000D01*
X17181000Y-40509000D02*
X17460000Y-40509000D01*
X16032000Y-41989000D02*
X17460000Y-41989000D01*
X16757000Y-40829000D02*
X17460000Y-40829000D01*
X16009000Y-42070000D02*
X17460000Y-42070000D01*
X19540000Y-41669000D02*
X20848000Y-41669000D01*
X15920000Y-42750000D02*
X21080000Y-42750000D01*
X16599000Y-40989000D02*
X17460000Y-40989000D01*
X16058000Y-41909000D02*
X17460000Y-41909000D01*
X19540000Y-41309000D02*
X20649000Y-41309000D01*
X19540000Y-40669000D02*
X20054000Y-40669000D01*
X19540000Y-41709000D02*
X20865000Y-41709000D01*
X19540000Y-42510000D02*
X21069000Y-42510000D01*
X15999000Y-42110000D02*
X17460000Y-42110000D01*
X16351000Y-41309000D02*
X17460000Y-41309000D01*
X16171000Y-41629000D02*
X17460000Y-41629000D01*
X17823000Y-40229000D02*
X19177000Y-40229000D01*
X17695000Y-40269000D02*
X19305000Y-40269000D01*
X15935000Y-42470000D02*
X17460000Y-42470000D01*
X16253000Y-41469000D02*
X17460000Y-41469000D01*
X16378000Y-41269000D02*
X17460000Y-41269000D01*
X19540000Y-40749000D02*
X20153000Y-40749000D01*
X16801000Y-40789000D02*
X17460000Y-40789000D01*
X15927000Y-42550000D02*
X21073000Y-42550000D01*
X17057000Y-40589000D02*
X17460000Y-40589000D01*
X19540000Y-42430000D02*
X21061000Y-42430000D01*
X19540000Y-41989000D02*
X20968000Y-41989000D01*
X19540000Y-40989000D02*
X20401000Y-40989000D01*
X16045000Y-41949000D02*
X17460000Y-41949000D01*
X19540000Y-40909000D02*
X20326000Y-40909000D01*
X17982000Y-40189000D02*
X19018000Y-40189000D01*
X19540000Y-40949000D02*
X20364000Y-40949000D01*
X19540000Y-40789000D02*
X20199000Y-40789000D01*
X16190000Y-41589000D02*
X17460000Y-41589000D01*
X19540000Y-40589000D02*
X19943000Y-40589000D01*
X19540000Y-41749000D02*
X20882000Y-41749000D01*
X19540000Y-42230000D02*
X21028000Y-42230000D01*
X19540000Y-40829000D02*
X20243000Y-40829000D01*
X16300000Y-41389000D02*
X17460000Y-41389000D01*
X19540000Y-41829000D02*
X20914000Y-41829000D01*
X17025000Y-45554775D02*
X17025000Y-45054775D01*
X16895000Y-40709000D02*
X17460000Y-40709000D01*
X15972000Y-42230000D02*
X17460000Y-42230000D01*
X15921000Y-42670000D02*
X21079000Y-42670000D01*
X19540000Y-41469000D02*
X20747000Y-41469000D01*
X16102000Y-41789000D02*
X17460000Y-41789000D01*
X19540000Y-41229000D02*
X20595000Y-41229000D01*
X19540000Y-40869000D02*
X20285000Y-40869000D01*
X15944000Y-42390000D02*
X17460000Y-42390000D01*
X15939000Y-42430000D02*
X17460000Y-42430000D01*
X19540000Y-41189000D02*
X20565000Y-41189000D01*
X19540000Y-42270000D02*
X21036000Y-42270000D01*
X17585000Y-40309000D02*
X19415000Y-40309000D01*
X19540000Y-41269000D02*
X20622000Y-41269000D01*
X17000000Y-40629000D02*
X17460000Y-40629000D01*
X16496000Y-41109000D02*
X17460000Y-41109000D01*
X16072000Y-41869000D02*
X17460000Y-41869000D01*
X15922000Y-42630000D02*
X21078000Y-42630000D01*
X19540000Y-42070000D02*
X20991000Y-42070000D01*
X19540000Y-41789000D02*
X20898000Y-41789000D01*
X21120000Y-42750000D02*
G75*
G03*
X21120000Y-42750000I-2620000J0D01*
G01*
%TO.C,C3*%
X41570000Y-21230000D02*
X41570000Y-25770000D01*
X41570000Y-21230000D02*
X41555000Y-21230000D01*
X39430000Y-21230000D02*
X39430000Y-25770000D01*
X39445000Y-25770000D02*
X39430000Y-25770000D01*
X41570000Y-25770000D02*
X41555000Y-25770000D01*
X39445000Y-21230000D02*
X39430000Y-21230000D01*
%TO.C,C4*%
X59489000Y-13749000D02*
X61511000Y-13749000D01*
X58032000Y-15389000D02*
X59460000Y-15389000D01*
X61540000Y-15069000D02*
X62848000Y-15069000D01*
X61540000Y-15269000D02*
X62928000Y-15269000D01*
X58171000Y-15029000D02*
X59460000Y-15029000D01*
X58946000Y-14069000D02*
X59460000Y-14069000D01*
X59585000Y-13709000D02*
X61415000Y-13709000D01*
X61540000Y-14149000D02*
X62153000Y-14149000D01*
X57980000Y-15590000D02*
X59460000Y-15590000D01*
X60216000Y-13549000D02*
X60784000Y-13549000D01*
X58801000Y-14189000D02*
X59460000Y-14189000D01*
X58351000Y-14709000D02*
X59460000Y-14709000D01*
X61540000Y-13949000D02*
X61883000Y-13949000D01*
X61540000Y-14789000D02*
X62700000Y-14789000D01*
X61540000Y-14709000D02*
X62649000Y-14709000D01*
X58529000Y-14469000D02*
X59460000Y-14469000D01*
X58636000Y-14349000D02*
X59460000Y-14349000D01*
X61540000Y-15510000D02*
X63001000Y-15510000D01*
X61540000Y-15349000D02*
X62955000Y-15349000D01*
X61540000Y-15029000D02*
X62829000Y-15029000D01*
X58020000Y-15429000D02*
X59460000Y-15429000D01*
X61540000Y-15670000D02*
X63036000Y-15670000D01*
X57999000Y-15510000D02*
X59460000Y-15510000D01*
X57957000Y-15710000D02*
X59460000Y-15710000D01*
X58232000Y-14909000D02*
X59460000Y-14909000D01*
X61540000Y-14549000D02*
X62535000Y-14549000D01*
X61540000Y-14869000D02*
X62747000Y-14869000D01*
X61540000Y-14349000D02*
X62364000Y-14349000D01*
X61540000Y-15389000D02*
X62968000Y-15389000D01*
X61540000Y-15229000D02*
X62914000Y-15229000D01*
X61540000Y-14669000D02*
X62622000Y-14669000D01*
X61540000Y-13989000D02*
X61943000Y-13989000D01*
X57939000Y-15830000D02*
X59460000Y-15830000D01*
X57922000Y-16030000D02*
X63078000Y-16030000D01*
X61540000Y-14069000D02*
X62054000Y-14069000D01*
X61540000Y-15790000D02*
X63056000Y-15790000D01*
X61540000Y-15710000D02*
X63043000Y-15710000D01*
X57920000Y-16150000D02*
X63080000Y-16150000D01*
X58465000Y-14549000D02*
X59460000Y-14549000D01*
X58757000Y-14229000D02*
X59460000Y-14229000D01*
X61540000Y-13909000D02*
X61819000Y-13909000D01*
X59057000Y-13989000D02*
X59460000Y-13989000D01*
X61540000Y-15470000D02*
X62991000Y-15470000D01*
X57931000Y-15910000D02*
X59460000Y-15910000D01*
X61540000Y-14829000D02*
X62724000Y-14829000D01*
X59000000Y-14029000D02*
X59460000Y-14029000D01*
X61540000Y-14589000D02*
X62565000Y-14589000D01*
X61540000Y-13869000D02*
X61751000Y-13869000D01*
X58118000Y-15149000D02*
X59460000Y-15149000D01*
X58009000Y-15470000D02*
X59460000Y-15470000D01*
X57989000Y-15550000D02*
X59460000Y-15550000D01*
X57950000Y-15750000D02*
X59460000Y-15750000D01*
X58599000Y-14389000D02*
X59460000Y-14389000D01*
X61540000Y-15590000D02*
X63020000Y-15590000D01*
X61540000Y-15870000D02*
X63065000Y-15870000D01*
X58210000Y-14949000D02*
X59460000Y-14949000D01*
X61540000Y-14749000D02*
X62675000Y-14749000D01*
X59982000Y-13589000D02*
X61018000Y-13589000D01*
X61540000Y-14189000D02*
X62199000Y-14189000D01*
X58325000Y-14749000D02*
X59460000Y-14749000D01*
X61540000Y-14509000D02*
X62504000Y-14509000D01*
X58674000Y-14309000D02*
X59460000Y-14309000D01*
X61540000Y-15429000D02*
X62980000Y-15429000D01*
X58058000Y-15309000D02*
X59460000Y-15309000D01*
X57927000Y-15950000D02*
X63073000Y-15950000D01*
X58190000Y-14989000D02*
X59460000Y-14989000D01*
X61540000Y-15189000D02*
X62898000Y-15189000D01*
X58847000Y-14149000D02*
X59460000Y-14149000D01*
X61540000Y-14989000D02*
X62810000Y-14989000D01*
X57920000Y-16110000D02*
X63080000Y-16110000D01*
X61540000Y-14389000D02*
X62401000Y-14389000D01*
X58405000Y-14629000D02*
X59460000Y-14629000D01*
X57924000Y-15990000D02*
X63076000Y-15990000D01*
X57972000Y-15630000D02*
X59460000Y-15630000D01*
X61540000Y-14229000D02*
X62243000Y-14229000D01*
X58152000Y-15069000D02*
X59460000Y-15069000D01*
X59402000Y-13789000D02*
X61598000Y-13789000D01*
X59249000Y-13869000D02*
X59460000Y-13869000D01*
X61540000Y-15630000D02*
X63028000Y-15630000D01*
X57935000Y-15870000D02*
X59460000Y-15870000D01*
X61540000Y-14429000D02*
X62437000Y-14429000D01*
X59117000Y-13949000D02*
X59460000Y-13949000D01*
X61540000Y-15109000D02*
X62865000Y-15109000D01*
X58496000Y-14509000D02*
X59460000Y-14509000D01*
X61540000Y-15750000D02*
X63050000Y-15750000D01*
X61540000Y-14269000D02*
X62285000Y-14269000D01*
X61540000Y-15550000D02*
X63011000Y-15550000D01*
X61540000Y-14469000D02*
X62471000Y-14469000D01*
X61540000Y-15830000D02*
X63061000Y-15830000D01*
X61540000Y-14949000D02*
X62790000Y-14949000D01*
X59823000Y-13629000D02*
X61177000Y-13629000D01*
X59181000Y-13909000D02*
X59460000Y-13909000D01*
X58563000Y-14429000D02*
X59460000Y-14429000D01*
X57964000Y-15670000D02*
X59460000Y-15670000D01*
X57921000Y-16070000D02*
X63079000Y-16070000D01*
X58895000Y-14109000D02*
X59460000Y-14109000D01*
X61540000Y-14109000D02*
X62105000Y-14109000D01*
X58276000Y-14829000D02*
X59460000Y-14829000D01*
X61540000Y-14629000D02*
X62595000Y-14629000D01*
X59025000Y-18954775D02*
X59025000Y-18454775D01*
X58715000Y-14269000D02*
X59460000Y-14269000D01*
X61540000Y-15149000D02*
X62882000Y-15149000D01*
X58435000Y-14589000D02*
X59460000Y-14589000D01*
X58775000Y-18704775D02*
X59275000Y-18704775D01*
X57944000Y-15790000D02*
X59460000Y-15790000D01*
X58253000Y-14869000D02*
X59460000Y-14869000D01*
X61540000Y-15910000D02*
X63069000Y-15910000D01*
X59695000Y-13669000D02*
X61305000Y-13669000D01*
X58045000Y-15349000D02*
X59460000Y-15349000D01*
X61540000Y-14029000D02*
X62000000Y-14029000D01*
X58135000Y-15109000D02*
X59460000Y-15109000D01*
X58300000Y-14789000D02*
X59460000Y-14789000D01*
X58102000Y-15189000D02*
X59460000Y-15189000D01*
X61540000Y-14309000D02*
X62326000Y-14309000D01*
X58072000Y-15269000D02*
X59460000Y-15269000D01*
X61540000Y-14909000D02*
X62768000Y-14909000D01*
X58086000Y-15229000D02*
X59460000Y-15229000D01*
X61540000Y-15309000D02*
X62942000Y-15309000D01*
X58378000Y-14669000D02*
X59460000Y-14669000D01*
X59322000Y-13829000D02*
X61678000Y-13829000D01*
X63120000Y-16150000D02*
G75*
G03*
X63120000Y-16150000I-2620000J0D01*
G01*
%TO.C,C5*%
X50945000Y-24730000D02*
X50930000Y-24730000D01*
X50930000Y-24730000D02*
X50930000Y-29270000D01*
X53070000Y-24730000D02*
X53070000Y-29270000D01*
X50945000Y-29270000D02*
X50930000Y-29270000D01*
X53070000Y-29270000D02*
X53055000Y-29270000D01*
X53070000Y-24730000D02*
X53055000Y-24730000D01*
%TO.C,C6*%
X26230000Y-12430000D02*
X26230000Y-12445000D01*
X30770000Y-14555000D02*
X30770000Y-14570000D01*
X26230000Y-12430000D02*
X30770000Y-12430000D01*
X26230000Y-14555000D02*
X26230000Y-14570000D01*
X30770000Y-12430000D02*
X30770000Y-12445000D01*
X26230000Y-14570000D02*
X30770000Y-14570000D01*
%TO.C,C7*%
X64981000Y-21416000D02*
X64981000Y-31084000D01*
X64621000Y-21108000D02*
X64621000Y-31392000D01*
X64221000Y-27690000D02*
X64221000Y-31686000D01*
X63581000Y-20430000D02*
X63581000Y-24810000D01*
X63781000Y-20539000D02*
X63781000Y-24810000D01*
X63501000Y-20388000D02*
X63501000Y-24810000D01*
X64341000Y-27690000D02*
X64341000Y-31603000D01*
X60900000Y-19682000D02*
X60900000Y-32818000D01*
X66421000Y-23327000D02*
X66421000Y-29173000D01*
X65341000Y-21773000D02*
X65341000Y-30727000D01*
X63101000Y-27690000D02*
X63101000Y-32299000D01*
X65221000Y-21648000D02*
X65221000Y-30852000D01*
X64501000Y-21015000D02*
X64501000Y-31485000D01*
X63701000Y-20494000D02*
X63701000Y-24810000D01*
X63061000Y-27690000D02*
X63061000Y-32315000D01*
X62941000Y-27690000D02*
X62941000Y-32364000D01*
X63741000Y-20517000D02*
X63741000Y-24810000D01*
X63981000Y-20658000D02*
X63981000Y-24810000D01*
X63141000Y-27690000D02*
X63141000Y-32281000D01*
X65461000Y-21905000D02*
X65461000Y-30595000D01*
X64021000Y-20683000D02*
X64021000Y-24810000D01*
X66821000Y-24319000D02*
X66821000Y-28181000D01*
X60940000Y-19684000D02*
X60940000Y-32816000D01*
X64261000Y-27690000D02*
X64261000Y-31659000D01*
X64421000Y-20955000D02*
X64421000Y-24810000D01*
X66581000Y-23671000D02*
X66581000Y-28829000D01*
X63181000Y-27690000D02*
X63181000Y-32264000D01*
X63621000Y-27690000D02*
X63621000Y-32049000D01*
X66621000Y-23766000D02*
X66621000Y-28734000D01*
X61421000Y-19734000D02*
X61421000Y-32766000D01*
X63861000Y-27690000D02*
X63861000Y-31914000D01*
X63301000Y-27690000D02*
X63301000Y-32209000D01*
X62261000Y-19908000D02*
X62261000Y-24810000D01*
X64781000Y-21239000D02*
X64781000Y-31261000D01*
X62421000Y-27690000D02*
X62421000Y-32546000D01*
X63621000Y-20451000D02*
X63621000Y-24810000D01*
X63661000Y-20472000D02*
X63661000Y-24810000D01*
X61941000Y-27690000D02*
X61941000Y-32672000D01*
X66301000Y-23098000D02*
X66301000Y-29402000D01*
X61821000Y-19802000D02*
X61821000Y-24810000D01*
X64541000Y-21045000D02*
X64541000Y-31455000D01*
X63941000Y-20633000D02*
X63941000Y-24810000D01*
X61901000Y-19819000D02*
X61901000Y-24810000D01*
X62541000Y-27690000D02*
X62541000Y-32508000D01*
X63901000Y-20609000D02*
X63901000Y-24810000D01*
X63421000Y-20348000D02*
X63421000Y-24810000D01*
X64381000Y-27690000D02*
X64381000Y-31574000D01*
X65261000Y-21689000D02*
X65261000Y-30811000D01*
X62701000Y-27690000D02*
X62701000Y-32454000D01*
X61861000Y-27690000D02*
X61861000Y-32689000D01*
X62021000Y-19846000D02*
X62021000Y-24810000D01*
X60620000Y-19671000D02*
X60620000Y-32829000D01*
X65901000Y-22460000D02*
X65901000Y-30040000D01*
X63101000Y-20201000D02*
X63101000Y-24810000D01*
X62301000Y-27690000D02*
X62301000Y-32581000D01*
X64741000Y-21206000D02*
X64741000Y-31294000D01*
X66541000Y-23580000D02*
X66541000Y-28920000D01*
X61541000Y-19752000D02*
X61541000Y-32748000D01*
X62061000Y-19856000D02*
X62061000Y-24810000D01*
X60700000Y-19673000D02*
X60700000Y-32827000D01*
X61381000Y-19728000D02*
X61381000Y-32772000D01*
X62061000Y-27690000D02*
X62061000Y-32644000D01*
X54065431Y-21885000D02*
X54065431Y-23185000D01*
X61741000Y-27690000D02*
X61741000Y-32713000D01*
X62981000Y-20152000D02*
X62981000Y-24810000D01*
X61461000Y-19739000D02*
X61461000Y-32761000D01*
X63421000Y-27690000D02*
X63421000Y-32152000D01*
X61781000Y-27690000D02*
X61781000Y-32706000D01*
X63381000Y-20329000D02*
X63381000Y-24810000D01*
X62861000Y-20104000D02*
X62861000Y-24810000D01*
X66501000Y-23492000D02*
X66501000Y-29008000D01*
X63181000Y-20236000D02*
X63181000Y-24810000D01*
X60540000Y-19670000D02*
X60540000Y-32830000D01*
X66221000Y-22957000D02*
X66221000Y-29543000D01*
X61861000Y-19811000D02*
X61861000Y-24810000D01*
X63061000Y-20185000D02*
X63061000Y-24810000D01*
X65661000Y-22142000D02*
X65661000Y-30358000D01*
X62901000Y-27690000D02*
X62901000Y-32380000D01*
X64221000Y-20814000D02*
X64221000Y-24810000D01*
X61621000Y-19765000D02*
X61621000Y-24810000D01*
X62581000Y-20005000D02*
X62581000Y-24810000D01*
X62141000Y-27690000D02*
X62141000Y-32624000D01*
X60660000Y-19671000D02*
X60660000Y-32829000D01*
X62941000Y-20136000D02*
X62941000Y-24810000D01*
X63461000Y-27690000D02*
X63461000Y-32132000D01*
X61100000Y-19697000D02*
X61100000Y-32803000D01*
X61701000Y-19779000D02*
X61701000Y-24810000D01*
X62101000Y-19866000D02*
X62101000Y-24810000D01*
X64021000Y-27690000D02*
X64021000Y-31817000D01*
X66781000Y-24195000D02*
X66781000Y-28305000D01*
X60780000Y-19675000D02*
X60780000Y-32825000D01*
X63821000Y-27690000D02*
X63821000Y-31938000D01*
X66461000Y-23408000D02*
X66461000Y-29092000D01*
X63661000Y-27690000D02*
X63661000Y-32028000D01*
X60580000Y-19670000D02*
X60580000Y-32830000D01*
X65541000Y-21997000D02*
X65541000Y-30503000D01*
X66341000Y-23172000D02*
X66341000Y-29328000D01*
X64821000Y-21273000D02*
X64821000Y-31227000D01*
X66941000Y-24756000D02*
X66941000Y-27744000D01*
X62181000Y-19886000D02*
X62181000Y-24810000D01*
X62781000Y-20075000D02*
X62781000Y-24810000D01*
X63261000Y-27690000D02*
X63261000Y-32228000D01*
X64301000Y-27690000D02*
X64301000Y-31631000D01*
X62381000Y-27690000D02*
X62381000Y-32558000D01*
X60500000Y-19670000D02*
X60500000Y-32830000D01*
X63941000Y-27690000D02*
X63941000Y-31867000D01*
X64581000Y-21076000D02*
X64581000Y-31424000D01*
X62621000Y-20018000D02*
X62621000Y-24810000D01*
X61661000Y-19772000D02*
X61661000Y-24810000D01*
X62821000Y-27690000D02*
X62821000Y-32411000D01*
X62821000Y-20089000D02*
X62821000Y-24810000D01*
X61741000Y-19787000D02*
X61741000Y-24810000D01*
X64061000Y-20708000D02*
X64061000Y-24810000D01*
X65301000Y-21731000D02*
X65301000Y-30769000D01*
X63221000Y-27690000D02*
X63221000Y-32246000D01*
X62261000Y-27690000D02*
X62261000Y-32592000D01*
X66741000Y-24079000D02*
X66741000Y-28421000D01*
X63981000Y-27690000D02*
X63981000Y-31842000D01*
X66261000Y-23027000D02*
X66261000Y-29473000D01*
X64461000Y-20985000D02*
X64461000Y-31515000D01*
X64941000Y-21379000D02*
X64941000Y-31121000D01*
X64381000Y-20926000D02*
X64381000Y-24810000D01*
X60740000Y-19674000D02*
X60740000Y-32826000D01*
X66061000Y-22696000D02*
X66061000Y-29804000D01*
X65061000Y-21490000D02*
X65061000Y-31010000D01*
X62341000Y-27690000D02*
X62341000Y-32570000D01*
X67061000Y-25400000D02*
X67061000Y-27100000D01*
X62221000Y-27690000D02*
X62221000Y-32603000D01*
X64141000Y-27690000D02*
X64141000Y-31740000D01*
X63341000Y-20310000D02*
X63341000Y-24810000D01*
X62701000Y-20046000D02*
X62701000Y-24810000D01*
X63021000Y-27690000D02*
X63021000Y-32332000D01*
X63501000Y-27690000D02*
X63501000Y-32112000D01*
X61661000Y-27690000D02*
X61661000Y-32728000D01*
X61501000Y-19745000D02*
X61501000Y-32755000D01*
X63741000Y-27690000D02*
X63741000Y-31983000D01*
X62021000Y-27690000D02*
X62021000Y-32654000D01*
X61581000Y-27690000D02*
X61581000Y-32742000D01*
X61821000Y-27690000D02*
X61821000Y-32698000D01*
X65581000Y-22045000D02*
X65581000Y-30455000D01*
X64181000Y-27690000D02*
X64181000Y-31713000D01*
X63821000Y-20562000D02*
X63821000Y-24810000D01*
X53415431Y-22535000D02*
X54715431Y-22535000D01*
X63461000Y-20368000D02*
X63461000Y-24810000D01*
X62661000Y-27690000D02*
X62661000Y-32468000D01*
X63021000Y-20168000D02*
X63021000Y-24810000D01*
X62501000Y-19979000D02*
X62501000Y-24810000D01*
X64901000Y-21343000D02*
X64901000Y-31157000D01*
X62621000Y-27690000D02*
X62621000Y-32482000D01*
X62461000Y-27690000D02*
X62461000Y-32534000D01*
X64061000Y-27690000D02*
X64061000Y-31792000D01*
X64261000Y-20841000D02*
X64261000Y-24810000D01*
X66981000Y-24935000D02*
X66981000Y-27565000D01*
X61221000Y-19709000D02*
X61221000Y-32791000D01*
X65181000Y-21607000D02*
X65181000Y-30893000D01*
X65821000Y-22350000D02*
X65821000Y-30150000D01*
X61341000Y-19723000D02*
X61341000Y-32777000D01*
X66021000Y-22635000D02*
X66021000Y-29865000D01*
X64181000Y-20787000D02*
X64181000Y-24810000D01*
X62501000Y-27690000D02*
X62501000Y-32521000D01*
X62781000Y-27690000D02*
X62781000Y-32425000D01*
X66901000Y-24597000D02*
X66901000Y-27903000D01*
X61701000Y-27690000D02*
X61701000Y-32721000D01*
X61781000Y-19794000D02*
X61781000Y-24810000D01*
X63301000Y-20291000D02*
X63301000Y-24810000D01*
X65701000Y-22193000D02*
X65701000Y-30307000D01*
X65421000Y-21860000D02*
X65421000Y-30640000D01*
X66101000Y-22759000D02*
X66101000Y-29741000D01*
X64301000Y-20869000D02*
X64301000Y-24810000D01*
X65141000Y-21568000D02*
X65141000Y-30932000D01*
X66661000Y-23865000D02*
X66661000Y-28635000D01*
X62741000Y-27690000D02*
X62741000Y-32440000D01*
X62301000Y-19919000D02*
X62301000Y-24810000D01*
X62181000Y-27690000D02*
X62181000Y-32614000D01*
X61981000Y-19837000D02*
X61981000Y-24810000D01*
X62101000Y-27690000D02*
X62101000Y-32634000D01*
X60860000Y-19679000D02*
X60860000Y-32821000D01*
X63541000Y-27690000D02*
X63541000Y-32091000D01*
X62141000Y-19876000D02*
X62141000Y-24810000D01*
X65781000Y-22296000D02*
X65781000Y-30204000D01*
X60980000Y-19687000D02*
X60980000Y-32813000D01*
X61901000Y-27690000D02*
X61901000Y-32681000D01*
X64701000Y-21172000D02*
X64701000Y-31328000D01*
X61621000Y-27690000D02*
X61621000Y-32735000D01*
X63381000Y-27690000D02*
X63381000Y-32171000D01*
X63341000Y-27690000D02*
X63341000Y-32190000D01*
X66181000Y-22889000D02*
X66181000Y-29611000D01*
X66141000Y-22823000D02*
X66141000Y-29677000D01*
X66861000Y-24452000D02*
X66861000Y-28048000D01*
X61020000Y-19690000D02*
X61020000Y-32810000D01*
X63781000Y-27690000D02*
X63781000Y-31961000D01*
X65861000Y-22404000D02*
X65861000Y-30096000D01*
X60820000Y-19677000D02*
X60820000Y-32823000D01*
X65501000Y-21951000D02*
X65501000Y-30549000D01*
X63581000Y-27690000D02*
X63581000Y-32070000D01*
X64341000Y-20897000D02*
X64341000Y-24810000D01*
X62661000Y-20032000D02*
X62661000Y-24810000D01*
X64141000Y-20760000D02*
X64141000Y-24810000D01*
X64861000Y-21308000D02*
X64861000Y-31192000D01*
X61981000Y-27690000D02*
X61981000Y-32663000D01*
X63261000Y-20272000D02*
X63261000Y-24810000D01*
X64661000Y-21140000D02*
X64661000Y-31360000D01*
X61261000Y-19713000D02*
X61261000Y-32787000D01*
X62901000Y-20120000D02*
X62901000Y-24810000D01*
X62461000Y-19966000D02*
X62461000Y-24810000D01*
X63901000Y-27690000D02*
X63901000Y-31891000D01*
X62381000Y-19942000D02*
X62381000Y-24810000D01*
X62581000Y-27690000D02*
X62581000Y-32495000D01*
X62981000Y-27690000D02*
X62981000Y-32348000D01*
X67101000Y-25775000D02*
X67101000Y-26725000D01*
X62541000Y-19992000D02*
X62541000Y-24810000D01*
X65621000Y-22093000D02*
X65621000Y-30407000D01*
X62741000Y-20060000D02*
X62741000Y-24810000D01*
X61941000Y-19828000D02*
X61941000Y-24810000D01*
X63861000Y-20586000D02*
X63861000Y-24810000D01*
X64421000Y-27690000D02*
X64421000Y-31545000D01*
X65381000Y-21816000D02*
X65381000Y-30684000D01*
X64101000Y-27690000D02*
X64101000Y-31766000D01*
X61301000Y-19718000D02*
X61301000Y-32782000D01*
X61140000Y-19701000D02*
X61140000Y-32799000D01*
X61060000Y-19693000D02*
X61060000Y-32807000D01*
X63141000Y-20219000D02*
X63141000Y-24810000D01*
X65981000Y-22575000D02*
X65981000Y-29925000D01*
X62421000Y-19954000D02*
X62421000Y-24810000D01*
X62221000Y-19897000D02*
X62221000Y-24810000D01*
X63701000Y-27690000D02*
X63701000Y-32006000D01*
X62341000Y-19930000D02*
X62341000Y-24810000D01*
X67021000Y-25143000D02*
X67021000Y-27357000D01*
X61581000Y-19758000D02*
X61581000Y-24810000D01*
X62861000Y-27690000D02*
X62861000Y-32396000D01*
X66701000Y-23969000D02*
X66701000Y-28531000D01*
X63221000Y-20254000D02*
X63221000Y-24810000D01*
X63541000Y-20409000D02*
X63541000Y-24810000D01*
X65021000Y-21453000D02*
X65021000Y-31047000D01*
X64101000Y-20734000D02*
X64101000Y-24810000D01*
X65741000Y-22244000D02*
X65741000Y-30256000D01*
X61180000Y-19705000D02*
X61180000Y-32795000D01*
X66381000Y-23248000D02*
X66381000Y-29252000D01*
X65941000Y-22517000D02*
X65941000Y-29983000D01*
X65101000Y-21529000D02*
X65101000Y-30971000D01*
X67120000Y-26250000D02*
G75*
G03*
X67120000Y-26250000I-6620000J0D01*
G01*
%TO.C,C8*%
X28680000Y-32779000D02*
X28680000Y-19621000D01*
X25799000Y-32062000D02*
X25799000Y-27640000D01*
X26039000Y-24760000D02*
X26039000Y-20222000D01*
X23879000Y-30590000D02*
X23879000Y-21810000D01*
X27839000Y-32711000D02*
X27839000Y-19689000D01*
X26079000Y-24760000D02*
X26079000Y-20204000D01*
X27079000Y-32553000D02*
X27079000Y-27640000D01*
X26479000Y-24760000D02*
X26479000Y-20039000D01*
X28160000Y-32749000D02*
X28160000Y-19651000D01*
X25879000Y-24760000D02*
X25879000Y-20298000D01*
X26519000Y-24760000D02*
X26519000Y-20025000D01*
X35234569Y-30565000D02*
X35234569Y-29265000D01*
X25039000Y-24760000D02*
X25039000Y-20791000D01*
X24639000Y-31310000D02*
X24639000Y-21090000D01*
X26159000Y-32231000D02*
X26159000Y-27640000D01*
X25679000Y-24760000D02*
X25679000Y-20401000D01*
X26719000Y-32445000D02*
X26719000Y-27640000D01*
X25679000Y-31999000D02*
X25679000Y-27640000D01*
X23119000Y-29561000D02*
X23119000Y-22839000D01*
X24039000Y-30761000D02*
X24039000Y-21639000D01*
X24319000Y-31034000D02*
X24319000Y-21366000D01*
X24599000Y-31278000D02*
X24599000Y-21122000D01*
X25519000Y-24760000D02*
X25519000Y-20489000D01*
X22519000Y-28255000D02*
X22519000Y-24145000D01*
X23359000Y-29933000D02*
X23359000Y-22467000D01*
X23279000Y-29815000D02*
X23279000Y-22585000D01*
X25279000Y-24760000D02*
X25279000Y-20633000D01*
X26319000Y-32298000D02*
X26319000Y-27640000D01*
X27639000Y-32678000D02*
X27639000Y-27640000D01*
X26039000Y-32178000D02*
X26039000Y-27640000D01*
X27199000Y-24760000D02*
X27199000Y-19816000D01*
X27519000Y-32656000D02*
X27519000Y-27640000D01*
X25039000Y-31609000D02*
X25039000Y-27640000D01*
X23919000Y-30634000D02*
X23919000Y-21766000D01*
X24799000Y-31435000D02*
X24799000Y-20965000D01*
X26759000Y-24760000D02*
X26759000Y-19942000D01*
X23679000Y-30357000D02*
X23679000Y-22043000D01*
X26239000Y-24760000D02*
X26239000Y-20135000D01*
X26359000Y-32314000D02*
X26359000Y-27640000D01*
X24399000Y-31107000D02*
X24399000Y-21293000D01*
X27239000Y-32594000D02*
X27239000Y-27640000D01*
X23639000Y-30308000D02*
X23639000Y-22092000D01*
X26359000Y-24760000D02*
X26359000Y-20086000D01*
X25999000Y-24760000D02*
X25999000Y-20241000D01*
X26999000Y-32531000D02*
X26999000Y-27640000D01*
X25439000Y-24760000D02*
X25439000Y-20536000D01*
X26599000Y-24760000D02*
X26599000Y-19996000D01*
X27679000Y-24760000D02*
X27679000Y-19715000D01*
X27039000Y-24760000D02*
X27039000Y-19858000D01*
X25319000Y-24760000D02*
X25319000Y-20608000D01*
X24439000Y-31142000D02*
X24439000Y-21258000D01*
X26079000Y-32196000D02*
X26079000Y-27640000D01*
X25919000Y-32121000D02*
X25919000Y-27640000D01*
X22279000Y-27307000D02*
X22279000Y-25093000D01*
X23159000Y-29627000D02*
X23159000Y-22773000D01*
X22879000Y-29123000D02*
X22879000Y-23277000D01*
X26799000Y-24760000D02*
X26799000Y-19929000D01*
X24839000Y-31465000D02*
X24839000Y-20935000D01*
X24119000Y-30843000D02*
X24119000Y-21557000D01*
X28039000Y-32737000D02*
X28039000Y-19663000D01*
X26919000Y-32508000D02*
X26919000Y-27640000D01*
X28320000Y-32763000D02*
X28320000Y-19637000D01*
X27439000Y-32639000D02*
X27439000Y-27640000D01*
X25239000Y-31742000D02*
X25239000Y-27640000D01*
X27239000Y-24760000D02*
X27239000Y-19806000D01*
X27319000Y-32613000D02*
X27319000Y-27640000D01*
X35884569Y-29915000D02*
X34584569Y-29915000D01*
X27719000Y-24760000D02*
X27719000Y-19708000D01*
X28440000Y-32771000D02*
X28440000Y-19629000D01*
X25959000Y-24760000D02*
X25959000Y-20260000D01*
X22199000Y-26675000D02*
X22199000Y-25725000D01*
X25439000Y-31864000D02*
X25439000Y-27640000D01*
X26999000Y-24760000D02*
X26999000Y-19869000D01*
X22959000Y-29278000D02*
X22959000Y-23122000D01*
X27919000Y-32722000D02*
X27919000Y-19678000D01*
X23399000Y-29990000D02*
X23399000Y-22410000D01*
X25959000Y-32140000D02*
X25959000Y-27640000D01*
X22559000Y-28371000D02*
X22559000Y-24029000D01*
X26799000Y-32471000D02*
X26799000Y-27640000D01*
X24959000Y-24760000D02*
X24959000Y-20847000D01*
X23839000Y-30545000D02*
X23839000Y-21855000D01*
X26159000Y-24760000D02*
X26159000Y-20169000D01*
X28360000Y-32766000D02*
X28360000Y-19634000D01*
X27599000Y-32671000D02*
X27599000Y-27640000D01*
X22479000Y-28131000D02*
X22479000Y-24269000D01*
X23479000Y-30100000D02*
X23479000Y-22300000D01*
X25639000Y-24760000D02*
X25639000Y-20422000D01*
X26399000Y-32330000D02*
X26399000Y-27640000D01*
X24079000Y-30802000D02*
X24079000Y-21598000D01*
X23559000Y-30206000D02*
X23559000Y-22194000D01*
X25519000Y-31911000D02*
X25519000Y-27640000D01*
X26839000Y-32484000D02*
X26839000Y-27640000D01*
X26119000Y-24760000D02*
X26119000Y-20186000D01*
X23599000Y-30257000D02*
X23599000Y-22143000D01*
X26639000Y-24760000D02*
X26639000Y-19982000D01*
X27079000Y-24760000D02*
X27079000Y-19847000D01*
X24279000Y-30997000D02*
X24279000Y-21403000D01*
X25639000Y-31978000D02*
X25639000Y-27640000D01*
X23519000Y-30154000D02*
X23519000Y-22246000D01*
X24679000Y-31342000D02*
X24679000Y-21058000D01*
X25359000Y-24760000D02*
X25359000Y-20583000D01*
X27879000Y-32716000D02*
X27879000Y-19684000D01*
X26559000Y-24760000D02*
X26559000Y-20010000D01*
X28280000Y-32760000D02*
X28280000Y-19640000D01*
X26719000Y-24760000D02*
X26719000Y-19955000D01*
X25279000Y-31767000D02*
X25279000Y-27640000D01*
X22999000Y-29352000D02*
X22999000Y-23048000D01*
X26199000Y-32249000D02*
X26199000Y-27640000D01*
X28200000Y-32753000D02*
X28200000Y-19647000D01*
X26399000Y-24760000D02*
X26399000Y-20070000D01*
X24999000Y-24760000D02*
X24999000Y-20819000D01*
X22839000Y-29042000D02*
X22839000Y-23358000D01*
X24959000Y-31553000D02*
X24959000Y-27640000D01*
X27559000Y-24760000D02*
X27559000Y-19737000D01*
X26839000Y-24760000D02*
X26839000Y-19916000D01*
X24879000Y-24760000D02*
X24879000Y-20905000D01*
X27599000Y-24760000D02*
X27599000Y-19729000D01*
X25119000Y-24760000D02*
X25119000Y-20737000D01*
X25479000Y-31888000D02*
X25479000Y-27640000D01*
X23079000Y-29493000D02*
X23079000Y-22907000D01*
X26679000Y-32432000D02*
X26679000Y-27640000D01*
X27199000Y-32584000D02*
X27199000Y-27640000D01*
X27279000Y-24760000D02*
X27279000Y-19796000D01*
X28800000Y-32780000D02*
X28800000Y-19620000D01*
X26479000Y-32361000D02*
X26479000Y-27640000D01*
X25079000Y-31636000D02*
X25079000Y-27640000D01*
X22919000Y-29202000D02*
X22919000Y-23198000D01*
X27559000Y-32663000D02*
X27559000Y-27640000D01*
X25919000Y-24760000D02*
X25919000Y-20279000D01*
X24479000Y-31177000D02*
X24479000Y-21223000D01*
X25079000Y-24760000D02*
X25079000Y-20764000D01*
X25799000Y-24760000D02*
X25799000Y-20338000D01*
X26439000Y-32346000D02*
X26439000Y-27640000D01*
X27359000Y-32622000D02*
X27359000Y-27640000D01*
X25879000Y-32102000D02*
X25879000Y-27640000D01*
X27799000Y-32705000D02*
X27799000Y-19695000D01*
X22359000Y-27694000D02*
X22359000Y-24706000D01*
X22599000Y-28481000D02*
X22599000Y-23919000D01*
X25599000Y-31956000D02*
X25599000Y-27640000D01*
X26919000Y-24760000D02*
X26919000Y-19892000D01*
X22239000Y-27050000D02*
X22239000Y-25350000D01*
X25399000Y-24760000D02*
X25399000Y-20559000D01*
X26959000Y-32520000D02*
X26959000Y-27640000D01*
X24359000Y-31071000D02*
X24359000Y-21329000D01*
X22439000Y-27998000D02*
X22439000Y-24402000D01*
X24239000Y-30960000D02*
X24239000Y-21440000D01*
X26759000Y-32458000D02*
X26759000Y-27640000D01*
X27359000Y-24760000D02*
X27359000Y-19778000D01*
X27719000Y-32692000D02*
X27719000Y-27640000D01*
X27479000Y-32648000D02*
X27479000Y-27640000D01*
X26119000Y-32214000D02*
X26119000Y-27640000D01*
X26279000Y-32282000D02*
X26279000Y-27640000D01*
X24559000Y-31244000D02*
X24559000Y-21156000D01*
X23959000Y-30677000D02*
X23959000Y-21723000D01*
X28480000Y-32773000D02*
X28480000Y-19627000D01*
X24159000Y-30882000D02*
X24159000Y-21518000D01*
X28640000Y-32779000D02*
X28640000Y-19621000D01*
X26679000Y-24760000D02*
X26679000Y-19968000D01*
X28520000Y-32775000D02*
X28520000Y-19625000D01*
X28120000Y-32745000D02*
X28120000Y-19655000D01*
X25839000Y-24760000D02*
X25839000Y-20318000D01*
X26199000Y-24760000D02*
X26199000Y-20151000D01*
X27279000Y-32604000D02*
X27279000Y-27640000D01*
X22639000Y-28585000D02*
X22639000Y-23815000D01*
X26639000Y-32418000D02*
X26639000Y-27640000D01*
X25719000Y-32020000D02*
X25719000Y-27640000D01*
X25159000Y-31690000D02*
X25159000Y-27640000D01*
X27679000Y-32685000D02*
X27679000Y-27640000D01*
X27039000Y-32542000D02*
X27039000Y-27640000D01*
X28560000Y-32776000D02*
X28560000Y-19624000D01*
X23999000Y-30719000D02*
X23999000Y-21681000D01*
X22399000Y-27853000D02*
X22399000Y-24547000D01*
X24199000Y-30921000D02*
X24199000Y-21479000D01*
X27119000Y-24760000D02*
X27119000Y-19836000D01*
X27319000Y-24760000D02*
X27319000Y-19787000D01*
X25359000Y-31817000D02*
X25359000Y-27640000D01*
X26279000Y-24760000D02*
X26279000Y-20118000D01*
X23319000Y-29875000D02*
X23319000Y-22525000D01*
X22799000Y-28958000D02*
X22799000Y-23442000D01*
X26959000Y-24760000D02*
X26959000Y-19880000D01*
X27399000Y-32631000D02*
X27399000Y-27640000D01*
X23799000Y-30499000D02*
X23799000Y-21901000D01*
X25839000Y-32082000D02*
X25839000Y-27640000D01*
X22319000Y-27515000D02*
X22319000Y-24885000D01*
X28720000Y-32780000D02*
X28720000Y-19620000D01*
X24759000Y-31405000D02*
X24759000Y-20995000D01*
X26879000Y-32496000D02*
X26879000Y-27640000D01*
X24999000Y-31581000D02*
X24999000Y-27640000D01*
X27439000Y-24760000D02*
X27439000Y-19761000D01*
X26879000Y-24760000D02*
X26879000Y-19904000D01*
X22679000Y-28684000D02*
X22679000Y-23716000D01*
X25399000Y-31841000D02*
X25399000Y-27640000D01*
X25159000Y-24760000D02*
X25159000Y-20710000D01*
X24919000Y-31524000D02*
X24919000Y-27640000D01*
X23039000Y-29423000D02*
X23039000Y-22977000D01*
X22719000Y-28779000D02*
X22719000Y-23621000D01*
X28079000Y-32741000D02*
X28079000Y-19659000D01*
X24719000Y-31374000D02*
X24719000Y-21026000D01*
X25759000Y-24760000D02*
X25759000Y-20359000D01*
X27119000Y-32564000D02*
X27119000Y-27640000D01*
X27639000Y-24760000D02*
X27639000Y-19722000D01*
X23439000Y-30046000D02*
X23439000Y-22354000D01*
X28760000Y-32780000D02*
X28760000Y-19620000D01*
X26519000Y-32375000D02*
X26519000Y-27640000D01*
X26559000Y-32390000D02*
X26559000Y-27640000D01*
X24519000Y-31211000D02*
X24519000Y-21189000D01*
X25759000Y-32041000D02*
X25759000Y-27640000D01*
X27959000Y-32727000D02*
X27959000Y-19673000D01*
X25559000Y-24760000D02*
X25559000Y-20467000D01*
X26439000Y-24760000D02*
X26439000Y-20054000D01*
X26319000Y-24760000D02*
X26319000Y-20102000D01*
X25999000Y-32159000D02*
X25999000Y-27640000D01*
X26239000Y-32265000D02*
X26239000Y-27640000D01*
X27159000Y-32574000D02*
X27159000Y-27640000D01*
X24879000Y-31495000D02*
X24879000Y-27640000D01*
X23759000Y-30453000D02*
X23759000Y-21947000D01*
X23239000Y-29754000D02*
X23239000Y-22646000D01*
X27159000Y-24760000D02*
X27159000Y-19826000D01*
X27759000Y-32698000D02*
X27759000Y-19702000D01*
X28400000Y-32768000D02*
X28400000Y-19632000D01*
X25479000Y-24760000D02*
X25479000Y-20512000D01*
X23199000Y-29691000D02*
X23199000Y-22709000D01*
X27399000Y-24760000D02*
X27399000Y-19769000D01*
X28600000Y-32777000D02*
X28600000Y-19623000D01*
X27999000Y-32732000D02*
X27999000Y-19668000D01*
X25239000Y-24760000D02*
X25239000Y-20658000D01*
X27479000Y-24760000D02*
X27479000Y-19752000D01*
X25119000Y-31663000D02*
X25119000Y-27640000D01*
X27519000Y-24760000D02*
X27519000Y-19744000D01*
X25599000Y-24760000D02*
X25599000Y-20444000D01*
X25559000Y-31933000D02*
X25559000Y-27640000D01*
X28240000Y-32757000D02*
X28240000Y-19643000D01*
X24919000Y-24760000D02*
X24919000Y-20876000D01*
X25199000Y-24760000D02*
X25199000Y-20684000D01*
X25199000Y-31716000D02*
X25199000Y-27640000D01*
X25319000Y-31792000D02*
X25319000Y-27640000D01*
X23719000Y-30405000D02*
X23719000Y-21995000D01*
X25719000Y-24760000D02*
X25719000Y-20380000D01*
X26599000Y-32404000D02*
X26599000Y-27640000D01*
X22759000Y-28870000D02*
X22759000Y-23530000D01*
X35420000Y-26200000D02*
G75*
G03*
X35420000Y-26200000I-6620000J0D01*
G01*
%TO.C,C9*%
X63050000Y-10650000D02*
X61540000Y-10650000D01*
X63079000Y-10330000D02*
X57921000Y-10330000D01*
X62675000Y-11651000D02*
X61540000Y-11651000D01*
X63076000Y-10410000D02*
X57924000Y-10410000D01*
X59460000Y-11531000D02*
X58253000Y-11531000D01*
X62848000Y-11331000D02*
X61540000Y-11331000D01*
X59460000Y-11211000D02*
X58102000Y-11211000D01*
X62565000Y-11811000D02*
X61540000Y-11811000D01*
X59460000Y-12491000D02*
X59181000Y-12491000D01*
X63061000Y-10570000D02*
X61540000Y-10570000D01*
X59460000Y-11291000D02*
X58135000Y-11291000D01*
X63056000Y-10610000D02*
X61540000Y-10610000D01*
X59460000Y-10770000D02*
X57972000Y-10770000D01*
X61943000Y-12411000D02*
X61540000Y-12411000D01*
X59460000Y-11571000D02*
X58276000Y-11571000D01*
X59460000Y-11251000D02*
X58118000Y-11251000D01*
X59460000Y-10810000D02*
X57980000Y-10810000D01*
X60784000Y-12851000D02*
X60216000Y-12851000D01*
X61511000Y-12651000D02*
X59489000Y-12651000D01*
X62437000Y-11971000D02*
X61540000Y-11971000D01*
X62243000Y-12171000D02*
X61540000Y-12171000D01*
X59460000Y-12451000D02*
X59117000Y-12451000D01*
X61598000Y-12611000D02*
X59402000Y-12611000D01*
X62942000Y-11091000D02*
X61540000Y-11091000D01*
X62225000Y-7695225D02*
X61725000Y-7695225D01*
X61751000Y-12531000D02*
X61540000Y-12531000D01*
X62968000Y-11011000D02*
X61540000Y-11011000D01*
X61305000Y-12731000D02*
X59695000Y-12731000D01*
X62790000Y-11451000D02*
X61540000Y-11451000D01*
X62829000Y-11371000D02*
X61540000Y-11371000D01*
X59460000Y-12411000D02*
X59057000Y-12411000D01*
X62898000Y-11211000D02*
X61540000Y-11211000D01*
X59460000Y-11971000D02*
X58563000Y-11971000D01*
X59460000Y-10971000D02*
X58020000Y-10971000D01*
X62153000Y-12251000D02*
X61540000Y-12251000D01*
X62810000Y-11411000D02*
X61540000Y-11411000D01*
X59460000Y-10850000D02*
X57989000Y-10850000D01*
X63043000Y-10690000D02*
X61540000Y-10690000D01*
X61883000Y-12451000D02*
X61540000Y-12451000D01*
X62199000Y-12211000D02*
X61540000Y-12211000D01*
X59460000Y-11691000D02*
X58351000Y-11691000D01*
X61819000Y-12491000D02*
X61540000Y-12491000D01*
X61177000Y-12771000D02*
X59823000Y-12771000D01*
X59460000Y-10610000D02*
X57944000Y-10610000D01*
X63011000Y-10850000D02*
X61540000Y-10850000D01*
X59460000Y-11451000D02*
X58210000Y-11451000D01*
X59460000Y-12531000D02*
X59249000Y-12531000D01*
X59460000Y-11331000D02*
X58152000Y-11331000D01*
X59460000Y-12251000D02*
X58847000Y-12251000D01*
X59460000Y-11091000D02*
X58058000Y-11091000D01*
X59460000Y-12091000D02*
X58674000Y-12091000D01*
X59460000Y-12011000D02*
X58599000Y-12011000D01*
X62622000Y-11731000D02*
X61540000Y-11731000D01*
X59460000Y-10730000D02*
X57964000Y-10730000D01*
X62535000Y-11851000D02*
X61540000Y-11851000D01*
X59460000Y-10570000D02*
X57939000Y-10570000D01*
X63078000Y-10370000D02*
X57922000Y-10370000D01*
X62595000Y-11771000D02*
X61540000Y-11771000D01*
X62914000Y-11171000D02*
X61540000Y-11171000D01*
X59460000Y-10890000D02*
X57999000Y-10890000D01*
X62105000Y-12291000D02*
X61540000Y-12291000D01*
X62980000Y-10971000D02*
X61540000Y-10971000D01*
X62955000Y-11051000D02*
X61540000Y-11051000D01*
X62364000Y-12051000D02*
X61540000Y-12051000D01*
X59460000Y-11731000D02*
X58378000Y-11731000D01*
X62882000Y-11251000D02*
X61540000Y-11251000D01*
X63001000Y-10890000D02*
X61540000Y-10890000D01*
X61975000Y-7445225D02*
X61975000Y-7945225D01*
X61678000Y-12571000D02*
X59322000Y-12571000D01*
X62504000Y-11891000D02*
X61540000Y-11891000D01*
X59460000Y-12171000D02*
X58757000Y-12171000D01*
X59460000Y-11931000D02*
X58529000Y-11931000D01*
X61018000Y-12811000D02*
X59982000Y-12811000D01*
X63065000Y-10530000D02*
X61540000Y-10530000D01*
X62865000Y-11291000D02*
X61540000Y-11291000D01*
X63036000Y-10730000D02*
X61540000Y-10730000D01*
X59460000Y-10650000D02*
X57950000Y-10650000D01*
X63028000Y-10770000D02*
X61540000Y-10770000D01*
X62000000Y-12371000D02*
X61540000Y-12371000D01*
X62700000Y-11611000D02*
X61540000Y-11611000D01*
X59460000Y-11131000D02*
X58072000Y-11131000D01*
X59460000Y-11771000D02*
X58405000Y-11771000D01*
X62747000Y-11531000D02*
X61540000Y-11531000D01*
X59460000Y-11811000D02*
X58435000Y-11811000D01*
X62401000Y-12011000D02*
X61540000Y-12011000D01*
X62724000Y-11571000D02*
X61540000Y-11571000D01*
X59460000Y-11851000D02*
X58465000Y-11851000D01*
X59460000Y-11611000D02*
X58300000Y-11611000D01*
X59460000Y-10690000D02*
X57957000Y-10690000D01*
X62649000Y-11691000D02*
X61540000Y-11691000D01*
X62054000Y-12331000D02*
X61540000Y-12331000D01*
X63020000Y-10810000D02*
X61540000Y-10810000D01*
X59460000Y-10530000D02*
X57935000Y-10530000D01*
X63069000Y-10490000D02*
X61540000Y-10490000D01*
X62285000Y-12131000D02*
X61540000Y-12131000D01*
X59460000Y-11171000D02*
X58086000Y-11171000D01*
X59460000Y-12211000D02*
X58801000Y-12211000D01*
X61415000Y-12691000D02*
X59585000Y-12691000D01*
X59460000Y-11051000D02*
X58045000Y-11051000D01*
X59460000Y-11491000D02*
X58232000Y-11491000D01*
X59460000Y-12291000D02*
X58895000Y-12291000D01*
X62928000Y-11131000D02*
X61540000Y-11131000D01*
X62471000Y-11931000D02*
X61540000Y-11931000D01*
X59460000Y-12131000D02*
X58715000Y-12131000D01*
X59460000Y-10490000D02*
X57931000Y-10490000D01*
X63073000Y-10450000D02*
X57927000Y-10450000D01*
X59460000Y-11371000D02*
X58171000Y-11371000D01*
X62768000Y-11491000D02*
X61540000Y-11491000D01*
X63080000Y-10250000D02*
X57920000Y-10250000D01*
X59460000Y-12051000D02*
X58636000Y-12051000D01*
X59460000Y-12371000D02*
X59000000Y-12371000D01*
X62326000Y-12091000D02*
X61540000Y-12091000D01*
X59460000Y-11011000D02*
X58032000Y-11011000D01*
X59460000Y-12331000D02*
X58946000Y-12331000D01*
X59460000Y-11891000D02*
X58496000Y-11891000D01*
X59460000Y-11651000D02*
X58325000Y-11651000D01*
X62991000Y-10930000D02*
X61540000Y-10930000D01*
X63080000Y-10290000D02*
X57920000Y-10290000D01*
X59460000Y-11411000D02*
X58190000Y-11411000D01*
X59460000Y-10930000D02*
X58009000Y-10930000D01*
X63120000Y-10250000D02*
G75*
G03*
X63120000Y-10250000I-2620000J0D01*
G01*
%TO.C,C10*%
X69030000Y-31770000D02*
X69045000Y-31770000D01*
X69030000Y-27230000D02*
X69045000Y-27230000D01*
X69030000Y-31770000D02*
X69030000Y-27230000D01*
X71155000Y-31770000D02*
X71170000Y-31770000D01*
X71155000Y-27230000D02*
X71170000Y-27230000D01*
X71170000Y-31770000D02*
X71170000Y-27230000D01*
%TO.C,C11*%
X48955000Y-42030000D02*
X48970000Y-42030000D01*
X46830000Y-42030000D02*
X46845000Y-42030000D01*
X48955000Y-46570000D02*
X48970000Y-46570000D01*
X48970000Y-46570000D02*
X48970000Y-42030000D01*
X46830000Y-46570000D02*
X46845000Y-46570000D01*
X46830000Y-46570000D02*
X46830000Y-42030000D01*
%TO.C,C12*%
X30751000Y-54331000D02*
X30540000Y-54331000D01*
X28460000Y-53971000D02*
X27757000Y-53971000D01*
X31700000Y-53411000D02*
X30540000Y-53411000D01*
X31243000Y-53971000D02*
X30540000Y-53971000D01*
X32020000Y-52610000D02*
X30540000Y-52610000D01*
X28460000Y-53651000D02*
X27465000Y-53651000D01*
X28460000Y-53051000D02*
X27118000Y-53051000D01*
X28460000Y-53491000D02*
X27351000Y-53491000D01*
X31942000Y-52891000D02*
X30540000Y-52891000D01*
X30305000Y-54531000D02*
X28695000Y-54531000D01*
X31649000Y-53491000D02*
X30540000Y-53491000D01*
X32076000Y-52210000D02*
X26924000Y-52210000D01*
X28460000Y-52530000D02*
X26964000Y-52530000D01*
X28460000Y-52971000D02*
X27086000Y-52971000D01*
X28460000Y-52490000D02*
X26957000Y-52490000D01*
X28460000Y-53691000D02*
X27496000Y-53691000D01*
X31054000Y-54131000D02*
X30540000Y-54131000D01*
X32036000Y-52530000D02*
X30540000Y-52530000D01*
X31326000Y-53891000D02*
X30540000Y-53891000D01*
X28460000Y-53731000D02*
X27529000Y-53731000D01*
X28460000Y-52570000D02*
X26972000Y-52570000D01*
X28460000Y-52650000D02*
X26989000Y-52650000D01*
X30883000Y-54251000D02*
X30540000Y-54251000D01*
X28460000Y-54131000D02*
X27946000Y-54131000D01*
X32080000Y-52090000D02*
X26920000Y-52090000D01*
X28460000Y-52931000D02*
X27072000Y-52931000D01*
X31535000Y-53651000D02*
X30540000Y-53651000D01*
X28460000Y-53611000D02*
X27435000Y-53611000D01*
X30177000Y-54571000D02*
X28823000Y-54571000D01*
X30975000Y-49245225D02*
X30975000Y-49745225D01*
X29784000Y-54651000D02*
X29216000Y-54651000D01*
X31225000Y-49495225D02*
X30725000Y-49495225D01*
X28460000Y-52450000D02*
X26950000Y-52450000D01*
X31898000Y-53011000D02*
X30540000Y-53011000D01*
X28460000Y-52410000D02*
X26944000Y-52410000D01*
X28460000Y-52811000D02*
X27032000Y-52811000D01*
X28460000Y-53331000D02*
X27253000Y-53331000D01*
X31622000Y-53531000D02*
X30540000Y-53531000D01*
X32043000Y-52490000D02*
X30540000Y-52490000D01*
X31955000Y-52851000D02*
X30540000Y-52851000D01*
X31675000Y-53451000D02*
X30540000Y-53451000D01*
X31000000Y-54171000D02*
X30540000Y-54171000D01*
X28460000Y-52851000D02*
X27045000Y-52851000D01*
X31768000Y-53291000D02*
X30540000Y-53291000D01*
X28460000Y-53531000D02*
X27378000Y-53531000D01*
X28460000Y-53891000D02*
X27674000Y-53891000D01*
X31968000Y-52811000D02*
X30540000Y-52811000D01*
X32056000Y-52410000D02*
X30540000Y-52410000D01*
X30943000Y-54211000D02*
X30540000Y-54211000D01*
X32065000Y-52330000D02*
X30540000Y-52330000D01*
X31471000Y-53731000D02*
X30540000Y-53731000D01*
X28460000Y-52610000D02*
X26980000Y-52610000D01*
X28460000Y-52290000D02*
X26931000Y-52290000D01*
X32080000Y-52050000D02*
X26920000Y-52050000D01*
X28460000Y-53571000D02*
X27405000Y-53571000D01*
X28460000Y-53451000D02*
X27325000Y-53451000D01*
X28460000Y-54251000D02*
X28117000Y-54251000D01*
X28460000Y-52730000D02*
X27009000Y-52730000D01*
X32011000Y-52650000D02*
X30540000Y-52650000D01*
X31790000Y-53251000D02*
X30540000Y-53251000D01*
X32078000Y-52170000D02*
X26922000Y-52170000D01*
X28460000Y-53411000D02*
X27300000Y-53411000D01*
X31829000Y-53171000D02*
X30540000Y-53171000D01*
X28460000Y-54211000D02*
X28057000Y-54211000D01*
X31991000Y-52730000D02*
X30540000Y-52730000D01*
X31810000Y-53211000D02*
X30540000Y-53211000D01*
X30598000Y-54411000D02*
X28402000Y-54411000D01*
X28460000Y-53811000D02*
X27599000Y-53811000D01*
X31153000Y-54051000D02*
X30540000Y-54051000D01*
X28460000Y-53131000D02*
X27152000Y-53131000D01*
X31980000Y-52771000D02*
X30540000Y-52771000D01*
X30678000Y-54371000D02*
X28322000Y-54371000D01*
X31595000Y-53571000D02*
X30540000Y-53571000D01*
X31865000Y-53091000D02*
X30540000Y-53091000D01*
X28460000Y-53251000D02*
X27210000Y-53251000D01*
X28460000Y-53291000D02*
X27232000Y-53291000D01*
X31848000Y-53131000D02*
X30540000Y-53131000D01*
X28460000Y-53171000D02*
X27171000Y-53171000D01*
X28460000Y-53091000D02*
X27135000Y-53091000D01*
X31504000Y-53691000D02*
X30540000Y-53691000D01*
X32001000Y-52690000D02*
X30540000Y-52690000D01*
X30511000Y-54451000D02*
X28489000Y-54451000D01*
X28460000Y-53211000D02*
X27190000Y-53211000D01*
X31105000Y-54091000D02*
X30540000Y-54091000D01*
X32028000Y-52570000D02*
X30540000Y-52570000D01*
X32073000Y-52250000D02*
X26927000Y-52250000D01*
X31199000Y-54011000D02*
X30540000Y-54011000D01*
X31364000Y-53851000D02*
X30540000Y-53851000D01*
X32079000Y-52130000D02*
X26921000Y-52130000D01*
X28460000Y-54331000D02*
X28249000Y-54331000D01*
X28460000Y-54171000D02*
X28000000Y-54171000D01*
X31285000Y-53931000D02*
X30540000Y-53931000D01*
X28460000Y-54291000D02*
X28181000Y-54291000D01*
X32061000Y-52370000D02*
X30540000Y-52370000D01*
X31401000Y-53811000D02*
X30540000Y-53811000D01*
X28460000Y-52891000D02*
X27058000Y-52891000D01*
X31565000Y-53611000D02*
X30540000Y-53611000D01*
X30819000Y-54291000D02*
X30540000Y-54291000D01*
X28460000Y-54091000D02*
X27895000Y-54091000D01*
X28460000Y-53931000D02*
X27715000Y-53931000D01*
X32050000Y-52450000D02*
X30540000Y-52450000D01*
X30415000Y-54491000D02*
X28585000Y-54491000D01*
X28460000Y-52330000D02*
X26935000Y-52330000D01*
X31882000Y-53051000D02*
X30540000Y-53051000D01*
X31724000Y-53371000D02*
X30540000Y-53371000D01*
X31928000Y-52931000D02*
X30540000Y-52931000D01*
X28460000Y-53371000D02*
X27276000Y-53371000D01*
X28460000Y-53011000D02*
X27102000Y-53011000D01*
X30018000Y-54611000D02*
X28982000Y-54611000D01*
X28460000Y-52690000D02*
X26999000Y-52690000D01*
X28460000Y-54011000D02*
X27801000Y-54011000D01*
X31914000Y-52971000D02*
X30540000Y-52971000D01*
X32069000Y-52290000D02*
X30540000Y-52290000D01*
X28460000Y-54051000D02*
X27847000Y-54051000D01*
X31747000Y-53331000D02*
X30540000Y-53331000D01*
X31437000Y-53771000D02*
X30540000Y-53771000D01*
X28460000Y-52370000D02*
X26939000Y-52370000D01*
X28460000Y-53771000D02*
X27563000Y-53771000D01*
X28460000Y-52771000D02*
X27020000Y-52771000D01*
X28460000Y-53851000D02*
X27636000Y-53851000D01*
X32120000Y-52050000D02*
G75*
G03*
X32120000Y-52050000I-2620000J0D01*
G01*
%TO.C,C13*%
X50330000Y-41970000D02*
X50330000Y-37430000D01*
X50330000Y-37430000D02*
X50345000Y-37430000D01*
X52455000Y-41970000D02*
X52470000Y-41970000D01*
X50330000Y-41970000D02*
X50345000Y-41970000D01*
X52455000Y-37430000D02*
X52470000Y-37430000D01*
X52470000Y-41970000D02*
X52470000Y-37430000D01*
%TO.C,C14*%
X27570000Y-47030000D02*
X27570000Y-47045000D01*
X23030000Y-49155000D02*
X23030000Y-49170000D01*
X23030000Y-47030000D02*
X23030000Y-47045000D01*
X23030000Y-49170000D02*
X27570000Y-49170000D01*
X23030000Y-47030000D02*
X27570000Y-47030000D01*
X27570000Y-49155000D02*
X27570000Y-49170000D01*
%TO.C,C15*%
X63441000Y-41840000D02*
X63441000Y-46340000D01*
X62721000Y-34168000D02*
X62721000Y-38960000D01*
X62281000Y-34036000D02*
X62281000Y-38960000D01*
X63081000Y-34302000D02*
X63081000Y-38960000D01*
X61761000Y-41840000D02*
X61761000Y-46878000D01*
X61000000Y-33832000D02*
X61000000Y-46968000D01*
X62881000Y-34225000D02*
X62881000Y-38960000D01*
X62321000Y-34047000D02*
X62321000Y-38960000D01*
X63961000Y-34736000D02*
X63961000Y-38960000D01*
X62601000Y-34129000D02*
X62601000Y-38960000D01*
X63001000Y-34270000D02*
X63001000Y-38960000D01*
X63081000Y-41840000D02*
X63081000Y-46498000D01*
X61721000Y-33915000D02*
X61721000Y-38960000D01*
X66761000Y-38015000D02*
X66761000Y-42785000D01*
X63241000Y-41840000D02*
X63241000Y-46431000D01*
X61361000Y-33863000D02*
X61361000Y-46937000D01*
X63321000Y-41840000D02*
X63321000Y-46396000D01*
X64201000Y-34884000D02*
X64201000Y-38960000D01*
X65721000Y-36243000D02*
X65721000Y-44557000D01*
X62281000Y-41840000D02*
X62281000Y-46764000D01*
X64401000Y-35019000D02*
X64401000Y-38960000D01*
X62161000Y-34006000D02*
X62161000Y-38960000D01*
X63321000Y-34404000D02*
X63321000Y-38960000D01*
X65161000Y-35640000D02*
X65161000Y-45160000D01*
X63281000Y-34386000D02*
X63281000Y-38960000D01*
X61240000Y-33851000D02*
X61240000Y-46949000D01*
X62481000Y-41840000D02*
X62481000Y-46708000D01*
X64521000Y-35105000D02*
X64521000Y-38960000D01*
X61921000Y-41840000D02*
X61921000Y-46848000D01*
X64081000Y-41840000D02*
X64081000Y-45992000D01*
X65601000Y-36101000D02*
X65601000Y-44699000D01*
X62921000Y-41840000D02*
X62921000Y-46561000D01*
X63921000Y-34712000D02*
X63921000Y-38960000D01*
X62601000Y-41840000D02*
X62601000Y-46671000D01*
X61441000Y-33873000D02*
X61441000Y-46927000D01*
X63521000Y-41840000D02*
X63521000Y-46302000D01*
X63641000Y-34559000D02*
X63641000Y-38960000D01*
X62241000Y-34026000D02*
X62241000Y-38960000D01*
X64481000Y-35076000D02*
X64481000Y-38960000D01*
X61601000Y-33895000D02*
X61601000Y-46905000D01*
X62721000Y-41840000D02*
X62721000Y-46632000D01*
X64641000Y-35195000D02*
X64641000Y-45605000D01*
X60840000Y-33824000D02*
X60840000Y-46976000D01*
X65961000Y-36554000D02*
X65961000Y-44246000D01*
X64521000Y-41840000D02*
X64521000Y-45695000D01*
X61961000Y-33961000D02*
X61961000Y-38960000D01*
X63681000Y-41840000D02*
X63681000Y-46220000D01*
X62681000Y-41840000D02*
X62681000Y-46645000D01*
X65321000Y-35798000D02*
X65321000Y-45002000D01*
X64041000Y-41840000D02*
X64041000Y-46017000D01*
X61881000Y-41840000D02*
X61881000Y-46856000D01*
X66321000Y-37107000D02*
X66321000Y-43693000D01*
X62761000Y-34182000D02*
X62761000Y-38960000D01*
X64401000Y-41840000D02*
X64401000Y-45781000D01*
X64121000Y-34833000D02*
X64121000Y-38960000D01*
X62481000Y-34092000D02*
X62481000Y-38960000D01*
X62921000Y-34239000D02*
X62921000Y-38960000D01*
X61841000Y-41840000D02*
X61841000Y-46863000D01*
X60760000Y-33821000D02*
X60760000Y-46979000D01*
X66641000Y-37730000D02*
X66641000Y-43070000D01*
X64241000Y-41840000D02*
X64241000Y-45890000D01*
X65561000Y-36055000D02*
X65561000Y-44745000D01*
X61801000Y-41840000D02*
X61801000Y-46871000D01*
X63801000Y-34644000D02*
X63801000Y-38960000D01*
X66681000Y-37821000D02*
X66681000Y-42979000D01*
X66041000Y-36667000D02*
X66041000Y-44133000D01*
X63761000Y-34622000D02*
X63761000Y-38960000D01*
X66441000Y-37322000D02*
X66441000Y-43478000D01*
X61040000Y-33834000D02*
X61040000Y-46966000D01*
X65801000Y-36343000D02*
X65801000Y-44457000D01*
X53515431Y-36685000D02*
X54815431Y-36685000D01*
X66961000Y-38602000D02*
X66961000Y-42198000D01*
X65521000Y-36010000D02*
X65521000Y-44790000D01*
X64201000Y-41840000D02*
X64201000Y-45916000D01*
X65201000Y-35679000D02*
X65201000Y-45121000D01*
X67081000Y-39085000D02*
X67081000Y-41715000D01*
X61160000Y-33843000D02*
X61160000Y-46957000D01*
X60800000Y-33823000D02*
X60800000Y-46977000D01*
X61521000Y-33884000D02*
X61521000Y-46916000D01*
X63801000Y-41840000D02*
X63801000Y-46156000D01*
X64801000Y-35322000D02*
X64801000Y-45478000D01*
X63401000Y-41840000D02*
X63401000Y-46359000D01*
X66081000Y-36725000D02*
X66081000Y-44075000D01*
X61120000Y-33840000D02*
X61120000Y-46960000D01*
X62641000Y-34142000D02*
X62641000Y-38960000D01*
X66281000Y-37039000D02*
X66281000Y-43761000D01*
X63201000Y-34351000D02*
X63201000Y-38960000D01*
X61321000Y-33859000D02*
X61321000Y-46941000D01*
X61280000Y-33855000D02*
X61280000Y-46945000D01*
X64681000Y-35226000D02*
X64681000Y-45574000D01*
X63721000Y-41840000D02*
X63721000Y-46199000D01*
X63481000Y-41840000D02*
X63481000Y-46321000D01*
X65281000Y-35757000D02*
X65281000Y-45043000D01*
X63121000Y-34318000D02*
X63121000Y-38960000D01*
X64001000Y-41840000D02*
X64001000Y-46041000D01*
X64601000Y-35165000D02*
X64601000Y-45635000D01*
X63841000Y-34667000D02*
X63841000Y-38960000D01*
X65041000Y-35529000D02*
X65041000Y-45271000D01*
X62041000Y-41840000D02*
X62041000Y-46822000D01*
X64761000Y-35290000D02*
X64761000Y-45510000D01*
X60920000Y-33827000D02*
X60920000Y-46973000D01*
X64881000Y-35389000D02*
X64881000Y-45411000D01*
X62121000Y-33996000D02*
X62121000Y-38960000D01*
X65881000Y-36446000D02*
X65881000Y-44354000D01*
X62841000Y-41840000D02*
X62841000Y-46590000D01*
X64041000Y-34783000D02*
X64041000Y-38960000D01*
X63561000Y-41840000D02*
X63561000Y-46282000D01*
X65921000Y-36500000D02*
X65921000Y-44300000D01*
X62561000Y-34116000D02*
X62561000Y-38960000D01*
X66841000Y-38229000D02*
X66841000Y-42571000D01*
X61401000Y-33868000D02*
X61401000Y-46932000D01*
X62081000Y-33987000D02*
X62081000Y-38960000D01*
X65001000Y-35493000D02*
X65001000Y-45307000D01*
X63841000Y-41840000D02*
X63841000Y-46133000D01*
X62881000Y-41840000D02*
X62881000Y-46575000D01*
X62681000Y-34155000D02*
X62681000Y-38960000D01*
X54165431Y-36035000D02*
X54165431Y-37335000D01*
X62001000Y-33969000D02*
X62001000Y-38960000D01*
X66241000Y-36973000D02*
X66241000Y-43827000D01*
X60600000Y-33820000D02*
X60600000Y-46980000D01*
X63961000Y-41840000D02*
X63961000Y-46064000D01*
X63681000Y-34580000D02*
X63681000Y-38960000D01*
X62441000Y-41840000D02*
X62441000Y-46720000D01*
X61881000Y-33944000D02*
X61881000Y-38960000D01*
X61761000Y-33922000D02*
X61761000Y-38960000D01*
X62201000Y-41840000D02*
X62201000Y-46784000D01*
X64921000Y-35423000D02*
X64921000Y-45377000D01*
X61681000Y-41840000D02*
X61681000Y-46892000D01*
X66481000Y-37398000D02*
X66481000Y-43402000D01*
X65841000Y-36394000D02*
X65841000Y-44406000D01*
X62041000Y-33978000D02*
X62041000Y-38960000D01*
X64161000Y-34858000D02*
X64161000Y-38960000D01*
X62801000Y-34196000D02*
X62801000Y-38960000D01*
X63041000Y-34286000D02*
X63041000Y-38960000D01*
X63601000Y-34538000D02*
X63601000Y-38960000D01*
X63561000Y-34518000D02*
X63561000Y-38960000D01*
X64081000Y-34808000D02*
X64081000Y-38960000D01*
X62521000Y-34104000D02*
X62521000Y-38960000D01*
X61721000Y-41840000D02*
X61721000Y-46885000D01*
X62161000Y-41840000D02*
X62161000Y-46794000D01*
X67001000Y-38747000D02*
X67001000Y-42053000D01*
X63201000Y-41840000D02*
X63201000Y-46449000D01*
X61961000Y-41840000D02*
X61961000Y-46839000D01*
X62561000Y-41840000D02*
X62561000Y-46684000D01*
X63481000Y-34479000D02*
X63481000Y-38960000D01*
X61200000Y-33847000D02*
X61200000Y-46953000D01*
X63041000Y-41840000D02*
X63041000Y-46514000D01*
X63161000Y-41840000D02*
X63161000Y-46465000D01*
X65241000Y-35718000D02*
X65241000Y-45082000D01*
X62001000Y-41840000D02*
X62001000Y-46831000D01*
X64321000Y-41840000D02*
X64321000Y-45836000D01*
X64121000Y-41840000D02*
X64121000Y-45967000D01*
X60880000Y-33825000D02*
X60880000Y-46975000D01*
X62641000Y-41840000D02*
X62641000Y-46658000D01*
X62121000Y-41840000D02*
X62121000Y-46804000D01*
X63521000Y-34498000D02*
X63521000Y-38960000D01*
X63361000Y-34422000D02*
X63361000Y-38960000D01*
X64001000Y-34759000D02*
X64001000Y-38960000D01*
X65361000Y-35839000D02*
X65361000Y-44961000D01*
X65441000Y-35923000D02*
X65441000Y-44877000D01*
X64361000Y-41840000D02*
X64361000Y-45809000D01*
X66721000Y-37916000D02*
X66721000Y-42884000D01*
X63241000Y-34369000D02*
X63241000Y-38960000D01*
X65681000Y-36195000D02*
X65681000Y-44605000D01*
X62401000Y-34069000D02*
X62401000Y-38960000D01*
X63121000Y-41840000D02*
X63121000Y-46482000D01*
X65481000Y-35966000D02*
X65481000Y-44834000D01*
X63441000Y-34460000D02*
X63441000Y-38960000D01*
X64441000Y-35047000D02*
X64441000Y-38960000D01*
X62081000Y-41840000D02*
X62081000Y-46813000D01*
X64561000Y-35135000D02*
X64561000Y-45665000D01*
X62521000Y-41840000D02*
X62521000Y-46696000D01*
X67041000Y-38906000D02*
X67041000Y-41894000D01*
X64481000Y-41840000D02*
X64481000Y-45724000D01*
X62361000Y-34058000D02*
X62361000Y-38960000D01*
X62801000Y-41840000D02*
X62801000Y-46604000D01*
X63361000Y-41840000D02*
X63361000Y-46378000D01*
X66161000Y-36846000D02*
X66161000Y-43954000D01*
X63001000Y-41840000D02*
X63001000Y-46530000D01*
X63401000Y-34441000D02*
X63401000Y-38960000D01*
X66921000Y-38469000D02*
X66921000Y-42331000D01*
X65401000Y-35881000D02*
X65401000Y-44919000D01*
X62961000Y-41840000D02*
X62961000Y-46546000D01*
X61641000Y-33902000D02*
X61641000Y-46898000D01*
X66561000Y-37558000D02*
X66561000Y-43242000D01*
X67201000Y-39925000D02*
X67201000Y-40875000D01*
X66121000Y-36785000D02*
X66121000Y-44015000D01*
X63281000Y-41840000D02*
X63281000Y-46414000D01*
X62201000Y-34016000D02*
X62201000Y-38960000D01*
X66601000Y-37642000D02*
X66601000Y-43158000D01*
X62321000Y-41840000D02*
X62321000Y-46753000D01*
X65081000Y-35566000D02*
X65081000Y-45234000D01*
X66201000Y-36909000D02*
X66201000Y-43891000D01*
X64721000Y-35258000D02*
X64721000Y-45542000D01*
X62761000Y-41840000D02*
X62761000Y-46618000D01*
X62241000Y-41840000D02*
X62241000Y-46774000D01*
X64361000Y-34991000D02*
X64361000Y-38960000D01*
X64281000Y-34937000D02*
X64281000Y-38960000D01*
X66401000Y-37248000D02*
X66401000Y-43552000D01*
X60960000Y-33829000D02*
X60960000Y-46971000D01*
X66521000Y-37477000D02*
X66521000Y-43323000D01*
X62441000Y-34080000D02*
X62441000Y-38960000D01*
X63601000Y-41840000D02*
X63601000Y-46262000D01*
X60640000Y-33820000D02*
X60640000Y-46980000D01*
X60720000Y-33821000D02*
X60720000Y-46979000D01*
X62361000Y-41840000D02*
X62361000Y-46742000D01*
X63161000Y-34335000D02*
X63161000Y-38960000D01*
X61801000Y-33929000D02*
X61801000Y-38960000D01*
X66881000Y-38345000D02*
X66881000Y-42455000D01*
X64441000Y-41840000D02*
X64441000Y-45753000D01*
X63881000Y-41840000D02*
X63881000Y-46111000D01*
X66361000Y-37177000D02*
X66361000Y-43623000D01*
X62841000Y-34210000D02*
X62841000Y-38960000D01*
X66001000Y-36610000D02*
X66001000Y-44190000D01*
X63641000Y-41840000D02*
X63641000Y-46241000D01*
X64161000Y-41840000D02*
X64161000Y-45942000D01*
X64961000Y-35458000D02*
X64961000Y-45342000D01*
X61080000Y-33837000D02*
X61080000Y-46963000D01*
X64841000Y-35356000D02*
X64841000Y-45444000D01*
X63921000Y-41840000D02*
X63921000Y-46088000D01*
X64281000Y-41840000D02*
X64281000Y-45863000D01*
X63881000Y-34689000D02*
X63881000Y-38960000D01*
X62401000Y-41840000D02*
X62401000Y-46731000D01*
X61561000Y-33889000D02*
X61561000Y-46911000D01*
X61841000Y-33937000D02*
X61841000Y-38960000D01*
X65121000Y-35603000D02*
X65121000Y-45197000D01*
X61481000Y-33878000D02*
X61481000Y-46922000D01*
X65761000Y-36292000D02*
X65761000Y-44508000D01*
X66801000Y-38119000D02*
X66801000Y-42681000D01*
X62961000Y-34254000D02*
X62961000Y-38960000D01*
X61681000Y-33908000D02*
X61681000Y-38960000D01*
X67121000Y-39293000D02*
X67121000Y-41507000D01*
X65641000Y-36147000D02*
X65641000Y-44653000D01*
X61921000Y-33952000D02*
X61921000Y-38960000D01*
X67161000Y-39550000D02*
X67161000Y-41250000D01*
X63761000Y-41840000D02*
X63761000Y-46178000D01*
X64241000Y-34910000D02*
X64241000Y-38960000D01*
X60680000Y-33820000D02*
X60680000Y-46980000D01*
X63721000Y-34601000D02*
X63721000Y-38960000D01*
X64321000Y-34964000D02*
X64321000Y-38960000D01*
X67220000Y-40400000D02*
G75*
G03*
X67220000Y-40400000I-6620000J0D01*
G01*
%TO.C,C16*%
X25159000Y-38560000D02*
X25159000Y-34510000D01*
X22679000Y-42484000D02*
X22679000Y-37516000D01*
X22959000Y-43078000D02*
X22959000Y-36922000D01*
X27359000Y-38560000D02*
X27359000Y-33578000D01*
X22879000Y-42923000D02*
X22879000Y-37077000D01*
X23799000Y-44299000D02*
X23799000Y-35701000D01*
X24599000Y-45078000D02*
X24599000Y-34922000D01*
X27239000Y-46394000D02*
X27239000Y-41440000D01*
X24719000Y-45174000D02*
X24719000Y-34826000D01*
X26839000Y-46284000D02*
X26839000Y-41440000D01*
X27519000Y-38560000D02*
X27519000Y-33544000D01*
X25839000Y-45882000D02*
X25839000Y-41440000D01*
X26759000Y-38560000D02*
X26759000Y-33742000D01*
X28760000Y-46580000D02*
X28760000Y-33420000D01*
X28039000Y-46537000D02*
X28039000Y-33463000D01*
X26519000Y-46175000D02*
X26519000Y-41440000D01*
X25279000Y-38560000D02*
X25279000Y-34433000D01*
X27559000Y-46463000D02*
X27559000Y-41440000D01*
X23919000Y-44434000D02*
X23919000Y-35566000D01*
X27439000Y-46439000D02*
X27439000Y-41440000D01*
X26879000Y-46296000D02*
X26879000Y-41440000D01*
X23359000Y-43733000D02*
X23359000Y-36267000D01*
X22199000Y-40475000D02*
X22199000Y-39525000D01*
X22919000Y-43002000D02*
X22919000Y-36998000D01*
X23679000Y-44157000D02*
X23679000Y-35843000D01*
X25959000Y-45940000D02*
X25959000Y-41440000D01*
X26039000Y-45978000D02*
X26039000Y-41440000D01*
X26279000Y-46082000D02*
X26279000Y-41440000D01*
X25719000Y-45820000D02*
X25719000Y-41440000D01*
X24839000Y-45265000D02*
X24839000Y-34735000D01*
X26359000Y-46114000D02*
X26359000Y-41440000D01*
X22999000Y-43152000D02*
X22999000Y-36848000D01*
X27599000Y-46471000D02*
X27599000Y-41440000D01*
X26519000Y-38560000D02*
X26519000Y-33825000D01*
X25599000Y-45756000D02*
X25599000Y-41440000D01*
X27279000Y-46404000D02*
X27279000Y-41440000D01*
X24759000Y-45205000D02*
X24759000Y-34795000D01*
X25279000Y-45567000D02*
X25279000Y-41440000D01*
X27159000Y-46374000D02*
X27159000Y-41440000D01*
X23079000Y-43293000D02*
X23079000Y-36707000D01*
X26479000Y-38560000D02*
X26479000Y-33839000D01*
X27319000Y-38560000D02*
X27319000Y-33587000D01*
X26439000Y-38560000D02*
X26439000Y-33854000D01*
X26559000Y-46190000D02*
X26559000Y-41440000D01*
X28680000Y-46579000D02*
X28680000Y-33421000D01*
X23039000Y-43223000D02*
X23039000Y-36777000D01*
X25999000Y-45959000D02*
X25999000Y-41440000D01*
X27319000Y-46413000D02*
X27319000Y-41440000D01*
X24239000Y-44760000D02*
X24239000Y-35240000D01*
X28400000Y-46568000D02*
X28400000Y-33432000D01*
X24319000Y-44834000D02*
X24319000Y-35166000D01*
X27079000Y-38560000D02*
X27079000Y-33647000D01*
X25199000Y-45516000D02*
X25199000Y-41440000D01*
X25759000Y-45841000D02*
X25759000Y-41440000D01*
X22239000Y-40850000D02*
X22239000Y-39150000D01*
X25479000Y-45688000D02*
X25479000Y-41440000D01*
X23599000Y-44057000D02*
X23599000Y-35943000D01*
X24879000Y-38560000D02*
X24879000Y-34705000D01*
X23519000Y-43954000D02*
X23519000Y-36046000D01*
X22759000Y-42670000D02*
X22759000Y-37330000D01*
X24359000Y-44871000D02*
X24359000Y-35129000D01*
X27119000Y-38560000D02*
X27119000Y-33636000D01*
X35234569Y-44365000D02*
X35234569Y-43065000D01*
X23159000Y-43427000D02*
X23159000Y-36573000D01*
X25519000Y-38560000D02*
X25519000Y-34289000D01*
X26559000Y-38560000D02*
X26559000Y-33810000D01*
X25079000Y-45436000D02*
X25079000Y-41440000D01*
X24879000Y-45295000D02*
X24879000Y-41440000D01*
X28480000Y-46573000D02*
X28480000Y-33427000D01*
X22799000Y-42758000D02*
X22799000Y-37242000D01*
X22359000Y-41494000D02*
X22359000Y-38506000D01*
X27519000Y-46456000D02*
X27519000Y-41440000D01*
X22639000Y-42385000D02*
X22639000Y-37615000D01*
X24959000Y-45353000D02*
X24959000Y-41440000D01*
X23119000Y-43361000D02*
X23119000Y-36639000D01*
X24559000Y-45044000D02*
X24559000Y-34956000D01*
X27719000Y-38560000D02*
X27719000Y-33508000D01*
X25679000Y-45799000D02*
X25679000Y-41440000D01*
X25839000Y-38560000D02*
X25839000Y-34118000D01*
X24439000Y-44942000D02*
X24439000Y-35058000D01*
X27199000Y-46384000D02*
X27199000Y-41440000D01*
X26239000Y-46065000D02*
X26239000Y-41440000D01*
X25559000Y-38560000D02*
X25559000Y-34267000D01*
X24279000Y-44797000D02*
X24279000Y-35203000D01*
X25599000Y-38560000D02*
X25599000Y-34244000D01*
X26359000Y-38560000D02*
X26359000Y-33886000D01*
X25359000Y-45617000D02*
X25359000Y-41440000D01*
X25919000Y-38560000D02*
X25919000Y-34079000D01*
X22599000Y-42281000D02*
X22599000Y-37719000D01*
X26879000Y-38560000D02*
X26879000Y-33704000D01*
X25759000Y-38560000D02*
X25759000Y-34159000D01*
X26079000Y-45996000D02*
X26079000Y-41440000D01*
X26959000Y-38560000D02*
X26959000Y-33680000D01*
X27399000Y-38560000D02*
X27399000Y-33569000D01*
X25239000Y-45542000D02*
X25239000Y-41440000D01*
X27039000Y-46342000D02*
X27039000Y-41440000D01*
X26119000Y-38560000D02*
X26119000Y-33986000D01*
X26039000Y-38560000D02*
X26039000Y-34022000D01*
X22519000Y-42055000D02*
X22519000Y-37945000D01*
X23759000Y-44253000D02*
X23759000Y-35747000D01*
X24999000Y-45381000D02*
X24999000Y-41440000D01*
X26319000Y-38560000D02*
X26319000Y-33902000D01*
X23879000Y-44390000D02*
X23879000Y-35610000D01*
X28560000Y-46576000D02*
X28560000Y-33424000D01*
X27559000Y-38560000D02*
X27559000Y-33537000D01*
X26799000Y-38560000D02*
X26799000Y-33729000D01*
X26079000Y-38560000D02*
X26079000Y-34004000D01*
X24039000Y-44561000D02*
X24039000Y-35439000D01*
X24639000Y-45110000D02*
X24639000Y-34890000D01*
X26719000Y-38560000D02*
X26719000Y-33755000D01*
X28800000Y-46580000D02*
X28800000Y-33420000D01*
X26239000Y-38560000D02*
X26239000Y-33935000D01*
X24119000Y-44643000D02*
X24119000Y-35357000D01*
X26679000Y-38560000D02*
X26679000Y-33768000D01*
X25319000Y-45592000D02*
X25319000Y-41440000D01*
X25639000Y-45778000D02*
X25639000Y-41440000D01*
X25879000Y-45902000D02*
X25879000Y-41440000D01*
X28640000Y-46579000D02*
X28640000Y-33421000D01*
X24079000Y-44602000D02*
X24079000Y-35398000D01*
X27239000Y-38560000D02*
X27239000Y-33606000D01*
X22719000Y-42579000D02*
X22719000Y-37421000D01*
X23719000Y-44205000D02*
X23719000Y-35795000D01*
X24199000Y-44721000D02*
X24199000Y-35279000D01*
X26599000Y-38560000D02*
X26599000Y-33796000D01*
X26919000Y-38560000D02*
X26919000Y-33692000D01*
X27959000Y-46527000D02*
X27959000Y-33473000D01*
X25879000Y-38560000D02*
X25879000Y-34098000D01*
X28320000Y-46563000D02*
X28320000Y-33437000D01*
X28600000Y-46577000D02*
X28600000Y-33423000D01*
X26759000Y-46258000D02*
X26759000Y-41440000D01*
X27119000Y-46364000D02*
X27119000Y-41440000D01*
X27999000Y-46532000D02*
X27999000Y-33468000D01*
X28240000Y-46557000D02*
X28240000Y-33443000D01*
X26439000Y-46146000D02*
X26439000Y-41440000D01*
X25039000Y-45409000D02*
X25039000Y-41440000D01*
X28079000Y-46541000D02*
X28079000Y-33459000D01*
X26839000Y-38560000D02*
X26839000Y-33716000D01*
X25639000Y-38560000D02*
X25639000Y-34222000D01*
X25919000Y-45921000D02*
X25919000Y-41440000D01*
X27639000Y-46478000D02*
X27639000Y-41440000D01*
X26959000Y-46320000D02*
X26959000Y-41440000D01*
X26159000Y-46031000D02*
X26159000Y-41440000D01*
X27759000Y-46498000D02*
X27759000Y-33502000D01*
X25359000Y-38560000D02*
X25359000Y-34383000D01*
X25079000Y-38560000D02*
X25079000Y-34564000D01*
X27679000Y-46485000D02*
X27679000Y-41440000D01*
X26999000Y-38560000D02*
X26999000Y-33669000D01*
X27479000Y-38560000D02*
X27479000Y-33552000D01*
X24999000Y-38560000D02*
X24999000Y-34619000D01*
X26119000Y-46014000D02*
X26119000Y-41440000D01*
X22839000Y-42842000D02*
X22839000Y-37158000D01*
X27039000Y-38560000D02*
X27039000Y-33658000D01*
X27879000Y-46516000D02*
X27879000Y-33484000D01*
X25199000Y-38560000D02*
X25199000Y-34484000D01*
X22439000Y-41798000D02*
X22439000Y-38202000D01*
X23319000Y-43675000D02*
X23319000Y-36325000D01*
X27839000Y-46511000D02*
X27839000Y-33489000D01*
X23199000Y-43491000D02*
X23199000Y-36509000D01*
X23839000Y-44345000D02*
X23839000Y-35655000D01*
X27599000Y-38560000D02*
X27599000Y-33529000D01*
X28120000Y-46545000D02*
X28120000Y-33455000D01*
X25799000Y-38560000D02*
X25799000Y-34138000D01*
X35884569Y-43715000D02*
X34584569Y-43715000D01*
X26479000Y-46161000D02*
X26479000Y-41440000D01*
X27919000Y-46522000D02*
X27919000Y-33478000D01*
X26999000Y-46331000D02*
X26999000Y-41440000D01*
X24959000Y-38560000D02*
X24959000Y-34647000D01*
X24519000Y-45011000D02*
X24519000Y-34989000D01*
X25159000Y-45490000D02*
X25159000Y-41440000D01*
X28720000Y-46580000D02*
X28720000Y-33420000D01*
X26279000Y-38560000D02*
X26279000Y-33918000D01*
X22319000Y-41315000D02*
X22319000Y-38685000D01*
X26399000Y-46130000D02*
X26399000Y-41440000D01*
X25679000Y-38560000D02*
X25679000Y-34201000D01*
X27399000Y-46431000D02*
X27399000Y-41440000D01*
X27439000Y-38560000D02*
X27439000Y-33561000D01*
X23959000Y-44477000D02*
X23959000Y-35523000D01*
X27639000Y-38560000D02*
X27639000Y-33522000D01*
X22399000Y-41653000D02*
X22399000Y-38347000D01*
X25999000Y-38560000D02*
X25999000Y-34041000D01*
X22559000Y-42171000D02*
X22559000Y-37829000D01*
X27719000Y-46492000D02*
X27719000Y-41440000D01*
X24399000Y-44907000D02*
X24399000Y-35093000D01*
X25439000Y-45664000D02*
X25439000Y-41440000D01*
X25119000Y-45463000D02*
X25119000Y-41440000D01*
X22479000Y-41931000D02*
X22479000Y-38069000D01*
X23439000Y-43846000D02*
X23439000Y-36154000D01*
X23479000Y-43900000D02*
X23479000Y-36100000D01*
X23999000Y-44519000D02*
X23999000Y-35481000D01*
X25319000Y-38560000D02*
X25319000Y-34408000D01*
X27279000Y-38560000D02*
X27279000Y-33596000D01*
X28200000Y-46553000D02*
X28200000Y-33447000D01*
X26719000Y-46245000D02*
X26719000Y-41440000D01*
X25519000Y-45711000D02*
X25519000Y-41440000D01*
X24479000Y-44977000D02*
X24479000Y-35023000D01*
X24919000Y-38560000D02*
X24919000Y-34676000D01*
X25119000Y-38560000D02*
X25119000Y-34537000D01*
X26799000Y-46271000D02*
X26799000Y-41440000D01*
X25239000Y-38560000D02*
X25239000Y-34458000D01*
X27159000Y-38560000D02*
X27159000Y-33626000D01*
X23399000Y-43790000D02*
X23399000Y-36210000D01*
X28520000Y-46575000D02*
X28520000Y-33425000D01*
X28160000Y-46549000D02*
X28160000Y-33451000D01*
X25479000Y-38560000D02*
X25479000Y-34312000D01*
X26199000Y-38560000D02*
X26199000Y-33951000D01*
X27199000Y-38560000D02*
X27199000Y-33616000D01*
X27479000Y-46448000D02*
X27479000Y-41440000D01*
X25719000Y-38560000D02*
X25719000Y-34180000D01*
X27079000Y-46353000D02*
X27079000Y-41440000D01*
X26399000Y-38560000D02*
X26399000Y-33870000D01*
X23279000Y-43615000D02*
X23279000Y-36385000D01*
X24799000Y-45235000D02*
X24799000Y-34765000D01*
X24679000Y-45142000D02*
X24679000Y-34858000D01*
X23639000Y-44108000D02*
X23639000Y-35892000D01*
X27359000Y-46422000D02*
X27359000Y-41440000D01*
X25559000Y-45733000D02*
X25559000Y-41440000D01*
X28440000Y-46571000D02*
X28440000Y-33429000D01*
X28360000Y-46566000D02*
X28360000Y-33434000D01*
X23239000Y-43554000D02*
X23239000Y-36446000D01*
X26639000Y-38560000D02*
X26639000Y-33782000D01*
X25799000Y-45862000D02*
X25799000Y-41440000D01*
X26679000Y-46232000D02*
X26679000Y-41440000D01*
X27679000Y-38560000D02*
X27679000Y-33515000D01*
X26599000Y-46204000D02*
X26599000Y-41440000D01*
X24159000Y-44682000D02*
X24159000Y-35318000D01*
X24919000Y-45324000D02*
X24919000Y-41440000D01*
X26319000Y-46098000D02*
X26319000Y-41440000D01*
X25399000Y-45641000D02*
X25399000Y-41440000D01*
X25399000Y-38560000D02*
X25399000Y-34359000D01*
X25039000Y-38560000D02*
X25039000Y-34591000D01*
X26639000Y-46218000D02*
X26639000Y-41440000D01*
X26919000Y-46308000D02*
X26919000Y-41440000D01*
X28280000Y-46560000D02*
X28280000Y-33440000D01*
X25959000Y-38560000D02*
X25959000Y-34060000D01*
X23559000Y-44006000D02*
X23559000Y-35994000D01*
X26159000Y-38560000D02*
X26159000Y-33969000D01*
X22279000Y-41107000D02*
X22279000Y-38893000D01*
X25439000Y-38560000D02*
X25439000Y-34336000D01*
X26199000Y-46049000D02*
X26199000Y-41440000D01*
X27799000Y-46505000D02*
X27799000Y-33495000D01*
X35420000Y-40000000D02*
G75*
G03*
X35420000Y-40000000I-6620000J0D01*
G01*
%TO.C,C17*%
X27946000Y-55669000D02*
X28460000Y-55669000D01*
X30540000Y-56469000D02*
X31747000Y-56469000D01*
X27496000Y-56109000D02*
X28460000Y-56109000D01*
X30540000Y-56669000D02*
X31848000Y-56669000D01*
X29216000Y-55149000D02*
X29784000Y-55149000D01*
X26921000Y-57670000D02*
X32079000Y-57670000D01*
X28181000Y-55509000D02*
X28460000Y-55509000D01*
X30540000Y-55909000D02*
X31326000Y-55909000D01*
X28249000Y-55469000D02*
X28460000Y-55469000D01*
X28000000Y-55629000D02*
X28460000Y-55629000D01*
X27118000Y-56749000D02*
X28460000Y-56749000D01*
X27757000Y-55829000D02*
X28460000Y-55829000D01*
X30540000Y-56109000D02*
X31504000Y-56109000D01*
X27276000Y-56429000D02*
X28460000Y-56429000D01*
X30540000Y-57310000D02*
X32043000Y-57310000D01*
X30540000Y-55709000D02*
X31105000Y-55709000D01*
X26924000Y-57590000D02*
X32076000Y-57590000D01*
X27058000Y-56909000D02*
X28460000Y-56909000D01*
X28585000Y-55309000D02*
X30415000Y-55309000D01*
X30540000Y-56549000D02*
X31790000Y-56549000D01*
X26957000Y-57310000D02*
X28460000Y-57310000D01*
X30540000Y-56309000D02*
X31649000Y-56309000D01*
X30540000Y-56189000D02*
X31565000Y-56189000D01*
X27171000Y-56629000D02*
X28460000Y-56629000D01*
X30540000Y-56229000D02*
X31595000Y-56229000D01*
X27563000Y-56029000D02*
X28460000Y-56029000D01*
X26999000Y-57110000D02*
X28460000Y-57110000D01*
X26989000Y-57150000D02*
X28460000Y-57150000D01*
X30540000Y-57150000D02*
X32011000Y-57150000D01*
X30540000Y-55749000D02*
X31153000Y-55749000D01*
X27253000Y-56469000D02*
X28460000Y-56469000D01*
X28322000Y-55429000D02*
X30678000Y-55429000D01*
X27636000Y-55949000D02*
X28460000Y-55949000D01*
X28402000Y-55389000D02*
X30598000Y-55389000D01*
X26935000Y-57470000D02*
X28460000Y-57470000D01*
X27232000Y-56509000D02*
X28460000Y-56509000D01*
X30540000Y-57070000D02*
X31991000Y-57070000D01*
X30540000Y-56629000D02*
X31829000Y-56629000D01*
X27847000Y-55749000D02*
X28460000Y-55749000D01*
X30540000Y-55869000D02*
X31285000Y-55869000D01*
X30540000Y-56829000D02*
X31914000Y-56829000D01*
X30540000Y-57470000D02*
X32065000Y-57470000D01*
X26980000Y-57190000D02*
X28460000Y-57190000D01*
X30540000Y-56869000D02*
X31928000Y-56869000D01*
X30540000Y-57510000D02*
X32069000Y-57510000D01*
X30540000Y-56589000D02*
X31810000Y-56589000D01*
X30540000Y-56949000D02*
X31955000Y-56949000D01*
X30540000Y-56149000D02*
X31535000Y-56149000D01*
X30540000Y-55669000D02*
X31054000Y-55669000D01*
X27102000Y-56789000D02*
X28460000Y-56789000D01*
X27325000Y-56349000D02*
X28460000Y-56349000D01*
X30540000Y-57350000D02*
X32050000Y-57350000D01*
X26944000Y-57390000D02*
X28460000Y-57390000D01*
X27072000Y-56869000D02*
X28460000Y-56869000D01*
X26950000Y-57350000D02*
X28460000Y-57350000D01*
X30540000Y-56349000D02*
X31675000Y-56349000D01*
X27435000Y-56189000D02*
X28460000Y-56189000D01*
X30540000Y-56429000D02*
X31724000Y-56429000D01*
X27801000Y-55789000D02*
X28460000Y-55789000D01*
X30540000Y-55509000D02*
X30819000Y-55509000D01*
X27300000Y-56389000D02*
X28460000Y-56389000D01*
X27045000Y-56949000D02*
X28460000Y-56949000D01*
X27599000Y-55989000D02*
X28460000Y-55989000D01*
X30540000Y-56389000D02*
X31700000Y-56389000D01*
X28117000Y-55549000D02*
X28460000Y-55549000D01*
X30540000Y-55949000D02*
X31364000Y-55949000D01*
X30540000Y-56069000D02*
X31471000Y-56069000D01*
X30540000Y-55589000D02*
X30943000Y-55589000D01*
X30540000Y-56749000D02*
X31882000Y-56749000D01*
X27135000Y-56709000D02*
X28460000Y-56709000D01*
X26922000Y-57630000D02*
X32078000Y-57630000D01*
X30540000Y-57270000D02*
X32036000Y-57270000D01*
X30540000Y-55629000D02*
X31000000Y-55629000D01*
X26920000Y-57710000D02*
X32080000Y-57710000D01*
X28823000Y-55229000D02*
X30177000Y-55229000D01*
X27715000Y-55869000D02*
X28460000Y-55869000D01*
X30540000Y-56989000D02*
X31968000Y-56989000D01*
X30540000Y-56269000D02*
X31622000Y-56269000D01*
X26939000Y-57430000D02*
X28460000Y-57430000D01*
X27529000Y-56069000D02*
X28460000Y-56069000D01*
X30540000Y-57390000D02*
X32056000Y-57390000D01*
X27378000Y-56269000D02*
X28460000Y-56269000D01*
X30540000Y-57430000D02*
X32061000Y-57430000D01*
X27009000Y-57070000D02*
X28460000Y-57070000D01*
X27895000Y-55709000D02*
X28460000Y-55709000D01*
X27190000Y-56589000D02*
X28460000Y-56589000D01*
X30540000Y-57110000D02*
X32001000Y-57110000D01*
X28489000Y-55349000D02*
X30511000Y-55349000D01*
X30540000Y-55469000D02*
X30751000Y-55469000D01*
X30540000Y-57029000D02*
X31980000Y-57029000D01*
X30540000Y-55549000D02*
X30883000Y-55549000D01*
X27152000Y-56669000D02*
X28460000Y-56669000D01*
X27210000Y-56549000D02*
X28460000Y-56549000D01*
X30540000Y-56789000D02*
X31898000Y-56789000D01*
X30540000Y-55789000D02*
X31199000Y-55789000D01*
X26972000Y-57230000D02*
X28460000Y-57230000D01*
X27020000Y-57029000D02*
X28460000Y-57029000D01*
X26927000Y-57550000D02*
X32073000Y-57550000D01*
X30540000Y-57190000D02*
X32020000Y-57190000D01*
X26920000Y-57750000D02*
X32080000Y-57750000D01*
X27674000Y-55909000D02*
X28460000Y-55909000D01*
X30540000Y-56509000D02*
X31768000Y-56509000D01*
X30540000Y-56709000D02*
X31865000Y-56709000D01*
X26931000Y-57510000D02*
X28460000Y-57510000D01*
X30540000Y-56909000D02*
X31942000Y-56909000D01*
X27405000Y-56229000D02*
X28460000Y-56229000D01*
X27351000Y-56309000D02*
X28460000Y-56309000D01*
X27086000Y-56829000D02*
X28460000Y-56829000D01*
X30540000Y-57230000D02*
X32028000Y-57230000D01*
X26964000Y-57270000D02*
X28460000Y-57270000D01*
X28057000Y-55589000D02*
X28460000Y-55589000D01*
X27465000Y-56149000D02*
X28460000Y-56149000D01*
X30540000Y-56029000D02*
X31437000Y-56029000D01*
X28695000Y-55269000D02*
X30305000Y-55269000D01*
X28025000Y-60554775D02*
X28025000Y-60054775D01*
X30540000Y-55989000D02*
X31401000Y-55989000D01*
X30540000Y-55829000D02*
X31243000Y-55829000D01*
X27775000Y-60304775D02*
X28275000Y-60304775D01*
X28982000Y-55189000D02*
X30018000Y-55189000D01*
X27032000Y-56989000D02*
X28460000Y-56989000D01*
X32120000Y-57750000D02*
G75*
G03*
X32120000Y-57750000I-2620000J0D01*
G01*
%TO.C,C18*%
X71170000Y-38970000D02*
X71155000Y-38970000D01*
X71170000Y-34430000D02*
X71155000Y-34430000D01*
X69045000Y-38970000D02*
X69030000Y-38970000D01*
X69045000Y-34430000D02*
X69030000Y-34430000D01*
X71170000Y-34430000D02*
X71170000Y-38970000D01*
X69030000Y-34430000D02*
X69030000Y-38970000D01*
%TO.C,D1*%
X18170000Y-49780000D02*
X15230000Y-49780000D01*
X15230000Y-55220000D02*
X18170000Y-55220000D01*
X15230000Y-54200000D02*
X18170000Y-54200000D01*
X18170000Y-55220000D02*
X18170000Y-49780000D01*
X15230000Y-54440000D02*
X18170000Y-54440000D01*
X15230000Y-54320000D02*
X18170000Y-54320000D01*
X16700000Y-56440000D02*
X16700000Y-55220000D01*
X16700000Y-48560000D02*
X16700000Y-49780000D01*
X15230000Y-49780000D02*
X15230000Y-55220000D01*
%TO.C,J1*%
X7840000Y-5900000D02*
X7840000Y-21260000D01*
X14801000Y-5900000D02*
X14801000Y-21260000D01*
X13775000Y-14650000D02*
X13739000Y-14615000D01*
X17761000Y-21260000D02*
X7840000Y-21260000D01*
X8400000Y-5900000D02*
X8400000Y-21260000D01*
X11477000Y-17433000D02*
X11431000Y-17386000D01*
X11261000Y-12546000D02*
X11226000Y-12511000D01*
X8340000Y-5660000D02*
X7600000Y-5660000D01*
X13569000Y-14855000D02*
X13523000Y-14808000D01*
X11477000Y-12353000D02*
X11431000Y-12306000D01*
X17761000Y-5900000D02*
X17761000Y-21260000D01*
X11261000Y-17626000D02*
X11226000Y-17591000D01*
X7600000Y-5660000D02*
X7600000Y-6160000D01*
X13569000Y-19935000D02*
X13523000Y-19888000D01*
X17761000Y-5900000D02*
X7840000Y-5900000D01*
X13775000Y-19730000D02*
X13739000Y-19695000D01*
X9900000Y-5900000D02*
X9900000Y-21260000D01*
X10820000Y-8500000D02*
G75*
G03*
X10965244Y-9183318I1680000J0D01*
G01*
X13184000Y-6965000D02*
G75*
G03*
X11816958Y-6964573I-684001J-1534993D01*
G01*
X11816000Y-10035001D02*
G75*
G03*
X13183042Y-10035427I684000J1535001D01*
G01*
X14035000Y-9184000D02*
G75*
G03*
X14035427Y-7816958I-1534993J684001D01*
G01*
X10965000Y-7816000D02*
G75*
G03*
X10819747Y-8528805I1535001J-683999D01*
G01*
X14180000Y-18660000D02*
G75*
G03*
X14180000Y-18660000I-1680000J0D01*
G01*
X14180000Y-13580000D02*
G75*
G03*
X14180000Y-13580000I-1680000J0D01*
G01*
%TO.C,J2*%
X82200000Y-42600000D02*
X82200000Y-22160000D01*
X72839000Y-22160000D02*
X82760000Y-22160000D01*
X72839000Y-42600000D02*
X72839000Y-22160000D01*
X76825000Y-33850000D02*
X76861000Y-33885000D01*
X77031000Y-33645000D02*
X77077000Y-33692000D01*
X79339000Y-25794000D02*
X79374000Y-25829000D01*
X82260000Y-42840000D02*
X83000000Y-42840000D01*
X79339000Y-30874000D02*
X79374000Y-30909000D01*
X80700000Y-42600000D02*
X80700000Y-22160000D01*
X72839000Y-42600000D02*
X82760000Y-42600000D01*
X77031000Y-23485000D02*
X77077000Y-23532000D01*
X83000000Y-42840000D02*
X83000000Y-42340000D01*
X77031000Y-28565000D02*
X77077000Y-28612000D01*
X76825000Y-23690000D02*
X76861000Y-23725000D01*
X79123000Y-25987000D02*
X79169000Y-26034000D01*
X75799000Y-42600000D02*
X75799000Y-22160000D01*
X79123000Y-31067000D02*
X79169000Y-31114000D01*
X82760000Y-42600000D02*
X82760000Y-22160000D01*
X79123000Y-36147000D02*
X79169000Y-36194000D01*
X79339000Y-35954000D02*
X79374000Y-35989000D01*
X76825000Y-28770000D02*
X76861000Y-28805000D01*
X77416000Y-41535000D02*
G75*
G03*
X78783042Y-41535427I684001J1534993D01*
G01*
X79635000Y-40684000D02*
G75*
G03*
X79780253Y-39971195I-1535001J683999D01*
G01*
X76565000Y-39316000D02*
G75*
G03*
X76564573Y-40683042I1534993J-684001D01*
G01*
X78784000Y-38464999D02*
G75*
G03*
X77416958Y-38464573I-684000J-1535001D01*
G01*
X79780000Y-40000000D02*
G75*
G03*
X79634756Y-39316682I-1680000J0D01*
G01*
X79780000Y-29840000D02*
G75*
G03*
X79780000Y-29840000I-1680000J0D01*
G01*
X79780000Y-34920000D02*
G75*
G03*
X79780000Y-34920000I-1680000J0D01*
G01*
X79780000Y-24760000D02*
G75*
G03*
X79780000Y-24760000I-1680000J0D01*
G01*
%TO.C,JP1*%
X7970000Y-29870000D02*
X9300000Y-29870000D01*
X7970000Y-31200000D02*
X7970000Y-29870000D01*
X7970000Y-35070000D02*
X10630000Y-35070000D01*
X7970000Y-32470000D02*
X10630000Y-32470000D01*
X10630000Y-32470000D02*
X10630000Y-35070000D01*
X7970000Y-32470000D02*
X7970000Y-35070000D01*
%TO.C,R1*%
X14930000Y-31650000D02*
X17670000Y-31650000D01*
X16300000Y-24340000D02*
X16300000Y-25110000D01*
X14930000Y-25110000D02*
X14930000Y-31650000D01*
X17670000Y-31650000D02*
X17670000Y-25110000D01*
X16300000Y-32420000D02*
X16300000Y-31650000D01*
X17670000Y-25110000D02*
X14930000Y-25110000D01*
%TO.C,R2*%
X11630000Y-25110000D02*
X11630000Y-31650000D01*
X14370000Y-31650000D02*
X14370000Y-25110000D01*
X13000000Y-24340000D02*
X13000000Y-25110000D01*
X13000000Y-32420000D02*
X13000000Y-31650000D01*
X14370000Y-25110000D02*
X11630000Y-25110000D01*
X11630000Y-31650000D02*
X14370000Y-31650000D01*
%TO.C,R3*%
X20000000Y-51760000D02*
X20000000Y-52530000D01*
X18630000Y-52530000D02*
X18630000Y-59070000D01*
X20000000Y-59840000D02*
X20000000Y-59070000D01*
X18630000Y-59070000D02*
X21370000Y-59070000D01*
X21370000Y-59070000D02*
X21370000Y-52530000D01*
X21370000Y-52530000D02*
X18630000Y-52530000D01*
%TO.C,R4*%
X23300000Y-59820000D02*
X23300000Y-59050000D01*
X21930000Y-52510000D02*
X21930000Y-59050000D01*
X21930000Y-59050000D02*
X24670000Y-59050000D01*
X24670000Y-59050000D02*
X24670000Y-52510000D01*
X24670000Y-52510000D02*
X21930000Y-52510000D01*
X23300000Y-51740000D02*
X23300000Y-52510000D01*
%TO.C,R5*%
X12030000Y-55670000D02*
X14770000Y-55670000D01*
X14770000Y-55670000D02*
X14770000Y-49130000D01*
X13400000Y-48360000D02*
X13400000Y-49130000D01*
X12030000Y-49130000D02*
X12030000Y-55670000D01*
X13400000Y-56440000D02*
X13400000Y-55670000D01*
X14770000Y-49130000D02*
X12030000Y-49130000D01*
%TO.C,R6*%
X34510000Y-16830000D02*
X34510000Y-19570000D01*
X33740000Y-18200000D02*
X34510000Y-18200000D01*
X34510000Y-19570000D02*
X41050000Y-19570000D01*
X41050000Y-19570000D02*
X41050000Y-16830000D01*
X41820000Y-18200000D02*
X41050000Y-18200000D01*
X41050000Y-16830000D02*
X34510000Y-16830000D01*
%TO.C,R7*%
X51250000Y-20030000D02*
X44710000Y-20030000D01*
X44710000Y-20030000D02*
X44710000Y-22770000D01*
X51250000Y-22770000D02*
X51250000Y-20030000D01*
X43940000Y-21400000D02*
X44710000Y-21400000D01*
X44710000Y-22770000D02*
X51250000Y-22770000D01*
X52020000Y-21400000D02*
X51250000Y-21400000D01*
%TO.C,R8*%
X53690000Y-16830000D02*
X47150000Y-16830000D01*
X53690000Y-19570000D02*
X53690000Y-16830000D01*
X46380000Y-18200000D02*
X47150000Y-18200000D01*
X47150000Y-16830000D02*
X47150000Y-19570000D01*
X47150000Y-19570000D02*
X53690000Y-19570000D01*
X54460000Y-18200000D02*
X53690000Y-18200000D01*
%TO.C,R9*%
X72020000Y-21850000D02*
X72020000Y-11710000D01*
X68180000Y-21850000D02*
X72020000Y-21850000D01*
X70100000Y-22960000D02*
X70100000Y-21850000D01*
X72020000Y-11710000D02*
X68180000Y-11710000D01*
X68180000Y-11710000D02*
X68180000Y-21850000D01*
X70100000Y-10600000D02*
X70100000Y-11710000D01*
%TO.C,R10*%
X49310000Y-48230000D02*
X49310000Y-50970000D01*
X55850000Y-48230000D02*
X49310000Y-48230000D01*
X56620000Y-49600000D02*
X55850000Y-49600000D01*
X48540000Y-49600000D02*
X49310000Y-49600000D01*
X49310000Y-50970000D02*
X55850000Y-50970000D01*
X55850000Y-50970000D02*
X55850000Y-48230000D01*
%TO.C,R11*%
X43450000Y-47770000D02*
X43450000Y-45030000D01*
X36910000Y-47770000D02*
X43450000Y-47770000D01*
X44220000Y-46400000D02*
X43450000Y-46400000D01*
X36140000Y-46400000D02*
X36910000Y-46400000D01*
X43450000Y-45030000D02*
X36910000Y-45030000D01*
X36910000Y-45030000D02*
X36910000Y-47770000D01*
%TO.C,R13*%
X70100000Y-43240000D02*
X70100000Y-44350000D01*
X68180000Y-54490000D02*
X72020000Y-54490000D01*
X68180000Y-44350000D02*
X68180000Y-54490000D01*
X72020000Y-44350000D02*
X68180000Y-44350000D01*
X70100000Y-55600000D02*
X70100000Y-54490000D01*
X72020000Y-54490000D02*
X72020000Y-44350000D01*
%TO.C,U1*%
X53685000Y-10541000D02*
X55360000Y-10541000D01*
X55360000Y-5300000D02*
X55360000Y-10541000D01*
X48605000Y-10541000D02*
X49296000Y-10541000D01*
X46065000Y-10541000D02*
X46756000Y-10541000D01*
X38790000Y-10541000D02*
X38790000Y-13935000D01*
X54030000Y-10541000D02*
X54030000Y-13935000D01*
X38445000Y-10541000D02*
X39136000Y-10541000D01*
X34920000Y-10541000D02*
X36596000Y-10541000D01*
X36250000Y-10541000D02*
X36250000Y-13950000D01*
X43870000Y-10541000D02*
X43870000Y-13935000D01*
X51145000Y-10541000D02*
X51836000Y-10541000D01*
X40985000Y-10541000D02*
X41676000Y-10541000D01*
X34920000Y-5300000D02*
X55360000Y-5300000D01*
X46990000Y-5300000D02*
X46990000Y-7140000D01*
X34920000Y-7140000D02*
X55360000Y-7140000D01*
X43291000Y-5300000D02*
X43291000Y-7140000D01*
X51490000Y-10541000D02*
X51490000Y-13935000D01*
X46410000Y-10541000D02*
X46410000Y-13935000D01*
X41330000Y-10541000D02*
X41330000Y-13935000D01*
X34920000Y-5300000D02*
X34920000Y-10541000D01*
X48950000Y-10541000D02*
X48950000Y-13935000D01*
X43525000Y-10541000D02*
X44216000Y-10541000D01*
%TO.C,U2*%
X48965000Y-57059000D02*
X48274000Y-57059000D01*
X43540000Y-57059000D02*
X43540000Y-53665000D01*
X46080000Y-57059000D02*
X46080000Y-53665000D01*
X51160000Y-57059000D02*
X51160000Y-53665000D01*
X51505000Y-57059000D02*
X50814000Y-57059000D01*
X41345000Y-57059000D02*
X40654000Y-57059000D01*
X55030000Y-57059000D02*
X53354000Y-57059000D01*
X35920000Y-57059000D02*
X35920000Y-53665000D01*
X38805000Y-57059000D02*
X38114000Y-57059000D01*
X43885000Y-57059000D02*
X43194000Y-57059000D01*
X48620000Y-57059000D02*
X48620000Y-53665000D01*
X36265000Y-57059000D02*
X34590000Y-57059000D01*
X34590000Y-62300000D02*
X34590000Y-57059000D01*
X38460000Y-57059000D02*
X38460000Y-53665000D01*
X55030000Y-62300000D02*
X55030000Y-57059000D01*
X46425000Y-57059000D02*
X45734000Y-57059000D01*
X55030000Y-60460000D02*
X34590000Y-60460000D01*
X42960000Y-62300000D02*
X42960000Y-60460000D01*
X41000000Y-57059000D02*
X41000000Y-53665000D01*
X53700000Y-57059000D02*
X53700000Y-53650000D01*
X46659000Y-62300000D02*
X46659000Y-60460000D01*
X55030000Y-62300000D02*
X34590000Y-62300000D01*
%TO.C,J3*%
X48170000Y-31870000D02*
X48170000Y-33200000D01*
X45570000Y-31870000D02*
X45570000Y-34530000D01*
X46840000Y-31870000D02*
X48170000Y-31870000D01*
X45570000Y-31870000D02*
X40430000Y-31870000D01*
X45570000Y-34530000D02*
X40430000Y-34530000D01*
X40430000Y-31870000D02*
X40430000Y-34530000D01*
%TO.C,R12*%
X36910000Y-48230000D02*
X36910000Y-50970000D01*
X43450000Y-48230000D02*
X36910000Y-48230000D01*
X44220000Y-49600000D02*
X43450000Y-49600000D01*
X36910000Y-50970000D02*
X43450000Y-50970000D01*
X36140000Y-49600000D02*
X36910000Y-49600000D01*
X43450000Y-50970000D02*
X43450000Y-48230000D01*
%TD*%
M02*
