%TF.GenerationSoftware,KiCad,Pcbnew,6.0.5-a6ca702e91~116~ubuntu20.04.1*%
%TF.CreationDate,2022-06-04T21:49:54-05:00*%
%TF.ProjectId,TDA7294,54444137-3239-4342-9e6b-696361645f70,rev?*%
%TF.SameCoordinates,Original*%
%TF.FileFunction,Legend,Top*%
%TF.FilePolarity,Positive*%
%FSLAX46Y46*%
G04 Gerber Fmt 4.6, Leading zero omitted, Abs format (unit mm)*
G04 Created by KiCad (PCBNEW 6.0.5-a6ca702e91~116~ubuntu20.04.1) date 2022-06-04 21:49:54*
%MOMM*%
%LPD*%
G01*
G04 APERTURE LIST*
%ADD10C,0.150000*%
%ADD11C,0.300000*%
%ADD12C,0.120000*%
G04 APERTURE END LIST*
D10*
X76928571Y-60023809D02*
X76928571Y-59690476D01*
X77452380Y-59547619D02*
X77452380Y-60023809D01*
X76452380Y-60023809D01*
X76452380Y-59547619D01*
X77452380Y-59119047D02*
X76452380Y-59119047D01*
X77452380Y-58547619D01*
X76452380Y-58547619D01*
X77166666Y-58119047D02*
X77166666Y-57642857D01*
X77452380Y-58214285D02*
X76452380Y-57880952D01*
X77452380Y-57547619D01*
X76928571Y-56880952D02*
X76976190Y-56738095D01*
X77023809Y-56690476D01*
X77119047Y-56642857D01*
X77261904Y-56642857D01*
X77357142Y-56690476D01*
X77404761Y-56738095D01*
X77452380Y-56833333D01*
X77452380Y-57214285D01*
X76452380Y-57214285D01*
X76452380Y-56880952D01*
X76500000Y-56785714D01*
X76547619Y-56738095D01*
X76642857Y-56690476D01*
X76738095Y-56690476D01*
X76833333Y-56738095D01*
X76880952Y-56785714D01*
X76928571Y-56880952D01*
X76928571Y-57214285D01*
X77452380Y-55738095D02*
X77452380Y-56214285D01*
X76452380Y-56214285D01*
X76928571Y-55404761D02*
X76928571Y-55071428D01*
X77452380Y-54928571D02*
X77452380Y-55404761D01*
X76452380Y-55404761D01*
X76452380Y-54928571D01*
X91952380Y-41500000D02*
X90952380Y-41500000D01*
X91666666Y-41166666D01*
X90952380Y-40833333D01*
X91952380Y-40833333D01*
X91666666Y-40404761D02*
X91666666Y-39928571D01*
X91952380Y-40500000D02*
X90952380Y-40166666D01*
X91952380Y-39833333D01*
X90952380Y-39595238D02*
X91952380Y-38928571D01*
X90952380Y-38928571D02*
X91952380Y-39595238D01*
X90952380Y-37880952D02*
X90952380Y-37261904D01*
X91333333Y-37595238D01*
X91333333Y-37452380D01*
X91380952Y-37357142D01*
X91428571Y-37309523D01*
X91523809Y-37261904D01*
X91761904Y-37261904D01*
X91857142Y-37309523D01*
X91904761Y-37357142D01*
X91952380Y-37452380D01*
X91952380Y-37738095D01*
X91904761Y-37833333D01*
X91857142Y-37880952D01*
X90952380Y-36642857D02*
X90952380Y-36547619D01*
X91000000Y-36452380D01*
X91047619Y-36404761D01*
X91142857Y-36357142D01*
X91333333Y-36309523D01*
X91571428Y-36309523D01*
X91761904Y-36357142D01*
X91857142Y-36404761D01*
X91904761Y-36452380D01*
X91952380Y-36547619D01*
X91952380Y-36642857D01*
X91904761Y-36738095D01*
X91857142Y-36785714D01*
X91761904Y-36833333D01*
X91571428Y-36880952D01*
X91333333Y-36880952D01*
X91142857Y-36833333D01*
X91047619Y-36785714D01*
X91000000Y-36738095D01*
X90952380Y-36642857D01*
X90952380Y-36023809D02*
X91952380Y-35690476D01*
X90952380Y-35357142D01*
D11*
X76238095Y-43642857D02*
X77761904Y-43642857D01*
X77000000Y-44404761D02*
X77000000Y-42880952D01*
D10*
X77000000Y-39261904D02*
X76952380Y-39357142D01*
X76952380Y-39500000D01*
X77000000Y-39642857D01*
X77095238Y-39738095D01*
X77190476Y-39785714D01*
X77380952Y-39833333D01*
X77523809Y-39833333D01*
X77714285Y-39785714D01*
X77809523Y-39738095D01*
X77904761Y-39642857D01*
X77952380Y-39500000D01*
X77952380Y-39404761D01*
X77904761Y-39261904D01*
X77857142Y-39214285D01*
X77523809Y-39214285D01*
X77523809Y-39404761D01*
X77952380Y-38785714D02*
X76952380Y-38785714D01*
X77952380Y-38214285D01*
X76952380Y-38214285D01*
X77952380Y-37738095D02*
X76952380Y-37738095D01*
X76952380Y-37500000D01*
X77000000Y-37357142D01*
X77095238Y-37261904D01*
X77190476Y-37214285D01*
X77380952Y-37166666D01*
X77523809Y-37166666D01*
X77714285Y-37214285D01*
X77809523Y-37261904D01*
X77904761Y-37357142D01*
X77952380Y-37500000D01*
X77952380Y-37738095D01*
D11*
X76238095Y-33642857D02*
X77761904Y-33642857D01*
D10*
X89952380Y-40809523D02*
X88952380Y-40809523D01*
X88952380Y-40428571D01*
X89000000Y-40333333D01*
X89047619Y-40285714D01*
X89142857Y-40238095D01*
X89285714Y-40238095D01*
X89380952Y-40285714D01*
X89428571Y-40333333D01*
X89476190Y-40428571D01*
X89476190Y-40809523D01*
X88952380Y-39619047D02*
X88952380Y-39428571D01*
X89000000Y-39333333D01*
X89095238Y-39238095D01*
X89285714Y-39190476D01*
X89619047Y-39190476D01*
X89809523Y-39238095D01*
X89904761Y-39333333D01*
X89952380Y-39428571D01*
X89952380Y-39619047D01*
X89904761Y-39714285D01*
X89809523Y-39809523D01*
X89619047Y-39857142D01*
X89285714Y-39857142D01*
X89095238Y-39809523D01*
X89000000Y-39714285D01*
X88952380Y-39619047D01*
X88952380Y-38857142D02*
X89952380Y-38619047D01*
X89238095Y-38428571D01*
X89952380Y-38238095D01*
X88952380Y-38000000D01*
X89428571Y-37619047D02*
X89428571Y-37285714D01*
X89952380Y-37142857D02*
X89952380Y-37619047D01*
X88952380Y-37619047D01*
X88952380Y-37142857D01*
X89952380Y-36142857D02*
X89476190Y-36476190D01*
X89952380Y-36714285D02*
X88952380Y-36714285D01*
X88952380Y-36333333D01*
X89000000Y-36238095D01*
X89047619Y-36190476D01*
X89142857Y-36142857D01*
X89285714Y-36142857D01*
X89380952Y-36190476D01*
X89428571Y-36238095D01*
X89476190Y-36333333D01*
X89476190Y-36714285D01*
D11*
X147404761Y-75452380D02*
X147404761Y-75071428D01*
X147500000Y-74880952D01*
X147690476Y-74690476D01*
X148071428Y-74595238D01*
X148738095Y-74595238D01*
X149119047Y-74690476D01*
X149309523Y-74880952D01*
X149404761Y-75071428D01*
X149404761Y-75452380D01*
X149309523Y-75642857D01*
X149119047Y-75833333D01*
X148738095Y-75928571D01*
X148071428Y-75928571D01*
X147690476Y-75833333D01*
X147500000Y-75642857D01*
X147404761Y-75452380D01*
X147404761Y-73738095D02*
X149023809Y-73738095D01*
X149214285Y-73642857D01*
X149309523Y-73547619D01*
X149404761Y-73357142D01*
X149404761Y-72976190D01*
X149309523Y-72785714D01*
X149214285Y-72690476D01*
X149023809Y-72595238D01*
X147404761Y-72595238D01*
X147404761Y-71928571D02*
X147404761Y-70785714D01*
X149404761Y-71357142D02*
X147404761Y-71357142D01*
X149309523Y-70214285D02*
X149404761Y-69928571D01*
X149404761Y-69452380D01*
X149309523Y-69261904D01*
X149214285Y-69166666D01*
X149023809Y-69071428D01*
X148833333Y-69071428D01*
X148642857Y-69166666D01*
X148547619Y-69261904D01*
X148452380Y-69452380D01*
X148357142Y-69833333D01*
X148261904Y-70023809D01*
X148166666Y-70119047D01*
X147976190Y-70214285D01*
X147785714Y-70214285D01*
X147595238Y-70119047D01*
X147500000Y-70023809D01*
X147404761Y-69833333D01*
X147404761Y-69357142D01*
X147500000Y-69071428D01*
D10*
X155452380Y-49690476D02*
X155452380Y-50166666D01*
X154452380Y-50166666D01*
X154500000Y-55761904D02*
X154452380Y-55857142D01*
X154452380Y-56000000D01*
X154500000Y-56142857D01*
X154595238Y-56238095D01*
X154690476Y-56285714D01*
X154880952Y-56333333D01*
X155023809Y-56333333D01*
X155214285Y-56285714D01*
X155309523Y-56238095D01*
X155404761Y-56142857D01*
X155452380Y-56000000D01*
X155452380Y-55904761D01*
X155404761Y-55761904D01*
X155357142Y-55714285D01*
X155023809Y-55714285D01*
X155023809Y-55904761D01*
X155452380Y-55285714D02*
X154452380Y-55285714D01*
X155452380Y-54714285D01*
X154452380Y-54714285D01*
X155452380Y-54238095D02*
X154452380Y-54238095D01*
X154452380Y-54000000D01*
X154500000Y-53857142D01*
X154595238Y-53761904D01*
X154690476Y-53714285D01*
X154880952Y-53666666D01*
X155023809Y-53666666D01*
X155214285Y-53714285D01*
X155309523Y-53761904D01*
X155404761Y-53857142D01*
X155452380Y-54000000D01*
X155452380Y-54238095D01*
X154500000Y-60761904D02*
X154452380Y-60857142D01*
X154452380Y-61000000D01*
X154500000Y-61142857D01*
X154595238Y-61238095D01*
X154690476Y-61285714D01*
X154880952Y-61333333D01*
X155023809Y-61333333D01*
X155214285Y-61285714D01*
X155309523Y-61238095D01*
X155404761Y-61142857D01*
X155452380Y-61000000D01*
X155452380Y-60904761D01*
X155404761Y-60761904D01*
X155357142Y-60714285D01*
X155023809Y-60714285D01*
X155023809Y-60904761D01*
X155452380Y-60285714D02*
X154452380Y-60285714D01*
X155452380Y-59714285D01*
X154452380Y-59714285D01*
X155452380Y-59238095D02*
X154452380Y-59238095D01*
X154452380Y-59000000D01*
X154500000Y-58857142D01*
X154595238Y-58761904D01*
X154690476Y-58714285D01*
X154880952Y-58666666D01*
X155023809Y-58666666D01*
X155214285Y-58714285D01*
X155309523Y-58761904D01*
X155404761Y-58857142D01*
X155452380Y-59000000D01*
X155452380Y-59238095D01*
X155452380Y-64690476D02*
X154976190Y-65023809D01*
X155452380Y-65261904D02*
X154452380Y-65261904D01*
X154452380Y-64880952D01*
X154500000Y-64785714D01*
X154547619Y-64738095D01*
X154642857Y-64690476D01*
X154785714Y-64690476D01*
X154880952Y-64738095D01*
X154928571Y-64785714D01*
X154976190Y-64880952D01*
X154976190Y-65261904D01*
X112323809Y-61252380D02*
X111847619Y-61252380D01*
X111847619Y-60252380D01*
X113942857Y-60300000D02*
X113847619Y-60252380D01*
X113704761Y-60252380D01*
X113561904Y-60300000D01*
X113466666Y-60395238D01*
X113419047Y-60490476D01*
X113371428Y-60680952D01*
X113371428Y-60823809D01*
X113419047Y-61014285D01*
X113466666Y-61109523D01*
X113561904Y-61204761D01*
X113704761Y-61252380D01*
X113800000Y-61252380D01*
X113942857Y-61204761D01*
X113990476Y-61157142D01*
X113990476Y-60823809D01*
X113800000Y-60823809D01*
X114419047Y-61252380D02*
X114419047Y-60252380D01*
X114990476Y-61252380D01*
X114990476Y-60252380D01*
X115466666Y-61252380D02*
X115466666Y-60252380D01*
X115704761Y-60252380D01*
X115847619Y-60300000D01*
X115942857Y-60395238D01*
X115990476Y-60490476D01*
X116038095Y-60680952D01*
X116038095Y-60823809D01*
X115990476Y-61014285D01*
X115942857Y-61109523D01*
X115847619Y-61204761D01*
X115704761Y-61252380D01*
X115466666Y-61252380D01*
X117800000Y-61252380D02*
X117466666Y-60776190D01*
X117228571Y-61252380D02*
X117228571Y-60252380D01*
X117609523Y-60252380D01*
X117704761Y-60300000D01*
X117752380Y-60347619D01*
X117800000Y-60442857D01*
X117800000Y-60585714D01*
X117752380Y-60680952D01*
X117704761Y-60728571D01*
X117609523Y-60776190D01*
X117228571Y-60776190D01*
X114276190Y-56252380D02*
X114276190Y-55252380D01*
X114752380Y-56252380D02*
X114752380Y-55252380D01*
X115323809Y-56252380D01*
X115323809Y-55252380D01*
%TO.C,C15*%
X134857142Y-59357142D02*
X134809523Y-59404761D01*
X134666666Y-59452380D01*
X134571428Y-59452380D01*
X134428571Y-59404761D01*
X134333333Y-59309523D01*
X134285714Y-59214285D01*
X134238095Y-59023809D01*
X134238095Y-58880952D01*
X134285714Y-58690476D01*
X134333333Y-58595238D01*
X134428571Y-58500000D01*
X134571428Y-58452380D01*
X134666666Y-58452380D01*
X134809523Y-58500000D01*
X134857142Y-58547619D01*
X135809523Y-59452380D02*
X135238095Y-59452380D01*
X135523809Y-59452380D02*
X135523809Y-58452380D01*
X135428571Y-58595238D01*
X135333333Y-58690476D01*
X135238095Y-58738095D01*
X136714285Y-58452380D02*
X136238095Y-58452380D01*
X136190476Y-58928571D01*
X136238095Y-58880952D01*
X136333333Y-58833333D01*
X136571428Y-58833333D01*
X136666666Y-58880952D01*
X136714285Y-58928571D01*
X136761904Y-59023809D01*
X136761904Y-59261904D01*
X136714285Y-59357142D01*
X136666666Y-59404761D01*
X136571428Y-59452380D01*
X136333333Y-59452380D01*
X136238095Y-59404761D01*
X136190476Y-59357142D01*
%TO.C,J1*%
X79666666Y-46952380D02*
X79666666Y-47666666D01*
X79619047Y-47809523D01*
X79523809Y-47904761D01*
X79380952Y-47952380D01*
X79285714Y-47952380D01*
X80666666Y-47952380D02*
X80095238Y-47952380D01*
X80380952Y-47952380D02*
X80380952Y-46952380D01*
X80285714Y-47095238D01*
X80190476Y-47190476D01*
X80095238Y-47238095D01*
%TO.C,J2*%
X151952380Y-45833333D02*
X152666666Y-45833333D01*
X152809523Y-45880952D01*
X152904761Y-45976190D01*
X152952380Y-46119047D01*
X152952380Y-46214285D01*
X152047619Y-45404761D02*
X152000000Y-45357142D01*
X151952380Y-45261904D01*
X151952380Y-45023809D01*
X152000000Y-44928571D01*
X152047619Y-44880952D01*
X152142857Y-44833333D01*
X152238095Y-44833333D01*
X152380952Y-44880952D01*
X152952380Y-45452380D01*
X152952380Y-44833333D01*
%TO.C,J3*%
X119122380Y-58533333D02*
X119836666Y-58533333D01*
X119979523Y-58580952D01*
X120074761Y-58676190D01*
X120122380Y-58819047D01*
X120122380Y-58914285D01*
X119122380Y-58152380D02*
X119122380Y-57533333D01*
X119503333Y-57866666D01*
X119503333Y-57723809D01*
X119550952Y-57628571D01*
X119598571Y-57580952D01*
X119693809Y-57533333D01*
X119931904Y-57533333D01*
X120027142Y-57580952D01*
X120074761Y-57628571D01*
X120122380Y-57723809D01*
X120122380Y-58009523D01*
X120074761Y-58104761D01*
X120027142Y-58152380D01*
%TO.C,C17*%
X96607142Y-83392857D02*
X96654761Y-83440476D01*
X96702380Y-83583333D01*
X96702380Y-83678571D01*
X96654761Y-83821428D01*
X96559523Y-83916666D01*
X96464285Y-83964285D01*
X96273809Y-84011904D01*
X96130952Y-84011904D01*
X95940476Y-83964285D01*
X95845238Y-83916666D01*
X95750000Y-83821428D01*
X95702380Y-83678571D01*
X95702380Y-83583333D01*
X95750000Y-83440476D01*
X95797619Y-83392857D01*
X96702380Y-82440476D02*
X96702380Y-83011904D01*
X96702380Y-82726190D02*
X95702380Y-82726190D01*
X95845238Y-82821428D01*
X95940476Y-82916666D01*
X95988095Y-83011904D01*
X95702380Y-82107142D02*
X95702380Y-81440476D01*
X96702380Y-81869047D01*
%TO.C,C9*%
X135107142Y-35416666D02*
X135154761Y-35464285D01*
X135202380Y-35607142D01*
X135202380Y-35702380D01*
X135154761Y-35845238D01*
X135059523Y-35940476D01*
X134964285Y-35988095D01*
X134773809Y-36035714D01*
X134630952Y-36035714D01*
X134440476Y-35988095D01*
X134345238Y-35940476D01*
X134250000Y-35845238D01*
X134202380Y-35702380D01*
X134202380Y-35607142D01*
X134250000Y-35464285D01*
X134297619Y-35416666D01*
X135202380Y-34940476D02*
X135202380Y-34750000D01*
X135154761Y-34654761D01*
X135107142Y-34607142D01*
X134964285Y-34511904D01*
X134773809Y-34464285D01*
X134392857Y-34464285D01*
X134297619Y-34511904D01*
X134250000Y-34559523D01*
X134202380Y-34654761D01*
X134202380Y-34845238D01*
X134250000Y-34940476D01*
X134297619Y-34988095D01*
X134392857Y-35035714D01*
X134630952Y-35035714D01*
X134726190Y-34988095D01*
X134773809Y-34940476D01*
X134821428Y-34845238D01*
X134821428Y-34654761D01*
X134773809Y-34559523D01*
X134726190Y-34511904D01*
X134630952Y-34464285D01*
%TO.C,U2*%
X126738095Y-84952380D02*
X126738095Y-85761904D01*
X126785714Y-85857142D01*
X126833333Y-85904761D01*
X126928571Y-85952380D01*
X127119047Y-85952380D01*
X127214285Y-85904761D01*
X127261904Y-85857142D01*
X127309523Y-85761904D01*
X127309523Y-84952380D01*
X127738095Y-85047619D02*
X127785714Y-85000000D01*
X127880952Y-84952380D01*
X128119047Y-84952380D01*
X128214285Y-85000000D01*
X128261904Y-85047619D01*
X128309523Y-85142857D01*
X128309523Y-85238095D01*
X128261904Y-85380952D01*
X127690476Y-85952380D01*
X128309523Y-85952380D01*
%TO.C,U1*%
X103238095Y-30952380D02*
X103238095Y-31761904D01*
X103285714Y-31857142D01*
X103333333Y-31904761D01*
X103428571Y-31952380D01*
X103619047Y-31952380D01*
X103714285Y-31904761D01*
X103761904Y-31857142D01*
X103809523Y-31761904D01*
X103809523Y-30952380D01*
X104809523Y-31952380D02*
X104238095Y-31952380D01*
X104523809Y-31952380D02*
X104523809Y-30952380D01*
X104428571Y-31095238D01*
X104333333Y-31190476D01*
X104238095Y-31238095D01*
%TO.C,R13*%
X143972380Y-75062857D02*
X143496190Y-75396190D01*
X143972380Y-75634285D02*
X142972380Y-75634285D01*
X142972380Y-75253333D01*
X143020000Y-75158095D01*
X143067619Y-75110476D01*
X143162857Y-75062857D01*
X143305714Y-75062857D01*
X143400952Y-75110476D01*
X143448571Y-75158095D01*
X143496190Y-75253333D01*
X143496190Y-75634285D01*
X143972380Y-74110476D02*
X143972380Y-74681904D01*
X143972380Y-74396190D02*
X142972380Y-74396190D01*
X143115238Y-74491428D01*
X143210476Y-74586666D01*
X143258095Y-74681904D01*
X142972380Y-73777142D02*
X142972380Y-73158095D01*
X143353333Y-73491428D01*
X143353333Y-73348571D01*
X143400952Y-73253333D01*
X143448571Y-73205714D01*
X143543809Y-73158095D01*
X143781904Y-73158095D01*
X143877142Y-73205714D01*
X143924761Y-73253333D01*
X143972380Y-73348571D01*
X143972380Y-73634285D01*
X143924761Y-73729523D01*
X143877142Y-73777142D01*
%TO.C,R12*%
X113357142Y-69452380D02*
X113023809Y-68976190D01*
X112785714Y-69452380D02*
X112785714Y-68452380D01*
X113166666Y-68452380D01*
X113261904Y-68500000D01*
X113309523Y-68547619D01*
X113357142Y-68642857D01*
X113357142Y-68785714D01*
X113309523Y-68880952D01*
X113261904Y-68928571D01*
X113166666Y-68976190D01*
X112785714Y-68976190D01*
X114309523Y-69452380D02*
X113738095Y-69452380D01*
X114023809Y-69452380D02*
X114023809Y-68452380D01*
X113928571Y-68595238D01*
X113833333Y-68690476D01*
X113738095Y-68738095D01*
X114690476Y-68547619D02*
X114738095Y-68500000D01*
X114833333Y-68452380D01*
X115071428Y-68452380D01*
X115166666Y-68500000D01*
X115214285Y-68547619D01*
X115261904Y-68642857D01*
X115261904Y-68738095D01*
X115214285Y-68880952D01*
X114642857Y-69452380D01*
X115261904Y-69452380D01*
%TO.C,R11*%
X115357142Y-73452380D02*
X115023809Y-72976190D01*
X114785714Y-73452380D02*
X114785714Y-72452380D01*
X115166666Y-72452380D01*
X115261904Y-72500000D01*
X115309523Y-72547619D01*
X115357142Y-72642857D01*
X115357142Y-72785714D01*
X115309523Y-72880952D01*
X115261904Y-72928571D01*
X115166666Y-72976190D01*
X114785714Y-72976190D01*
X116309523Y-73452380D02*
X115738095Y-73452380D01*
X116023809Y-73452380D02*
X116023809Y-72452380D01*
X115928571Y-72595238D01*
X115833333Y-72690476D01*
X115738095Y-72738095D01*
X117261904Y-73452380D02*
X116690476Y-73452380D01*
X116976190Y-73452380D02*
X116976190Y-72452380D01*
X116880952Y-72595238D01*
X116785714Y-72690476D01*
X116690476Y-72738095D01*
%TO.C,R10*%
X122357142Y-72952380D02*
X122023809Y-72476190D01*
X121785714Y-72952380D02*
X121785714Y-71952380D01*
X122166666Y-71952380D01*
X122261904Y-72000000D01*
X122309523Y-72047619D01*
X122357142Y-72142857D01*
X122357142Y-72285714D01*
X122309523Y-72380952D01*
X122261904Y-72428571D01*
X122166666Y-72476190D01*
X121785714Y-72476190D01*
X123309523Y-72952380D02*
X122738095Y-72952380D01*
X123023809Y-72952380D02*
X123023809Y-71952380D01*
X122928571Y-72095238D01*
X122833333Y-72190476D01*
X122738095Y-72238095D01*
X123928571Y-71952380D02*
X124023809Y-71952380D01*
X124119047Y-72000000D01*
X124166666Y-72047619D01*
X124214285Y-72142857D01*
X124261904Y-72333333D01*
X124261904Y-72571428D01*
X124214285Y-72761904D01*
X124166666Y-72857142D01*
X124119047Y-72904761D01*
X124023809Y-72952380D01*
X123928571Y-72952380D01*
X123833333Y-72904761D01*
X123785714Y-72857142D01*
X123738095Y-72761904D01*
X123690476Y-72571428D01*
X123690476Y-72333333D01*
X123738095Y-72142857D01*
X123785714Y-72047619D01*
X123833333Y-72000000D01*
X123928571Y-71952380D01*
%TO.C,R9*%
X138132380Y-41946666D02*
X137656190Y-42280000D01*
X138132380Y-42518095D02*
X137132380Y-42518095D01*
X137132380Y-42137142D01*
X137180000Y-42041904D01*
X137227619Y-41994285D01*
X137322857Y-41946666D01*
X137465714Y-41946666D01*
X137560952Y-41994285D01*
X137608571Y-42041904D01*
X137656190Y-42137142D01*
X137656190Y-42518095D01*
X138132380Y-41470476D02*
X138132380Y-41280000D01*
X138084761Y-41184761D01*
X138037142Y-41137142D01*
X137894285Y-41041904D01*
X137703809Y-40994285D01*
X137322857Y-40994285D01*
X137227619Y-41041904D01*
X137180000Y-41089523D01*
X137132380Y-41184761D01*
X137132380Y-41375238D01*
X137180000Y-41470476D01*
X137227619Y-41518095D01*
X137322857Y-41565714D01*
X137560952Y-41565714D01*
X137656190Y-41518095D01*
X137703809Y-41470476D01*
X137751428Y-41375238D01*
X137751428Y-41184761D01*
X137703809Y-41089523D01*
X137656190Y-41041904D01*
X137560952Y-40994285D01*
%TO.C,R8*%
X115833333Y-49452380D02*
X115500000Y-48976190D01*
X115261904Y-49452380D02*
X115261904Y-48452380D01*
X115642857Y-48452380D01*
X115738095Y-48500000D01*
X115785714Y-48547619D01*
X115833333Y-48642857D01*
X115833333Y-48785714D01*
X115785714Y-48880952D01*
X115738095Y-48928571D01*
X115642857Y-48976190D01*
X115261904Y-48976190D01*
X116404761Y-48880952D02*
X116309523Y-48833333D01*
X116261904Y-48785714D01*
X116214285Y-48690476D01*
X116214285Y-48642857D01*
X116261904Y-48547619D01*
X116309523Y-48500000D01*
X116404761Y-48452380D01*
X116595238Y-48452380D01*
X116690476Y-48500000D01*
X116738095Y-48547619D01*
X116785714Y-48642857D01*
X116785714Y-48690476D01*
X116738095Y-48785714D01*
X116690476Y-48833333D01*
X116595238Y-48880952D01*
X116404761Y-48880952D01*
X116309523Y-48928571D01*
X116261904Y-48976190D01*
X116214285Y-49071428D01*
X116214285Y-49261904D01*
X116261904Y-49357142D01*
X116309523Y-49404761D01*
X116404761Y-49452380D01*
X116595238Y-49452380D01*
X116690476Y-49404761D01*
X116738095Y-49357142D01*
X116785714Y-49261904D01*
X116785714Y-49071428D01*
X116738095Y-48976190D01*
X116690476Y-48928571D01*
X116595238Y-48880952D01*
%TO.C,R7*%
X125333333Y-45452380D02*
X125000000Y-44976190D01*
X124761904Y-45452380D02*
X124761904Y-44452380D01*
X125142857Y-44452380D01*
X125238095Y-44500000D01*
X125285714Y-44547619D01*
X125333333Y-44642857D01*
X125333333Y-44785714D01*
X125285714Y-44880952D01*
X125238095Y-44928571D01*
X125142857Y-44976190D01*
X124761904Y-44976190D01*
X125666666Y-44452380D02*
X126333333Y-44452380D01*
X125904761Y-45452380D01*
%TO.C,R6*%
X105833333Y-45952380D02*
X105500000Y-45476190D01*
X105261904Y-45952380D02*
X105261904Y-44952380D01*
X105642857Y-44952380D01*
X105738095Y-45000000D01*
X105785714Y-45047619D01*
X105833333Y-45142857D01*
X105833333Y-45285714D01*
X105785714Y-45380952D01*
X105738095Y-45428571D01*
X105642857Y-45476190D01*
X105261904Y-45476190D01*
X106690476Y-44952380D02*
X106500000Y-44952380D01*
X106404761Y-45000000D01*
X106357142Y-45047619D01*
X106261904Y-45190476D01*
X106214285Y-45380952D01*
X106214285Y-45761904D01*
X106261904Y-45857142D01*
X106309523Y-45904761D01*
X106404761Y-45952380D01*
X106595238Y-45952380D01*
X106690476Y-45904761D01*
X106738095Y-45857142D01*
X106785714Y-45761904D01*
X106785714Y-45523809D01*
X106738095Y-45428571D01*
X106690476Y-45380952D01*
X106595238Y-45333333D01*
X106404761Y-45333333D01*
X106309523Y-45380952D01*
X106261904Y-45428571D01*
X106214285Y-45523809D01*
%TO.C,R5*%
X79452380Y-79666666D02*
X78976190Y-80000000D01*
X79452380Y-80238095D02*
X78452380Y-80238095D01*
X78452380Y-79857142D01*
X78500000Y-79761904D01*
X78547619Y-79714285D01*
X78642857Y-79666666D01*
X78785714Y-79666666D01*
X78880952Y-79714285D01*
X78928571Y-79761904D01*
X78976190Y-79857142D01*
X78976190Y-80238095D01*
X78452380Y-78761904D02*
X78452380Y-79238095D01*
X78928571Y-79285714D01*
X78880952Y-79238095D01*
X78833333Y-79142857D01*
X78833333Y-78904761D01*
X78880952Y-78809523D01*
X78928571Y-78761904D01*
X79023809Y-78714285D01*
X79261904Y-78714285D01*
X79357142Y-78761904D01*
X79404761Y-78809523D01*
X79452380Y-78904761D01*
X79452380Y-79142857D01*
X79404761Y-79238095D01*
X79357142Y-79285714D01*
%TO.C,R4*%
X93952380Y-81166666D02*
X93476190Y-81500000D01*
X93952380Y-81738095D02*
X92952380Y-81738095D01*
X92952380Y-81357142D01*
X93000000Y-81261904D01*
X93047619Y-81214285D01*
X93142857Y-81166666D01*
X93285714Y-81166666D01*
X93380952Y-81214285D01*
X93428571Y-81261904D01*
X93476190Y-81357142D01*
X93476190Y-81738095D01*
X93285714Y-80309523D02*
X93952380Y-80309523D01*
X92904761Y-80547619D02*
X93619047Y-80785714D01*
X93619047Y-80166666D01*
%TO.C,R3*%
X85952380Y-85666666D02*
X85476190Y-86000000D01*
X85952380Y-86238095D02*
X84952380Y-86238095D01*
X84952380Y-85857142D01*
X85000000Y-85761904D01*
X85047619Y-85714285D01*
X85142857Y-85666666D01*
X85285714Y-85666666D01*
X85380952Y-85714285D01*
X85428571Y-85761904D01*
X85476190Y-85857142D01*
X85476190Y-86238095D01*
X84952380Y-85333333D02*
X84952380Y-84714285D01*
X85333333Y-85047619D01*
X85333333Y-84904761D01*
X85380952Y-84809523D01*
X85428571Y-84761904D01*
X85523809Y-84714285D01*
X85761904Y-84714285D01*
X85857142Y-84761904D01*
X85904761Y-84809523D01*
X85952380Y-84904761D01*
X85952380Y-85190476D01*
X85904761Y-85285714D01*
X85857142Y-85333333D01*
%TO.C,R2*%
X89452380Y-53666666D02*
X88976190Y-54000000D01*
X89452380Y-54238095D02*
X88452380Y-54238095D01*
X88452380Y-53857142D01*
X88500000Y-53761904D01*
X88547619Y-53714285D01*
X88642857Y-53666666D01*
X88785714Y-53666666D01*
X88880952Y-53714285D01*
X88928571Y-53761904D01*
X88976190Y-53857142D01*
X88976190Y-54238095D01*
X88547619Y-53285714D02*
X88500000Y-53238095D01*
X88452380Y-53142857D01*
X88452380Y-52904761D01*
X88500000Y-52809523D01*
X88547619Y-52761904D01*
X88642857Y-52714285D01*
X88738095Y-52714285D01*
X88880952Y-52761904D01*
X89452380Y-53333333D01*
X89452380Y-52714285D01*
%TO.C,R1*%
X81452380Y-51166666D02*
X80976190Y-51500000D01*
X81452380Y-51738095D02*
X80452380Y-51738095D01*
X80452380Y-51357142D01*
X80500000Y-51261904D01*
X80547619Y-51214285D01*
X80642857Y-51166666D01*
X80785714Y-51166666D01*
X80880952Y-51214285D01*
X80928571Y-51261904D01*
X80976190Y-51357142D01*
X80976190Y-51738095D01*
X81452380Y-50214285D02*
X81452380Y-50785714D01*
X81452380Y-50500000D02*
X80452380Y-50500000D01*
X80595238Y-50595238D01*
X80690476Y-50690476D01*
X80738095Y-50785714D01*
%TO.C,JP1*%
X78966666Y-53322380D02*
X78966666Y-54036666D01*
X78919047Y-54179523D01*
X78823809Y-54274761D01*
X78680952Y-54322380D01*
X78585714Y-54322380D01*
X79442857Y-54322380D02*
X79442857Y-53322380D01*
X79823809Y-53322380D01*
X79919047Y-53370000D01*
X79966666Y-53417619D01*
X80014285Y-53512857D01*
X80014285Y-53655714D01*
X79966666Y-53750952D01*
X79919047Y-53798571D01*
X79823809Y-53846190D01*
X79442857Y-53846190D01*
X80966666Y-54322380D02*
X80395238Y-54322380D01*
X80680952Y-54322380D02*
X80680952Y-53322380D01*
X80585714Y-53465238D01*
X80490476Y-53560476D01*
X80395238Y-53608095D01*
%TO.C,D1*%
X86952380Y-74238095D02*
X85952380Y-74238095D01*
X85952380Y-74000000D01*
X86000000Y-73857142D01*
X86095238Y-73761904D01*
X86190476Y-73714285D01*
X86380952Y-73666666D01*
X86523809Y-73666666D01*
X86714285Y-73714285D01*
X86809523Y-73761904D01*
X86904761Y-73857142D01*
X86952380Y-74000000D01*
X86952380Y-74238095D01*
X86952380Y-72714285D02*
X86952380Y-73285714D01*
X86952380Y-73000000D02*
X85952380Y-73000000D01*
X86095238Y-73095238D01*
X86190476Y-73190476D01*
X86238095Y-73285714D01*
X82952380Y-82661904D02*
X81952380Y-82661904D01*
X82952380Y-82090476D02*
X82380952Y-82519047D01*
X81952380Y-82090476D02*
X82523809Y-82661904D01*
%TO.C,C18*%
X138857142Y-62142857D02*
X138904761Y-62190476D01*
X138952380Y-62333333D01*
X138952380Y-62428571D01*
X138904761Y-62571428D01*
X138809523Y-62666666D01*
X138714285Y-62714285D01*
X138523809Y-62761904D01*
X138380952Y-62761904D01*
X138190476Y-62714285D01*
X138095238Y-62666666D01*
X138000000Y-62571428D01*
X137952380Y-62428571D01*
X137952380Y-62333333D01*
X138000000Y-62190476D01*
X138047619Y-62142857D01*
X138952380Y-61190476D02*
X138952380Y-61761904D01*
X138952380Y-61476190D02*
X137952380Y-61476190D01*
X138095238Y-61571428D01*
X138190476Y-61666666D01*
X138238095Y-61761904D01*
X138380952Y-60619047D02*
X138333333Y-60714285D01*
X138285714Y-60761904D01*
X138190476Y-60809523D01*
X138142857Y-60809523D01*
X138047619Y-60761904D01*
X138000000Y-60714285D01*
X137952380Y-60619047D01*
X137952380Y-60428571D01*
X138000000Y-60333333D01*
X138047619Y-60285714D01*
X138142857Y-60238095D01*
X138190476Y-60238095D01*
X138285714Y-60285714D01*
X138333333Y-60333333D01*
X138380952Y-60428571D01*
X138380952Y-60619047D01*
X138428571Y-60714285D01*
X138476190Y-60761904D01*
X138571428Y-60809523D01*
X138761904Y-60809523D01*
X138857142Y-60761904D01*
X138904761Y-60714285D01*
X138952380Y-60619047D01*
X138952380Y-60428571D01*
X138904761Y-60333333D01*
X138857142Y-60285714D01*
X138761904Y-60238095D01*
X138571428Y-60238095D01*
X138476190Y-60285714D01*
X138428571Y-60333333D01*
X138380952Y-60428571D01*
%TO.C,C16*%
X92857142Y-59357142D02*
X92809523Y-59404761D01*
X92666666Y-59452380D01*
X92571428Y-59452380D01*
X92428571Y-59404761D01*
X92333333Y-59309523D01*
X92285714Y-59214285D01*
X92238095Y-59023809D01*
X92238095Y-58880952D01*
X92285714Y-58690476D01*
X92333333Y-58595238D01*
X92428571Y-58500000D01*
X92571428Y-58452380D01*
X92666666Y-58452380D01*
X92809523Y-58500000D01*
X92857142Y-58547619D01*
X93809523Y-59452380D02*
X93238095Y-59452380D01*
X93523809Y-59452380D02*
X93523809Y-58452380D01*
X93428571Y-58595238D01*
X93333333Y-58690476D01*
X93238095Y-58738095D01*
X94666666Y-58452380D02*
X94476190Y-58452380D01*
X94380952Y-58500000D01*
X94333333Y-58547619D01*
X94238095Y-58690476D01*
X94190476Y-58880952D01*
X94190476Y-59261904D01*
X94238095Y-59357142D01*
X94285714Y-59404761D01*
X94380952Y-59452380D01*
X94571428Y-59452380D01*
X94666666Y-59404761D01*
X94714285Y-59357142D01*
X94761904Y-59261904D01*
X94761904Y-59023809D01*
X94714285Y-58928571D01*
X94666666Y-58880952D01*
X94571428Y-58833333D01*
X94380952Y-58833333D01*
X94285714Y-58880952D01*
X94238095Y-58928571D01*
X94190476Y-59023809D01*
%TO.C,C14*%
X89357142Y-73357142D02*
X89309523Y-73404761D01*
X89166666Y-73452380D01*
X89071428Y-73452380D01*
X88928571Y-73404761D01*
X88833333Y-73309523D01*
X88785714Y-73214285D01*
X88738095Y-73023809D01*
X88738095Y-72880952D01*
X88785714Y-72690476D01*
X88833333Y-72595238D01*
X88928571Y-72500000D01*
X89071428Y-72452380D01*
X89166666Y-72452380D01*
X89309523Y-72500000D01*
X89357142Y-72547619D01*
X90309523Y-73452380D02*
X89738095Y-73452380D01*
X90023809Y-73452380D02*
X90023809Y-72452380D01*
X89928571Y-72595238D01*
X89833333Y-72690476D01*
X89738095Y-72738095D01*
X91166666Y-72785714D02*
X91166666Y-73452380D01*
X90928571Y-72404761D02*
X90690476Y-73119047D01*
X91309523Y-73119047D01*
%TO.C,C13*%
X120057142Y-65342857D02*
X120104761Y-65390476D01*
X120152380Y-65533333D01*
X120152380Y-65628571D01*
X120104761Y-65771428D01*
X120009523Y-65866666D01*
X119914285Y-65914285D01*
X119723809Y-65961904D01*
X119580952Y-65961904D01*
X119390476Y-65914285D01*
X119295238Y-65866666D01*
X119200000Y-65771428D01*
X119152380Y-65628571D01*
X119152380Y-65533333D01*
X119200000Y-65390476D01*
X119247619Y-65342857D01*
X120152380Y-64390476D02*
X120152380Y-64961904D01*
X120152380Y-64676190D02*
X119152380Y-64676190D01*
X119295238Y-64771428D01*
X119390476Y-64866666D01*
X119438095Y-64961904D01*
X119152380Y-64057142D02*
X119152380Y-63438095D01*
X119533333Y-63771428D01*
X119533333Y-63628571D01*
X119580952Y-63533333D01*
X119628571Y-63485714D01*
X119723809Y-63438095D01*
X119961904Y-63438095D01*
X120057142Y-63485714D01*
X120104761Y-63533333D01*
X120152380Y-63628571D01*
X120152380Y-63914285D01*
X120104761Y-64009523D01*
X120057142Y-64057142D01*
%TO.C,C12*%
X104107142Y-77692857D02*
X104154761Y-77740476D01*
X104202380Y-77883333D01*
X104202380Y-77978571D01*
X104154761Y-78121428D01*
X104059523Y-78216666D01*
X103964285Y-78264285D01*
X103773809Y-78311904D01*
X103630952Y-78311904D01*
X103440476Y-78264285D01*
X103345238Y-78216666D01*
X103250000Y-78121428D01*
X103202380Y-77978571D01*
X103202380Y-77883333D01*
X103250000Y-77740476D01*
X103297619Y-77692857D01*
X104202380Y-76740476D02*
X104202380Y-77311904D01*
X104202380Y-77026190D02*
X103202380Y-77026190D01*
X103345238Y-77121428D01*
X103440476Y-77216666D01*
X103488095Y-77311904D01*
X103297619Y-76359523D02*
X103250000Y-76311904D01*
X103202380Y-76216666D01*
X103202380Y-75978571D01*
X103250000Y-75883333D01*
X103297619Y-75835714D01*
X103392857Y-75788095D01*
X103488095Y-75788095D01*
X103630952Y-75835714D01*
X104202380Y-76407142D01*
X104202380Y-75788095D01*
%TO.C,C11*%
X120857142Y-70642857D02*
X120904761Y-70690476D01*
X120952380Y-70833333D01*
X120952380Y-70928571D01*
X120904761Y-71071428D01*
X120809523Y-71166666D01*
X120714285Y-71214285D01*
X120523809Y-71261904D01*
X120380952Y-71261904D01*
X120190476Y-71214285D01*
X120095238Y-71166666D01*
X120000000Y-71071428D01*
X119952380Y-70928571D01*
X119952380Y-70833333D01*
X120000000Y-70690476D01*
X120047619Y-70642857D01*
X120952380Y-69690476D02*
X120952380Y-70261904D01*
X120952380Y-69976190D02*
X119952380Y-69976190D01*
X120095238Y-70071428D01*
X120190476Y-70166666D01*
X120238095Y-70261904D01*
X120952380Y-68738095D02*
X120952380Y-69309523D01*
X120952380Y-69023809D02*
X119952380Y-69023809D01*
X120095238Y-69119047D01*
X120190476Y-69214285D01*
X120238095Y-69309523D01*
%TO.C,C10*%
X138757142Y-55142857D02*
X138804761Y-55190476D01*
X138852380Y-55333333D01*
X138852380Y-55428571D01*
X138804761Y-55571428D01*
X138709523Y-55666666D01*
X138614285Y-55714285D01*
X138423809Y-55761904D01*
X138280952Y-55761904D01*
X138090476Y-55714285D01*
X137995238Y-55666666D01*
X137900000Y-55571428D01*
X137852380Y-55428571D01*
X137852380Y-55333333D01*
X137900000Y-55190476D01*
X137947619Y-55142857D01*
X138852380Y-54190476D02*
X138852380Y-54761904D01*
X138852380Y-54476190D02*
X137852380Y-54476190D01*
X137995238Y-54571428D01*
X138090476Y-54666666D01*
X138138095Y-54761904D01*
X137852380Y-53571428D02*
X137852380Y-53476190D01*
X137900000Y-53380952D01*
X137947619Y-53333333D01*
X138042857Y-53285714D01*
X138233333Y-53238095D01*
X138471428Y-53238095D01*
X138661904Y-53285714D01*
X138757142Y-53333333D01*
X138804761Y-53380952D01*
X138852380Y-53476190D01*
X138852380Y-53571428D01*
X138804761Y-53666666D01*
X138757142Y-53714285D01*
X138661904Y-53761904D01*
X138471428Y-53809523D01*
X138233333Y-53809523D01*
X138042857Y-53761904D01*
X137947619Y-53714285D01*
X137900000Y-53666666D01*
X137852380Y-53571428D01*
%TO.C,C8*%
X93833333Y-45357142D02*
X93785714Y-45404761D01*
X93642857Y-45452380D01*
X93547619Y-45452380D01*
X93404761Y-45404761D01*
X93309523Y-45309523D01*
X93261904Y-45214285D01*
X93214285Y-45023809D01*
X93214285Y-44880952D01*
X93261904Y-44690476D01*
X93309523Y-44595238D01*
X93404761Y-44500000D01*
X93547619Y-44452380D01*
X93642857Y-44452380D01*
X93785714Y-44500000D01*
X93833333Y-44547619D01*
X94404761Y-44880952D02*
X94309523Y-44833333D01*
X94261904Y-44785714D01*
X94214285Y-44690476D01*
X94214285Y-44642857D01*
X94261904Y-44547619D01*
X94309523Y-44500000D01*
X94404761Y-44452380D01*
X94595238Y-44452380D01*
X94690476Y-44500000D01*
X94738095Y-44547619D01*
X94785714Y-44642857D01*
X94785714Y-44690476D01*
X94738095Y-44785714D01*
X94690476Y-44833333D01*
X94595238Y-44880952D01*
X94404761Y-44880952D01*
X94309523Y-44928571D01*
X94261904Y-44976190D01*
X94214285Y-45071428D01*
X94214285Y-45261904D01*
X94261904Y-45357142D01*
X94309523Y-45404761D01*
X94404761Y-45452380D01*
X94595238Y-45452380D01*
X94690476Y-45404761D01*
X94738095Y-45357142D01*
X94785714Y-45261904D01*
X94785714Y-45071428D01*
X94738095Y-44976190D01*
X94690476Y-44928571D01*
X94595238Y-44880952D01*
%TO.C,C7*%
X135333333Y-45357142D02*
X135285714Y-45404761D01*
X135142857Y-45452380D01*
X135047619Y-45452380D01*
X134904761Y-45404761D01*
X134809523Y-45309523D01*
X134761904Y-45214285D01*
X134714285Y-45023809D01*
X134714285Y-44880952D01*
X134761904Y-44690476D01*
X134809523Y-44595238D01*
X134904761Y-44500000D01*
X135047619Y-44452380D01*
X135142857Y-44452380D01*
X135285714Y-44500000D01*
X135333333Y-44547619D01*
X135666666Y-44452380D02*
X136333333Y-44452380D01*
X135904761Y-45452380D01*
%TO.C,C6*%
X98833333Y-36657142D02*
X98785714Y-36704761D01*
X98642857Y-36752380D01*
X98547619Y-36752380D01*
X98404761Y-36704761D01*
X98309523Y-36609523D01*
X98261904Y-36514285D01*
X98214285Y-36323809D01*
X98214285Y-36180952D01*
X98261904Y-35990476D01*
X98309523Y-35895238D01*
X98404761Y-35800000D01*
X98547619Y-35752380D01*
X98642857Y-35752380D01*
X98785714Y-35800000D01*
X98833333Y-35847619D01*
X99690476Y-35752380D02*
X99500000Y-35752380D01*
X99404761Y-35800000D01*
X99357142Y-35847619D01*
X99261904Y-35990476D01*
X99214285Y-36180952D01*
X99214285Y-36561904D01*
X99261904Y-36657142D01*
X99309523Y-36704761D01*
X99404761Y-36752380D01*
X99595238Y-36752380D01*
X99690476Y-36704761D01*
X99738095Y-36657142D01*
X99785714Y-36561904D01*
X99785714Y-36323809D01*
X99738095Y-36228571D01*
X99690476Y-36180952D01*
X99595238Y-36133333D01*
X99404761Y-36133333D01*
X99309523Y-36180952D01*
X99261904Y-36228571D01*
X99214285Y-36323809D01*
%TO.C,C5*%
X122857142Y-57166666D02*
X122904761Y-57214285D01*
X122952380Y-57357142D01*
X122952380Y-57452380D01*
X122904761Y-57595238D01*
X122809523Y-57690476D01*
X122714285Y-57738095D01*
X122523809Y-57785714D01*
X122380952Y-57785714D01*
X122190476Y-57738095D01*
X122095238Y-57690476D01*
X122000000Y-57595238D01*
X121952380Y-57452380D01*
X121952380Y-57357142D01*
X122000000Y-57214285D01*
X122047619Y-57166666D01*
X121952380Y-56261904D02*
X121952380Y-56738095D01*
X122428571Y-56785714D01*
X122380952Y-56738095D01*
X122333333Y-56642857D01*
X122333333Y-56404761D01*
X122380952Y-56309523D01*
X122428571Y-56261904D01*
X122523809Y-56214285D01*
X122761904Y-56214285D01*
X122857142Y-56261904D01*
X122904761Y-56309523D01*
X122952380Y-56404761D01*
X122952380Y-56642857D01*
X122904761Y-56738095D01*
X122857142Y-56785714D01*
%TO.C,C4*%
X127607142Y-41316666D02*
X127654761Y-41364285D01*
X127702380Y-41507142D01*
X127702380Y-41602380D01*
X127654761Y-41745238D01*
X127559523Y-41840476D01*
X127464285Y-41888095D01*
X127273809Y-41935714D01*
X127130952Y-41935714D01*
X126940476Y-41888095D01*
X126845238Y-41840476D01*
X126750000Y-41745238D01*
X126702380Y-41602380D01*
X126702380Y-41507142D01*
X126750000Y-41364285D01*
X126797619Y-41316666D01*
X127035714Y-40459523D02*
X127702380Y-40459523D01*
X126654761Y-40697619D02*
X127369047Y-40935714D01*
X127369047Y-40316666D01*
%TO.C,C3*%
X113557142Y-48666666D02*
X113604761Y-48714285D01*
X113652380Y-48857142D01*
X113652380Y-48952380D01*
X113604761Y-49095238D01*
X113509523Y-49190476D01*
X113414285Y-49238095D01*
X113223809Y-49285714D01*
X113080952Y-49285714D01*
X112890476Y-49238095D01*
X112795238Y-49190476D01*
X112700000Y-49095238D01*
X112652380Y-48952380D01*
X112652380Y-48857142D01*
X112700000Y-48714285D01*
X112747619Y-48666666D01*
X112652380Y-48333333D02*
X112652380Y-47714285D01*
X113033333Y-48047619D01*
X113033333Y-47904761D01*
X113080952Y-47809523D01*
X113128571Y-47761904D01*
X113223809Y-47714285D01*
X113461904Y-47714285D01*
X113557142Y-47761904D01*
X113604761Y-47809523D01*
X113652380Y-47904761D01*
X113652380Y-48190476D01*
X113604761Y-48285714D01*
X113557142Y-48333333D01*
%TO.C,C2*%
X86857142Y-64666666D02*
X86904761Y-64714285D01*
X86952380Y-64857142D01*
X86952380Y-64952380D01*
X86904761Y-65095238D01*
X86809523Y-65190476D01*
X86714285Y-65238095D01*
X86523809Y-65285714D01*
X86380952Y-65285714D01*
X86190476Y-65238095D01*
X86095238Y-65190476D01*
X86000000Y-65095238D01*
X85952380Y-64952380D01*
X85952380Y-64857142D01*
X86000000Y-64714285D01*
X86047619Y-64666666D01*
X86047619Y-64285714D02*
X86000000Y-64238095D01*
X85952380Y-64142857D01*
X85952380Y-63904761D01*
X86000000Y-63809523D01*
X86047619Y-63761904D01*
X86142857Y-63714285D01*
X86238095Y-63714285D01*
X86380952Y-63761904D01*
X86952380Y-64333333D01*
X86952380Y-63714285D01*
%TO.C,C1*%
X80007142Y-67916666D02*
X80054761Y-67964285D01*
X80102380Y-68107142D01*
X80102380Y-68202380D01*
X80054761Y-68345238D01*
X79959523Y-68440476D01*
X79864285Y-68488095D01*
X79673809Y-68535714D01*
X79530952Y-68535714D01*
X79340476Y-68488095D01*
X79245238Y-68440476D01*
X79150000Y-68345238D01*
X79102380Y-68202380D01*
X79102380Y-68107142D01*
X79150000Y-67964285D01*
X79197619Y-67916666D01*
X80102380Y-66964285D02*
X80102380Y-67535714D01*
X80102380Y-67250000D02*
X79102380Y-67250000D01*
X79245238Y-67345238D01*
X79340476Y-67440476D01*
X79388095Y-67535714D01*
D12*
%TO.C,C15*%
X137720000Y-65400000D02*
G75*
G03*
X137720000Y-65400000I-6620000J0D01*
G01*
X131100000Y-58820000D02*
X131100000Y-71980000D01*
X131140000Y-58820000D02*
X131140000Y-71980000D01*
X131180000Y-58820000D02*
X131180000Y-71980000D01*
X131220000Y-58821000D02*
X131220000Y-71979000D01*
X131260000Y-58821000D02*
X131260000Y-71979000D01*
X131300000Y-58823000D02*
X131300000Y-71977000D01*
X131340000Y-58824000D02*
X131340000Y-71976000D01*
X131380000Y-58825000D02*
X131380000Y-71975000D01*
X131420000Y-58827000D02*
X131420000Y-71973000D01*
X131460000Y-58829000D02*
X131460000Y-71971000D01*
X131500000Y-58832000D02*
X131500000Y-71968000D01*
X131540000Y-58834000D02*
X131540000Y-71966000D01*
X131580000Y-58837000D02*
X131580000Y-71963000D01*
X131620000Y-58840000D02*
X131620000Y-71960000D01*
X131660000Y-58843000D02*
X131660000Y-71957000D01*
X131700000Y-58847000D02*
X131700000Y-71953000D01*
X131740000Y-58851000D02*
X131740000Y-71949000D01*
X131780000Y-58855000D02*
X131780000Y-71945000D01*
X131821000Y-58859000D02*
X131821000Y-71941000D01*
X131861000Y-58863000D02*
X131861000Y-71937000D01*
X131901000Y-58868000D02*
X131901000Y-71932000D01*
X131941000Y-58873000D02*
X131941000Y-71927000D01*
X131981000Y-58878000D02*
X131981000Y-71922000D01*
X132021000Y-58884000D02*
X132021000Y-71916000D01*
X132061000Y-58889000D02*
X132061000Y-71911000D01*
X132101000Y-58895000D02*
X132101000Y-71905000D01*
X132141000Y-58902000D02*
X132141000Y-71898000D01*
X132181000Y-58908000D02*
X132181000Y-63960000D01*
X132181000Y-66840000D02*
X132181000Y-71892000D01*
X132221000Y-58915000D02*
X132221000Y-63960000D01*
X132221000Y-66840000D02*
X132221000Y-71885000D01*
X132261000Y-58922000D02*
X132261000Y-63960000D01*
X132261000Y-66840000D02*
X132261000Y-71878000D01*
X132301000Y-58929000D02*
X132301000Y-63960000D01*
X132301000Y-66840000D02*
X132301000Y-71871000D01*
X132341000Y-58937000D02*
X132341000Y-63960000D01*
X132341000Y-66840000D02*
X132341000Y-71863000D01*
X132381000Y-58944000D02*
X132381000Y-63960000D01*
X132381000Y-66840000D02*
X132381000Y-71856000D01*
X132421000Y-58952000D02*
X132421000Y-63960000D01*
X132421000Y-66840000D02*
X132421000Y-71848000D01*
X132461000Y-58961000D02*
X132461000Y-63960000D01*
X132461000Y-66840000D02*
X132461000Y-71839000D01*
X132501000Y-58969000D02*
X132501000Y-63960000D01*
X132501000Y-66840000D02*
X132501000Y-71831000D01*
X132541000Y-58978000D02*
X132541000Y-63960000D01*
X132541000Y-66840000D02*
X132541000Y-71822000D01*
X132581000Y-58987000D02*
X132581000Y-63960000D01*
X132581000Y-66840000D02*
X132581000Y-71813000D01*
X132621000Y-58996000D02*
X132621000Y-63960000D01*
X132621000Y-66840000D02*
X132621000Y-71804000D01*
X132661000Y-59006000D02*
X132661000Y-63960000D01*
X132661000Y-66840000D02*
X132661000Y-71794000D01*
X132701000Y-59016000D02*
X132701000Y-63960000D01*
X132701000Y-66840000D02*
X132701000Y-71784000D01*
X132741000Y-59026000D02*
X132741000Y-63960000D01*
X132741000Y-66840000D02*
X132741000Y-71774000D01*
X132781000Y-59036000D02*
X132781000Y-63960000D01*
X132781000Y-66840000D02*
X132781000Y-71764000D01*
X132821000Y-59047000D02*
X132821000Y-63960000D01*
X132821000Y-66840000D02*
X132821000Y-71753000D01*
X132861000Y-59058000D02*
X132861000Y-63960000D01*
X132861000Y-66840000D02*
X132861000Y-71742000D01*
X132901000Y-59069000D02*
X132901000Y-63960000D01*
X132901000Y-66840000D02*
X132901000Y-71731000D01*
X132941000Y-59080000D02*
X132941000Y-63960000D01*
X132941000Y-66840000D02*
X132941000Y-71720000D01*
X132981000Y-59092000D02*
X132981000Y-63960000D01*
X132981000Y-66840000D02*
X132981000Y-71708000D01*
X133021000Y-59104000D02*
X133021000Y-63960000D01*
X133021000Y-66840000D02*
X133021000Y-71696000D01*
X133061000Y-59116000D02*
X133061000Y-63960000D01*
X133061000Y-66840000D02*
X133061000Y-71684000D01*
X133101000Y-59129000D02*
X133101000Y-63960000D01*
X133101000Y-66840000D02*
X133101000Y-71671000D01*
X133141000Y-59142000D02*
X133141000Y-63960000D01*
X133141000Y-66840000D02*
X133141000Y-71658000D01*
X133181000Y-59155000D02*
X133181000Y-63960000D01*
X133181000Y-66840000D02*
X133181000Y-71645000D01*
X133221000Y-59168000D02*
X133221000Y-63960000D01*
X133221000Y-66840000D02*
X133221000Y-71632000D01*
X133261000Y-59182000D02*
X133261000Y-63960000D01*
X133261000Y-66840000D02*
X133261000Y-71618000D01*
X133301000Y-59196000D02*
X133301000Y-63960000D01*
X133301000Y-66840000D02*
X133301000Y-71604000D01*
X133341000Y-59210000D02*
X133341000Y-63960000D01*
X133341000Y-66840000D02*
X133341000Y-71590000D01*
X133381000Y-59225000D02*
X133381000Y-63960000D01*
X133381000Y-66840000D02*
X133381000Y-71575000D01*
X133421000Y-59239000D02*
X133421000Y-63960000D01*
X133421000Y-66840000D02*
X133421000Y-71561000D01*
X133461000Y-59254000D02*
X133461000Y-63960000D01*
X133461000Y-66840000D02*
X133461000Y-71546000D01*
X133501000Y-59270000D02*
X133501000Y-63960000D01*
X133501000Y-66840000D02*
X133501000Y-71530000D01*
X133541000Y-59286000D02*
X133541000Y-63960000D01*
X133541000Y-66840000D02*
X133541000Y-71514000D01*
X133581000Y-59302000D02*
X133581000Y-63960000D01*
X133581000Y-66840000D02*
X133581000Y-71498000D01*
X133621000Y-59318000D02*
X133621000Y-63960000D01*
X133621000Y-66840000D02*
X133621000Y-71482000D01*
X133661000Y-59335000D02*
X133661000Y-63960000D01*
X133661000Y-66840000D02*
X133661000Y-71465000D01*
X133701000Y-59351000D02*
X133701000Y-63960000D01*
X133701000Y-66840000D02*
X133701000Y-71449000D01*
X133741000Y-59369000D02*
X133741000Y-63960000D01*
X133741000Y-66840000D02*
X133741000Y-71431000D01*
X133781000Y-59386000D02*
X133781000Y-63960000D01*
X133781000Y-66840000D02*
X133781000Y-71414000D01*
X133821000Y-59404000D02*
X133821000Y-63960000D01*
X133821000Y-66840000D02*
X133821000Y-71396000D01*
X133861000Y-59422000D02*
X133861000Y-63960000D01*
X133861000Y-66840000D02*
X133861000Y-71378000D01*
X133901000Y-59441000D02*
X133901000Y-63960000D01*
X133901000Y-66840000D02*
X133901000Y-71359000D01*
X133941000Y-59460000D02*
X133941000Y-63960000D01*
X133941000Y-66840000D02*
X133941000Y-71340000D01*
X133981000Y-59479000D02*
X133981000Y-63960000D01*
X133981000Y-66840000D02*
X133981000Y-71321000D01*
X134021000Y-59498000D02*
X134021000Y-63960000D01*
X134021000Y-66840000D02*
X134021000Y-71302000D01*
X134061000Y-59518000D02*
X134061000Y-63960000D01*
X134061000Y-66840000D02*
X134061000Y-71282000D01*
X134101000Y-59538000D02*
X134101000Y-63960000D01*
X134101000Y-66840000D02*
X134101000Y-71262000D01*
X134141000Y-59559000D02*
X134141000Y-63960000D01*
X134141000Y-66840000D02*
X134141000Y-71241000D01*
X134181000Y-59580000D02*
X134181000Y-63960000D01*
X134181000Y-66840000D02*
X134181000Y-71220000D01*
X134221000Y-59601000D02*
X134221000Y-63960000D01*
X134221000Y-66840000D02*
X134221000Y-71199000D01*
X134261000Y-59622000D02*
X134261000Y-63960000D01*
X134261000Y-66840000D02*
X134261000Y-71178000D01*
X134301000Y-59644000D02*
X134301000Y-63960000D01*
X134301000Y-66840000D02*
X134301000Y-71156000D01*
X134341000Y-59667000D02*
X134341000Y-63960000D01*
X134341000Y-66840000D02*
X134341000Y-71133000D01*
X134381000Y-59689000D02*
X134381000Y-63960000D01*
X134381000Y-66840000D02*
X134381000Y-71111000D01*
X134421000Y-59712000D02*
X134421000Y-63960000D01*
X134421000Y-66840000D02*
X134421000Y-71088000D01*
X134461000Y-59736000D02*
X134461000Y-63960000D01*
X134461000Y-66840000D02*
X134461000Y-71064000D01*
X134501000Y-59759000D02*
X134501000Y-63960000D01*
X134501000Y-66840000D02*
X134501000Y-71041000D01*
X134541000Y-59783000D02*
X134541000Y-63960000D01*
X134541000Y-66840000D02*
X134541000Y-71017000D01*
X134581000Y-59808000D02*
X134581000Y-63960000D01*
X134581000Y-66840000D02*
X134581000Y-70992000D01*
X134621000Y-59833000D02*
X134621000Y-63960000D01*
X134621000Y-66840000D02*
X134621000Y-70967000D01*
X134661000Y-59858000D02*
X134661000Y-63960000D01*
X134661000Y-66840000D02*
X134661000Y-70942000D01*
X134701000Y-59884000D02*
X134701000Y-63960000D01*
X134701000Y-66840000D02*
X134701000Y-70916000D01*
X134741000Y-59910000D02*
X134741000Y-63960000D01*
X134741000Y-66840000D02*
X134741000Y-70890000D01*
X134781000Y-59937000D02*
X134781000Y-63960000D01*
X134781000Y-66840000D02*
X134781000Y-70863000D01*
X134821000Y-59964000D02*
X134821000Y-63960000D01*
X134821000Y-66840000D02*
X134821000Y-70836000D01*
X134861000Y-59991000D02*
X134861000Y-63960000D01*
X134861000Y-66840000D02*
X134861000Y-70809000D01*
X134901000Y-60019000D02*
X134901000Y-63960000D01*
X134901000Y-66840000D02*
X134901000Y-70781000D01*
X134941000Y-60047000D02*
X134941000Y-63960000D01*
X134941000Y-66840000D02*
X134941000Y-70753000D01*
X134981000Y-60076000D02*
X134981000Y-63960000D01*
X134981000Y-66840000D02*
X134981000Y-70724000D01*
X135021000Y-60105000D02*
X135021000Y-63960000D01*
X135021000Y-66840000D02*
X135021000Y-70695000D01*
X135061000Y-60135000D02*
X135061000Y-70665000D01*
X135101000Y-60165000D02*
X135101000Y-70635000D01*
X135141000Y-60195000D02*
X135141000Y-70605000D01*
X135181000Y-60226000D02*
X135181000Y-70574000D01*
X135221000Y-60258000D02*
X135221000Y-70542000D01*
X135261000Y-60290000D02*
X135261000Y-70510000D01*
X135301000Y-60322000D02*
X135301000Y-70478000D01*
X135341000Y-60356000D02*
X135341000Y-70444000D01*
X135381000Y-60389000D02*
X135381000Y-70411000D01*
X135421000Y-60423000D02*
X135421000Y-70377000D01*
X135461000Y-60458000D02*
X135461000Y-70342000D01*
X135501000Y-60493000D02*
X135501000Y-70307000D01*
X135541000Y-60529000D02*
X135541000Y-70271000D01*
X135581000Y-60566000D02*
X135581000Y-70234000D01*
X135621000Y-60603000D02*
X135621000Y-70197000D01*
X135661000Y-60640000D02*
X135661000Y-70160000D01*
X135701000Y-60679000D02*
X135701000Y-70121000D01*
X135741000Y-60718000D02*
X135741000Y-70082000D01*
X135781000Y-60757000D02*
X135781000Y-70043000D01*
X135821000Y-60798000D02*
X135821000Y-70002000D01*
X135861000Y-60839000D02*
X135861000Y-69961000D01*
X135901000Y-60881000D02*
X135901000Y-69919000D01*
X135941000Y-60923000D02*
X135941000Y-69877000D01*
X135981000Y-60966000D02*
X135981000Y-69834000D01*
X136021000Y-61010000D02*
X136021000Y-69790000D01*
X136061000Y-61055000D02*
X136061000Y-69745000D01*
X136101000Y-61101000D02*
X136101000Y-69699000D01*
X136141000Y-61147000D02*
X136141000Y-69653000D01*
X136181000Y-61195000D02*
X136181000Y-69605000D01*
X136221000Y-61243000D02*
X136221000Y-69557000D01*
X136261000Y-61292000D02*
X136261000Y-69508000D01*
X136301000Y-61343000D02*
X136301000Y-69457000D01*
X136341000Y-61394000D02*
X136341000Y-69406000D01*
X136381000Y-61446000D02*
X136381000Y-69354000D01*
X136421000Y-61500000D02*
X136421000Y-69300000D01*
X136461000Y-61554000D02*
X136461000Y-69246000D01*
X136501000Y-61610000D02*
X136501000Y-69190000D01*
X136541000Y-61667000D02*
X136541000Y-69133000D01*
X136581000Y-61725000D02*
X136581000Y-69075000D01*
X136621000Y-61785000D02*
X136621000Y-69015000D01*
X136661000Y-61846000D02*
X136661000Y-68954000D01*
X136701000Y-61909000D02*
X136701000Y-68891000D01*
X136741000Y-61973000D02*
X136741000Y-68827000D01*
X136781000Y-62039000D02*
X136781000Y-68761000D01*
X136821000Y-62107000D02*
X136821000Y-68693000D01*
X136861000Y-62177000D02*
X136861000Y-68623000D01*
X136901000Y-62248000D02*
X136901000Y-68552000D01*
X136941000Y-62322000D02*
X136941000Y-68478000D01*
X136981000Y-62398000D02*
X136981000Y-68402000D01*
X137021000Y-62477000D02*
X137021000Y-68323000D01*
X137061000Y-62558000D02*
X137061000Y-68242000D01*
X137101000Y-62642000D02*
X137101000Y-68158000D01*
X137141000Y-62730000D02*
X137141000Y-68070000D01*
X137181000Y-62821000D02*
X137181000Y-67979000D01*
X137221000Y-62916000D02*
X137221000Y-67884000D01*
X137261000Y-63015000D02*
X137261000Y-67785000D01*
X137301000Y-63119000D02*
X137301000Y-67681000D01*
X137341000Y-63229000D02*
X137341000Y-67571000D01*
X137381000Y-63345000D02*
X137381000Y-67455000D01*
X137421000Y-63469000D02*
X137421000Y-67331000D01*
X137461000Y-63602000D02*
X137461000Y-67198000D01*
X137501000Y-63747000D02*
X137501000Y-67053000D01*
X137541000Y-63906000D02*
X137541000Y-66894000D01*
X137581000Y-64085000D02*
X137581000Y-66715000D01*
X137621000Y-64293000D02*
X137621000Y-66507000D01*
X137661000Y-64550000D02*
X137661000Y-66250000D01*
X137701000Y-64925000D02*
X137701000Y-65875000D01*
X124015431Y-61685000D02*
X125315431Y-61685000D01*
X124665431Y-61035000D02*
X124665431Y-62335000D01*
%TO.C,J1*%
X81465000Y-32816000D02*
G75*
G03*
X81319747Y-33528805I1535000J-684000D01*
G01*
X83684000Y-31964999D02*
G75*
G03*
X82316958Y-31964573I-684000J-1535001D01*
G01*
X84535001Y-34184000D02*
G75*
G03*
X84535427Y-32816958I-1535001J684000D01*
G01*
X82316000Y-35035001D02*
G75*
G03*
X83683042Y-35035427I684000J1535001D01*
G01*
X81320000Y-33500000D02*
G75*
G03*
X81465244Y-34183318I1680000J0D01*
G01*
X84680000Y-38580000D02*
G75*
G03*
X84680000Y-38580000I-1680000J0D01*
G01*
X84680000Y-43660000D02*
G75*
G03*
X84680000Y-43660000I-1680000J0D01*
G01*
X78900000Y-30900000D02*
X78900000Y-46260000D01*
X80400000Y-30900000D02*
X80400000Y-46260000D01*
X85301000Y-30900000D02*
X85301000Y-46260000D01*
X88261000Y-30900000D02*
X88261000Y-46260000D01*
X78340000Y-30900000D02*
X78340000Y-46260000D01*
X88261000Y-30900000D02*
X78340000Y-30900000D01*
X88261000Y-46260000D02*
X78340000Y-46260000D01*
X84069000Y-39855000D02*
X84023000Y-39808000D01*
X81761000Y-37546000D02*
X81726000Y-37511000D01*
X84275000Y-39650000D02*
X84239000Y-39615000D01*
X81977000Y-37353000D02*
X81931000Y-37306000D01*
X84069000Y-44935000D02*
X84023000Y-44888000D01*
X81761000Y-42626000D02*
X81726000Y-42591000D01*
X84275000Y-44730000D02*
X84239000Y-44695000D01*
X81977000Y-42433000D02*
X81931000Y-42386000D01*
X78840000Y-30660000D02*
X78100000Y-30660000D01*
X78100000Y-30660000D02*
X78100000Y-31160000D01*
%TO.C,J2*%
X150135000Y-65684000D02*
G75*
G03*
X150280253Y-64971195I-1535000J684000D01*
G01*
X147916000Y-66535001D02*
G75*
G03*
X149283042Y-66535427I684000J1535001D01*
G01*
X147064999Y-64316000D02*
G75*
G03*
X147064573Y-65683042I1535001J-684000D01*
G01*
X149284000Y-63464999D02*
G75*
G03*
X147916958Y-63464573I-684000J-1535001D01*
G01*
X150280000Y-65000000D02*
G75*
G03*
X150134756Y-64316682I-1680000J0D01*
G01*
X150280000Y-59920000D02*
G75*
G03*
X150280000Y-59920000I-1680000J0D01*
G01*
X150280000Y-54840000D02*
G75*
G03*
X150280000Y-54840000I-1680000J0D01*
G01*
X150280000Y-49760000D02*
G75*
G03*
X150280000Y-49760000I-1680000J0D01*
G01*
X152700000Y-67600000D02*
X152700000Y-47160000D01*
X151200000Y-67600000D02*
X151200000Y-47160000D01*
X146299000Y-67600000D02*
X146299000Y-47160000D01*
X143339000Y-67600000D02*
X143339000Y-47160000D01*
X153260000Y-67600000D02*
X153260000Y-47160000D01*
X143339000Y-67600000D02*
X153260000Y-67600000D01*
X143339000Y-47160000D02*
X153260000Y-47160000D01*
X147531000Y-58645000D02*
X147577000Y-58692000D01*
X149839000Y-60954000D02*
X149874000Y-60989000D01*
X147325000Y-58850000D02*
X147361000Y-58885000D01*
X149623000Y-61147000D02*
X149669000Y-61194000D01*
X147531000Y-53565000D02*
X147577000Y-53612000D01*
X149839000Y-55874000D02*
X149874000Y-55909000D01*
X147325000Y-53770000D02*
X147361000Y-53805000D01*
X149623000Y-56067000D02*
X149669000Y-56114000D01*
X147531000Y-48485000D02*
X147577000Y-48532000D01*
X149839000Y-50794000D02*
X149874000Y-50829000D01*
X147325000Y-48690000D02*
X147361000Y-48725000D01*
X149623000Y-50987000D02*
X149669000Y-51034000D01*
X152760000Y-67840000D02*
X153500000Y-67840000D01*
X153500000Y-67840000D02*
X153500000Y-67340000D01*
%TO.C,J3*%
X118670000Y-56870000D02*
X118670000Y-58200000D01*
X117340000Y-56870000D02*
X118670000Y-56870000D01*
X116070000Y-56870000D02*
X116070000Y-59530000D01*
X116070000Y-59530000D02*
X110930000Y-59530000D01*
X116070000Y-56870000D02*
X110930000Y-56870000D01*
X110930000Y-56870000D02*
X110930000Y-59530000D01*
%TO.C,C17*%
X98275000Y-85304775D02*
X98775000Y-85304775D01*
X98525000Y-85554775D02*
X98525000Y-85054775D01*
X99716000Y-80149000D02*
X100284000Y-80149000D01*
X99482000Y-80189000D02*
X100518000Y-80189000D01*
X99323000Y-80229000D02*
X100677000Y-80229000D01*
X99195000Y-80269000D02*
X100805000Y-80269000D01*
X99085000Y-80309000D02*
X100915000Y-80309000D01*
X98989000Y-80349000D02*
X101011000Y-80349000D01*
X98902000Y-80389000D02*
X101098000Y-80389000D01*
X98822000Y-80429000D02*
X101178000Y-80429000D01*
X101040000Y-80469000D02*
X101251000Y-80469000D01*
X98749000Y-80469000D02*
X98960000Y-80469000D01*
X101040000Y-80509000D02*
X101319000Y-80509000D01*
X98681000Y-80509000D02*
X98960000Y-80509000D01*
X101040000Y-80549000D02*
X101383000Y-80549000D01*
X98617000Y-80549000D02*
X98960000Y-80549000D01*
X101040000Y-80589000D02*
X101443000Y-80589000D01*
X98557000Y-80589000D02*
X98960000Y-80589000D01*
X101040000Y-80629000D02*
X101500000Y-80629000D01*
X98500000Y-80629000D02*
X98960000Y-80629000D01*
X101040000Y-80669000D02*
X101554000Y-80669000D01*
X98446000Y-80669000D02*
X98960000Y-80669000D01*
X101040000Y-80709000D02*
X101605000Y-80709000D01*
X98395000Y-80709000D02*
X98960000Y-80709000D01*
X101040000Y-80749000D02*
X101653000Y-80749000D01*
X98347000Y-80749000D02*
X98960000Y-80749000D01*
X101040000Y-80789000D02*
X101699000Y-80789000D01*
X98301000Y-80789000D02*
X98960000Y-80789000D01*
X101040000Y-80829000D02*
X101743000Y-80829000D01*
X98257000Y-80829000D02*
X98960000Y-80829000D01*
X101040000Y-80869000D02*
X101785000Y-80869000D01*
X98215000Y-80869000D02*
X98960000Y-80869000D01*
X101040000Y-80909000D02*
X101826000Y-80909000D01*
X98174000Y-80909000D02*
X98960000Y-80909000D01*
X101040000Y-80949000D02*
X101864000Y-80949000D01*
X98136000Y-80949000D02*
X98960000Y-80949000D01*
X101040000Y-80989000D02*
X101901000Y-80989000D01*
X98099000Y-80989000D02*
X98960000Y-80989000D01*
X101040000Y-81029000D02*
X101937000Y-81029000D01*
X98063000Y-81029000D02*
X98960000Y-81029000D01*
X101040000Y-81069000D02*
X101971000Y-81069000D01*
X98029000Y-81069000D02*
X98960000Y-81069000D01*
X101040000Y-81109000D02*
X102004000Y-81109000D01*
X97996000Y-81109000D02*
X98960000Y-81109000D01*
X101040000Y-81149000D02*
X102035000Y-81149000D01*
X97965000Y-81149000D02*
X98960000Y-81149000D01*
X101040000Y-81189000D02*
X102065000Y-81189000D01*
X97935000Y-81189000D02*
X98960000Y-81189000D01*
X101040000Y-81229000D02*
X102095000Y-81229000D01*
X97905000Y-81229000D02*
X98960000Y-81229000D01*
X101040000Y-81269000D02*
X102122000Y-81269000D01*
X97878000Y-81269000D02*
X98960000Y-81269000D01*
X101040000Y-81309000D02*
X102149000Y-81309000D01*
X97851000Y-81309000D02*
X98960000Y-81309000D01*
X101040000Y-81349000D02*
X102175000Y-81349000D01*
X97825000Y-81349000D02*
X98960000Y-81349000D01*
X101040000Y-81389000D02*
X102200000Y-81389000D01*
X97800000Y-81389000D02*
X98960000Y-81389000D01*
X101040000Y-81429000D02*
X102224000Y-81429000D01*
X97776000Y-81429000D02*
X98960000Y-81429000D01*
X101040000Y-81469000D02*
X102247000Y-81469000D01*
X97753000Y-81469000D02*
X98960000Y-81469000D01*
X101040000Y-81509000D02*
X102268000Y-81509000D01*
X97732000Y-81509000D02*
X98960000Y-81509000D01*
X101040000Y-81549000D02*
X102290000Y-81549000D01*
X97710000Y-81549000D02*
X98960000Y-81549000D01*
X101040000Y-81589000D02*
X102310000Y-81589000D01*
X97690000Y-81589000D02*
X98960000Y-81589000D01*
X101040000Y-81629000D02*
X102329000Y-81629000D01*
X97671000Y-81629000D02*
X98960000Y-81629000D01*
X101040000Y-81669000D02*
X102348000Y-81669000D01*
X97652000Y-81669000D02*
X98960000Y-81669000D01*
X101040000Y-81709000D02*
X102365000Y-81709000D01*
X97635000Y-81709000D02*
X98960000Y-81709000D01*
X101040000Y-81749000D02*
X102382000Y-81749000D01*
X97618000Y-81749000D02*
X98960000Y-81749000D01*
X101040000Y-81789000D02*
X102398000Y-81789000D01*
X97602000Y-81789000D02*
X98960000Y-81789000D01*
X101040000Y-81829000D02*
X102414000Y-81829000D01*
X97586000Y-81829000D02*
X98960000Y-81829000D01*
X101040000Y-81869000D02*
X102428000Y-81869000D01*
X97572000Y-81869000D02*
X98960000Y-81869000D01*
X101040000Y-81909000D02*
X102442000Y-81909000D01*
X97558000Y-81909000D02*
X98960000Y-81909000D01*
X101040000Y-81949000D02*
X102455000Y-81949000D01*
X97545000Y-81949000D02*
X98960000Y-81949000D01*
X101040000Y-81989000D02*
X102468000Y-81989000D01*
X97532000Y-81989000D02*
X98960000Y-81989000D01*
X101040000Y-82029000D02*
X102480000Y-82029000D01*
X97520000Y-82029000D02*
X98960000Y-82029000D01*
X101040000Y-82070000D02*
X102491000Y-82070000D01*
X97509000Y-82070000D02*
X98960000Y-82070000D01*
X101040000Y-82110000D02*
X102501000Y-82110000D01*
X97499000Y-82110000D02*
X98960000Y-82110000D01*
X101040000Y-82150000D02*
X102511000Y-82150000D01*
X97489000Y-82150000D02*
X98960000Y-82150000D01*
X101040000Y-82190000D02*
X102520000Y-82190000D01*
X97480000Y-82190000D02*
X98960000Y-82190000D01*
X101040000Y-82230000D02*
X102528000Y-82230000D01*
X97472000Y-82230000D02*
X98960000Y-82230000D01*
X101040000Y-82270000D02*
X102536000Y-82270000D01*
X97464000Y-82270000D02*
X98960000Y-82270000D01*
X101040000Y-82310000D02*
X102543000Y-82310000D01*
X97457000Y-82310000D02*
X98960000Y-82310000D01*
X101040000Y-82350000D02*
X102550000Y-82350000D01*
X97450000Y-82350000D02*
X98960000Y-82350000D01*
X101040000Y-82390000D02*
X102556000Y-82390000D01*
X97444000Y-82390000D02*
X98960000Y-82390000D01*
X101040000Y-82430000D02*
X102561000Y-82430000D01*
X97439000Y-82430000D02*
X98960000Y-82430000D01*
X101040000Y-82470000D02*
X102565000Y-82470000D01*
X97435000Y-82470000D02*
X98960000Y-82470000D01*
X101040000Y-82510000D02*
X102569000Y-82510000D01*
X97431000Y-82510000D02*
X98960000Y-82510000D01*
X97427000Y-82550000D02*
X102573000Y-82550000D01*
X97424000Y-82590000D02*
X102576000Y-82590000D01*
X97422000Y-82630000D02*
X102578000Y-82630000D01*
X97421000Y-82670000D02*
X102579000Y-82670000D01*
X97420000Y-82710000D02*
X102580000Y-82710000D01*
X97420000Y-82750000D02*
X102580000Y-82750000D01*
X102620000Y-82750000D02*
G75*
G03*
X102620000Y-82750000I-2620000J0D01*
G01*
%TO.C,C9*%
X132725000Y-32695225D02*
X132225000Y-32695225D01*
X132475000Y-32445225D02*
X132475000Y-32945225D01*
X131284000Y-37851000D02*
X130716000Y-37851000D01*
X131518000Y-37811000D02*
X130482000Y-37811000D01*
X131677000Y-37771000D02*
X130323000Y-37771000D01*
X131805000Y-37731000D02*
X130195000Y-37731000D01*
X131915000Y-37691000D02*
X130085000Y-37691000D01*
X132011000Y-37651000D02*
X129989000Y-37651000D01*
X132098000Y-37611000D02*
X129902000Y-37611000D01*
X132178000Y-37571000D02*
X129822000Y-37571000D01*
X129960000Y-37531000D02*
X129749000Y-37531000D01*
X132251000Y-37531000D02*
X132040000Y-37531000D01*
X129960000Y-37491000D02*
X129681000Y-37491000D01*
X132319000Y-37491000D02*
X132040000Y-37491000D01*
X129960000Y-37451000D02*
X129617000Y-37451000D01*
X132383000Y-37451000D02*
X132040000Y-37451000D01*
X129960000Y-37411000D02*
X129557000Y-37411000D01*
X132443000Y-37411000D02*
X132040000Y-37411000D01*
X129960000Y-37371000D02*
X129500000Y-37371000D01*
X132500000Y-37371000D02*
X132040000Y-37371000D01*
X129960000Y-37331000D02*
X129446000Y-37331000D01*
X132554000Y-37331000D02*
X132040000Y-37331000D01*
X129960000Y-37291000D02*
X129395000Y-37291000D01*
X132605000Y-37291000D02*
X132040000Y-37291000D01*
X129960000Y-37251000D02*
X129347000Y-37251000D01*
X132653000Y-37251000D02*
X132040000Y-37251000D01*
X129960000Y-37211000D02*
X129301000Y-37211000D01*
X132699000Y-37211000D02*
X132040000Y-37211000D01*
X129960000Y-37171000D02*
X129257000Y-37171000D01*
X132743000Y-37171000D02*
X132040000Y-37171000D01*
X129960000Y-37131000D02*
X129215000Y-37131000D01*
X132785000Y-37131000D02*
X132040000Y-37131000D01*
X129960000Y-37091000D02*
X129174000Y-37091000D01*
X132826000Y-37091000D02*
X132040000Y-37091000D01*
X129960000Y-37051000D02*
X129136000Y-37051000D01*
X132864000Y-37051000D02*
X132040000Y-37051000D01*
X129960000Y-37011000D02*
X129099000Y-37011000D01*
X132901000Y-37011000D02*
X132040000Y-37011000D01*
X129960000Y-36971000D02*
X129063000Y-36971000D01*
X132937000Y-36971000D02*
X132040000Y-36971000D01*
X129960000Y-36931000D02*
X129029000Y-36931000D01*
X132971000Y-36931000D02*
X132040000Y-36931000D01*
X129960000Y-36891000D02*
X128996000Y-36891000D01*
X133004000Y-36891000D02*
X132040000Y-36891000D01*
X129960000Y-36851000D02*
X128965000Y-36851000D01*
X133035000Y-36851000D02*
X132040000Y-36851000D01*
X129960000Y-36811000D02*
X128935000Y-36811000D01*
X133065000Y-36811000D02*
X132040000Y-36811000D01*
X129960000Y-36771000D02*
X128905000Y-36771000D01*
X133095000Y-36771000D02*
X132040000Y-36771000D01*
X129960000Y-36731000D02*
X128878000Y-36731000D01*
X133122000Y-36731000D02*
X132040000Y-36731000D01*
X129960000Y-36691000D02*
X128851000Y-36691000D01*
X133149000Y-36691000D02*
X132040000Y-36691000D01*
X129960000Y-36651000D02*
X128825000Y-36651000D01*
X133175000Y-36651000D02*
X132040000Y-36651000D01*
X129960000Y-36611000D02*
X128800000Y-36611000D01*
X133200000Y-36611000D02*
X132040000Y-36611000D01*
X129960000Y-36571000D02*
X128776000Y-36571000D01*
X133224000Y-36571000D02*
X132040000Y-36571000D01*
X129960000Y-36531000D02*
X128753000Y-36531000D01*
X133247000Y-36531000D02*
X132040000Y-36531000D01*
X129960000Y-36491000D02*
X128732000Y-36491000D01*
X133268000Y-36491000D02*
X132040000Y-36491000D01*
X129960000Y-36451000D02*
X128710000Y-36451000D01*
X133290000Y-36451000D02*
X132040000Y-36451000D01*
X129960000Y-36411000D02*
X128690000Y-36411000D01*
X133310000Y-36411000D02*
X132040000Y-36411000D01*
X129960000Y-36371000D02*
X128671000Y-36371000D01*
X133329000Y-36371000D02*
X132040000Y-36371000D01*
X129960000Y-36331000D02*
X128652000Y-36331000D01*
X133348000Y-36331000D02*
X132040000Y-36331000D01*
X129960000Y-36291000D02*
X128635000Y-36291000D01*
X133365000Y-36291000D02*
X132040000Y-36291000D01*
X129960000Y-36251000D02*
X128618000Y-36251000D01*
X133382000Y-36251000D02*
X132040000Y-36251000D01*
X129960000Y-36211000D02*
X128602000Y-36211000D01*
X133398000Y-36211000D02*
X132040000Y-36211000D01*
X129960000Y-36171000D02*
X128586000Y-36171000D01*
X133414000Y-36171000D02*
X132040000Y-36171000D01*
X129960000Y-36131000D02*
X128572000Y-36131000D01*
X133428000Y-36131000D02*
X132040000Y-36131000D01*
X129960000Y-36091000D02*
X128558000Y-36091000D01*
X133442000Y-36091000D02*
X132040000Y-36091000D01*
X129960000Y-36051000D02*
X128545000Y-36051000D01*
X133455000Y-36051000D02*
X132040000Y-36051000D01*
X129960000Y-36011000D02*
X128532000Y-36011000D01*
X133468000Y-36011000D02*
X132040000Y-36011000D01*
X129960000Y-35971000D02*
X128520000Y-35971000D01*
X133480000Y-35971000D02*
X132040000Y-35971000D01*
X129960000Y-35930000D02*
X128509000Y-35930000D01*
X133491000Y-35930000D02*
X132040000Y-35930000D01*
X129960000Y-35890000D02*
X128499000Y-35890000D01*
X133501000Y-35890000D02*
X132040000Y-35890000D01*
X129960000Y-35850000D02*
X128489000Y-35850000D01*
X133511000Y-35850000D02*
X132040000Y-35850000D01*
X129960000Y-35810000D02*
X128480000Y-35810000D01*
X133520000Y-35810000D02*
X132040000Y-35810000D01*
X129960000Y-35770000D02*
X128472000Y-35770000D01*
X133528000Y-35770000D02*
X132040000Y-35770000D01*
X129960000Y-35730000D02*
X128464000Y-35730000D01*
X133536000Y-35730000D02*
X132040000Y-35730000D01*
X129960000Y-35690000D02*
X128457000Y-35690000D01*
X133543000Y-35690000D02*
X132040000Y-35690000D01*
X129960000Y-35650000D02*
X128450000Y-35650000D01*
X133550000Y-35650000D02*
X132040000Y-35650000D01*
X129960000Y-35610000D02*
X128444000Y-35610000D01*
X133556000Y-35610000D02*
X132040000Y-35610000D01*
X129960000Y-35570000D02*
X128439000Y-35570000D01*
X133561000Y-35570000D02*
X132040000Y-35570000D01*
X129960000Y-35530000D02*
X128435000Y-35530000D01*
X133565000Y-35530000D02*
X132040000Y-35530000D01*
X129960000Y-35490000D02*
X128431000Y-35490000D01*
X133569000Y-35490000D02*
X132040000Y-35490000D01*
X133573000Y-35450000D02*
X128427000Y-35450000D01*
X133576000Y-35410000D02*
X128424000Y-35410000D01*
X133578000Y-35370000D02*
X128422000Y-35370000D01*
X133579000Y-35330000D02*
X128421000Y-35330000D01*
X133580000Y-35290000D02*
X128420000Y-35290000D01*
X133580000Y-35250000D02*
X128420000Y-35250000D01*
X133620000Y-35250000D02*
G75*
G03*
X133620000Y-35250000I-2620000J0D01*
G01*
%TO.C,U2*%
X125530000Y-87300000D02*
X105090000Y-87300000D01*
X125530000Y-82059000D02*
X123854000Y-82059000D01*
X122005000Y-82059000D02*
X121314000Y-82059000D01*
X119465000Y-82059000D02*
X118774000Y-82059000D01*
X116925000Y-82059000D02*
X116234000Y-82059000D01*
X114385000Y-82059000D02*
X113694000Y-82059000D01*
X111845000Y-82059000D02*
X111154000Y-82059000D01*
X109305000Y-82059000D02*
X108614000Y-82059000D01*
X106765000Y-82059000D02*
X105090000Y-82059000D01*
X125530000Y-87300000D02*
X125530000Y-82059000D01*
X105090000Y-87300000D02*
X105090000Y-82059000D01*
X125530000Y-85460000D02*
X105090000Y-85460000D01*
X117159000Y-87300000D02*
X117159000Y-85460000D01*
X113460000Y-87300000D02*
X113460000Y-85460000D01*
X124200000Y-82059000D02*
X124200000Y-78650000D01*
X121660000Y-82059000D02*
X121660000Y-78665000D01*
X119120000Y-82059000D02*
X119120000Y-78665000D01*
X116580000Y-82059000D02*
X116580000Y-78665000D01*
X114040000Y-82059000D02*
X114040000Y-78665000D01*
X111500000Y-82059000D02*
X111500000Y-78665000D01*
X108960000Y-82059000D02*
X108960000Y-78665000D01*
X106420000Y-82059000D02*
X106420000Y-78665000D01*
%TO.C,U1*%
X105420000Y-30300000D02*
X125860000Y-30300000D01*
X105420000Y-35541000D02*
X107096000Y-35541000D01*
X108945000Y-35541000D02*
X109636000Y-35541000D01*
X111485000Y-35541000D02*
X112176000Y-35541000D01*
X114025000Y-35541000D02*
X114716000Y-35541000D01*
X116565000Y-35541000D02*
X117256000Y-35541000D01*
X119105000Y-35541000D02*
X119796000Y-35541000D01*
X121645000Y-35541000D02*
X122336000Y-35541000D01*
X124185000Y-35541000D02*
X125860000Y-35541000D01*
X105420000Y-30300000D02*
X105420000Y-35541000D01*
X125860000Y-30300000D02*
X125860000Y-35541000D01*
X105420000Y-32140000D02*
X125860000Y-32140000D01*
X113791000Y-30300000D02*
X113791000Y-32140000D01*
X117490000Y-30300000D02*
X117490000Y-32140000D01*
X106750000Y-35541000D02*
X106750000Y-38950000D01*
X109290000Y-35541000D02*
X109290000Y-38935000D01*
X111830000Y-35541000D02*
X111830000Y-38935000D01*
X114370000Y-35541000D02*
X114370000Y-38935000D01*
X116910000Y-35541000D02*
X116910000Y-38935000D01*
X119450000Y-35541000D02*
X119450000Y-38935000D01*
X121990000Y-35541000D02*
X121990000Y-38935000D01*
X124530000Y-35541000D02*
X124530000Y-38935000D01*
%TO.C,R13*%
X142520000Y-69350000D02*
X138680000Y-69350000D01*
X138680000Y-69350000D02*
X138680000Y-79490000D01*
X138680000Y-79490000D02*
X142520000Y-79490000D01*
X142520000Y-79490000D02*
X142520000Y-69350000D01*
X140600000Y-68240000D02*
X140600000Y-69350000D01*
X140600000Y-80600000D02*
X140600000Y-79490000D01*
%TO.C,R12*%
X107410000Y-73230000D02*
X107410000Y-75970000D01*
X107410000Y-75970000D02*
X113950000Y-75970000D01*
X113950000Y-75970000D02*
X113950000Y-73230000D01*
X113950000Y-73230000D02*
X107410000Y-73230000D01*
X106640000Y-74600000D02*
X107410000Y-74600000D01*
X114720000Y-74600000D02*
X113950000Y-74600000D01*
%TO.C,R11*%
X113950000Y-72770000D02*
X113950000Y-70030000D01*
X113950000Y-70030000D02*
X107410000Y-70030000D01*
X107410000Y-70030000D02*
X107410000Y-72770000D01*
X107410000Y-72770000D02*
X113950000Y-72770000D01*
X114720000Y-71400000D02*
X113950000Y-71400000D01*
X106640000Y-71400000D02*
X107410000Y-71400000D01*
%TO.C,R10*%
X126350000Y-75970000D02*
X126350000Y-73230000D01*
X126350000Y-73230000D02*
X119810000Y-73230000D01*
X119810000Y-73230000D02*
X119810000Y-75970000D01*
X119810000Y-75970000D02*
X126350000Y-75970000D01*
X127120000Y-74600000D02*
X126350000Y-74600000D01*
X119040000Y-74600000D02*
X119810000Y-74600000D01*
%TO.C,R9*%
X138680000Y-46850000D02*
X142520000Y-46850000D01*
X142520000Y-46850000D02*
X142520000Y-36710000D01*
X142520000Y-36710000D02*
X138680000Y-36710000D01*
X138680000Y-36710000D02*
X138680000Y-46850000D01*
X140600000Y-47960000D02*
X140600000Y-46850000D01*
X140600000Y-35600000D02*
X140600000Y-36710000D01*
%TO.C,R8*%
X124190000Y-44570000D02*
X124190000Y-41830000D01*
X124190000Y-41830000D02*
X117650000Y-41830000D01*
X117650000Y-41830000D02*
X117650000Y-44570000D01*
X117650000Y-44570000D02*
X124190000Y-44570000D01*
X124960000Y-43200000D02*
X124190000Y-43200000D01*
X116880000Y-43200000D02*
X117650000Y-43200000D01*
%TO.C,R7*%
X115210000Y-45030000D02*
X115210000Y-47770000D01*
X115210000Y-47770000D02*
X121750000Y-47770000D01*
X121750000Y-47770000D02*
X121750000Y-45030000D01*
X121750000Y-45030000D02*
X115210000Y-45030000D01*
X114440000Y-46400000D02*
X115210000Y-46400000D01*
X122520000Y-46400000D02*
X121750000Y-46400000D01*
%TO.C,R6*%
X105010000Y-41830000D02*
X105010000Y-44570000D01*
X105010000Y-44570000D02*
X111550000Y-44570000D01*
X111550000Y-44570000D02*
X111550000Y-41830000D01*
X111550000Y-41830000D02*
X105010000Y-41830000D01*
X104240000Y-43200000D02*
X105010000Y-43200000D01*
X112320000Y-43200000D02*
X111550000Y-43200000D01*
%TO.C,R5*%
X82570000Y-74010000D02*
X79830000Y-74010000D01*
X79830000Y-74010000D02*
X79830000Y-80550000D01*
X79830000Y-80550000D02*
X82570000Y-80550000D01*
X82570000Y-80550000D02*
X82570000Y-74010000D01*
X81200000Y-73240000D02*
X81200000Y-74010000D01*
X81200000Y-81320000D02*
X81200000Y-80550000D01*
%TO.C,R4*%
X92570000Y-77810000D02*
X89830000Y-77810000D01*
X89830000Y-77810000D02*
X89830000Y-84350000D01*
X89830000Y-84350000D02*
X92570000Y-84350000D01*
X92570000Y-84350000D02*
X92570000Y-77810000D01*
X91200000Y-77040000D02*
X91200000Y-77810000D01*
X91200000Y-85120000D02*
X91200000Y-84350000D01*
%TO.C,R3*%
X86230000Y-84390000D02*
X88970000Y-84390000D01*
X88970000Y-84390000D02*
X88970000Y-77850000D01*
X88970000Y-77850000D02*
X86230000Y-77850000D01*
X86230000Y-77850000D02*
X86230000Y-84390000D01*
X87600000Y-85160000D02*
X87600000Y-84390000D01*
X87600000Y-77080000D02*
X87600000Y-77850000D01*
%TO.C,R2*%
X84870000Y-50110000D02*
X82130000Y-50110000D01*
X82130000Y-50110000D02*
X82130000Y-56650000D01*
X82130000Y-56650000D02*
X84870000Y-56650000D01*
X84870000Y-56650000D02*
X84870000Y-50110000D01*
X83500000Y-49340000D02*
X83500000Y-50110000D01*
X83500000Y-57420000D02*
X83500000Y-56650000D01*
%TO.C,R1*%
X85430000Y-56650000D02*
X88170000Y-56650000D01*
X88170000Y-56650000D02*
X88170000Y-50110000D01*
X88170000Y-50110000D02*
X85430000Y-50110000D01*
X85430000Y-50110000D02*
X85430000Y-56650000D01*
X86800000Y-57420000D02*
X86800000Y-56650000D01*
X86800000Y-49340000D02*
X86800000Y-50110000D01*
%TO.C,JP1*%
X78470000Y-60070000D02*
X81130000Y-60070000D01*
X78470000Y-57470000D02*
X78470000Y-60070000D01*
X81130000Y-57470000D02*
X81130000Y-60070000D01*
X78470000Y-57470000D02*
X81130000Y-57470000D01*
X78470000Y-56200000D02*
X78470000Y-54870000D01*
X78470000Y-54870000D02*
X79800000Y-54870000D01*
%TO.C,D1*%
X82930000Y-80040000D02*
X85870000Y-80040000D01*
X85870000Y-80040000D02*
X85870000Y-74600000D01*
X85870000Y-74600000D02*
X82930000Y-74600000D01*
X82930000Y-74600000D02*
X82930000Y-80040000D01*
X84400000Y-81260000D02*
X84400000Y-80040000D01*
X84400000Y-73380000D02*
X84400000Y-74600000D01*
X82930000Y-79140000D02*
X85870000Y-79140000D01*
X82930000Y-79020000D02*
X85870000Y-79020000D01*
X82930000Y-79260000D02*
X85870000Y-79260000D01*
%TO.C,C18*%
X141670000Y-59430000D02*
X141670000Y-63970000D01*
X139530000Y-59430000D02*
X139530000Y-63970000D01*
X141670000Y-59430000D02*
X141655000Y-59430000D01*
X139545000Y-59430000D02*
X139530000Y-59430000D01*
X141670000Y-63970000D02*
X141655000Y-63970000D01*
X139545000Y-63970000D02*
X139530000Y-63970000D01*
%TO.C,C16*%
X105920000Y-65000000D02*
G75*
G03*
X105920000Y-65000000I-6620000J0D01*
G01*
X99300000Y-71580000D02*
X99300000Y-58420000D01*
X99260000Y-71580000D02*
X99260000Y-58420000D01*
X99220000Y-71580000D02*
X99220000Y-58420000D01*
X99180000Y-71579000D02*
X99180000Y-58421000D01*
X99140000Y-71579000D02*
X99140000Y-58421000D01*
X99100000Y-71577000D02*
X99100000Y-58423000D01*
X99060000Y-71576000D02*
X99060000Y-58424000D01*
X99020000Y-71575000D02*
X99020000Y-58425000D01*
X98980000Y-71573000D02*
X98980000Y-58427000D01*
X98940000Y-71571000D02*
X98940000Y-58429000D01*
X98900000Y-71568000D02*
X98900000Y-58432000D01*
X98860000Y-71566000D02*
X98860000Y-58434000D01*
X98820000Y-71563000D02*
X98820000Y-58437000D01*
X98780000Y-71560000D02*
X98780000Y-58440000D01*
X98740000Y-71557000D02*
X98740000Y-58443000D01*
X98700000Y-71553000D02*
X98700000Y-58447000D01*
X98660000Y-71549000D02*
X98660000Y-58451000D01*
X98620000Y-71545000D02*
X98620000Y-58455000D01*
X98579000Y-71541000D02*
X98579000Y-58459000D01*
X98539000Y-71537000D02*
X98539000Y-58463000D01*
X98499000Y-71532000D02*
X98499000Y-58468000D01*
X98459000Y-71527000D02*
X98459000Y-58473000D01*
X98419000Y-71522000D02*
X98419000Y-58478000D01*
X98379000Y-71516000D02*
X98379000Y-58484000D01*
X98339000Y-71511000D02*
X98339000Y-58489000D01*
X98299000Y-71505000D02*
X98299000Y-58495000D01*
X98259000Y-71498000D02*
X98259000Y-58502000D01*
X98219000Y-71492000D02*
X98219000Y-66440000D01*
X98219000Y-63560000D02*
X98219000Y-58508000D01*
X98179000Y-71485000D02*
X98179000Y-66440000D01*
X98179000Y-63560000D02*
X98179000Y-58515000D01*
X98139000Y-71478000D02*
X98139000Y-66440000D01*
X98139000Y-63560000D02*
X98139000Y-58522000D01*
X98099000Y-71471000D02*
X98099000Y-66440000D01*
X98099000Y-63560000D02*
X98099000Y-58529000D01*
X98059000Y-71463000D02*
X98059000Y-66440000D01*
X98059000Y-63560000D02*
X98059000Y-58537000D01*
X98019000Y-71456000D02*
X98019000Y-66440000D01*
X98019000Y-63560000D02*
X98019000Y-58544000D01*
X97979000Y-71448000D02*
X97979000Y-66440000D01*
X97979000Y-63560000D02*
X97979000Y-58552000D01*
X97939000Y-71439000D02*
X97939000Y-66440000D01*
X97939000Y-63560000D02*
X97939000Y-58561000D01*
X97899000Y-71431000D02*
X97899000Y-66440000D01*
X97899000Y-63560000D02*
X97899000Y-58569000D01*
X97859000Y-71422000D02*
X97859000Y-66440000D01*
X97859000Y-63560000D02*
X97859000Y-58578000D01*
X97819000Y-71413000D02*
X97819000Y-66440000D01*
X97819000Y-63560000D02*
X97819000Y-58587000D01*
X97779000Y-71404000D02*
X97779000Y-66440000D01*
X97779000Y-63560000D02*
X97779000Y-58596000D01*
X97739000Y-71394000D02*
X97739000Y-66440000D01*
X97739000Y-63560000D02*
X97739000Y-58606000D01*
X97699000Y-71384000D02*
X97699000Y-66440000D01*
X97699000Y-63560000D02*
X97699000Y-58616000D01*
X97659000Y-71374000D02*
X97659000Y-66440000D01*
X97659000Y-63560000D02*
X97659000Y-58626000D01*
X97619000Y-71364000D02*
X97619000Y-66440000D01*
X97619000Y-63560000D02*
X97619000Y-58636000D01*
X97579000Y-71353000D02*
X97579000Y-66440000D01*
X97579000Y-63560000D02*
X97579000Y-58647000D01*
X97539000Y-71342000D02*
X97539000Y-66440000D01*
X97539000Y-63560000D02*
X97539000Y-58658000D01*
X97499000Y-71331000D02*
X97499000Y-66440000D01*
X97499000Y-63560000D02*
X97499000Y-58669000D01*
X97459000Y-71320000D02*
X97459000Y-66440000D01*
X97459000Y-63560000D02*
X97459000Y-58680000D01*
X97419000Y-71308000D02*
X97419000Y-66440000D01*
X97419000Y-63560000D02*
X97419000Y-58692000D01*
X97379000Y-71296000D02*
X97379000Y-66440000D01*
X97379000Y-63560000D02*
X97379000Y-58704000D01*
X97339000Y-71284000D02*
X97339000Y-66440000D01*
X97339000Y-63560000D02*
X97339000Y-58716000D01*
X97299000Y-71271000D02*
X97299000Y-66440000D01*
X97299000Y-63560000D02*
X97299000Y-58729000D01*
X97259000Y-71258000D02*
X97259000Y-66440000D01*
X97259000Y-63560000D02*
X97259000Y-58742000D01*
X97219000Y-71245000D02*
X97219000Y-66440000D01*
X97219000Y-63560000D02*
X97219000Y-58755000D01*
X97179000Y-71232000D02*
X97179000Y-66440000D01*
X97179000Y-63560000D02*
X97179000Y-58768000D01*
X97139000Y-71218000D02*
X97139000Y-66440000D01*
X97139000Y-63560000D02*
X97139000Y-58782000D01*
X97099000Y-71204000D02*
X97099000Y-66440000D01*
X97099000Y-63560000D02*
X97099000Y-58796000D01*
X97059000Y-71190000D02*
X97059000Y-66440000D01*
X97059000Y-63560000D02*
X97059000Y-58810000D01*
X97019000Y-71175000D02*
X97019000Y-66440000D01*
X97019000Y-63560000D02*
X97019000Y-58825000D01*
X96979000Y-71161000D02*
X96979000Y-66440000D01*
X96979000Y-63560000D02*
X96979000Y-58839000D01*
X96939000Y-71146000D02*
X96939000Y-66440000D01*
X96939000Y-63560000D02*
X96939000Y-58854000D01*
X96899000Y-71130000D02*
X96899000Y-66440000D01*
X96899000Y-63560000D02*
X96899000Y-58870000D01*
X96859000Y-71114000D02*
X96859000Y-66440000D01*
X96859000Y-63560000D02*
X96859000Y-58886000D01*
X96819000Y-71098000D02*
X96819000Y-66440000D01*
X96819000Y-63560000D02*
X96819000Y-58902000D01*
X96779000Y-71082000D02*
X96779000Y-66440000D01*
X96779000Y-63560000D02*
X96779000Y-58918000D01*
X96739000Y-71065000D02*
X96739000Y-66440000D01*
X96739000Y-63560000D02*
X96739000Y-58935000D01*
X96699000Y-71049000D02*
X96699000Y-66440000D01*
X96699000Y-63560000D02*
X96699000Y-58951000D01*
X96659000Y-71031000D02*
X96659000Y-66440000D01*
X96659000Y-63560000D02*
X96659000Y-58969000D01*
X96619000Y-71014000D02*
X96619000Y-66440000D01*
X96619000Y-63560000D02*
X96619000Y-58986000D01*
X96579000Y-70996000D02*
X96579000Y-66440000D01*
X96579000Y-63560000D02*
X96579000Y-59004000D01*
X96539000Y-70978000D02*
X96539000Y-66440000D01*
X96539000Y-63560000D02*
X96539000Y-59022000D01*
X96499000Y-70959000D02*
X96499000Y-66440000D01*
X96499000Y-63560000D02*
X96499000Y-59041000D01*
X96459000Y-70940000D02*
X96459000Y-66440000D01*
X96459000Y-63560000D02*
X96459000Y-59060000D01*
X96419000Y-70921000D02*
X96419000Y-66440000D01*
X96419000Y-63560000D02*
X96419000Y-59079000D01*
X96379000Y-70902000D02*
X96379000Y-66440000D01*
X96379000Y-63560000D02*
X96379000Y-59098000D01*
X96339000Y-70882000D02*
X96339000Y-66440000D01*
X96339000Y-63560000D02*
X96339000Y-59118000D01*
X96299000Y-70862000D02*
X96299000Y-66440000D01*
X96299000Y-63560000D02*
X96299000Y-59138000D01*
X96259000Y-70841000D02*
X96259000Y-66440000D01*
X96259000Y-63560000D02*
X96259000Y-59159000D01*
X96219000Y-70820000D02*
X96219000Y-66440000D01*
X96219000Y-63560000D02*
X96219000Y-59180000D01*
X96179000Y-70799000D02*
X96179000Y-66440000D01*
X96179000Y-63560000D02*
X96179000Y-59201000D01*
X96139000Y-70778000D02*
X96139000Y-66440000D01*
X96139000Y-63560000D02*
X96139000Y-59222000D01*
X96099000Y-70756000D02*
X96099000Y-66440000D01*
X96099000Y-63560000D02*
X96099000Y-59244000D01*
X96059000Y-70733000D02*
X96059000Y-66440000D01*
X96059000Y-63560000D02*
X96059000Y-59267000D01*
X96019000Y-70711000D02*
X96019000Y-66440000D01*
X96019000Y-63560000D02*
X96019000Y-59289000D01*
X95979000Y-70688000D02*
X95979000Y-66440000D01*
X95979000Y-63560000D02*
X95979000Y-59312000D01*
X95939000Y-70664000D02*
X95939000Y-66440000D01*
X95939000Y-63560000D02*
X95939000Y-59336000D01*
X95899000Y-70641000D02*
X95899000Y-66440000D01*
X95899000Y-63560000D02*
X95899000Y-59359000D01*
X95859000Y-70617000D02*
X95859000Y-66440000D01*
X95859000Y-63560000D02*
X95859000Y-59383000D01*
X95819000Y-70592000D02*
X95819000Y-66440000D01*
X95819000Y-63560000D02*
X95819000Y-59408000D01*
X95779000Y-70567000D02*
X95779000Y-66440000D01*
X95779000Y-63560000D02*
X95779000Y-59433000D01*
X95739000Y-70542000D02*
X95739000Y-66440000D01*
X95739000Y-63560000D02*
X95739000Y-59458000D01*
X95699000Y-70516000D02*
X95699000Y-66440000D01*
X95699000Y-63560000D02*
X95699000Y-59484000D01*
X95659000Y-70490000D02*
X95659000Y-66440000D01*
X95659000Y-63560000D02*
X95659000Y-59510000D01*
X95619000Y-70463000D02*
X95619000Y-66440000D01*
X95619000Y-63560000D02*
X95619000Y-59537000D01*
X95579000Y-70436000D02*
X95579000Y-66440000D01*
X95579000Y-63560000D02*
X95579000Y-59564000D01*
X95539000Y-70409000D02*
X95539000Y-66440000D01*
X95539000Y-63560000D02*
X95539000Y-59591000D01*
X95499000Y-70381000D02*
X95499000Y-66440000D01*
X95499000Y-63560000D02*
X95499000Y-59619000D01*
X95459000Y-70353000D02*
X95459000Y-66440000D01*
X95459000Y-63560000D02*
X95459000Y-59647000D01*
X95419000Y-70324000D02*
X95419000Y-66440000D01*
X95419000Y-63560000D02*
X95419000Y-59676000D01*
X95379000Y-70295000D02*
X95379000Y-66440000D01*
X95379000Y-63560000D02*
X95379000Y-59705000D01*
X95339000Y-70265000D02*
X95339000Y-59735000D01*
X95299000Y-70235000D02*
X95299000Y-59765000D01*
X95259000Y-70205000D02*
X95259000Y-59795000D01*
X95219000Y-70174000D02*
X95219000Y-59826000D01*
X95179000Y-70142000D02*
X95179000Y-59858000D01*
X95139000Y-70110000D02*
X95139000Y-59890000D01*
X95099000Y-70078000D02*
X95099000Y-59922000D01*
X95059000Y-70044000D02*
X95059000Y-59956000D01*
X95019000Y-70011000D02*
X95019000Y-59989000D01*
X94979000Y-69977000D02*
X94979000Y-60023000D01*
X94939000Y-69942000D02*
X94939000Y-60058000D01*
X94899000Y-69907000D02*
X94899000Y-60093000D01*
X94859000Y-69871000D02*
X94859000Y-60129000D01*
X94819000Y-69834000D02*
X94819000Y-60166000D01*
X94779000Y-69797000D02*
X94779000Y-60203000D01*
X94739000Y-69760000D02*
X94739000Y-60240000D01*
X94699000Y-69721000D02*
X94699000Y-60279000D01*
X94659000Y-69682000D02*
X94659000Y-60318000D01*
X94619000Y-69643000D02*
X94619000Y-60357000D01*
X94579000Y-69602000D02*
X94579000Y-60398000D01*
X94539000Y-69561000D02*
X94539000Y-60439000D01*
X94499000Y-69519000D02*
X94499000Y-60481000D01*
X94459000Y-69477000D02*
X94459000Y-60523000D01*
X94419000Y-69434000D02*
X94419000Y-60566000D01*
X94379000Y-69390000D02*
X94379000Y-60610000D01*
X94339000Y-69345000D02*
X94339000Y-60655000D01*
X94299000Y-69299000D02*
X94299000Y-60701000D01*
X94259000Y-69253000D02*
X94259000Y-60747000D01*
X94219000Y-69205000D02*
X94219000Y-60795000D01*
X94179000Y-69157000D02*
X94179000Y-60843000D01*
X94139000Y-69108000D02*
X94139000Y-60892000D01*
X94099000Y-69057000D02*
X94099000Y-60943000D01*
X94059000Y-69006000D02*
X94059000Y-60994000D01*
X94019000Y-68954000D02*
X94019000Y-61046000D01*
X93979000Y-68900000D02*
X93979000Y-61100000D01*
X93939000Y-68846000D02*
X93939000Y-61154000D01*
X93899000Y-68790000D02*
X93899000Y-61210000D01*
X93859000Y-68733000D02*
X93859000Y-61267000D01*
X93819000Y-68675000D02*
X93819000Y-61325000D01*
X93779000Y-68615000D02*
X93779000Y-61385000D01*
X93739000Y-68554000D02*
X93739000Y-61446000D01*
X93699000Y-68491000D02*
X93699000Y-61509000D01*
X93659000Y-68427000D02*
X93659000Y-61573000D01*
X93619000Y-68361000D02*
X93619000Y-61639000D01*
X93579000Y-68293000D02*
X93579000Y-61707000D01*
X93539000Y-68223000D02*
X93539000Y-61777000D01*
X93499000Y-68152000D02*
X93499000Y-61848000D01*
X93459000Y-68078000D02*
X93459000Y-61922000D01*
X93419000Y-68002000D02*
X93419000Y-61998000D01*
X93379000Y-67923000D02*
X93379000Y-62077000D01*
X93339000Y-67842000D02*
X93339000Y-62158000D01*
X93299000Y-67758000D02*
X93299000Y-62242000D01*
X93259000Y-67670000D02*
X93259000Y-62330000D01*
X93219000Y-67579000D02*
X93219000Y-62421000D01*
X93179000Y-67484000D02*
X93179000Y-62516000D01*
X93139000Y-67385000D02*
X93139000Y-62615000D01*
X93099000Y-67281000D02*
X93099000Y-62719000D01*
X93059000Y-67171000D02*
X93059000Y-62829000D01*
X93019000Y-67055000D02*
X93019000Y-62945000D01*
X92979000Y-66931000D02*
X92979000Y-63069000D01*
X92939000Y-66798000D02*
X92939000Y-63202000D01*
X92899000Y-66653000D02*
X92899000Y-63347000D01*
X92859000Y-66494000D02*
X92859000Y-63506000D01*
X92819000Y-66315000D02*
X92819000Y-63685000D01*
X92779000Y-66107000D02*
X92779000Y-63893000D01*
X92739000Y-65850000D02*
X92739000Y-64150000D01*
X92699000Y-65475000D02*
X92699000Y-64525000D01*
X106384569Y-68715000D02*
X105084569Y-68715000D01*
X105734569Y-69365000D02*
X105734569Y-68065000D01*
%TO.C,C14*%
X93030000Y-72130000D02*
X97570000Y-72130000D01*
X93030000Y-74270000D02*
X97570000Y-74270000D01*
X93030000Y-72130000D02*
X93030000Y-72145000D01*
X93030000Y-74255000D02*
X93030000Y-74270000D01*
X97570000Y-72130000D02*
X97570000Y-72145000D01*
X97570000Y-74255000D02*
X97570000Y-74270000D01*
%TO.C,C13*%
X120830000Y-66970000D02*
X120830000Y-62430000D01*
X122970000Y-66970000D02*
X122970000Y-62430000D01*
X120830000Y-66970000D02*
X120845000Y-66970000D01*
X122955000Y-66970000D02*
X122970000Y-66970000D01*
X120830000Y-62430000D02*
X120845000Y-62430000D01*
X122955000Y-62430000D02*
X122970000Y-62430000D01*
%TO.C,C12*%
X102620000Y-77050000D02*
G75*
G03*
X102620000Y-77050000I-2620000J0D01*
G01*
X102580000Y-77050000D02*
X97420000Y-77050000D01*
X102580000Y-77090000D02*
X97420000Y-77090000D01*
X102579000Y-77130000D02*
X97421000Y-77130000D01*
X102578000Y-77170000D02*
X97422000Y-77170000D01*
X102576000Y-77210000D02*
X97424000Y-77210000D01*
X102573000Y-77250000D02*
X97427000Y-77250000D01*
X102569000Y-77290000D02*
X101040000Y-77290000D01*
X98960000Y-77290000D02*
X97431000Y-77290000D01*
X102565000Y-77330000D02*
X101040000Y-77330000D01*
X98960000Y-77330000D02*
X97435000Y-77330000D01*
X102561000Y-77370000D02*
X101040000Y-77370000D01*
X98960000Y-77370000D02*
X97439000Y-77370000D01*
X102556000Y-77410000D02*
X101040000Y-77410000D01*
X98960000Y-77410000D02*
X97444000Y-77410000D01*
X102550000Y-77450000D02*
X101040000Y-77450000D01*
X98960000Y-77450000D02*
X97450000Y-77450000D01*
X102543000Y-77490000D02*
X101040000Y-77490000D01*
X98960000Y-77490000D02*
X97457000Y-77490000D01*
X102536000Y-77530000D02*
X101040000Y-77530000D01*
X98960000Y-77530000D02*
X97464000Y-77530000D01*
X102528000Y-77570000D02*
X101040000Y-77570000D01*
X98960000Y-77570000D02*
X97472000Y-77570000D01*
X102520000Y-77610000D02*
X101040000Y-77610000D01*
X98960000Y-77610000D02*
X97480000Y-77610000D01*
X102511000Y-77650000D02*
X101040000Y-77650000D01*
X98960000Y-77650000D02*
X97489000Y-77650000D01*
X102501000Y-77690000D02*
X101040000Y-77690000D01*
X98960000Y-77690000D02*
X97499000Y-77690000D01*
X102491000Y-77730000D02*
X101040000Y-77730000D01*
X98960000Y-77730000D02*
X97509000Y-77730000D01*
X102480000Y-77771000D02*
X101040000Y-77771000D01*
X98960000Y-77771000D02*
X97520000Y-77771000D01*
X102468000Y-77811000D02*
X101040000Y-77811000D01*
X98960000Y-77811000D02*
X97532000Y-77811000D01*
X102455000Y-77851000D02*
X101040000Y-77851000D01*
X98960000Y-77851000D02*
X97545000Y-77851000D01*
X102442000Y-77891000D02*
X101040000Y-77891000D01*
X98960000Y-77891000D02*
X97558000Y-77891000D01*
X102428000Y-77931000D02*
X101040000Y-77931000D01*
X98960000Y-77931000D02*
X97572000Y-77931000D01*
X102414000Y-77971000D02*
X101040000Y-77971000D01*
X98960000Y-77971000D02*
X97586000Y-77971000D01*
X102398000Y-78011000D02*
X101040000Y-78011000D01*
X98960000Y-78011000D02*
X97602000Y-78011000D01*
X102382000Y-78051000D02*
X101040000Y-78051000D01*
X98960000Y-78051000D02*
X97618000Y-78051000D01*
X102365000Y-78091000D02*
X101040000Y-78091000D01*
X98960000Y-78091000D02*
X97635000Y-78091000D01*
X102348000Y-78131000D02*
X101040000Y-78131000D01*
X98960000Y-78131000D02*
X97652000Y-78131000D01*
X102329000Y-78171000D02*
X101040000Y-78171000D01*
X98960000Y-78171000D02*
X97671000Y-78171000D01*
X102310000Y-78211000D02*
X101040000Y-78211000D01*
X98960000Y-78211000D02*
X97690000Y-78211000D01*
X102290000Y-78251000D02*
X101040000Y-78251000D01*
X98960000Y-78251000D02*
X97710000Y-78251000D01*
X102268000Y-78291000D02*
X101040000Y-78291000D01*
X98960000Y-78291000D02*
X97732000Y-78291000D01*
X102247000Y-78331000D02*
X101040000Y-78331000D01*
X98960000Y-78331000D02*
X97753000Y-78331000D01*
X102224000Y-78371000D02*
X101040000Y-78371000D01*
X98960000Y-78371000D02*
X97776000Y-78371000D01*
X102200000Y-78411000D02*
X101040000Y-78411000D01*
X98960000Y-78411000D02*
X97800000Y-78411000D01*
X102175000Y-78451000D02*
X101040000Y-78451000D01*
X98960000Y-78451000D02*
X97825000Y-78451000D01*
X102149000Y-78491000D02*
X101040000Y-78491000D01*
X98960000Y-78491000D02*
X97851000Y-78491000D01*
X102122000Y-78531000D02*
X101040000Y-78531000D01*
X98960000Y-78531000D02*
X97878000Y-78531000D01*
X102095000Y-78571000D02*
X101040000Y-78571000D01*
X98960000Y-78571000D02*
X97905000Y-78571000D01*
X102065000Y-78611000D02*
X101040000Y-78611000D01*
X98960000Y-78611000D02*
X97935000Y-78611000D01*
X102035000Y-78651000D02*
X101040000Y-78651000D01*
X98960000Y-78651000D02*
X97965000Y-78651000D01*
X102004000Y-78691000D02*
X101040000Y-78691000D01*
X98960000Y-78691000D02*
X97996000Y-78691000D01*
X101971000Y-78731000D02*
X101040000Y-78731000D01*
X98960000Y-78731000D02*
X98029000Y-78731000D01*
X101937000Y-78771000D02*
X101040000Y-78771000D01*
X98960000Y-78771000D02*
X98063000Y-78771000D01*
X101901000Y-78811000D02*
X101040000Y-78811000D01*
X98960000Y-78811000D02*
X98099000Y-78811000D01*
X101864000Y-78851000D02*
X101040000Y-78851000D01*
X98960000Y-78851000D02*
X98136000Y-78851000D01*
X101826000Y-78891000D02*
X101040000Y-78891000D01*
X98960000Y-78891000D02*
X98174000Y-78891000D01*
X101785000Y-78931000D02*
X101040000Y-78931000D01*
X98960000Y-78931000D02*
X98215000Y-78931000D01*
X101743000Y-78971000D02*
X101040000Y-78971000D01*
X98960000Y-78971000D02*
X98257000Y-78971000D01*
X101699000Y-79011000D02*
X101040000Y-79011000D01*
X98960000Y-79011000D02*
X98301000Y-79011000D01*
X101653000Y-79051000D02*
X101040000Y-79051000D01*
X98960000Y-79051000D02*
X98347000Y-79051000D01*
X101605000Y-79091000D02*
X101040000Y-79091000D01*
X98960000Y-79091000D02*
X98395000Y-79091000D01*
X101554000Y-79131000D02*
X101040000Y-79131000D01*
X98960000Y-79131000D02*
X98446000Y-79131000D01*
X101500000Y-79171000D02*
X101040000Y-79171000D01*
X98960000Y-79171000D02*
X98500000Y-79171000D01*
X101443000Y-79211000D02*
X101040000Y-79211000D01*
X98960000Y-79211000D02*
X98557000Y-79211000D01*
X101383000Y-79251000D02*
X101040000Y-79251000D01*
X98960000Y-79251000D02*
X98617000Y-79251000D01*
X101319000Y-79291000D02*
X101040000Y-79291000D01*
X98960000Y-79291000D02*
X98681000Y-79291000D01*
X101251000Y-79331000D02*
X101040000Y-79331000D01*
X98960000Y-79331000D02*
X98749000Y-79331000D01*
X101178000Y-79371000D02*
X98822000Y-79371000D01*
X101098000Y-79411000D02*
X98902000Y-79411000D01*
X101011000Y-79451000D02*
X98989000Y-79451000D01*
X100915000Y-79491000D02*
X99085000Y-79491000D01*
X100805000Y-79531000D02*
X99195000Y-79531000D01*
X100677000Y-79571000D02*
X99323000Y-79571000D01*
X100518000Y-79611000D02*
X99482000Y-79611000D01*
X100284000Y-79651000D02*
X99716000Y-79651000D01*
X101475000Y-74245225D02*
X101475000Y-74745225D01*
X101725000Y-74495225D02*
X101225000Y-74495225D01*
%TO.C,C11*%
X117330000Y-71570000D02*
X117330000Y-67030000D01*
X119470000Y-71570000D02*
X119470000Y-67030000D01*
X117330000Y-71570000D02*
X117345000Y-71570000D01*
X119455000Y-71570000D02*
X119470000Y-71570000D01*
X117330000Y-67030000D02*
X117345000Y-67030000D01*
X119455000Y-67030000D02*
X119470000Y-67030000D01*
%TO.C,C10*%
X139530000Y-56770000D02*
X139530000Y-52230000D01*
X141670000Y-56770000D02*
X141670000Y-52230000D01*
X139530000Y-56770000D02*
X139545000Y-56770000D01*
X141655000Y-56770000D02*
X141670000Y-56770000D01*
X139530000Y-52230000D02*
X139545000Y-52230000D01*
X141655000Y-52230000D02*
X141670000Y-52230000D01*
%TO.C,C8*%
X105920000Y-51200000D02*
G75*
G03*
X105920000Y-51200000I-6620000J0D01*
G01*
X99300000Y-57780000D02*
X99300000Y-44620000D01*
X99260000Y-57780000D02*
X99260000Y-44620000D01*
X99220000Y-57780000D02*
X99220000Y-44620000D01*
X99180000Y-57779000D02*
X99180000Y-44621000D01*
X99140000Y-57779000D02*
X99140000Y-44621000D01*
X99100000Y-57777000D02*
X99100000Y-44623000D01*
X99060000Y-57776000D02*
X99060000Y-44624000D01*
X99020000Y-57775000D02*
X99020000Y-44625000D01*
X98980000Y-57773000D02*
X98980000Y-44627000D01*
X98940000Y-57771000D02*
X98940000Y-44629000D01*
X98900000Y-57768000D02*
X98900000Y-44632000D01*
X98860000Y-57766000D02*
X98860000Y-44634000D01*
X98820000Y-57763000D02*
X98820000Y-44637000D01*
X98780000Y-57760000D02*
X98780000Y-44640000D01*
X98740000Y-57757000D02*
X98740000Y-44643000D01*
X98700000Y-57753000D02*
X98700000Y-44647000D01*
X98660000Y-57749000D02*
X98660000Y-44651000D01*
X98620000Y-57745000D02*
X98620000Y-44655000D01*
X98579000Y-57741000D02*
X98579000Y-44659000D01*
X98539000Y-57737000D02*
X98539000Y-44663000D01*
X98499000Y-57732000D02*
X98499000Y-44668000D01*
X98459000Y-57727000D02*
X98459000Y-44673000D01*
X98419000Y-57722000D02*
X98419000Y-44678000D01*
X98379000Y-57716000D02*
X98379000Y-44684000D01*
X98339000Y-57711000D02*
X98339000Y-44689000D01*
X98299000Y-57705000D02*
X98299000Y-44695000D01*
X98259000Y-57698000D02*
X98259000Y-44702000D01*
X98219000Y-57692000D02*
X98219000Y-52640000D01*
X98219000Y-49760000D02*
X98219000Y-44708000D01*
X98179000Y-57685000D02*
X98179000Y-52640000D01*
X98179000Y-49760000D02*
X98179000Y-44715000D01*
X98139000Y-57678000D02*
X98139000Y-52640000D01*
X98139000Y-49760000D02*
X98139000Y-44722000D01*
X98099000Y-57671000D02*
X98099000Y-52640000D01*
X98099000Y-49760000D02*
X98099000Y-44729000D01*
X98059000Y-57663000D02*
X98059000Y-52640000D01*
X98059000Y-49760000D02*
X98059000Y-44737000D01*
X98019000Y-57656000D02*
X98019000Y-52640000D01*
X98019000Y-49760000D02*
X98019000Y-44744000D01*
X97979000Y-57648000D02*
X97979000Y-52640000D01*
X97979000Y-49760000D02*
X97979000Y-44752000D01*
X97939000Y-57639000D02*
X97939000Y-52640000D01*
X97939000Y-49760000D02*
X97939000Y-44761000D01*
X97899000Y-57631000D02*
X97899000Y-52640000D01*
X97899000Y-49760000D02*
X97899000Y-44769000D01*
X97859000Y-57622000D02*
X97859000Y-52640000D01*
X97859000Y-49760000D02*
X97859000Y-44778000D01*
X97819000Y-57613000D02*
X97819000Y-52640000D01*
X97819000Y-49760000D02*
X97819000Y-44787000D01*
X97779000Y-57604000D02*
X97779000Y-52640000D01*
X97779000Y-49760000D02*
X97779000Y-44796000D01*
X97739000Y-57594000D02*
X97739000Y-52640000D01*
X97739000Y-49760000D02*
X97739000Y-44806000D01*
X97699000Y-57584000D02*
X97699000Y-52640000D01*
X97699000Y-49760000D02*
X97699000Y-44816000D01*
X97659000Y-57574000D02*
X97659000Y-52640000D01*
X97659000Y-49760000D02*
X97659000Y-44826000D01*
X97619000Y-57564000D02*
X97619000Y-52640000D01*
X97619000Y-49760000D02*
X97619000Y-44836000D01*
X97579000Y-57553000D02*
X97579000Y-52640000D01*
X97579000Y-49760000D02*
X97579000Y-44847000D01*
X97539000Y-57542000D02*
X97539000Y-52640000D01*
X97539000Y-49760000D02*
X97539000Y-44858000D01*
X97499000Y-57531000D02*
X97499000Y-52640000D01*
X97499000Y-49760000D02*
X97499000Y-44869000D01*
X97459000Y-57520000D02*
X97459000Y-52640000D01*
X97459000Y-49760000D02*
X97459000Y-44880000D01*
X97419000Y-57508000D02*
X97419000Y-52640000D01*
X97419000Y-49760000D02*
X97419000Y-44892000D01*
X97379000Y-57496000D02*
X97379000Y-52640000D01*
X97379000Y-49760000D02*
X97379000Y-44904000D01*
X97339000Y-57484000D02*
X97339000Y-52640000D01*
X97339000Y-49760000D02*
X97339000Y-44916000D01*
X97299000Y-57471000D02*
X97299000Y-52640000D01*
X97299000Y-49760000D02*
X97299000Y-44929000D01*
X97259000Y-57458000D02*
X97259000Y-52640000D01*
X97259000Y-49760000D02*
X97259000Y-44942000D01*
X97219000Y-57445000D02*
X97219000Y-52640000D01*
X97219000Y-49760000D02*
X97219000Y-44955000D01*
X97179000Y-57432000D02*
X97179000Y-52640000D01*
X97179000Y-49760000D02*
X97179000Y-44968000D01*
X97139000Y-57418000D02*
X97139000Y-52640000D01*
X97139000Y-49760000D02*
X97139000Y-44982000D01*
X97099000Y-57404000D02*
X97099000Y-52640000D01*
X97099000Y-49760000D02*
X97099000Y-44996000D01*
X97059000Y-57390000D02*
X97059000Y-52640000D01*
X97059000Y-49760000D02*
X97059000Y-45010000D01*
X97019000Y-57375000D02*
X97019000Y-52640000D01*
X97019000Y-49760000D02*
X97019000Y-45025000D01*
X96979000Y-57361000D02*
X96979000Y-52640000D01*
X96979000Y-49760000D02*
X96979000Y-45039000D01*
X96939000Y-57346000D02*
X96939000Y-52640000D01*
X96939000Y-49760000D02*
X96939000Y-45054000D01*
X96899000Y-57330000D02*
X96899000Y-52640000D01*
X96899000Y-49760000D02*
X96899000Y-45070000D01*
X96859000Y-57314000D02*
X96859000Y-52640000D01*
X96859000Y-49760000D02*
X96859000Y-45086000D01*
X96819000Y-57298000D02*
X96819000Y-52640000D01*
X96819000Y-49760000D02*
X96819000Y-45102000D01*
X96779000Y-57282000D02*
X96779000Y-52640000D01*
X96779000Y-49760000D02*
X96779000Y-45118000D01*
X96739000Y-57265000D02*
X96739000Y-52640000D01*
X96739000Y-49760000D02*
X96739000Y-45135000D01*
X96699000Y-57249000D02*
X96699000Y-52640000D01*
X96699000Y-49760000D02*
X96699000Y-45151000D01*
X96659000Y-57231000D02*
X96659000Y-52640000D01*
X96659000Y-49760000D02*
X96659000Y-45169000D01*
X96619000Y-57214000D02*
X96619000Y-52640000D01*
X96619000Y-49760000D02*
X96619000Y-45186000D01*
X96579000Y-57196000D02*
X96579000Y-52640000D01*
X96579000Y-49760000D02*
X96579000Y-45204000D01*
X96539000Y-57178000D02*
X96539000Y-52640000D01*
X96539000Y-49760000D02*
X96539000Y-45222000D01*
X96499000Y-57159000D02*
X96499000Y-52640000D01*
X96499000Y-49760000D02*
X96499000Y-45241000D01*
X96459000Y-57140000D02*
X96459000Y-52640000D01*
X96459000Y-49760000D02*
X96459000Y-45260000D01*
X96419000Y-57121000D02*
X96419000Y-52640000D01*
X96419000Y-49760000D02*
X96419000Y-45279000D01*
X96379000Y-57102000D02*
X96379000Y-52640000D01*
X96379000Y-49760000D02*
X96379000Y-45298000D01*
X96339000Y-57082000D02*
X96339000Y-52640000D01*
X96339000Y-49760000D02*
X96339000Y-45318000D01*
X96299000Y-57062000D02*
X96299000Y-52640000D01*
X96299000Y-49760000D02*
X96299000Y-45338000D01*
X96259000Y-57041000D02*
X96259000Y-52640000D01*
X96259000Y-49760000D02*
X96259000Y-45359000D01*
X96219000Y-57020000D02*
X96219000Y-52640000D01*
X96219000Y-49760000D02*
X96219000Y-45380000D01*
X96179000Y-56999000D02*
X96179000Y-52640000D01*
X96179000Y-49760000D02*
X96179000Y-45401000D01*
X96139000Y-56978000D02*
X96139000Y-52640000D01*
X96139000Y-49760000D02*
X96139000Y-45422000D01*
X96099000Y-56956000D02*
X96099000Y-52640000D01*
X96099000Y-49760000D02*
X96099000Y-45444000D01*
X96059000Y-56933000D02*
X96059000Y-52640000D01*
X96059000Y-49760000D02*
X96059000Y-45467000D01*
X96019000Y-56911000D02*
X96019000Y-52640000D01*
X96019000Y-49760000D02*
X96019000Y-45489000D01*
X95979000Y-56888000D02*
X95979000Y-52640000D01*
X95979000Y-49760000D02*
X95979000Y-45512000D01*
X95939000Y-56864000D02*
X95939000Y-52640000D01*
X95939000Y-49760000D02*
X95939000Y-45536000D01*
X95899000Y-56841000D02*
X95899000Y-52640000D01*
X95899000Y-49760000D02*
X95899000Y-45559000D01*
X95859000Y-56817000D02*
X95859000Y-52640000D01*
X95859000Y-49760000D02*
X95859000Y-45583000D01*
X95819000Y-56792000D02*
X95819000Y-52640000D01*
X95819000Y-49760000D02*
X95819000Y-45608000D01*
X95779000Y-56767000D02*
X95779000Y-52640000D01*
X95779000Y-49760000D02*
X95779000Y-45633000D01*
X95739000Y-56742000D02*
X95739000Y-52640000D01*
X95739000Y-49760000D02*
X95739000Y-45658000D01*
X95699000Y-56716000D02*
X95699000Y-52640000D01*
X95699000Y-49760000D02*
X95699000Y-45684000D01*
X95659000Y-56690000D02*
X95659000Y-52640000D01*
X95659000Y-49760000D02*
X95659000Y-45710000D01*
X95619000Y-56663000D02*
X95619000Y-52640000D01*
X95619000Y-49760000D02*
X95619000Y-45737000D01*
X95579000Y-56636000D02*
X95579000Y-52640000D01*
X95579000Y-49760000D02*
X95579000Y-45764000D01*
X95539000Y-56609000D02*
X95539000Y-52640000D01*
X95539000Y-49760000D02*
X95539000Y-45791000D01*
X95499000Y-56581000D02*
X95499000Y-52640000D01*
X95499000Y-49760000D02*
X95499000Y-45819000D01*
X95459000Y-56553000D02*
X95459000Y-52640000D01*
X95459000Y-49760000D02*
X95459000Y-45847000D01*
X95419000Y-56524000D02*
X95419000Y-52640000D01*
X95419000Y-49760000D02*
X95419000Y-45876000D01*
X95379000Y-56495000D02*
X95379000Y-52640000D01*
X95379000Y-49760000D02*
X95379000Y-45905000D01*
X95339000Y-56465000D02*
X95339000Y-45935000D01*
X95299000Y-56435000D02*
X95299000Y-45965000D01*
X95259000Y-56405000D02*
X95259000Y-45995000D01*
X95219000Y-56374000D02*
X95219000Y-46026000D01*
X95179000Y-56342000D02*
X95179000Y-46058000D01*
X95139000Y-56310000D02*
X95139000Y-46090000D01*
X95099000Y-56278000D02*
X95099000Y-46122000D01*
X95059000Y-56244000D02*
X95059000Y-46156000D01*
X95019000Y-56211000D02*
X95019000Y-46189000D01*
X94979000Y-56177000D02*
X94979000Y-46223000D01*
X94939000Y-56142000D02*
X94939000Y-46258000D01*
X94899000Y-56107000D02*
X94899000Y-46293000D01*
X94859000Y-56071000D02*
X94859000Y-46329000D01*
X94819000Y-56034000D02*
X94819000Y-46366000D01*
X94779000Y-55997000D02*
X94779000Y-46403000D01*
X94739000Y-55960000D02*
X94739000Y-46440000D01*
X94699000Y-55921000D02*
X94699000Y-46479000D01*
X94659000Y-55882000D02*
X94659000Y-46518000D01*
X94619000Y-55843000D02*
X94619000Y-46557000D01*
X94579000Y-55802000D02*
X94579000Y-46598000D01*
X94539000Y-55761000D02*
X94539000Y-46639000D01*
X94499000Y-55719000D02*
X94499000Y-46681000D01*
X94459000Y-55677000D02*
X94459000Y-46723000D01*
X94419000Y-55634000D02*
X94419000Y-46766000D01*
X94379000Y-55590000D02*
X94379000Y-46810000D01*
X94339000Y-55545000D02*
X94339000Y-46855000D01*
X94299000Y-55499000D02*
X94299000Y-46901000D01*
X94259000Y-55453000D02*
X94259000Y-46947000D01*
X94219000Y-55405000D02*
X94219000Y-46995000D01*
X94179000Y-55357000D02*
X94179000Y-47043000D01*
X94139000Y-55308000D02*
X94139000Y-47092000D01*
X94099000Y-55257000D02*
X94099000Y-47143000D01*
X94059000Y-55206000D02*
X94059000Y-47194000D01*
X94019000Y-55154000D02*
X94019000Y-47246000D01*
X93979000Y-55100000D02*
X93979000Y-47300000D01*
X93939000Y-55046000D02*
X93939000Y-47354000D01*
X93899000Y-54990000D02*
X93899000Y-47410000D01*
X93859000Y-54933000D02*
X93859000Y-47467000D01*
X93819000Y-54875000D02*
X93819000Y-47525000D01*
X93779000Y-54815000D02*
X93779000Y-47585000D01*
X93739000Y-54754000D02*
X93739000Y-47646000D01*
X93699000Y-54691000D02*
X93699000Y-47709000D01*
X93659000Y-54627000D02*
X93659000Y-47773000D01*
X93619000Y-54561000D02*
X93619000Y-47839000D01*
X93579000Y-54493000D02*
X93579000Y-47907000D01*
X93539000Y-54423000D02*
X93539000Y-47977000D01*
X93499000Y-54352000D02*
X93499000Y-48048000D01*
X93459000Y-54278000D02*
X93459000Y-48122000D01*
X93419000Y-54202000D02*
X93419000Y-48198000D01*
X93379000Y-54123000D02*
X93379000Y-48277000D01*
X93339000Y-54042000D02*
X93339000Y-48358000D01*
X93299000Y-53958000D02*
X93299000Y-48442000D01*
X93259000Y-53870000D02*
X93259000Y-48530000D01*
X93219000Y-53779000D02*
X93219000Y-48621000D01*
X93179000Y-53684000D02*
X93179000Y-48716000D01*
X93139000Y-53585000D02*
X93139000Y-48815000D01*
X93099000Y-53481000D02*
X93099000Y-48919000D01*
X93059000Y-53371000D02*
X93059000Y-49029000D01*
X93019000Y-53255000D02*
X93019000Y-49145000D01*
X92979000Y-53131000D02*
X92979000Y-49269000D01*
X92939000Y-52998000D02*
X92939000Y-49402000D01*
X92899000Y-52853000D02*
X92899000Y-49547000D01*
X92859000Y-52694000D02*
X92859000Y-49706000D01*
X92819000Y-52515000D02*
X92819000Y-49885000D01*
X92779000Y-52307000D02*
X92779000Y-50093000D01*
X92739000Y-52050000D02*
X92739000Y-50350000D01*
X92699000Y-51675000D02*
X92699000Y-50725000D01*
X106384569Y-54915000D02*
X105084569Y-54915000D01*
X105734569Y-55565000D02*
X105734569Y-54265000D01*
%TO.C,C7*%
X137620000Y-51250000D02*
G75*
G03*
X137620000Y-51250000I-6620000J0D01*
G01*
X131000000Y-44670000D02*
X131000000Y-57830000D01*
X131040000Y-44670000D02*
X131040000Y-57830000D01*
X131080000Y-44670000D02*
X131080000Y-57830000D01*
X131120000Y-44671000D02*
X131120000Y-57829000D01*
X131160000Y-44671000D02*
X131160000Y-57829000D01*
X131200000Y-44673000D02*
X131200000Y-57827000D01*
X131240000Y-44674000D02*
X131240000Y-57826000D01*
X131280000Y-44675000D02*
X131280000Y-57825000D01*
X131320000Y-44677000D02*
X131320000Y-57823000D01*
X131360000Y-44679000D02*
X131360000Y-57821000D01*
X131400000Y-44682000D02*
X131400000Y-57818000D01*
X131440000Y-44684000D02*
X131440000Y-57816000D01*
X131480000Y-44687000D02*
X131480000Y-57813000D01*
X131520000Y-44690000D02*
X131520000Y-57810000D01*
X131560000Y-44693000D02*
X131560000Y-57807000D01*
X131600000Y-44697000D02*
X131600000Y-57803000D01*
X131640000Y-44701000D02*
X131640000Y-57799000D01*
X131680000Y-44705000D02*
X131680000Y-57795000D01*
X131721000Y-44709000D02*
X131721000Y-57791000D01*
X131761000Y-44713000D02*
X131761000Y-57787000D01*
X131801000Y-44718000D02*
X131801000Y-57782000D01*
X131841000Y-44723000D02*
X131841000Y-57777000D01*
X131881000Y-44728000D02*
X131881000Y-57772000D01*
X131921000Y-44734000D02*
X131921000Y-57766000D01*
X131961000Y-44739000D02*
X131961000Y-57761000D01*
X132001000Y-44745000D02*
X132001000Y-57755000D01*
X132041000Y-44752000D02*
X132041000Y-57748000D01*
X132081000Y-44758000D02*
X132081000Y-49810000D01*
X132081000Y-52690000D02*
X132081000Y-57742000D01*
X132121000Y-44765000D02*
X132121000Y-49810000D01*
X132121000Y-52690000D02*
X132121000Y-57735000D01*
X132161000Y-44772000D02*
X132161000Y-49810000D01*
X132161000Y-52690000D02*
X132161000Y-57728000D01*
X132201000Y-44779000D02*
X132201000Y-49810000D01*
X132201000Y-52690000D02*
X132201000Y-57721000D01*
X132241000Y-44787000D02*
X132241000Y-49810000D01*
X132241000Y-52690000D02*
X132241000Y-57713000D01*
X132281000Y-44794000D02*
X132281000Y-49810000D01*
X132281000Y-52690000D02*
X132281000Y-57706000D01*
X132321000Y-44802000D02*
X132321000Y-49810000D01*
X132321000Y-52690000D02*
X132321000Y-57698000D01*
X132361000Y-44811000D02*
X132361000Y-49810000D01*
X132361000Y-52690000D02*
X132361000Y-57689000D01*
X132401000Y-44819000D02*
X132401000Y-49810000D01*
X132401000Y-52690000D02*
X132401000Y-57681000D01*
X132441000Y-44828000D02*
X132441000Y-49810000D01*
X132441000Y-52690000D02*
X132441000Y-57672000D01*
X132481000Y-44837000D02*
X132481000Y-49810000D01*
X132481000Y-52690000D02*
X132481000Y-57663000D01*
X132521000Y-44846000D02*
X132521000Y-49810000D01*
X132521000Y-52690000D02*
X132521000Y-57654000D01*
X132561000Y-44856000D02*
X132561000Y-49810000D01*
X132561000Y-52690000D02*
X132561000Y-57644000D01*
X132601000Y-44866000D02*
X132601000Y-49810000D01*
X132601000Y-52690000D02*
X132601000Y-57634000D01*
X132641000Y-44876000D02*
X132641000Y-49810000D01*
X132641000Y-52690000D02*
X132641000Y-57624000D01*
X132681000Y-44886000D02*
X132681000Y-49810000D01*
X132681000Y-52690000D02*
X132681000Y-57614000D01*
X132721000Y-44897000D02*
X132721000Y-49810000D01*
X132721000Y-52690000D02*
X132721000Y-57603000D01*
X132761000Y-44908000D02*
X132761000Y-49810000D01*
X132761000Y-52690000D02*
X132761000Y-57592000D01*
X132801000Y-44919000D02*
X132801000Y-49810000D01*
X132801000Y-52690000D02*
X132801000Y-57581000D01*
X132841000Y-44930000D02*
X132841000Y-49810000D01*
X132841000Y-52690000D02*
X132841000Y-57570000D01*
X132881000Y-44942000D02*
X132881000Y-49810000D01*
X132881000Y-52690000D02*
X132881000Y-57558000D01*
X132921000Y-44954000D02*
X132921000Y-49810000D01*
X132921000Y-52690000D02*
X132921000Y-57546000D01*
X132961000Y-44966000D02*
X132961000Y-49810000D01*
X132961000Y-52690000D02*
X132961000Y-57534000D01*
X133001000Y-44979000D02*
X133001000Y-49810000D01*
X133001000Y-52690000D02*
X133001000Y-57521000D01*
X133041000Y-44992000D02*
X133041000Y-49810000D01*
X133041000Y-52690000D02*
X133041000Y-57508000D01*
X133081000Y-45005000D02*
X133081000Y-49810000D01*
X133081000Y-52690000D02*
X133081000Y-57495000D01*
X133121000Y-45018000D02*
X133121000Y-49810000D01*
X133121000Y-52690000D02*
X133121000Y-57482000D01*
X133161000Y-45032000D02*
X133161000Y-49810000D01*
X133161000Y-52690000D02*
X133161000Y-57468000D01*
X133201000Y-45046000D02*
X133201000Y-49810000D01*
X133201000Y-52690000D02*
X133201000Y-57454000D01*
X133241000Y-45060000D02*
X133241000Y-49810000D01*
X133241000Y-52690000D02*
X133241000Y-57440000D01*
X133281000Y-45075000D02*
X133281000Y-49810000D01*
X133281000Y-52690000D02*
X133281000Y-57425000D01*
X133321000Y-45089000D02*
X133321000Y-49810000D01*
X133321000Y-52690000D02*
X133321000Y-57411000D01*
X133361000Y-45104000D02*
X133361000Y-49810000D01*
X133361000Y-52690000D02*
X133361000Y-57396000D01*
X133401000Y-45120000D02*
X133401000Y-49810000D01*
X133401000Y-52690000D02*
X133401000Y-57380000D01*
X133441000Y-45136000D02*
X133441000Y-49810000D01*
X133441000Y-52690000D02*
X133441000Y-57364000D01*
X133481000Y-45152000D02*
X133481000Y-49810000D01*
X133481000Y-52690000D02*
X133481000Y-57348000D01*
X133521000Y-45168000D02*
X133521000Y-49810000D01*
X133521000Y-52690000D02*
X133521000Y-57332000D01*
X133561000Y-45185000D02*
X133561000Y-49810000D01*
X133561000Y-52690000D02*
X133561000Y-57315000D01*
X133601000Y-45201000D02*
X133601000Y-49810000D01*
X133601000Y-52690000D02*
X133601000Y-57299000D01*
X133641000Y-45219000D02*
X133641000Y-49810000D01*
X133641000Y-52690000D02*
X133641000Y-57281000D01*
X133681000Y-45236000D02*
X133681000Y-49810000D01*
X133681000Y-52690000D02*
X133681000Y-57264000D01*
X133721000Y-45254000D02*
X133721000Y-49810000D01*
X133721000Y-52690000D02*
X133721000Y-57246000D01*
X133761000Y-45272000D02*
X133761000Y-49810000D01*
X133761000Y-52690000D02*
X133761000Y-57228000D01*
X133801000Y-45291000D02*
X133801000Y-49810000D01*
X133801000Y-52690000D02*
X133801000Y-57209000D01*
X133841000Y-45310000D02*
X133841000Y-49810000D01*
X133841000Y-52690000D02*
X133841000Y-57190000D01*
X133881000Y-45329000D02*
X133881000Y-49810000D01*
X133881000Y-52690000D02*
X133881000Y-57171000D01*
X133921000Y-45348000D02*
X133921000Y-49810000D01*
X133921000Y-52690000D02*
X133921000Y-57152000D01*
X133961000Y-45368000D02*
X133961000Y-49810000D01*
X133961000Y-52690000D02*
X133961000Y-57132000D01*
X134001000Y-45388000D02*
X134001000Y-49810000D01*
X134001000Y-52690000D02*
X134001000Y-57112000D01*
X134041000Y-45409000D02*
X134041000Y-49810000D01*
X134041000Y-52690000D02*
X134041000Y-57091000D01*
X134081000Y-45430000D02*
X134081000Y-49810000D01*
X134081000Y-52690000D02*
X134081000Y-57070000D01*
X134121000Y-45451000D02*
X134121000Y-49810000D01*
X134121000Y-52690000D02*
X134121000Y-57049000D01*
X134161000Y-45472000D02*
X134161000Y-49810000D01*
X134161000Y-52690000D02*
X134161000Y-57028000D01*
X134201000Y-45494000D02*
X134201000Y-49810000D01*
X134201000Y-52690000D02*
X134201000Y-57006000D01*
X134241000Y-45517000D02*
X134241000Y-49810000D01*
X134241000Y-52690000D02*
X134241000Y-56983000D01*
X134281000Y-45539000D02*
X134281000Y-49810000D01*
X134281000Y-52690000D02*
X134281000Y-56961000D01*
X134321000Y-45562000D02*
X134321000Y-49810000D01*
X134321000Y-52690000D02*
X134321000Y-56938000D01*
X134361000Y-45586000D02*
X134361000Y-49810000D01*
X134361000Y-52690000D02*
X134361000Y-56914000D01*
X134401000Y-45609000D02*
X134401000Y-49810000D01*
X134401000Y-52690000D02*
X134401000Y-56891000D01*
X134441000Y-45633000D02*
X134441000Y-49810000D01*
X134441000Y-52690000D02*
X134441000Y-56867000D01*
X134481000Y-45658000D02*
X134481000Y-49810000D01*
X134481000Y-52690000D02*
X134481000Y-56842000D01*
X134521000Y-45683000D02*
X134521000Y-49810000D01*
X134521000Y-52690000D02*
X134521000Y-56817000D01*
X134561000Y-45708000D02*
X134561000Y-49810000D01*
X134561000Y-52690000D02*
X134561000Y-56792000D01*
X134601000Y-45734000D02*
X134601000Y-49810000D01*
X134601000Y-52690000D02*
X134601000Y-56766000D01*
X134641000Y-45760000D02*
X134641000Y-49810000D01*
X134641000Y-52690000D02*
X134641000Y-56740000D01*
X134681000Y-45787000D02*
X134681000Y-49810000D01*
X134681000Y-52690000D02*
X134681000Y-56713000D01*
X134721000Y-45814000D02*
X134721000Y-49810000D01*
X134721000Y-52690000D02*
X134721000Y-56686000D01*
X134761000Y-45841000D02*
X134761000Y-49810000D01*
X134761000Y-52690000D02*
X134761000Y-56659000D01*
X134801000Y-45869000D02*
X134801000Y-49810000D01*
X134801000Y-52690000D02*
X134801000Y-56631000D01*
X134841000Y-45897000D02*
X134841000Y-49810000D01*
X134841000Y-52690000D02*
X134841000Y-56603000D01*
X134881000Y-45926000D02*
X134881000Y-49810000D01*
X134881000Y-52690000D02*
X134881000Y-56574000D01*
X134921000Y-45955000D02*
X134921000Y-49810000D01*
X134921000Y-52690000D02*
X134921000Y-56545000D01*
X134961000Y-45985000D02*
X134961000Y-56515000D01*
X135001000Y-46015000D02*
X135001000Y-56485000D01*
X135041000Y-46045000D02*
X135041000Y-56455000D01*
X135081000Y-46076000D02*
X135081000Y-56424000D01*
X135121000Y-46108000D02*
X135121000Y-56392000D01*
X135161000Y-46140000D02*
X135161000Y-56360000D01*
X135201000Y-46172000D02*
X135201000Y-56328000D01*
X135241000Y-46206000D02*
X135241000Y-56294000D01*
X135281000Y-46239000D02*
X135281000Y-56261000D01*
X135321000Y-46273000D02*
X135321000Y-56227000D01*
X135361000Y-46308000D02*
X135361000Y-56192000D01*
X135401000Y-46343000D02*
X135401000Y-56157000D01*
X135441000Y-46379000D02*
X135441000Y-56121000D01*
X135481000Y-46416000D02*
X135481000Y-56084000D01*
X135521000Y-46453000D02*
X135521000Y-56047000D01*
X135561000Y-46490000D02*
X135561000Y-56010000D01*
X135601000Y-46529000D02*
X135601000Y-55971000D01*
X135641000Y-46568000D02*
X135641000Y-55932000D01*
X135681000Y-46607000D02*
X135681000Y-55893000D01*
X135721000Y-46648000D02*
X135721000Y-55852000D01*
X135761000Y-46689000D02*
X135761000Y-55811000D01*
X135801000Y-46731000D02*
X135801000Y-55769000D01*
X135841000Y-46773000D02*
X135841000Y-55727000D01*
X135881000Y-46816000D02*
X135881000Y-55684000D01*
X135921000Y-46860000D02*
X135921000Y-55640000D01*
X135961000Y-46905000D02*
X135961000Y-55595000D01*
X136001000Y-46951000D02*
X136001000Y-55549000D01*
X136041000Y-46997000D02*
X136041000Y-55503000D01*
X136081000Y-47045000D02*
X136081000Y-55455000D01*
X136121000Y-47093000D02*
X136121000Y-55407000D01*
X136161000Y-47142000D02*
X136161000Y-55358000D01*
X136201000Y-47193000D02*
X136201000Y-55307000D01*
X136241000Y-47244000D02*
X136241000Y-55256000D01*
X136281000Y-47296000D02*
X136281000Y-55204000D01*
X136321000Y-47350000D02*
X136321000Y-55150000D01*
X136361000Y-47404000D02*
X136361000Y-55096000D01*
X136401000Y-47460000D02*
X136401000Y-55040000D01*
X136441000Y-47517000D02*
X136441000Y-54983000D01*
X136481000Y-47575000D02*
X136481000Y-54925000D01*
X136521000Y-47635000D02*
X136521000Y-54865000D01*
X136561000Y-47696000D02*
X136561000Y-54804000D01*
X136601000Y-47759000D02*
X136601000Y-54741000D01*
X136641000Y-47823000D02*
X136641000Y-54677000D01*
X136681000Y-47889000D02*
X136681000Y-54611000D01*
X136721000Y-47957000D02*
X136721000Y-54543000D01*
X136761000Y-48027000D02*
X136761000Y-54473000D01*
X136801000Y-48098000D02*
X136801000Y-54402000D01*
X136841000Y-48172000D02*
X136841000Y-54328000D01*
X136881000Y-48248000D02*
X136881000Y-54252000D01*
X136921000Y-48327000D02*
X136921000Y-54173000D01*
X136961000Y-48408000D02*
X136961000Y-54092000D01*
X137001000Y-48492000D02*
X137001000Y-54008000D01*
X137041000Y-48580000D02*
X137041000Y-53920000D01*
X137081000Y-48671000D02*
X137081000Y-53829000D01*
X137121000Y-48766000D02*
X137121000Y-53734000D01*
X137161000Y-48865000D02*
X137161000Y-53635000D01*
X137201000Y-48969000D02*
X137201000Y-53531000D01*
X137241000Y-49079000D02*
X137241000Y-53421000D01*
X137281000Y-49195000D02*
X137281000Y-53305000D01*
X137321000Y-49319000D02*
X137321000Y-53181000D01*
X137361000Y-49452000D02*
X137361000Y-53048000D01*
X137401000Y-49597000D02*
X137401000Y-52903000D01*
X137441000Y-49756000D02*
X137441000Y-52744000D01*
X137481000Y-49935000D02*
X137481000Y-52565000D01*
X137521000Y-50143000D02*
X137521000Y-52357000D01*
X137561000Y-50400000D02*
X137561000Y-52100000D01*
X137601000Y-50775000D02*
X137601000Y-51725000D01*
X123915431Y-47535000D02*
X125215431Y-47535000D01*
X124565431Y-46885000D02*
X124565431Y-48185000D01*
%TO.C,C6*%
X96730000Y-37430000D02*
X101270000Y-37430000D01*
X96730000Y-39570000D02*
X101270000Y-39570000D01*
X96730000Y-37430000D02*
X96730000Y-37445000D01*
X96730000Y-39555000D02*
X96730000Y-39570000D01*
X101270000Y-37430000D02*
X101270000Y-37445000D01*
X101270000Y-39555000D02*
X101270000Y-39570000D01*
%TO.C,C5*%
X123570000Y-49730000D02*
X123570000Y-54270000D01*
X121430000Y-49730000D02*
X121430000Y-54270000D01*
X123570000Y-49730000D02*
X123555000Y-49730000D01*
X121445000Y-49730000D02*
X121430000Y-49730000D01*
X123570000Y-54270000D02*
X123555000Y-54270000D01*
X121445000Y-54270000D02*
X121430000Y-54270000D01*
%TO.C,C4*%
X133620000Y-41150000D02*
G75*
G03*
X133620000Y-41150000I-2620000J0D01*
G01*
X128420000Y-41150000D02*
X133580000Y-41150000D01*
X128420000Y-41110000D02*
X133580000Y-41110000D01*
X128421000Y-41070000D02*
X133579000Y-41070000D01*
X128422000Y-41030000D02*
X133578000Y-41030000D01*
X128424000Y-40990000D02*
X133576000Y-40990000D01*
X128427000Y-40950000D02*
X133573000Y-40950000D01*
X128431000Y-40910000D02*
X129960000Y-40910000D01*
X132040000Y-40910000D02*
X133569000Y-40910000D01*
X128435000Y-40870000D02*
X129960000Y-40870000D01*
X132040000Y-40870000D02*
X133565000Y-40870000D01*
X128439000Y-40830000D02*
X129960000Y-40830000D01*
X132040000Y-40830000D02*
X133561000Y-40830000D01*
X128444000Y-40790000D02*
X129960000Y-40790000D01*
X132040000Y-40790000D02*
X133556000Y-40790000D01*
X128450000Y-40750000D02*
X129960000Y-40750000D01*
X132040000Y-40750000D02*
X133550000Y-40750000D01*
X128457000Y-40710000D02*
X129960000Y-40710000D01*
X132040000Y-40710000D02*
X133543000Y-40710000D01*
X128464000Y-40670000D02*
X129960000Y-40670000D01*
X132040000Y-40670000D02*
X133536000Y-40670000D01*
X128472000Y-40630000D02*
X129960000Y-40630000D01*
X132040000Y-40630000D02*
X133528000Y-40630000D01*
X128480000Y-40590000D02*
X129960000Y-40590000D01*
X132040000Y-40590000D02*
X133520000Y-40590000D01*
X128489000Y-40550000D02*
X129960000Y-40550000D01*
X132040000Y-40550000D02*
X133511000Y-40550000D01*
X128499000Y-40510000D02*
X129960000Y-40510000D01*
X132040000Y-40510000D02*
X133501000Y-40510000D01*
X128509000Y-40470000D02*
X129960000Y-40470000D01*
X132040000Y-40470000D02*
X133491000Y-40470000D01*
X128520000Y-40429000D02*
X129960000Y-40429000D01*
X132040000Y-40429000D02*
X133480000Y-40429000D01*
X128532000Y-40389000D02*
X129960000Y-40389000D01*
X132040000Y-40389000D02*
X133468000Y-40389000D01*
X128545000Y-40349000D02*
X129960000Y-40349000D01*
X132040000Y-40349000D02*
X133455000Y-40349000D01*
X128558000Y-40309000D02*
X129960000Y-40309000D01*
X132040000Y-40309000D02*
X133442000Y-40309000D01*
X128572000Y-40269000D02*
X129960000Y-40269000D01*
X132040000Y-40269000D02*
X133428000Y-40269000D01*
X128586000Y-40229000D02*
X129960000Y-40229000D01*
X132040000Y-40229000D02*
X133414000Y-40229000D01*
X128602000Y-40189000D02*
X129960000Y-40189000D01*
X132040000Y-40189000D02*
X133398000Y-40189000D01*
X128618000Y-40149000D02*
X129960000Y-40149000D01*
X132040000Y-40149000D02*
X133382000Y-40149000D01*
X128635000Y-40109000D02*
X129960000Y-40109000D01*
X132040000Y-40109000D02*
X133365000Y-40109000D01*
X128652000Y-40069000D02*
X129960000Y-40069000D01*
X132040000Y-40069000D02*
X133348000Y-40069000D01*
X128671000Y-40029000D02*
X129960000Y-40029000D01*
X132040000Y-40029000D02*
X133329000Y-40029000D01*
X128690000Y-39989000D02*
X129960000Y-39989000D01*
X132040000Y-39989000D02*
X133310000Y-39989000D01*
X128710000Y-39949000D02*
X129960000Y-39949000D01*
X132040000Y-39949000D02*
X133290000Y-39949000D01*
X128732000Y-39909000D02*
X129960000Y-39909000D01*
X132040000Y-39909000D02*
X133268000Y-39909000D01*
X128753000Y-39869000D02*
X129960000Y-39869000D01*
X132040000Y-39869000D02*
X133247000Y-39869000D01*
X128776000Y-39829000D02*
X129960000Y-39829000D01*
X132040000Y-39829000D02*
X133224000Y-39829000D01*
X128800000Y-39789000D02*
X129960000Y-39789000D01*
X132040000Y-39789000D02*
X133200000Y-39789000D01*
X128825000Y-39749000D02*
X129960000Y-39749000D01*
X132040000Y-39749000D02*
X133175000Y-39749000D01*
X128851000Y-39709000D02*
X129960000Y-39709000D01*
X132040000Y-39709000D02*
X133149000Y-39709000D01*
X128878000Y-39669000D02*
X129960000Y-39669000D01*
X132040000Y-39669000D02*
X133122000Y-39669000D01*
X128905000Y-39629000D02*
X129960000Y-39629000D01*
X132040000Y-39629000D02*
X133095000Y-39629000D01*
X128935000Y-39589000D02*
X129960000Y-39589000D01*
X132040000Y-39589000D02*
X133065000Y-39589000D01*
X128965000Y-39549000D02*
X129960000Y-39549000D01*
X132040000Y-39549000D02*
X133035000Y-39549000D01*
X128996000Y-39509000D02*
X129960000Y-39509000D01*
X132040000Y-39509000D02*
X133004000Y-39509000D01*
X129029000Y-39469000D02*
X129960000Y-39469000D01*
X132040000Y-39469000D02*
X132971000Y-39469000D01*
X129063000Y-39429000D02*
X129960000Y-39429000D01*
X132040000Y-39429000D02*
X132937000Y-39429000D01*
X129099000Y-39389000D02*
X129960000Y-39389000D01*
X132040000Y-39389000D02*
X132901000Y-39389000D01*
X129136000Y-39349000D02*
X129960000Y-39349000D01*
X132040000Y-39349000D02*
X132864000Y-39349000D01*
X129174000Y-39309000D02*
X129960000Y-39309000D01*
X132040000Y-39309000D02*
X132826000Y-39309000D01*
X129215000Y-39269000D02*
X129960000Y-39269000D01*
X132040000Y-39269000D02*
X132785000Y-39269000D01*
X129257000Y-39229000D02*
X129960000Y-39229000D01*
X132040000Y-39229000D02*
X132743000Y-39229000D01*
X129301000Y-39189000D02*
X129960000Y-39189000D01*
X132040000Y-39189000D02*
X132699000Y-39189000D01*
X129347000Y-39149000D02*
X129960000Y-39149000D01*
X132040000Y-39149000D02*
X132653000Y-39149000D01*
X129395000Y-39109000D02*
X129960000Y-39109000D01*
X132040000Y-39109000D02*
X132605000Y-39109000D01*
X129446000Y-39069000D02*
X129960000Y-39069000D01*
X132040000Y-39069000D02*
X132554000Y-39069000D01*
X129500000Y-39029000D02*
X129960000Y-39029000D01*
X132040000Y-39029000D02*
X132500000Y-39029000D01*
X129557000Y-38989000D02*
X129960000Y-38989000D01*
X132040000Y-38989000D02*
X132443000Y-38989000D01*
X129617000Y-38949000D02*
X129960000Y-38949000D01*
X132040000Y-38949000D02*
X132383000Y-38949000D01*
X129681000Y-38909000D02*
X129960000Y-38909000D01*
X132040000Y-38909000D02*
X132319000Y-38909000D01*
X129749000Y-38869000D02*
X129960000Y-38869000D01*
X132040000Y-38869000D02*
X132251000Y-38869000D01*
X129822000Y-38829000D02*
X132178000Y-38829000D01*
X129902000Y-38789000D02*
X132098000Y-38789000D01*
X129989000Y-38749000D02*
X132011000Y-38749000D01*
X130085000Y-38709000D02*
X131915000Y-38709000D01*
X130195000Y-38669000D02*
X131805000Y-38669000D01*
X130323000Y-38629000D02*
X131677000Y-38629000D01*
X130482000Y-38589000D02*
X131518000Y-38589000D01*
X130716000Y-38549000D02*
X131284000Y-38549000D01*
X129525000Y-43954775D02*
X129525000Y-43454775D01*
X129275000Y-43704775D02*
X129775000Y-43704775D01*
%TO.C,C3*%
X112070000Y-46230000D02*
X112070000Y-50770000D01*
X109930000Y-46230000D02*
X109930000Y-50770000D01*
X112070000Y-46230000D02*
X112055000Y-46230000D01*
X109945000Y-46230000D02*
X109930000Y-46230000D01*
X112070000Y-50770000D02*
X112055000Y-50770000D01*
X109945000Y-50770000D02*
X109930000Y-50770000D01*
%TO.C,C2*%
X91620000Y-67750000D02*
G75*
G03*
X91620000Y-67750000I-2620000J0D01*
G01*
X86420000Y-67750000D02*
X91580000Y-67750000D01*
X86420000Y-67710000D02*
X91580000Y-67710000D01*
X86421000Y-67670000D02*
X91579000Y-67670000D01*
X86422000Y-67630000D02*
X91578000Y-67630000D01*
X86424000Y-67590000D02*
X91576000Y-67590000D01*
X86427000Y-67550000D02*
X91573000Y-67550000D01*
X86431000Y-67510000D02*
X87960000Y-67510000D01*
X90040000Y-67510000D02*
X91569000Y-67510000D01*
X86435000Y-67470000D02*
X87960000Y-67470000D01*
X90040000Y-67470000D02*
X91565000Y-67470000D01*
X86439000Y-67430000D02*
X87960000Y-67430000D01*
X90040000Y-67430000D02*
X91561000Y-67430000D01*
X86444000Y-67390000D02*
X87960000Y-67390000D01*
X90040000Y-67390000D02*
X91556000Y-67390000D01*
X86450000Y-67350000D02*
X87960000Y-67350000D01*
X90040000Y-67350000D02*
X91550000Y-67350000D01*
X86457000Y-67310000D02*
X87960000Y-67310000D01*
X90040000Y-67310000D02*
X91543000Y-67310000D01*
X86464000Y-67270000D02*
X87960000Y-67270000D01*
X90040000Y-67270000D02*
X91536000Y-67270000D01*
X86472000Y-67230000D02*
X87960000Y-67230000D01*
X90040000Y-67230000D02*
X91528000Y-67230000D01*
X86480000Y-67190000D02*
X87960000Y-67190000D01*
X90040000Y-67190000D02*
X91520000Y-67190000D01*
X86489000Y-67150000D02*
X87960000Y-67150000D01*
X90040000Y-67150000D02*
X91511000Y-67150000D01*
X86499000Y-67110000D02*
X87960000Y-67110000D01*
X90040000Y-67110000D02*
X91501000Y-67110000D01*
X86509000Y-67070000D02*
X87960000Y-67070000D01*
X90040000Y-67070000D02*
X91491000Y-67070000D01*
X86520000Y-67029000D02*
X87960000Y-67029000D01*
X90040000Y-67029000D02*
X91480000Y-67029000D01*
X86532000Y-66989000D02*
X87960000Y-66989000D01*
X90040000Y-66989000D02*
X91468000Y-66989000D01*
X86545000Y-66949000D02*
X87960000Y-66949000D01*
X90040000Y-66949000D02*
X91455000Y-66949000D01*
X86558000Y-66909000D02*
X87960000Y-66909000D01*
X90040000Y-66909000D02*
X91442000Y-66909000D01*
X86572000Y-66869000D02*
X87960000Y-66869000D01*
X90040000Y-66869000D02*
X91428000Y-66869000D01*
X86586000Y-66829000D02*
X87960000Y-66829000D01*
X90040000Y-66829000D02*
X91414000Y-66829000D01*
X86602000Y-66789000D02*
X87960000Y-66789000D01*
X90040000Y-66789000D02*
X91398000Y-66789000D01*
X86618000Y-66749000D02*
X87960000Y-66749000D01*
X90040000Y-66749000D02*
X91382000Y-66749000D01*
X86635000Y-66709000D02*
X87960000Y-66709000D01*
X90040000Y-66709000D02*
X91365000Y-66709000D01*
X86652000Y-66669000D02*
X87960000Y-66669000D01*
X90040000Y-66669000D02*
X91348000Y-66669000D01*
X86671000Y-66629000D02*
X87960000Y-66629000D01*
X90040000Y-66629000D02*
X91329000Y-66629000D01*
X86690000Y-66589000D02*
X87960000Y-66589000D01*
X90040000Y-66589000D02*
X91310000Y-66589000D01*
X86710000Y-66549000D02*
X87960000Y-66549000D01*
X90040000Y-66549000D02*
X91290000Y-66549000D01*
X86732000Y-66509000D02*
X87960000Y-66509000D01*
X90040000Y-66509000D02*
X91268000Y-66509000D01*
X86753000Y-66469000D02*
X87960000Y-66469000D01*
X90040000Y-66469000D02*
X91247000Y-66469000D01*
X86776000Y-66429000D02*
X87960000Y-66429000D01*
X90040000Y-66429000D02*
X91224000Y-66429000D01*
X86800000Y-66389000D02*
X87960000Y-66389000D01*
X90040000Y-66389000D02*
X91200000Y-66389000D01*
X86825000Y-66349000D02*
X87960000Y-66349000D01*
X90040000Y-66349000D02*
X91175000Y-66349000D01*
X86851000Y-66309000D02*
X87960000Y-66309000D01*
X90040000Y-66309000D02*
X91149000Y-66309000D01*
X86878000Y-66269000D02*
X87960000Y-66269000D01*
X90040000Y-66269000D02*
X91122000Y-66269000D01*
X86905000Y-66229000D02*
X87960000Y-66229000D01*
X90040000Y-66229000D02*
X91095000Y-66229000D01*
X86935000Y-66189000D02*
X87960000Y-66189000D01*
X90040000Y-66189000D02*
X91065000Y-66189000D01*
X86965000Y-66149000D02*
X87960000Y-66149000D01*
X90040000Y-66149000D02*
X91035000Y-66149000D01*
X86996000Y-66109000D02*
X87960000Y-66109000D01*
X90040000Y-66109000D02*
X91004000Y-66109000D01*
X87029000Y-66069000D02*
X87960000Y-66069000D01*
X90040000Y-66069000D02*
X90971000Y-66069000D01*
X87063000Y-66029000D02*
X87960000Y-66029000D01*
X90040000Y-66029000D02*
X90937000Y-66029000D01*
X87099000Y-65989000D02*
X87960000Y-65989000D01*
X90040000Y-65989000D02*
X90901000Y-65989000D01*
X87136000Y-65949000D02*
X87960000Y-65949000D01*
X90040000Y-65949000D02*
X90864000Y-65949000D01*
X87174000Y-65909000D02*
X87960000Y-65909000D01*
X90040000Y-65909000D02*
X90826000Y-65909000D01*
X87215000Y-65869000D02*
X87960000Y-65869000D01*
X90040000Y-65869000D02*
X90785000Y-65869000D01*
X87257000Y-65829000D02*
X87960000Y-65829000D01*
X90040000Y-65829000D02*
X90743000Y-65829000D01*
X87301000Y-65789000D02*
X87960000Y-65789000D01*
X90040000Y-65789000D02*
X90699000Y-65789000D01*
X87347000Y-65749000D02*
X87960000Y-65749000D01*
X90040000Y-65749000D02*
X90653000Y-65749000D01*
X87395000Y-65709000D02*
X87960000Y-65709000D01*
X90040000Y-65709000D02*
X90605000Y-65709000D01*
X87446000Y-65669000D02*
X87960000Y-65669000D01*
X90040000Y-65669000D02*
X90554000Y-65669000D01*
X87500000Y-65629000D02*
X87960000Y-65629000D01*
X90040000Y-65629000D02*
X90500000Y-65629000D01*
X87557000Y-65589000D02*
X87960000Y-65589000D01*
X90040000Y-65589000D02*
X90443000Y-65589000D01*
X87617000Y-65549000D02*
X87960000Y-65549000D01*
X90040000Y-65549000D02*
X90383000Y-65549000D01*
X87681000Y-65509000D02*
X87960000Y-65509000D01*
X90040000Y-65509000D02*
X90319000Y-65509000D01*
X87749000Y-65469000D02*
X87960000Y-65469000D01*
X90040000Y-65469000D02*
X90251000Y-65469000D01*
X87822000Y-65429000D02*
X90178000Y-65429000D01*
X87902000Y-65389000D02*
X90098000Y-65389000D01*
X87989000Y-65349000D02*
X90011000Y-65349000D01*
X88085000Y-65309000D02*
X89915000Y-65309000D01*
X88195000Y-65269000D02*
X89805000Y-65269000D01*
X88323000Y-65229000D02*
X89677000Y-65229000D01*
X88482000Y-65189000D02*
X89518000Y-65189000D01*
X88716000Y-65149000D02*
X89284000Y-65149000D01*
X87525000Y-70554775D02*
X87525000Y-70054775D01*
X87275000Y-70304775D02*
X87775000Y-70304775D01*
%TO.C,C1*%
X86020000Y-67750000D02*
G75*
G03*
X86020000Y-67750000I-2620000J0D01*
G01*
X80820000Y-67750000D02*
X85980000Y-67750000D01*
X80820000Y-67710000D02*
X85980000Y-67710000D01*
X80821000Y-67670000D02*
X85979000Y-67670000D01*
X80822000Y-67630000D02*
X85978000Y-67630000D01*
X80824000Y-67590000D02*
X85976000Y-67590000D01*
X80827000Y-67550000D02*
X85973000Y-67550000D01*
X80831000Y-67510000D02*
X82360000Y-67510000D01*
X84440000Y-67510000D02*
X85969000Y-67510000D01*
X80835000Y-67470000D02*
X82360000Y-67470000D01*
X84440000Y-67470000D02*
X85965000Y-67470000D01*
X80839000Y-67430000D02*
X82360000Y-67430000D01*
X84440000Y-67430000D02*
X85961000Y-67430000D01*
X80844000Y-67390000D02*
X82360000Y-67390000D01*
X84440000Y-67390000D02*
X85956000Y-67390000D01*
X80850000Y-67350000D02*
X82360000Y-67350000D01*
X84440000Y-67350000D02*
X85950000Y-67350000D01*
X80857000Y-67310000D02*
X82360000Y-67310000D01*
X84440000Y-67310000D02*
X85943000Y-67310000D01*
X80864000Y-67270000D02*
X82360000Y-67270000D01*
X84440000Y-67270000D02*
X85936000Y-67270000D01*
X80872000Y-67230000D02*
X82360000Y-67230000D01*
X84440000Y-67230000D02*
X85928000Y-67230000D01*
X80880000Y-67190000D02*
X82360000Y-67190000D01*
X84440000Y-67190000D02*
X85920000Y-67190000D01*
X80889000Y-67150000D02*
X82360000Y-67150000D01*
X84440000Y-67150000D02*
X85911000Y-67150000D01*
X80899000Y-67110000D02*
X82360000Y-67110000D01*
X84440000Y-67110000D02*
X85901000Y-67110000D01*
X80909000Y-67070000D02*
X82360000Y-67070000D01*
X84440000Y-67070000D02*
X85891000Y-67070000D01*
X80920000Y-67029000D02*
X82360000Y-67029000D01*
X84440000Y-67029000D02*
X85880000Y-67029000D01*
X80932000Y-66989000D02*
X82360000Y-66989000D01*
X84440000Y-66989000D02*
X85868000Y-66989000D01*
X80945000Y-66949000D02*
X82360000Y-66949000D01*
X84440000Y-66949000D02*
X85855000Y-66949000D01*
X80958000Y-66909000D02*
X82360000Y-66909000D01*
X84440000Y-66909000D02*
X85842000Y-66909000D01*
X80972000Y-66869000D02*
X82360000Y-66869000D01*
X84440000Y-66869000D02*
X85828000Y-66869000D01*
X80986000Y-66829000D02*
X82360000Y-66829000D01*
X84440000Y-66829000D02*
X85814000Y-66829000D01*
X81002000Y-66789000D02*
X82360000Y-66789000D01*
X84440000Y-66789000D02*
X85798000Y-66789000D01*
X81018000Y-66749000D02*
X82360000Y-66749000D01*
X84440000Y-66749000D02*
X85782000Y-66749000D01*
X81035000Y-66709000D02*
X82360000Y-66709000D01*
X84440000Y-66709000D02*
X85765000Y-66709000D01*
X81052000Y-66669000D02*
X82360000Y-66669000D01*
X84440000Y-66669000D02*
X85748000Y-66669000D01*
X81071000Y-66629000D02*
X82360000Y-66629000D01*
X84440000Y-66629000D02*
X85729000Y-66629000D01*
X81090000Y-66589000D02*
X82360000Y-66589000D01*
X84440000Y-66589000D02*
X85710000Y-66589000D01*
X81110000Y-66549000D02*
X82360000Y-66549000D01*
X84440000Y-66549000D02*
X85690000Y-66549000D01*
X81132000Y-66509000D02*
X82360000Y-66509000D01*
X84440000Y-66509000D02*
X85668000Y-66509000D01*
X81153000Y-66469000D02*
X82360000Y-66469000D01*
X84440000Y-66469000D02*
X85647000Y-66469000D01*
X81176000Y-66429000D02*
X82360000Y-66429000D01*
X84440000Y-66429000D02*
X85624000Y-66429000D01*
X81200000Y-66389000D02*
X82360000Y-66389000D01*
X84440000Y-66389000D02*
X85600000Y-66389000D01*
X81225000Y-66349000D02*
X82360000Y-66349000D01*
X84440000Y-66349000D02*
X85575000Y-66349000D01*
X81251000Y-66309000D02*
X82360000Y-66309000D01*
X84440000Y-66309000D02*
X85549000Y-66309000D01*
X81278000Y-66269000D02*
X82360000Y-66269000D01*
X84440000Y-66269000D02*
X85522000Y-66269000D01*
X81305000Y-66229000D02*
X82360000Y-66229000D01*
X84440000Y-66229000D02*
X85495000Y-66229000D01*
X81335000Y-66189000D02*
X82360000Y-66189000D01*
X84440000Y-66189000D02*
X85465000Y-66189000D01*
X81365000Y-66149000D02*
X82360000Y-66149000D01*
X84440000Y-66149000D02*
X85435000Y-66149000D01*
X81396000Y-66109000D02*
X82360000Y-66109000D01*
X84440000Y-66109000D02*
X85404000Y-66109000D01*
X81429000Y-66069000D02*
X82360000Y-66069000D01*
X84440000Y-66069000D02*
X85371000Y-66069000D01*
X81463000Y-66029000D02*
X82360000Y-66029000D01*
X84440000Y-66029000D02*
X85337000Y-66029000D01*
X81499000Y-65989000D02*
X82360000Y-65989000D01*
X84440000Y-65989000D02*
X85301000Y-65989000D01*
X81536000Y-65949000D02*
X82360000Y-65949000D01*
X84440000Y-65949000D02*
X85264000Y-65949000D01*
X81574000Y-65909000D02*
X82360000Y-65909000D01*
X84440000Y-65909000D02*
X85226000Y-65909000D01*
X81615000Y-65869000D02*
X82360000Y-65869000D01*
X84440000Y-65869000D02*
X85185000Y-65869000D01*
X81657000Y-65829000D02*
X82360000Y-65829000D01*
X84440000Y-65829000D02*
X85143000Y-65829000D01*
X81701000Y-65789000D02*
X82360000Y-65789000D01*
X84440000Y-65789000D02*
X85099000Y-65789000D01*
X81747000Y-65749000D02*
X82360000Y-65749000D01*
X84440000Y-65749000D02*
X85053000Y-65749000D01*
X81795000Y-65709000D02*
X82360000Y-65709000D01*
X84440000Y-65709000D02*
X85005000Y-65709000D01*
X81846000Y-65669000D02*
X82360000Y-65669000D01*
X84440000Y-65669000D02*
X84954000Y-65669000D01*
X81900000Y-65629000D02*
X82360000Y-65629000D01*
X84440000Y-65629000D02*
X84900000Y-65629000D01*
X81957000Y-65589000D02*
X82360000Y-65589000D01*
X84440000Y-65589000D02*
X84843000Y-65589000D01*
X82017000Y-65549000D02*
X82360000Y-65549000D01*
X84440000Y-65549000D02*
X84783000Y-65549000D01*
X82081000Y-65509000D02*
X82360000Y-65509000D01*
X84440000Y-65509000D02*
X84719000Y-65509000D01*
X82149000Y-65469000D02*
X82360000Y-65469000D01*
X84440000Y-65469000D02*
X84651000Y-65469000D01*
X82222000Y-65429000D02*
X84578000Y-65429000D01*
X82302000Y-65389000D02*
X84498000Y-65389000D01*
X82389000Y-65349000D02*
X84411000Y-65349000D01*
X82485000Y-65309000D02*
X84315000Y-65309000D01*
X82595000Y-65269000D02*
X84205000Y-65269000D01*
X82723000Y-65229000D02*
X84077000Y-65229000D01*
X82882000Y-65189000D02*
X83918000Y-65189000D01*
X83116000Y-65149000D02*
X83684000Y-65149000D01*
X81925000Y-70554775D02*
X81925000Y-70054775D01*
X81675000Y-70304775D02*
X82175000Y-70304775D01*
%TD*%
M02*
